<?xml version="1.0" encoding="UTF-8" standalone="no"?>
<svg
   width="180"
   height="380"
   viewBox="0 0 180 380"
   version="1.1"
   id="svg25"
   xmlns="http://www.w3.org/2000/svg"
   xmlns:svg="http://www.w3.org/2000/svg">
  <defs
     id="defs25" />
  <rect
     width="180"
     height="380"
     fill="#1F2A1F"
     id="rect1" />
  <rect
     width="180"
     height="22"
     fill="#FF4A0E"
     id="rect2" />
  <path
     d="m 57.588005,8.853 q -1.265,0 -1.991,0.847 -0.726,0.847 -0.726,2.321 0,1.463 0.671,2.321 0.682,0.847 2.035,0.847 0.517,0 0.979,-0.088 0.462,-0.088 0.902,-0.22 v 0.858 q -0.44,0.165 -0.913,0.242 -0.462,0.077 -1.111,0.077 -1.199,0 -2.002,-0.495 -0.803,-0.495 -1.21,-1.408 -0.396,-0.913 -0.396,-2.145 0,-1.188 0.429,-2.09 0.44,-0.913 1.287,-1.419 0.847,-0.517 2.057,-0.517 1.243,0 2.167,0.462 l -0.396,0.836 q -0.363,-0.165 -0.814,-0.297 -0.44,-0.132 -0.968,-0.132 z M 70.807,12.01 q 0,1.221 -0.418,2.134 -0.407,0.902 -1.21,1.408 -0.803,0.506 -1.991,0.506 -1.221,0 -2.035,-0.506 -0.803,-0.506 -1.199,-1.419 -0.396,-0.913 -0.396,-2.134 0,-1.21 0.396,-2.112 0.396,-0.902 1.199,-1.408 0.814,-0.506 2.046,-0.506 1.177,0 1.98,0.506 0.803,0.495 1.21,1.408 0.418,0.902 0.418,2.123 z m -6.204,0 q 0,1.485 0.627,2.343 0.627,0.847 1.958,0.847 1.342,0 1.958,-0.847 0.616,-0.858 0.616,-2.343 0,-1.485 -0.616,-2.321 -0.616,-0.847 -1.947,-0.847 -1.331,0 -1.969,0.847 -0.627,0.836 -0.627,2.321 z m 10.942002,3.938 V 8.094 h 0.99 v 6.974 h 3.432 v 0.88 z m 8.764001,0 V 8.094 h 0.99 v 6.974 h 3.432 v 0.88 z m 13.692,0 -0.946,-2.431 h -3.113 l -0.935,2.431 h -1.001 l 3.069,-7.887 h 0.891 l 3.058,7.887 z m -2.123,-5.687 q -0.033,-0.088 -0.11,-0.319 -0.077,-0.231 -0.154,-0.473 -0.066,-0.253 -0.11,-0.385 -0.077,0.341 -0.176,0.671 -0.099,0.319 -0.165,0.506 l -0.891,2.376 h 2.486 z M 105.181,8.094 q 1.54,0 2.244,0.605 0.704,0.605 0.704,1.705 0,0.649 -0.297,1.221 -0.286,0.561 -0.979,0.913 -0.682,0.352 -1.859,0.352 h -0.902 v 3.058 h -0.99 V 8.094 Z m -0.088,0.847 h -1.001 v 3.102 h 0.792 q 1.122,0 1.672,-0.363 0.55,-0.363 0.55,-1.232 0,-0.759 -0.484,-1.133 -0.484,-0.374 -1.529,-0.374 z m 12.119,4.906 q 0,1.045 -0.759,1.628 -0.759,0.583 -2.046,0.583 -0.66,0 -1.221,-0.099 -0.561,-0.099 -0.935,-0.275 v -0.946 q 0.396,0.176 0.979,0.319 0.594,0.143 1.221,0.143 0.88,0 1.32,-0.341 0.451,-0.341 0.451,-0.924 0,-0.385 -0.165,-0.649 -0.165,-0.264 -0.572,-0.484 -0.396,-0.231 -1.111,-0.484 -1.001,-0.363 -1.518,-0.891 -0.506,-0.528 -0.506,-1.441 0,-0.627 0.319,-1.067 0.319,-0.451 0.88,-0.693 0.572,-0.242 1.309,-0.242 0.649,0 1.188,0.121 0.539,0.121 0.979,0.319 l -0.308,0.847 q -0.407,-0.176 -0.891,-0.297 -0.473,-0.121 -0.99,-0.121 -0.737,0 -1.111,0.319 -0.374,0.308 -0.374,0.825 0,0.396 0.165,0.66 0.165,0.264 0.539,0.473 0.374,0.209 1.012,0.451 0.693,0.253 1.166,0.55 0.484,0.286 0.726,0.693 0.253,0.407 0.253,1.023 z m 8.973,2.101 h -4.389 V 8.094 h 4.389 v 0.869 h -3.399 v 2.453 h 3.201 v 0.858 h -3.201 v 2.805 h 3.399 z"
     id="text2"
     style="font-size:11px;font-family:'Nunito Sans', sans-serif;letter-spacing:3;dominant-baseline:middle;text-anchor:middle;fill:#0c100a"
     aria-label="COLLAPSE" />
  <!-- Section dividers -->
  <line
     x1="8"
     y1="165"
     x2="172"
     y2="165"
     stroke="#2E3A2E"
     stroke-width="0.75"
     id="line2" />
  <line
     x1="8"
     y1="260"
     x2="172"
     y2="260"
     stroke="#2E3A2E"
     stroke-width="0.75"
     id="line3" />
  <line
     x1="8"
     y1="298"
     x2="172"
     y2="298"
     stroke="#2E3A2E"
     stroke-width="0.75"
     id="line4" />
  <!-- ══════════════════════════════════════════════════════════ -->
  <!-- ROW 1: DRIVE (x=15.24mm→45px) | BUZZ switch (x=45.72mm→135px) -->
  <!-- Horizontal sat: atten(9.24mm→27px, y=50mm→148px)         -->
  <!--                 cv   (21.24mm→63px, y=50mm→148px)         -->
  <!-- ══════════════════════════════════════════════════════════ -->
  <!-- DRIVE knob + horizontal satellite -->
  <circle
     cx="45.0"
     cy="112.2"
     r="6.5"
     fill="#4A4A4A"
     stroke="#787878"
     stroke-width="0.75"
     id="circle4" />
  <circle
     cx="27.3"
     cy="147.6"
     r="4"
     fill="#363636"
     stroke="#666"
     stroke-width="0.5"
     id="circle5" />
  <circle
     cx="62.7"
     cy="147.6"
     r="5"
     fill="#251E0A"
     stroke="#E8C547"
     stroke-width="1.25"
     id="circle6" />
  <path
     d="m 40.09575,123.634 q 0,1.1765 -0.6435,1.7745 -0.637,0.5915 -1.781,0.5915 h -1.2935 v -4.641 h 1.43 q 0.702,0 1.2155,0.26 0.5135,0.26 0.793,0.767 0.2795,0.5005 0.2795,1.248 z m -0.6175,0.0195 q 0,-0.9295 -0.4615,-1.3585 -0.455,-0.4355 -1.2935,-0.4355 h -0.7605 v 3.64 h 0.6305 q 1.885,0 1.885,-1.846 z m 2.924997,-2.2945 q 0.8645,0 1.274,0.3315 0.416,0.325 0.416,0.988 0,0.3705 -0.1365,0.6175 -0.1365,0.247 -0.351,0.3965 -0.208,0.143 -0.442,0.2275 l 1.274,2.08 h -0.6825 l -1.1245,-1.9175 h -0.923 V 126 h -0.585 v -4.641 z m -0.0325,0.507 h -0.663 v 1.7225 h 0.6955 q 0.5655,0 0.8255,-0.221 0.26,-0.2275 0.26,-0.663 0,-0.455 -0.273,-0.6435 -0.273,-0.195 -0.845,-0.195 z M 46.472245,126 h -1.677 v -0.338 l 0.546,-0.1235 v -3.7115 l -0.546,-0.13 v -0.338 h 1.677 v 0.338 l -0.546,0.13 v 3.7115 l 0.546,0.1235 z m 4.166505,-4.641 -1.6575,4.641 h -0.585 l -1.6575,-4.641 h 0.611 l 1.0465,2.977 q 0.104,0.286 0.1755,0.5395 0.0715,0.247 0.117,0.4745 0.0455,-0.2275 0.117,-0.481 0.0715,-0.2535 0.1755,-0.546 l 1.04,-2.964 z M 53.862752,126 h -2.5935 v -4.641 h 2.5935 v 0.5135 h -2.0085 v 1.4495 h 1.8915 v 0.507 h -1.8915 v 1.6575 h 2.0085 z"
     id="text6"
     style="font-size:6.5px;font-family:'Nunito Sans', sans-serif;text-anchor:middle;fill:#c8c0b0"
     aria-label="DRIVE" />
  <!-- BUZZ 3-way switch placeholder (CKSSThree, ~13px wide × 26px tall) -->
  <rect
     x="127.5"
     y="111.7"
     width="15"
     height="28"
     rx="3"
     fill="#2A2A2A"
     stroke="#AA8A50"
     stroke-width="1"
     id="rect6" />
  <!-- Switch position indicators -->
  <path
     d="m 132.79725,106.031 q 0,0.6105 -0.209,1.067 -0.2035,0.451 -0.605,0.704 -0.4015,0.253 -0.9955,0.253 -0.6105,0 -1.0175,-0.253 -0.4015,-0.253 -0.5995,-0.7095 -0.198,-0.4565 -0.198,-1.067 0,-0.605 0.198,-1.056 0.198,-0.451 0.5995,-0.704 0.407,-0.253 1.023,-0.253 0.5885,0 0.99,0.253 0.4015,0.2475 0.605,0.704 0.209,0.451 0.209,1.0615 z m -3.102,0 q 0,0.7425 0.3135,1.1715 0.3135,0.4235 0.979,0.4235 0.671,0 0.979,-0.4235 0.308,-0.429 0.308,-1.1715 0,-0.7425 -0.308,-1.1605 -0.308,-0.4235 -0.9735,-0.4235 -0.6655,0 -0.9845,0.4235 -0.3135,0.418 -0.3135,1.1605 z m 7.117,-0.033 q 0,0.9955 -0.5445,1.5015 -0.539,0.5005 -1.507,0.5005 h -1.0945 v -3.927 h 1.21 q 0.594,0 1.0285,0.22 0.4345,0.22 0.671,0.649 0.2365,0.4235 0.2365,1.056 z m -0.5225,0.0165 q 0,-0.7865 -0.3905,-1.1495 -0.385,-0.3685 -1.0945,-0.3685 h -0.6435 v 3.08 h 0.5335 q 1.595,0 1.595,-1.562 z m 4.5375,-0.0165 q 0,0.9955 -0.5445,1.5015 -0.539,0.5005 -1.507,0.5005 h -1.0945 v -3.927 h 1.21 q 0.594,0 1.0285,0.22 0.4345,0.22 0.671,0.649 0.2365,0.4235 0.2365,1.056 z m -0.5225,0.0165 q 0,-0.7865 -0.3905,-1.1495 -0.385,-0.3685 -1.0945,-0.3685 h -0.6435 v 3.08 h 0.5335 q 1.595,0 1.595,-1.562 z"
     id="text7"
     style="font-size:5.5px;font-family:'Nunito Sans', sans-serif;text-anchor:middle;fill:#887860"
     aria-label="ODD" />
  <path
     d="m 129.709,147 h -0.495 v -3.927 h 2.1945 v 0.4345 h -1.6995 v 1.3915 h 1.595 v 0.4345 h -1.595 z m 5.34599,-1.386 q 0,0.407 -0.165,0.737 -0.165,0.3245 -0.506,0.517 -0.3355,0.187 -0.858,0.187 -0.7315,0 -1.1165,-0.396 -0.3795,-0.4015 -0.3795,-1.056 v -2.53 h 0.495 v 2.5465 q 0,0.4785 0.253,0.7425 0.2585,0.264 0.7755,0.264 0.5335,0 0.77,-0.2805 0.242,-0.286 0.242,-0.7315 v -2.541 h 0.4895 z M 136.089,147 v -3.927 h 0.495 v 3.487 H 138.3 V 147 Z m 2.882,0 v -3.927 h 0.495 v 3.487 h 1.716 V 147 Z"
     id="text8"
     style="font-size:5.5px;font-family:'Nunito Sans', sans-serif;text-anchor:middle;fill:#887860"
     aria-label="FULL" />
  <path
     d="m 128.75025,155.359 q 0.871,0 1.313,0.26 0.4485,0.2535 0.4485,0.8905 0,0.4095 -0.2275,0.6825 -0.2275,0.2665 -0.6565,0.3445 v 0.0325 q 0.2925,0.0455 0.5265,0.169 0.2405,0.1235 0.377,0.351 0.1365,0.2275 0.1365,0.5915 0,0.6305 -0.4355,0.975 -0.429,0.3445 -1.1765,0.3445 h -1.6315 v -4.641 z m 0.117,1.976 q 0.598,0 0.819,-0.1885 0.221,-0.195 0.221,-0.572 0,-0.3835 -0.273,-0.546 -0.2665,-0.169 -0.858,-0.169 h -0.767 v 1.4755 z m -0.858,0.4875 v 1.6835 h 0.936 q 0.6175,0 0.858,-0.2405 0.2405,-0.2405 0.2405,-0.6305 0,-0.364 -0.2535,-0.585 -0.247,-0.2275 -0.8905,-0.2275 z m 7.16949,0.5395 q 0,0.481 -0.195,0.871 -0.195,0.3835 -0.598,0.611 -0.3965,0.221 -1.014,0.221 -0.8645,0 -1.3195,-0.468 -0.4485,-0.4745 -0.4485,-1.248 v -2.99 h 0.585 v 3.0095 q 0,0.5655 0.299,0.8775 0.3055,0.312 0.9165,0.312 0.6305,0 0.91,-0.3315 0.286,-0.338 0.286,-0.8645 v -3.003 h 0.5785 z m 4.05601,1.638 h -3.2175 v -0.442 l 2.444,-3.679 h -2.366 v -0.52 h 3.0745 v 0.442 l -2.444,3.679 h 2.509 z m 3.718,0 h -3.2175 v -0.442 l 2.444,-3.679 h -2.366 v -0.52 h 3.0745 v 0.442 l -2.444,3.679 h 2.509 z"
     id="text9"
     style="font-size:6.5px;font-family:'Nunito Sans', sans-serif;text-anchor:middle;fill:#c8c0b0"
     aria-label="BUZZ" />
  <!-- ══════════════════════════════════════════════════════════ -->
  <!-- ROW 2: RECOVERY (x=15.24mm) | COLLAPSE gate + SIDECHAIN  -->
  <!-- y=70mm→206px  sat y=82mm→242px                           -->
  <!-- ══════════════════════════════════════════════════════════ -->
  <!-- RECOVERY knob + horizontal satellite -->
  <circle
     cx="45.0"
     cy="206.7"
     r="6.5"
     fill="#4A4A4A"
     stroke="#787878"
     stroke-width="0.75"
     id="circle9" />
  <circle
     cx="27.3"
     cy="242.2"
     r="4"
     fill="#363636"
     stroke="#666"
     stroke-width="0.5"
     id="circle10" />
  <circle
     cx="62.7"
     cy="242.2"
     r="5"
     fill="#251E0A"
     stroke="#E8C547"
     stroke-width="1.25"
     id="circle11" />
  <path
     d="m 30.969754,215.359 q 0.8645,0 1.274,0.3315 0.416,0.325 0.416,0.988 0,0.3705 -0.1365,0.6175 -0.1365,0.247 -0.351,0.3965 -0.208,0.143 -0.442,0.2275 l 1.274,2.08 h -0.6825 l -1.1245,-1.9175 h -0.923 V 220 h -0.585 v -4.641 z m -0.0325,0.507 h -0.663 v 1.7225 h 0.6955 q 0.5655,0 0.8255,-0.221 0.26,-0.2275 0.26,-0.663 0,-0.455 -0.273,-0.6435 -0.273,-0.195 -0.845,-0.195 z M 36.325752,220 h -2.5935 v -4.641 h 2.5935 v 0.5135 h -2.0085 v 1.4495 h 1.8915 v 0.507 h -1.8915 v 1.6575 h 2.0085 z m 3.009499,-4.1925 q -0.7475,0 -1.1765,0.5005 -0.429,0.5005 -0.429,1.3715 0,0.8645 0.3965,1.3715 0.403,0.5005 1.2025,0.5005 0.3055,0 0.5785,-0.052 0.273,-0.052 0.533,-0.13 v 0.507 q -0.26,0.0975 -0.5395,0.143 -0.273,0.0455 -0.6565,0.0455 -0.7085,0 -1.183,-0.2925 -0.4745,-0.2925 -0.715,-0.832 -0.234,-0.5395 -0.234,-1.2675 0,-0.702 0.2535,-1.235 0.26,-0.5395 0.7605,-0.8385 0.5005,-0.3055 1.2155,-0.3055 0.7345,0 1.2805,0.273 l -0.234,0.494 q -0.2145,-0.0975 -0.481,-0.1755 -0.26,-0.078 -0.572,-0.078 z m 6.038497,1.8655 q 0,0.7215 -0.247,1.261 -0.2405,0.533 -0.715,0.832 -0.4745,0.299 -1.1765,0.299 -0.7215,0 -1.2025,-0.299 -0.4745,-0.299 -0.7085,-0.8385 -0.234,-0.5395 -0.234,-1.261 0,-0.715 0.234,-1.248 0.234,-0.533 0.7085,-0.832 0.481,-0.299 1.209,-0.299 0.6955,0 1.17,0.299 0.4745,0.2925 0.715,0.832 0.247,0.533 0.247,1.2545 z m -3.666,0 q 0,0.8775 0.3705,1.3845 0.3705,0.5005 1.157,0.5005 0.793,0 1.157,-0.5005 0.364,-0.507 0.364,-1.3845 0,-0.8775 -0.364,-1.3715 -0.364,-0.5005 -1.1505,-0.5005 -0.7865,0 -1.1635,0.5005 -0.3705,0.494 -0.3705,1.3715 z m 7.897498,-2.314 -1.6575,4.641 h -0.585 l -1.6575,-4.641 h 0.611 l 1.0465,2.977 q 0.104,0.286 0.1755,0.5395 0.0715,0.247 0.117,0.4745 0.0455,-0.2275 0.117,-0.481 0.0715,-0.2535 0.1755,-0.546 l 1.04,-2.964 z M 52.829249,220 h -2.5935 v -4.641 h 2.5935 v 0.5135 h -2.0085 v 1.4495 h 1.8915 v 0.507 h -1.8915 v 1.6575 h 2.0085 z m 2.300999,-4.641 q 0.8645,0 1.274,0.3315 0.416,0.325 0.416,0.988 0,0.3705 -0.1365,0.6175 -0.1365,0.247 -0.351,0.3965 -0.208,0.143 -0.442,0.2275 l 1.274,2.08 h -0.6825 l -1.1245,-1.9175 h -0.923 V 220 h -0.585 v -4.641 z m -0.0325,0.507 h -0.663 v 1.7225 h 0.6955 q 0.5655,0 0.8255,-0.221 0.26,-0.2275 0.26,-0.663 0,-0.455 -0.273,-0.6435 -0.273,-0.195 -0.845,-0.195 z m 4.003997,1.7745 1.209,-2.2815 h 0.6305 l -1.547,2.8405 V 220 h -0.585 v -1.7745 l -1.547,-2.8665 h 0.637 z"
     id="text11"
     style="font-size:6.5px;font-family:'Nunito Sans', sans-serif;text-anchor:middle;fill:#c8c0b0"
     aria-label="RECOVERY" />
  <!-- COLLAPSE gate input (x=45.72mm→135px, y=68mm→201px) -->
  <circle
     cx="135.0"
     cy="200.8"
     r="5"
     fill="#251E0A"
     stroke="#E8C547"
     stroke-width="1.25"
     id="circle12" />
  <path
     d="m 125.83175,186.8075 q -0.7475,0 -1.1765,0.5005 -0.429,0.5005 -0.429,1.3715 0,0.8645 0.3965,1.3715 0.403,0.5005 1.2025,0.5005 0.3055,0 0.5785,-0.052 0.273,-0.052 0.533,-0.13 v 0.507 q -0.26,0.0975 -0.5395,0.143 -0.273,0.0455 -0.6565,0.0455 -0.7085,0 -1.183,-0.2925 -0.4745,-0.2925 -0.715,-0.832 -0.234,-0.5395 -0.234,-1.2675 0,-0.702 0.2535,-1.235 0.26,-0.5395 0.7605,-0.8385 0.5005,-0.3055 1.2155,-0.3055 0.7345,0 1.2805,0.273 l -0.234,0.494 q -0.2145,-0.0975 -0.481,-0.1755 -0.26,-0.078 -0.572,-0.078 z m 6.0385,1.8655 q 0,0.7215 -0.247,1.261 -0.2405,0.533 -0.715,0.832 -0.4745,0.299 -1.1765,0.299 -0.7215,0 -1.2025,-0.299 -0.4745,-0.299 -0.7085,-0.8385 -0.234,-0.5395 -0.234,-1.261 0,-0.715 0.234,-1.248 0.234,-0.533 0.7085,-0.832 0.481,-0.299 1.209,-0.299 0.6955,0 1.17,0.299 0.4745,0.2925 0.715,0.832 0.247,0.533 0.247,1.2545 z m -3.666,0 q 0,0.8775 0.3705,1.3845 0.3705,0.5005 1.157,0.5005 0.793,0 1.157,-0.5005 0.364,-0.507 0.364,-1.3845 0,-0.8775 -0.364,-1.3715 -0.364,-0.5005 -1.1505,-0.5005 -0.7865,0 -1.1635,0.5005 -0.3705,0.494 -0.3705,1.3715 z m 4.693,2.327 v -4.641 h 0.585 v 4.121 h 2.028 V 191 Z m 4.6345,-4.641 q 0.91,0 1.326,0.3575 0.416,0.3575 0.416,1.0075 0,0.3835 -0.1755,0.7215 -0.169,0.3315 -0.5785,0.5395 -0.403,0.208 -1.0985,0.208 h -0.533 V 191 h -0.585 v -4.641 z m -0.052,0.5005 h -0.5915 v 1.833 h 0.468 q 0.663,0 0.988,-0.2145 0.325,-0.2145 0.325,-0.728 0,-0.4485 -0.286,-0.6695 -0.286,-0.221 -0.9035,-0.221 z m 5.3885,2.899 q 0,0.6175 -0.4485,0.962 -0.4485,0.3445 -1.209,0.3445 -0.39,0 -0.7215,-0.0585 -0.3315,-0.0585 -0.5525,-0.1625 v -0.559 q 0.234,0.104 0.5785,0.1885 0.351,0.0845 0.7215,0.0845 0.52,0 0.78,-0.2015 0.2665,-0.2015 0.2665,-0.546 0,-0.2275 -0.0975,-0.3835 -0.0975,-0.156 -0.338,-0.286 -0.234,-0.1365 -0.6565,-0.286 -0.5915,-0.2145 -0.897,-0.5265 -0.299,-0.312 -0.299,-0.8515 0,-0.3705 0.1885,-0.6305 0.1885,-0.2665 0.52,-0.4095 0.338,-0.143 0.7735,-0.143 0.3835,0 0.702,0.0715 0.3185,0.0715 0.5785,0.1885 l -0.182,0.5005 q -0.2405,-0.104 -0.5265,-0.1755 -0.2795,-0.0715 -0.585,-0.0715 -0.4355,0 -0.6565,0.1885 -0.221,0.182 -0.221,0.4875 0,0.234 0.0975,0.39 0.0975,0.156 0.3185,0.2795 0.221,0.1235 0.598,0.2665 0.4095,0.1495 0.689,0.325 0.286,0.169 0.429,0.4095 0.1495,0.2405 0.1495,0.6045 z m 3.5295,1.2415 h -2.5935 v -4.641 h 2.5935 v 0.5135 h -2.0085 v 1.4495 h 1.8915 v 0.507 h -1.8915 v 1.6575 h 2.0085 z"
     id="text12"
     style="font-size:6.5px;font-family:'Nunito Sans', sans-serif;text-anchor:middle;fill:#ff6a30"
     aria-label="COLPSE" />
  <!-- SIDECHAIN input (y=84mm→248px) -->
  <circle
     cx="135.0"
     cy="248.3"
     r="5"
     fill="#251E0A"
     stroke="#E8C547"
     stroke-width="1.25"
     id="circle13" />
  <path
     d="m 134.469,258.854 q 0,0.57 -0.414,0.888 -0.414,0.318 -1.116,0.318 -0.36,0 -0.666,-0.054 -0.306,-0.054 -0.51,-0.15 v -0.516 q 0.216,0.096 0.534,0.174 0.324,0.078 0.666,0.078 0.48,0 0.72,-0.186 0.246,-0.186 0.246,-0.504 0,-0.21 -0.09,-0.354 -0.09,-0.144 -0.312,-0.264 -0.216,-0.126 -0.606,-0.264 -0.546,-0.198 -0.828,-0.486 -0.276,-0.288 -0.276,-0.786 0,-0.342 0.174,-0.582 0.174,-0.246 0.48,-0.378 0.312,-0.132 0.714,-0.132 0.354,0 0.648,0.066 0.294,0.066 0.534,0.174 l -0.168,0.462 q -0.222,-0.096 -0.486,-0.162 -0.258,-0.066 -0.54,-0.066 -0.402,0 -0.606,0.174 -0.204,0.168 -0.204,0.45 0,0.216 0.09,0.36 0.09,0.144 0.294,0.258 0.204,0.114 0.552,0.246 0.378,0.138 0.636,0.3 0.264,0.156 0.396,0.378 0.138,0.222 0.138,0.558 z m 2.7,-2.724 q -0.69,0 -1.086,0.462 -0.396,0.462 -0.396,1.266 0,0.798 0.366,1.266 0.372,0.462 1.11,0.462 0.282,0 0.534,-0.048 0.252,-0.048 0.492,-0.12 v 0.468 q -0.24,0.09 -0.498,0.132 -0.252,0.042 -0.606,0.042 -0.654,0 -1.092,-0.27 -0.438,-0.27 -0.66,-0.768 -0.216,-0.498 -0.216,-1.17 0,-0.648 0.234,-1.14 0.24,-0.498 0.702,-0.774 0.462,-0.282 1.122,-0.282 0.678,0 1.182,0.252 l -0.216,0.456 q -0.198,-0.09 -0.444,-0.162 -0.24,-0.072 -0.528,-0.072 z"
     id="text13"
     style="font-size:6px;font-family:'Nunito Sans', sans-serif;text-anchor:middle;fill:#887860"
     aria-label="SC" />
  <!-- ══════════════════════════════════════════════════════════ -->
  <!-- ROW 3: IN L · IN R · V/OCT IN  (y=104mm→307px)          -->
  <!-- ROW 4: OUT L · OUT R · V/OCT OUT (y=116mm→343px)         -->
  <!-- ══════════════════════════════════════════════════════════ -->
  <!-- Inputs -->
  <circle
     cx="45.0"
     cy="307.2"
     r="5"
     fill="#201808"
     stroke="#FF4A0E"
     stroke-width="1.25"
     id="circle14" />
  <circle
     cx="90.0"
     cy="307.2"
     r="5"
     fill="#201808"
     stroke="#FF4A0E"
     stroke-width="1.25"
     id="circle15" />
  <circle
     cx="135.0"
     cy="307.2"
     r="5"
     fill="#0C1A10"
     stroke="#5A7350"
     stroke-width="1.25"
     id="circle16" />
  <path
     d="m 41.138996,318 h -1.548 v -0.312 l 0.504,-0.114 v -3.426 l -0.504,-0.12 v -0.312 h 1.548 v 0.312 l -0.504,0.12 v 3.426 l 0.504,0.114 z m 4.224004,0 h -0.63 l -2.292,-3.558 h -0.024 q 0.012,0.21 0.03,0.522 0.018,0.312 0.018,0.642 V 318 h -0.498 v -4.284 h 0.624 l 2.286,3.546 h 0.024 q -0.006,-0.096 -0.018,-0.288 -0.006,-0.192 -0.018,-0.42 -0.006,-0.228 -0.006,-0.42 v -2.418 h 0.504 z m 2.724003,0 v -4.284 h 0.54 v 3.804 h 1.872 V 318 Z"
     id="text16"
     style="font-size:6px;font-family:'Nunito Sans', sans-serif;text-anchor:middle;fill:#c8c0b0"
     aria-label="IN L" />
  <path
     d="m 85.844997,318 h -1.548 v -0.312 l 0.504,-0.114 v -3.426 l -0.504,-0.12 v -0.312 h 1.548 v 0.312 l -0.504,0.12 v 3.426 l 0.504,0.114 z m 4.224005,0 h -0.63 l -2.292,-3.558 h -0.024 q 0.012,0.21 0.03,0.522 0.018,0.312 0.018,0.642 V 318 h -0.498 v -4.284 h 0.624 l 2.286,3.546 h 0.024 q -0.006,-0.096 -0.018,-0.288 -0.006,-0.192 -0.018,-0.42 -0.006,-0.228 -0.006,-0.42 v -2.418 h 0.504 z m 3.906002,-4.284 q 0.798,0 1.176,0.306 0.384,0.3 0.384,0.912 0,0.342 -0.126,0.57 -0.126,0.228 -0.324,0.366 -0.192,0.132 -0.408,0.21 l 1.176,1.92 h -0.63 l -1.038,-1.77 h -0.852 V 318 h -0.54 v -4.284 z m -0.03,0.468 h -0.612 v 1.59 h 0.642 q 0.522,0 0.762,-0.204 0.24,-0.21 0.24,-0.612 0,-0.42 -0.252,-0.594 -0.252,-0.18 -0.78,-0.18 z"
     id="text17"
     style="font-size:6px;font-family:'Nunito Sans', sans-serif;text-anchor:middle;fill:#c8c0b0"
     aria-label="IN R" />
  <path
     d="m 129.777,313.716 -1.53,4.284 h -0.54 l -1.53,-4.284 h 0.564 l 0.966,2.748 q 0.096,0.264 0.162,0.498 0.066,0.228 0.108,0.438 0.042,-0.21 0.108,-0.444 0.066,-0.234 0.162,-0.504 l 0.96,-2.736 z m 2.172,0 -1.596,4.284 h -0.516 l 1.596,-4.284 z m 4.38,2.136 q 0,0.666 -0.228,1.164 -0.222,0.492 -0.66,0.768 -0.438,0.276 -1.086,0.276 -0.666,0 -1.11,-0.276 -0.438,-0.276 -0.654,-0.774 -0.216,-0.498 -0.216,-1.164 0,-0.66 0.216,-1.152 0.216,-0.492 0.654,-0.768 0.444,-0.276 1.116,-0.276 0.642,0 1.08,0.276 0.438,0.27 0.66,0.768 0.228,0.492 0.228,1.158 z m -3.384,0 q 0,0.81 0.342,1.278 0.342,0.462 1.068,0.462 0.732,0 1.068,-0.462 0.336,-0.468 0.336,-1.278 0,-0.81 -0.336,-1.266 -0.336,-0.462 -1.062,-0.462 -0.726,0 -1.074,0.462 -0.342,0.456 -0.342,1.266 z m 6.168,-1.722 q -0.69,0 -1.086,0.462 -0.396,0.462 -0.396,1.266 0,0.798 0.366,1.266 0.372,0.462 1.11,0.462 0.282,0 0.534,-0.048 0.252,-0.048 0.492,-0.12 v 0.468 q -0.24,0.09 -0.498,0.132 -0.252,0.042 -0.606,0.042 -0.654,0 -1.092,-0.27 -0.438,-0.27 -0.66,-0.768 -0.216,-0.498 -0.216,-1.17 0,-0.648 0.234,-1.14 0.24,-0.498 0.702,-0.774 0.462,-0.282 1.122,-0.282 0.678,0 1.182,0.252 l -0.216,0.456 q -0.198,-0.09 -0.444,-0.162 -0.24,-0.072 -0.528,-0.072 z m 3.312,3.87 h -0.54 v -3.81 h -1.338 v -0.474 h 3.21 v 0.474 h -1.332 z"
     id="text18"
     style="font-size:6px;font-family:'Nunito Sans', sans-serif;text-anchor:middle;fill:#5a7350"
     aria-label="V/OCT" />
  <!-- Outputs -->
  <circle
     cx="45.0"
     cy="342.6"
     r="5"
     fill="#201808"
     stroke="#FF4A0E"
     stroke-width="1.25"
     id="circle18" />
  <circle
     cx="90.0"
     cy="342.6"
     r="5"
     fill="#201808"
     stroke="#FF4A0E"
     stroke-width="1.25"
     id="circle19" />
  <circle
     cx="135.0"
     cy="342.6"
     r="5"
     fill="#0C1A10"
     stroke="#5A7350"
     stroke-width="1.25"
     id="circle20" />
  <path
     d="m 40.763996,351.852 q 0,0.666 -0.228,1.164 -0.222,0.492 -0.66,0.768 -0.438,0.276 -1.086,0.276 -0.666,0 -1.11,-0.276 -0.438,-0.276 -0.654,-0.774 -0.216,-0.498 -0.216,-1.164 0,-0.66 0.216,-1.152 0.216,-0.492 0.654,-0.768 0.444,-0.276 1.116,-0.276 0.642,0 1.08,0.276 0.438,0.27 0.66,0.768 0.228,0.492 0.228,1.158 z m -3.384,0 q 0,0.81 0.342,1.278 0.342,0.462 1.068,0.462 0.732,0 1.068,-0.462 0.336,-0.468 0.336,-1.278 0,-0.81 -0.336,-1.266 -0.336,-0.462 -1.062,-0.462 -0.726,0 -1.074,0.462 -0.342,0.456 -0.342,1.266 z m 7.590001,0.636 q 0,0.444 -0.18,0.804 -0.18,0.354 -0.552,0.564 -0.366,0.204 -0.936,0.204 -0.798,0 -1.218,-0.432 -0.414,-0.438 -0.414,-1.152 v -2.76 h 0.54 v 2.778 q 0,0.522 0.276,0.81 0.282,0.288 0.846,0.288 0.582,0 0.84,-0.306 0.264,-0.312 0.264,-0.798 v -2.772 h 0.534 z M 47.454003,354 h -0.54 v -3.81 h -1.338 v -0.474 h 3.21 v 0.474 h -1.332 z m 3.54,0 v -4.284 h 0.54 v 3.804 h 1.872 V 354 Z"
     id="text20"
     style="font-size:6px;font-family:'Nunito Sans', sans-serif;text-anchor:middle;fill:#c8c0b0"
     aria-label="OUT L" />
  <path
     d="m 85.469998,351.852 q 0,0.666 -0.228,1.164 -0.222,0.492 -0.66,0.768 -0.438,0.276 -1.086,0.276 -0.666,0 -1.11,-0.276 -0.438,-0.276 -0.654,-0.774 -0.216,-0.498 -0.216,-1.164 0,-0.66 0.216,-1.152 0.216,-0.492 0.654,-0.768 0.444,-0.276 1.116,-0.276 0.642,0 1.08,0.276 0.438,0.27 0.66,0.768 0.228,0.492 0.228,1.158 z m -3.384,0 q 0,0.81 0.342,1.278 0.342,0.462 1.068,0.462 0.732,0 1.068,-0.462 0.336,-0.468 0.336,-1.278 0,-0.81 -0.336,-1.266 -0.336,-0.462 -1.062,-0.462 -0.726,0 -1.074,0.462 -0.342,0.456 -0.342,1.266 z m 7.590001,0.636 q 0,0.444 -0.18,0.804 -0.18,0.354 -0.552,0.564 -0.366,0.204 -0.936,0.204 -0.798,0 -1.218,-0.432 -0.414,-0.438 -0.414,-1.152 v -2.76 h 0.54 v 2.778 q 0,0.522 0.276,0.81 0.282,0.288 0.846,0.288 0.582,0 0.84,-0.306 0.264,-0.312 0.264,-0.798 v -2.772 h 0.534 z M 92.160004,354 h -0.54 v -3.81 h -1.338 v -0.474 h 3.21 v 0.474 h -1.332 z m 4.722,-4.284 q 0.798,0 1.176,0.306 0.384,0.3 0.384,0.912 0,0.342 -0.126,0.57 -0.126,0.228 -0.324,0.366 -0.192,0.132 -0.408,0.21 l 1.176,1.92 h -0.63 l -1.038,-1.77 h -0.852 V 354 h -0.54 v -4.284 z m -0.03,0.468 h -0.612 v 1.59 h 0.642 q 0.522,0 0.762,-0.204 0.24,-0.21 0.24,-0.612 0,-0.42 -0.252,-0.594 -0.252,-0.18 -0.78,-0.18 z"
     id="text21"
     style="font-size:6px;font-family:'Nunito Sans', sans-serif;text-anchor:middle;fill:#c8c0b0"
     aria-label="OUT R" />
  <path
     d="m 128.988,354 h -0.54 v -3.81 h -1.338 v -0.474 h 3.21 v 0.474 h -1.332 z m 5.256,0 h -0.54 v -1.998 h -2.196 V 354 h -0.54 v -4.284 h 0.54 v 1.812 h 2.196 v -1.812 h 0.54 z m 2.352,-4.284 q 0.798,0 1.176,0.306 0.384,0.3 0.384,0.912 0,0.342 -0.126,0.57 -0.126,0.228 -0.324,0.366 -0.192,0.132 -0.408,0.21 l 1.176,1.92 h -0.63 l -1.038,-1.77 h -0.852 V 354 h -0.54 v -4.284 z m -0.03,0.468 h -0.612 v 1.59 h 0.642 q 0.522,0 0.762,-0.204 0.24,-0.21 0.24,-0.612 0,-0.42 -0.252,-0.594 -0.252,-0.18 -0.78,-0.18 z m 5.83799,2.304 q 0,0.444 -0.18,0.804 -0.18,0.354 -0.552,0.564 -0.366,0.204 -0.936,0.204 -0.798,0 -1.218,-0.432 -0.414,-0.438 -0.414,-1.152 v -2.76 h 0.54 v 2.778 q 0,0.522 0.276,0.81 0.282,0.288 0.846,0.288 0.582,0 0.84,-0.306 0.264,-0.312 0.264,-0.798 v -2.772 h 0.534 z"
     id="text22"
     style="font-size:6px;font-family:'Nunito Sans', sans-serif;text-anchor:middle;fill:#5a7350"
     aria-label="THRU" />
  <!-- Corner screws (12HP: right at x=157.5) -->
  <circle
     cx="22.5"
     cy="7.5"
     r="4"
     fill="#2A3A2A"
     stroke="#3A4A3A"
     stroke-width="0.75"
     id="circle22" />
  <circle
     cx="157.5"
     cy="7.5"
     r="4"
     fill="#2A3A2A"
     stroke="#3A4A3A"
     stroke-width="0.75"
     id="circle23" />
  <circle
     cx="22.5"
     cy="372.5"
     r="4"
     fill="#2A3A2A"
     stroke="#3A4A3A"
     stroke-width="0.75"
     id="circle24" />
  <circle
     cx="157.5"
     cy="372.5"
     r="4"
     fill="#2A3A2A"
     stroke="#3A4A3A"
     stroke-width="0.75"
     id="circle25" />
</svg>
