<?xml version="1.0" encoding="UTF-8" standalone="no"?>
<!--
  DRONECORE — 8 HP panel  |  Amplified Futures design system
  Panel: 120 × 380 px  (8 HP × 15 px/HP)
  Finish: dark oxidized steel (#1F2A1F)

  Widget centers (mm → px ×2.953):
    PITCH_PARAM       mm(10.16, 38)   px( 30,  112.2)  RoundBlackKnob
    PITCH_MOD_INPUT   mm(30.48, 28)   px( 90,   82.7)  PJ301MPort
    PITCH_ATTN_PARAM  mm(30.48, 48)   px( 90,  141.8)  Trimpot
    DETUNE_PARAM      mm(10.16, 65)   px( 30,  192.0)  RoundSmallBlackKnob
    DETUNE_CV_INPUT   mm(30.48, 58)   px( 90,  171.3)  PJ301MPort
    DETUNE_ATTN_PARAM mm(30.48, 74)   px( 90,  218.6)  Trimpot
    TIMBRE_PARAM      mm(10.16, 91)   px( 30,  268.9)  RoundSmallBlackKnob
    TIMBRE_CV_INPUT   mm(30.48, 84)   px( 90,  248.2)  PJ301MPort
    TIMBRE_ATTN_PARAM mm(30.48,100)   px( 90,  295.3)  Trimpot
    PITCH_INPUT       mm(10.16,113)   px( 30,  333.9)  PJ301MPort
    VOCT_OUTPUT       mm(20.32,113)   px( 60,  333.9)  PJ301MPort
    SINE_OUTPUT       mm(30.48,113)   px( 90,  333.9)  PJ301MPort
  Screws: (15,7.5) (105,7.5) (15,372.5) (105,372.5)
-->

<svg
   width="120"
   height="380"
   viewBox="0 0 120 380"
   version="1.1"
   id="svg36"
   xmlns="http://www.w3.org/2000/svg"
   xmlns:svg="http://www.w3.org/2000/svg">
  <defs
     id="defs36" />
  <!-- DARK STEEL BACKGROUND -->
  <rect
     width="120"
     height="380"
     fill="#1F2A1F"
     id="rect1" />
  <line
     x1="40"
     y1="0"
     x2="40"
     y2="380"
     stroke="#243424"
     stroke-width="0.6"
     opacity="0.25"
     id="line1" />
  <line
     x1="80"
     y1="0"
     x2="80"
     y2="380"
     stroke="#243424"
     stroke-width="0.6"
     opacity="0.25"
     id="line2" />
  <line
     x1="60"
     y1="0"
     x2="60"
     y2="380"
     stroke="#1A231A"
     stroke-width="0.4"
     opacity="0.15"
     id="line3" />
  <!-- SAFETY ORANGE HEADER -->
  <rect
     x="0"
     y="0"
     width="120"
     height="22"
     fill="#FF4A0E"
     id="rect3" />
  <path
     d="m 22.315186,5.2231445 h 1.999511 q 1.936035,0 2.615235,0.1777344 0.685547,0.1777344 1.041015,0.5839844 0.355469,0.40625 0.444336,0.9077148 0.08887,0.4951172 0.08887,1.9550782 v 3.5991207 q 0,1.383789 -0.1333,1.853516 -0.126954,0.463379 -0.450684,0.72998 -0.32373,0.260254 -0.799805,0.368165 Q 26.644287,15.5 25.685791,15.5 h -3.370605 z m 2.672363,1.7583008 v 6.7602537 q 0.577637,0 0.710937,-0.228515 Q 25.831787,13.27832 25.831787,12.25 V 8.2573242 q 0,-0.6982422 -0.04443,-0.8950195 -0.04443,-0.1967774 -0.203125,-0.2856445 -0.158692,-0.095215 -0.59668,-0.095215 z m 6.513183,-1.7583008 h 1.891602 q 1.891602,0 2.558105,0.1459961 0.672852,0.1459961 1.091797,0.7490235 0.425293,0.5966796 0.425293,1.9106445 0,1.199707 -0.29834,1.6123047 -0.298339,0.4125977 -1.174316,0.4951167 0.793457,0.196778 1.066406,0.526856 0.27295,0.330078 0.336426,0.609375 0.06982,0.272949 0.06982,1.51709 V 15.5 h -2.481933 v -3.415039 q 0,-0.825195 -0.133301,-1.021973 -0.126953,-0.196777 -0.679199,-0.196777 V 15.5 h -2.672364 z m 2.672364,1.7583008 v 2.2851563 q 0.450683,0 0.628418,-0.1206055 0.184082,-0.1269531 0.184082,-0.8061523 V 7.7749023 q 0,-0.4887695 -0.177735,-0.6411132 -0.171386,-0.1523438 -0.634765,-0.1523438 z m 12.435547,4.2592777 q 0,1.548828 -0.07617,2.196289 -0.06983,0.641113 -0.457032,1.174316 -0.380859,0.533203 -1.034668,0.818848 -0.653808,0.285644 -1.523437,0.285644 -0.825195,0 -1.485352,-0.266601 -0.653808,-0.272949 -1.053711,-0.8125 -0.399902,-0.539551 -0.476074,-1.174317 -0.07617,-0.634765 -0.07617,-2.221679 V 9.4824219 q 0,-1.5488282 0.06982,-2.1899414 0.07617,-0.647461 0.457031,-1.1806641 0.387207,-0.5332031 1.041015,-0.8188477 0.653809,-0.2856445 1.523438,-0.2856445 0.825195,0 1.479004,0.2729492 0.660156,0.2666016 1.060058,0.8061524 0.399903,0.5395508 0.476075,1.1743164 0.07617,0.6347656 0.07617,2.2216797 z M 43.936279,7.8637695 q 0,-0.7172851 -0.08252,-0.9140625 -0.07617,-0.203125 -0.323731,-0.203125 -0.209472,0 -0.32373,0.1650391 -0.10791,0.1586914 -0.10791,0.9521484 v 4.7988285 q 0,0.895019 0.06982,1.104492 0.07617,0.209473 0.342773,0.209473 0.27295,0 0.349121,-0.241211 0.07617,-0.241211 0.07617,-1.148926 z M 55.572021,5.2231445 V 15.5 H 53.229736 L 51.8396,10.828125 V 15.5 H 49.605225 V 5.2231445 H 51.8396 l 1.498046,4.6274414 V 5.2231445 Z m 3.072754,0 h 4.456055 v 2.0566407 h -1.783691 v 1.9487304 h 1.669433 v 1.9550784 h -1.669433 v 2.259765 h 1.961425 V 15.5 h -4.633789 z m 13.641602,4.4814453 h -2.672363 v -1.790039 q 0,-0.7807617 -0.08887,-0.9711914 -0.08252,-0.1967774 -0.374511,-0.1967774 -0.330078,0 -0.418946,0.2348633 -0.08887,0.2348633 -0.08887,1.015625 v 4.7734377 q 0,0.749023 0.08887,0.977539 0.08887,0.228516 0.399903,0.228516 0.29834,0 0.387207,-0.228516 0.09521,-0.228516 0.09521,-1.072754 v -1.288574 h 2.672363 v 0.399902 q 0,1.593262 -0.228516,2.259766 -0.222168,0.666504 -0.996582,1.167968 -0.768066,0.501465 -1.897949,0.501465 -1.174316,0 -1.936035,-0.425293 -0.761719,-0.425293 -1.009277,-1.174316 -0.247559,-0.755371 -0.247559,-2.266113 V 8.8476563 q 0,-1.1108399 0.07617,-1.663086 0.07617,-0.5585937 0.450683,-1.0727539 0.38086,-0.5141602 1.047364,-0.8061523 0.672851,-0.2983399 1.54248,-0.2983399 1.180664,0 1.948731,0.4570313 0.768066,0.4570312 1.009277,1.1425781 0.241211,0.6791992 0.241211,2.1201172 z m 9.064941,1.5361332 q 0,1.548828 -0.07617,2.196289 -0.06982,0.641113 -0.457031,1.174316 -0.380859,0.533203 -1.034668,0.818848 -0.653808,0.285644 -1.523437,0.285644 -0.825196,0 -1.485352,-0.266601 -0.653808,-0.272949 -1.053711,-0.8125 -0.399902,-0.539551 -0.476074,-1.174317 -0.07617,-0.634765 -0.07617,-2.221679 V 9.4824219 q 0,-1.5488282 0.06982,-2.1899414 0.07617,-0.647461 0.457032,-1.1806641 0.387207,-0.5332031 1.041015,-0.8188477 0.653809,-0.2856445 1.523438,-0.2856445 0.825195,0 1.479004,0.2729492 0.660156,0.2666016 1.060058,0.8061524 0.399903,0.5395508 0.476074,1.1743164 0.07617,0.6347656 0.07617,2.2216797 z M 78.678955,7.8637695 q 0,-0.7172851 -0.08252,-0.9140625 -0.07617,-0.203125 -0.323731,-0.203125 -0.209473,0 -0.32373,0.1650391 -0.107911,0.1586914 -0.107911,0.9521484 v 4.7988285 q 0,0.895019 0.06982,1.104492 0.07617,0.209473 0.342773,0.209473 0.272949,0 0.349121,-0.241211 0.07617,-0.241211 0.07617,-1.148926 z M 84.3479,5.2231445 h 1.891602 q 1.891602,0 2.558105,0.1459961 0.672852,0.1459961 1.091797,0.7490235 0.425293,0.5966796 0.425293,1.9106445 0,1.199707 -0.29834,1.6123047 -0.298339,0.4125977 -1.174316,0.4951167 0.793457,0.196778 1.066406,0.526856 0.272949,0.330078 0.336426,0.609375 0.06982,0.272949 0.06982,1.51709 V 15.5 h -2.481933 v -3.415039 q 0,-0.825195 -0.133301,-1.021973 -0.126953,-0.196777 -0.679199,-0.196777 V 15.5 H 84.3479 Z m 2.672364,1.7583008 v 2.2851563 q 0.450683,0 0.628418,-0.1206055 0.184082,-0.1269531 0.184082,-0.8061523 V 7.7749023 q 0,-0.4887695 -0.177735,-0.6411132 -0.171386,-0.1523438 -0.634765,-0.1523438 z m 6.329101,-1.7583008 h 4.456055 v 2.0566407 h -1.783691 v 1.9487304 h 1.669433 v 1.9550784 h -1.669433 v 2.259765 h 1.961425 V 15.5 h -4.633789 z"
     id="text3"
     style="font-weight:900;font-size:13px;font-family:'Big Shoulders Stencil Display', Impact, 'Arial Narrow Bold', sans-serif;letter-spacing:2;text-anchor:middle;fill:#0c100a"
     aria-label="DRONECORE" />
  <circle
     cx="15"
     cy="7.5"
     r="3"
     fill="#0C100A"
     opacity="0.35"
     id="circle3" />
  <circle
     cx="105"
     cy="7.5"
     r="3"
     fill="#0C100A"
     opacity="0.35"
     id="circle4" />
  <!-- META STRIP -->
  <rect
     x="0"
     y="22"
     width="120"
     height="9"
     fill="#141A12"
     id="rect4" />
  <path
     d="m 5.6176758,28.794922 h 1.574707 v -0.08057 q 0,-0.07324 0.029297,-0.10498 0.029297,-0.03174 0.075684,-0.03174 0.043945,0 0.073242,0.03174 0.029297,0.03174 0.029297,0.10498 V 29 H 5.4174805 v -0.302734 q 0.625,-0.561524 1.2158203,-1.142579 0.2758789,-0.270996 0.3784179,-0.397949 0.1025391,-0.126953 0.1391602,-0.222168 0.039063,-0.09766 0.039063,-0.195312 0,-0.263672 -0.2124023,-0.466309 -0.2124024,-0.202637 -0.5126954,-0.202637 -0.2685546,0 -0.4760742,0.153809 -0.2075195,0.153809 -0.2685547,0.380859 -0.014648,0.05859 -0.036621,0.07568 -0.029297,0.02441 -0.068359,0.02441 -0.041504,0 -0.070801,-0.02686 -0.026855,-0.0293 -0.026855,-0.06836 0,-0.117187 0.1269531,-0.317383 0.1293946,-0.200195 0.354004,-0.314941 0.2270507,-0.114746 0.4638671,-0.114746 0.3833008,0 0.6591797,0.266113 0.2758789,0.266114 0.2758789,0.603028 0,0.141601 -0.046387,0.26123 -0.046387,0.117188 -0.1586914,0.258789 -0.1098633,0.13916 -0.3979492,0.422363 -0.7226563,0.712891 -1.1767578,1.105957 z M 10.45332,29 H 10.167676 L 9.1349609,26.348633 H 8.9762695 q -0.056152,0 -0.080566,-0.0098 -0.024414,-0.01221 -0.041504,-0.03662 -0.014648,-0.02686 -0.014648,-0.05615 0,-0.0293 0.014648,-0.05371 0.01709,-0.02686 0.041504,-0.03662 0.024414,-0.01221 0.080566,-0.01221 h 0.7641601 q 0.058594,0 0.080566,0.01221 0.024414,0.0098 0.039063,0.03662 0.01709,0.02441 0.01709,0.05371 0,0.0293 -0.01709,0.05615 -0.01709,0.02441 -0.041504,0.03662 -0.021973,0.0098 -0.078125,0.0098 H 9.3473632 l 0.9521488,2.446289 h 0.01465 l 0.939942,-2.446289 h -0.390625 q -0.05859,0 -0.08301,-0.0098 -0.02441,-0.01221 -0.0415,-0.03662 -0.01465,-0.02686 -0.01465,-0.05615 0,-0.0293 0.01709,-0.05371 0.01709,-0.02686 0.03906,-0.03662 0.02441,-0.01221 0.08301,-0.01221 h 0.761718 q 0.05859,0 0.08301,0.01221 0.02441,0.0098 0.03906,0.03662 0.01709,0.02441 0.01709,0.05371 0,0.0293 -0.01709,0.05615 -0.01709,0.02441 -0.0415,0.03662 -0.02197,0.0098 -0.08057,0.0098 h -0.15625 z m 8.177148,-1.66748 q 0,0.102539 -0.07324,0.175781 -0.07324,0.07324 -0.175781,0.07324 -0.104981,0 -0.178223,-0.07324 -0.07324,-0.07324 -0.07324,-0.175781 0,-0.104981 0.07324,-0.178223 0.07324,-0.07324 0.178223,-0.07324 0.102539,0 0.175781,0.07324 0.07324,0.07324 0.07324,0.178223 z m 5.996973,1.462402 v -2.446289 h -0.275879 q -0.07324,0 -0.10498,-0.02686 -0.03174,-0.0293 -0.03174,-0.07568 0,-0.04639 0.03174,-0.07324 0.03174,-0.0293 0.10498,-0.0293 h 1.289063 q 0.383301,0 0.622559,0.222168 0.241699,0.219726 0.241699,0.517578 0,0.375976 -0.402832,0.60791 0.319824,0.114746 0.46875,0.305176 0.148926,0.190429 0.148926,0.419922 0,0.205078 -0.09766,0.375976 -0.09766,0.168457 -0.300293,0.288086 Q 26.121582,29 25.884766,29 h -1.533204 q -0.07324,0 -0.10498,-0.0293 -0.03174,-0.0293 -0.03174,-0.07324 0,-0.04639 0.03174,-0.07324 0.03174,-0.0293 0.10498,-0.0293 z m 0.205079,-1.381836 h 0.725097 q 0.231934,0 0.424805,-0.08545 0.148926,-0.06836 0.231933,-0.197754 0.08301,-0.129395 0.08301,-0.263672 0,-0.192871 -0.180664,-0.354004 -0.180664,-0.163574 -0.471191,-0.163574 H 24.83252 Z m 0,1.381836 h 1.037597 q 0.197754,0 0.344238,-0.08789 0.146485,-0.08789 0.222168,-0.217285 0.07568,-0.129394 0.07568,-0.268555 0,-0.15625 -0.109863,-0.302734 -0.107422,-0.146484 -0.300293,-0.222168 -0.192871,-0.07568 -0.532227,-0.07568 H 24.83252 Z m 3.802928,-1.069336 v 1.069336 h 0.378418 q 0.07568,0 0.107422,0.0293 0.03174,0.02686 0.03174,0.07324 0,0.04395 -0.03174,0.07324 Q 29.08955,29 29.013866,29 h -0.859375 q -0.07324,0 -0.10498,-0.0293 -0.03174,-0.0293 -0.03174,-0.07324 0,-0.04639 0.03174,-0.07324 0.03174,-0.0293 0.10498,-0.0293 h 0.275879 v -2.446289 h -0.275879 q -0.07324,0 -0.10498,-0.02686 -0.03174,-0.0293 -0.03174,-0.07568 0,-0.04639 0.03174,-0.07324 0.03174,-0.0293 0.10498,-0.0293 h 1.240235 q 0.383301,0 0.644531,0.24414 0.263672,0.2417 0.263672,0.546875 0,0.219727 -0.163574,0.415039 -0.161133,0.192871 -0.541992,0.322266 0.219726,0.151367 0.375976,0.341797 0.15625,0.19043 0.500488,0.78125 h 0.15625 q 0.07324,0 0.104981,0.0293 0.03174,0.02686 0.03174,0.07324 0,0.04395 -0.03174,0.07324 Q 30.70332,29 30.630077,29 H 30.35664 Q 29.97578,28.318848 29.76582,28.086914 29.5583,27.85498 29.287304,27.725586 Z m 0,-0.205078 h 0.559082 q 0.268555,0 0.48584,-0.09766 0.219727,-0.09766 0.317383,-0.229493 0.100098,-0.131836 0.100098,-0.268554 0,-0.205078 -0.20752,-0.390625 -0.205078,-0.185547 -0.500488,-0.185547 h -0.754395 z m 5.143263,0.524902 h -1.347656 l -0.275879,0.749512 h 0.393067 q 0.07324,0 0.10498,0.0293 0.03174,0.02686 0.03174,0.07324 0,0.04395 -0.03174,0.07324 Q 32.621485,29 32.548243,29 h -0.766602 q -0.07324,0 -0.10498,-0.0293 -0.03174,-0.0293 -0.03174,-0.07324 0,-0.04639 0.03174,-0.07324 0.03174,-0.0293 0.10498,-0.0293 h 0.158691 l 0.905762,-2.446289 h -0.605469 q -0.07324,0 -0.10498,-0.02686 -0.03174,-0.0293 -0.03174,-0.07568 0,-0.04639 0.03174,-0.07324 0.03174,-0.0293 0.10498,-0.0293 h 1.032715 l 1.000977,2.651367 h 0.158691 q 0.07324,0 0.104981,0.0293 0.03174,0.02686 0.03174,0.07324 0,0.04395 -0.03174,0.07324 Q 34.50625,29 34.433008,29 h -0.76416 q -0.07568,0 -0.107422,-0.0293 -0.03174,-0.0293 -0.03174,-0.07324 0,-0.04639 0.03174,-0.07324 0.03174,-0.0293 0.107422,-0.0293 h 0.390625 z m -0.07813,-0.205078 -0.566406,-1.491699 h -0.07568 L 32.50918,27.840332 Z M 37.908789,29 h -0.263672 l -1.511231,-2.556152 v 2.351074 h 0.378418 q 0.07568,0 0.107422,0.0293 0.03174,0.02686 0.03174,0.07324 0,0.04395 -0.03174,0.07324 Q 36.587988,29 36.512304,29 H 35.75791 q -0.07568,0 -0.107422,-0.0293 -0.03174,-0.0293 -0.03174,-0.07324 0,-0.04639 0.03174,-0.07324 0.03174,-0.0293 0.107422,-0.0293 h 0.170898 v -2.446289 h -0.275879 q -0.07324,0 -0.10498,-0.02686 -0.03174,-0.0293 -0.03174,-0.07568 0,-0.04639 0.03174,-0.07324 0.03174,-0.0293 0.10498,-0.0293 h 0.53711 l 1.513672,2.561035 v -2.355957 h -0.378418 q -0.07324,0 -0.104981,-0.02686 -0.03174,-0.0293 -0.03174,-0.07568 0,-0.04639 0.0293,-0.07324 0.03174,-0.0293 0.107422,-0.0293 h 0.756836 q 0.07324,0 0.10498,0.0293 0.03174,0.02686 0.03174,0.07324 0,0.04639 -0.03174,0.07568 -0.03174,0.02686 -0.10498,0.02686 h -0.17334 z m 3.69795,-2.575684 v -0.144043 q 0,-0.07324 0.02686,-0.10498 0.0293,-0.03174 0.07568,-0.03174 0.04639,0 0.07324,0.03174 0.0293,0.03174 0.0293,0.10498 v 0.568848 q 0,0.07568 -0.0293,0.107422 -0.02685,0.03174 -0.07324,0.03174 -0.0415,0 -0.0708,-0.0293 -0.02686,-0.0293 -0.03174,-0.09521 -0.01221,-0.205079 -0.222168,-0.36377 -0.283203,-0.217285 -0.644531,-0.217285 -0.236817,0 -0.446778,0.10498 -0.15625,0.07568 -0.249023,0.185547 -0.161133,0.19043 -0.256348,0.422363 -0.06836,0.170899 -0.06836,0.385743 v 0.358886 q 0,0.458985 0.332031,0.79834 0.332032,0.336914 0.771485,0.336914 0.263672,0 0.471191,-0.114746 0.209961,-0.114746 0.405273,-0.34668 0.0415,-0.05127 0.09277,-0.05127 0.04395,0 0.0708,0.02686 0.02685,0.02686 0.02685,0.06836 0,0.05615 -0.10498,0.170898 -0.200196,0.22461 -0.45166,0.339356 -0.249024,0.112304 -0.505372,0.112304 -0.222168,0 -0.45166,-0.08545 -0.175781,-0.06592 -0.290527,-0.153808 -0.114746,-0.08789 -0.283203,-0.295411 -0.166016,-0.209961 -0.227051,-0.385742 -0.06103,-0.178222 -0.06103,-0.390625 v -0.41748 q 0,-0.302735 0.161133,-0.617676 0.163574,-0.317383 0.444336,-0.48584 0.283203,-0.170898 0.612793,-0.170898 0.507812,0 0.874023,0.346679 z m 3.573437,1.621094 H 43.83252 l -0.275879,0.749512 h 0.393066 q 0.07324,0 0.10498,0.0293 0.03174,0.02686 0.03174,0.07324 0,0.04395 -0.03174,0.07324 Q 44.022949,29 43.949707,29 h -0.766602 q -0.07324,0 -0.10498,-0.0293 -0.03174,-0.0293 -0.03174,-0.07324 0,-0.04639 0.03174,-0.07324 0.03174,-0.0293 0.10498,-0.0293 h 0.158692 l 0.905762,-2.446289 H 43.64209 q -0.07324,0 -0.104981,-0.02686 -0.03174,-0.0293 -0.03174,-0.07568 0,-0.04639 0.03174,-0.07324 0.03174,-0.0293 0.104981,-0.0293 h 1.032715 l 1.000976,2.651367 h 0.158692 q 0.07324,0 0.10498,0.0293 0.03174,0.02686 0.03174,0.07324 0,0.04395 -0.03174,0.07324 Q 45.907715,29 45.834473,29 h -0.764161 q -0.07568,0 -0.107421,-0.0293 -0.03174,-0.0293 -0.03174,-0.07324 0,-0.04639 0.03174,-0.07324 0.03174,-0.0293 0.107421,-0.0293 h 0.390625 z m -0.07813,-0.205078 -0.566406,-1.491699 h -0.07568 l -0.549316,1.491699 z"
     id="text4"
     style="font-size:5px;font-family:'Space Mono', 'Courier New', monospace;letter-spacing:0.8;fill:#6f6960"
     aria-label="2V · DETUNE" />
  <path
     d="m 85.007324,29 h -0.312012 l -0.758056,-1.716064 h -0.188965 q -0.06592,0 -0.09448,-0.02637 -0.02857,-0.02637 -0.02857,-0.06811 0,-0.03955 0.02857,-0.06592 0.02856,-0.02637 0.09448,-0.02637 h 0.692139 q 0.06592,0 0.09448,0.02637 0.02857,0.02637 0.02857,0.06811 0,0.03955 -0.02857,0.06592 -0.02856,0.02637 -0.09448,0.02637 h -0.30542 l 0.676758,1.531494 h 0.0813 l 0.663575,-1.531494 h -0.307618 q -0.06592,0 -0.09448,-0.02637 -0.02856,-0.02637 -0.02856,-0.06811 0,-0.03955 0.02856,-0.06592 0.02856,-0.02637 0.09448,-0.02637 h 0.694336 q 0.06812,0 0.09448,0.02637 0.02856,0.02637 0.02856,0.06811 0,0.03955 -0.02856,0.06592 -0.02637,0.02637 -0.09448,0.02637 h -0.186767 z m 3.130127,-2.794922 v 2.610352 h 0.632813 q 0.06592,0 0.09448,0.02637 0.02857,0.02417 0.02857,0.06592 0,0.03955 -0.02857,0.06592 Q 88.836182,29 88.770264,29 h -1.450196 q -0.06592,0 -0.09448,-0.02637 -0.02857,-0.02637 -0.02857,-0.06592 0,-0.04175 0.02857,-0.06592 0.02856,-0.02637 0.09448,-0.02637 h 0.632813 v -2.355469 l -0.602051,0.188965 q -0.04395,0.01318 -0.06372,0.01318 -0.03296,0 -0.06152,-0.02637 -0.02637,-0.02856 -0.02637,-0.06592 0,-0.03296 0.02197,-0.06152 0.01758,-0.01758 0.07251,-0.03735 z m 3.070801,2.265381 h 0.0791 q 0.123046,0 0.210937,0.08789 0.08789,0.08569 0.08789,0.20874 0,0.127441 -0.09009,0.213135 -0.08789,0.08569 -0.20874,0.08569 h -0.0791 q -0.123047,0 -0.210938,-0.08569 -0.08789,-0.08789 -0.08789,-0.210938 0,-0.127441 0.08789,-0.213135 0.09009,-0.08569 0.210938,-0.08569 z m 4.085937,-1.07666 v 0.457031 q 0,0.595459 -0.283447,0.942627 -0.221924,0.272461 -0.560303,0.272461 -0.162597,0 -0.307617,-0.06592 Q 94,28.936279 93.898926,28.819824 q -0.06372,-0.07251 -0.140625,-0.23291 -0.07471,-0.1604 -0.107666,-0.294434 -0.05054,-0.188964 -0.05054,-0.44165 v -0.457031 q 0,-0.597656 0.283447,-0.944824 0.221924,-0.272461 0.560303,-0.272461 0.164795,0 0.307617,0.06592 0.142822,0.06372 0.243896,0.180175 0.06592,0.07471 0.140625,0.235108 0.07471,0.1604 0.109864,0.292236 0.04834,0.188965 0.04834,0.443848 z m -0.18457,0.02417 q 0,-0.261475 -0.07471,-0.485596 -0.07251,-0.226318 -0.164795,-0.360352 -0.05493,-0.0769 -0.142822,-0.131835 -0.125244,-0.07691 -0.28125,-0.07691 -0.309815,0 -0.485596,0.316406 -0.175781,0.316407 -0.175781,0.738282 v 0.406494 q 0,0.261474 0.07251,0.487793 0.07471,0.226318 0.169189,0.360351 0.05274,0.07471 0.140625,0.129639 0.125244,0.0791 0.283447,0.0791 0.307618,0 0.483399,-0.316407 0.175781,-0.318603 0.175781,-0.740478 z m 6.567871,-1.309571 -1.48535,3.181641 q -0.0373,0.0813 -0.0967,0.0813 -0.0374,0 -0.0659,-0.02857 -0.0264,-0.02637 -0.0264,-0.05933 0,-0.02637 0.022,-0.07251 l 1.48315,-3.18164 q 0.0242,-0.05054 0.0461,-0.06592 0.022,-0.01538 0.0527,-0.01538 0.0374,0 0.0637,0.02856 0.0286,0.02637 0.0286,0.05933 0,0.02417 -0.022,0.07251 z m 5.95044,1.461182 q 0.23071,0.112061 0.34717,0.296631 0.11865,0.182373 0.11865,0.39331 0,0.327393 -0.24609,0.566895 -0.2461,0.239502 -0.59766,0.239502 -0.35156,0 -0.59766,-0.239502 -0.24609,-0.239502 -0.24609,-0.566895 0,-0.20874 0.11646,-0.391113 0.11865,-0.18457 0.35156,-0.298828 -0.20215,-0.116455 -0.29444,-0.241699 -0.12744,-0.177979 -0.12744,-0.393311 0,-0.303222 0.23291,-0.529541 0.23511,-0.228515 0.5647,-0.228515 0.33179,0 0.5647,0.228515 0.23291,0.226319 0.23291,0.529541 0,0.215332 -0.12744,0.391114 -0.0901,0.127441 -0.29224,0.243896 z m 0.23071,-0.628418 q 0,-0.237305 -0.17798,-0.406494 -0.17578,-0.171387 -0.43286,-0.171387 -0.25488,0 -0.43286,0.171387 -0.17578,0.171387 -0.17578,0.404297 0,0.215332 0.17358,0.37793 0.17579,0.1604 0.43506,0.1604 0.26148,0 0.43506,-0.1604 0.17578,-0.162598 0.17578,-0.375733 z m 0.0505,1.322754 q 0,-0.243896 -0.18897,-0.424072 -0.18896,-0.180176 -0.47021,-0.180176 -0.28125,0 -0.47021,0.180176 -0.18897,0.180176 -0.18897,0.421875 0,0.250488 0.18897,0.435058 0.19116,0.184571 0.47021,0.184571 0.27905,0 0.46802,-0.184571 0.19116,-0.18457 0.19116,-0.432861 z m 3.16528,-0.507568 h -1.22387 v 1.059082 h 0.24829 q 0.0659,0 0.0945,0.02637 0.0286,0.02417 0.0286,0.06592 0,0.03955 -0.0286,0.06592 Q 110.16479,29 110.09888,29 h -0.6416 q -0.0659,0 -0.0945,-0.02637 -0.0286,-0.02637 -0.0286,-0.06592 0,-0.04175 0.0286,-0.06592 0.0286,-0.02637 0.0945,-0.02637 h 0.20874 v -2.20166 h -0.11426 q -0.0681,0 -0.0967,-0.02417 -0.0286,-0.02637 -0.0286,-0.06812 0,-0.04175 0.0286,-0.06592 0.0286,-0.02637 0.0967,-0.02637 h 0.54712 q 0.0659,0 0.0945,0.02637 0.0286,0.02417 0.0286,0.06592 0,0.04175 -0.0286,0.06812 -0.0286,0.02417 -0.0945,0.02417 h -0.24829 v 0.958007 h 1.22387 V 26.61377 h -0.24609 q -0.0659,0 -0.0945,-0.02417 -0.0286,-0.02637 -0.0286,-0.06812 0,-0.04175 0.0264,-0.06592 0.0286,-0.02637 0.0967,-0.02637 h 0.54712 q 0.0681,0 0.0967,0.02637 0.0286,0.02417 0.0286,0.06592 0,0.04175 -0.0286,0.06812 -0.0286,0.02417 -0.0967,0.02417 h -0.11426 v 2.20166 h 0.20874 q 0.0659,0 0.0945,0.02637 0.0286,0.02417 0.0286,0.06592 0,0.03955 -0.0286,0.06592 Q 111.53589,29 111.46997,29 h -0.6416 q -0.0659,0 -0.0945,-0.02637 -0.0286,-0.02637 -0.0286,-0.06592 0,-0.04175 0.0264,-0.06592 0.0286,-0.02637 0.0967,-0.02637 h 0.24609 z m 2.17432,0.188964 v 0.870118 h 0.63281 q 0.0659,0 0.0945,0.02637 0.0286,0.02417 0.0286,0.06592 0,0.03955 -0.0286,0.06592 Q 113.94751,29 113.88159,29 h -1.06567 q -0.0659,0 -0.0945,-0.02637 -0.0286,-0.02637 -0.0286,-0.06592 0,-0.04175 0.0286,-0.06592 0.0286,-0.02637 0.0945,-0.02637 h 0.24829 v -2.20166 h -0.24829 q -0.0659,0 -0.0945,-0.02417 -0.0286,-0.02637 -0.0286,-0.06812 0,-0.04175 0.0286,-0.06592 0.0286,-0.02637 0.0945,-0.02637 h 1.07226 q 0.38013,0 0.61963,0.224121 0.2417,0.224121 0.2417,0.525147 0,0.177978 -0.0791,0.320801 -0.0769,0.142822 -0.18677,0.224121 -0.16479,0.123047 -0.34057,0.180175 -0.12744,0.04175 -0.31641,0.04175 z m 0,-0.18457 h 0.58887 q 0.20434,0 0.38232,-0.09009 0.18018,-0.09229 0.26148,-0.224121 0.0835,-0.131836 0.0835,-0.268066 0,-0.21753 -0.18677,-0.391113 -0.18676,-0.173584 -0.47241,-0.173584 h -0.65698 z"
     id="text5"
     style="font-size:4.5px;font-family:'Space Mono', 'Courier New', monospace;letter-spacing:0.5;text-anchor:end;fill:#3e5a35"
     aria-label="v1.0 / 8HP" />
  <!-- Two-voice mark -->
  <line
     x1="0"
     y1="31.5"
     x2="120"
     y2="31.5"
     stroke="#FF4A0E"
     stroke-width="1"
     opacity="0.28"
     id="line5" />
  <line
     x1="0"
     y1="33.0"
     x2="120"
     y2="33.0"
     stroke="#FF4A0E"
     stroke-width="1"
     opacity="0.14"
     id="line6" />
  <!-- ══ PITCH SECTION ══ -->
  <rect
     x="0"
     y="35"
     width="120"
     height="8"
     fill="#0C100A"
     id="rect6" />
  <rect
     x="0"
     y="35"
     width="3"
     height="8"
     fill="#FF4A0E"
     id="rect7" />
  <path
     d="M 7.3574219,42 V 37.705078 H 8.5 q 0.6386719,0 0.8349609,0.06152 0.3134766,0.09961 0.515625,0.424804 0.2050781,0.325196 0.2050781,0.837891 0,0.46582 -0.1757812,0.782226 Q 9.7041016,40.125 9.4404297,40.253906 9.1767578,40.379883 8.5322266,40.379883 H 8.0664063 V 42 Z m 0.7089844,-3.568359 v 1.21875 h 0.3925781 q 0.3955078,0 0.5361328,-0.05566 0.1435547,-0.05566 0.234375,-0.199219 0.09082,-0.146485 0.09082,-0.357422 0,-0.213867 -0.09375,-0.360352 -0.09375,-0.146484 -0.2314453,-0.196289 -0.1376953,-0.0498 -0.5830078,-0.0498 z M 12.418164,42 v -4.294922 h 0.708985 V 42 Z m 3.982618,0 v -3.568359 h -1.045899 v -0.726563 h 2.797852 v 0.726563 H 17.109766 V 42 Z m 6.267772,-1.579102 0.688477,0.266602 q -0.161133,0.720703 -0.536133,1.054687 -0.375,0.331055 -0.922852,0.331055 -0.688476,0 -1.11621,-0.530273 -0.492188,-0.612305 -0.492188,-1.652344 0,-1.098633 0.495117,-1.719727 0.430664,-0.539062 1.157227,-0.539062 0.591797,0 0.990234,0.404297 0.28418,0.287109 0.416016,0.852539 l -0.703125,0.205078 q -0.06738,-0.348633 -0.269531,-0.533203 -0.199219,-0.1875 -0.47168,-0.1875 -0.389649,0 -0.635742,0.339844 -0.246094,0.339843 -0.246094,1.12207 0,0.811523 0.240234,1.154297 0.240235,0.342773 0.624024,0.342773 0.28125,0 0.486328,-0.216797 0.205078,-0.219726 0.295898,-0.694336 z M 25.766407,42 v -4.294922 h 0.708984 v 1.69043 h 1.394532 v -1.69043 h 0.711914 V 42 H 27.869923 V 40.12207 H 26.475391 V 42 Z"
     id="text7"
     style="font-weight:700;font-size:6px;font-family:Oswald, 'Arial Narrow', Arial, sans-serif;letter-spacing:1.8;fill:#e8e2d4"
     aria-label="PITCH" />
  <path
     d="m 61.921875,39.939453 v -0.115234 q 0,-0.05859 0.02148,-0.08398 0.02344,-0.02539 0.06055,-0.02539 0.03711,0 0.05859,0.02539 0.02344,0.02539 0.02344,0.08398 v 0.455078 q 0,0.06055 -0.02344,0.08594 -0.02148,0.02539 -0.05859,0.02539 -0.0332,0 -0.05664,-0.02344 -0.02148,-0.02344 -0.02539,-0.07617 Q 61.912109,40.126953 61.744141,40 q -0.226563,-0.173828 -0.515625,-0.173828 -0.189454,0 -0.357422,0.08398 -0.125,0.06055 -0.199219,0.148438 -0.128906,0.152343 -0.205078,0.33789 -0.05469,0.136719 -0.05469,0.308594 v 0.287109 q 0,0.367188 0.265625,0.638672 0.265625,0.269532 0.617188,0.269532 0.210937,0 0.376953,-0.0918 0.167969,-0.0918 0.324219,-0.277344 0.0332,-0.04102 0.07422,-0.04102 0.03516,0 0.05664,0.02148 0.02148,0.02148 0.02148,0.05469 0,0.04492 -0.08398,0.136719 -0.160156,0.179687 -0.361328,0.271484 -0.199219,0.08984 -0.404297,0.08984 -0.177734,0 -0.361328,-0.06836 -0.140625,-0.05273 -0.232422,-0.123047 -0.0918,-0.07031 -0.226562,-0.236328 -0.132813,-0.167969 -0.181641,-0.308594 -0.04883,-0.142578 -0.04883,-0.3125 v -0.333984 q 0,-0.242188 0.128906,-0.494141 0.130859,-0.253906 0.355469,-0.388672 0.226562,-0.136719 0.490234,-0.136719 0.40625,0 0.699219,0.277344 z M 64.122656,42 h -0.228515 l -0.826172,-2.121094 h -0.126953 q -0.04492,0 -0.06445,-0.0078 -0.01953,-0.0098 -0.0332,-0.0293 -0.01172,-0.02148 -0.01172,-0.04492 0,-0.02344 0.01172,-0.04297 0.01367,-0.02148 0.0332,-0.0293 0.01953,-0.0098 0.06445,-0.0098 h 0.611328 q 0.04687,0 0.06445,0.0098 0.01953,0.0078 0.03125,0.0293 0.01367,0.01953 0.01367,0.04297 0,0.02344 -0.01367,0.04492 -0.01367,0.01953 -0.0332,0.0293 -0.01758,0.0078 -0.0625,0.0078 h -0.314453 l 0.761718,1.957031 h 0.01172 l 0.751953,-1.957031 h -0.3125 q -0.04687,0 -0.06641,-0.0078 -0.01953,-0.0098 -0.0332,-0.0293 -0.01172,-0.02148 -0.01172,-0.04492 0,-0.02344 0.01367,-0.04297 0.01367,-0.02148 0.03125,-0.0293 0.01953,-0.0098 0.06641,-0.0098 h 0.609375 q 0.04687,0 0.06641,0.0098 0.01953,0.0078 0.03125,0.0293 0.01367,0.01953 0.01367,0.04297 0,0.02344 -0.01367,0.04492 -0.01367,0.01953 -0.0332,0.0293 -0.01758,0.0078 -0.06445,0.0078 h -0.125 z m 6.061719,-1.333984 q 0,0.08203 -0.05859,0.140625 -0.05859,0.05859 -0.140625,0.05859 -0.08398,0 -0.142578,-0.05859 -0.05859,-0.05859 -0.05859,-0.140625 0,-0.08398 0.05859,-0.142579 0.05859,-0.05859 0.142578,-0.05859 0.08203,0 0.140625,0.05859 0.05859,0.05859 0.05859,0.142579 z m 5.557812,0.570312 h -1.078125 l -0.220703,0.599609 h 0.314453 q 0.05859,0 0.08398,0.02344 0.02539,0.02148 0.02539,0.05859 0,0.03516 -0.02539,0.05859 Q 74.816406,42 74.757812,42 h -0.613281 q -0.05859,0 -0.08398,-0.02344 -0.02539,-0.02344 -0.02539,-0.05859 0,-0.03711 0.02539,-0.05859 0.02539,-0.02344 0.08398,-0.02344 h 0.126953 l 0.72461,-1.957031 h -0.484375 q -0.05859,0 -0.08398,-0.02148 -0.02539,-0.02344 -0.02539,-0.06055 0,-0.03711 0.02539,-0.05859 0.02539,-0.02344 0.08398,-0.02344 h 0.826172 l 0.800781,2.121093 h 0.126953 q 0.05859,0 0.08398,0.02344 0.02539,0.02148 0.02539,0.05859 0,0.03516 -0.02539,0.05859 Q 76.324219,42 76.265625,42 h -0.611328 q -0.06055,0 -0.08594,-0.02344 -0.02539,-0.02344 -0.02539,-0.05859 0,-0.03711 0.02539,-0.05859 0.02539,-0.02344 0.08594,-0.02344 h 0.3125 z m -0.0625,-0.164062 -0.453125,-1.19336 h -0.06055 l -0.439454,1.19336 z m 2.403906,-1.19336 v 1.957031 h 0.425782 q 0.05859,0 0.08398,0.02344 0.02539,0.02148 0.02539,0.05859 0,0.03516 -0.02539,0.05859 Q 78.567968,42 78.509375,42 h -1.017579 q -0.05859,0 -0.08398,-0.02344 -0.02539,-0.02344 -0.02539,-0.05859 0,-0.03711 0.02539,-0.05859 0.02539,-0.02344 0.08398,-0.02344 h 0.425782 v -1.957031 h -0.671875 v 0.56836 q 0,0.06055 -0.02344,0.08594 -0.02148,0.02539 -0.05859,0.02539 -0.03516,0 -0.05859,-0.02539 -0.02344,-0.02539 -0.02344,-0.08594 v -0.732422 h 1.837891 v 0.732422 q 0,0.06055 -0.02344,0.08594 -0.02148,0.02539 -0.05859,0.02539 -0.03711,0 -0.06055,-0.02539 -0.02149,-0.02539 -0.02149,-0.08594 v -0.56836 z M 81.60664,42 h -0.210938 l -1.208984,-2.044922 v 1.880859 h 0.302734 q 0.06055,0 0.08594,0.02344 0.02539,0.02148 0.02539,0.05859 0,0.03516 -0.02539,0.05859 Q 80.549999,42 80.489452,42 h -0.603515 q -0.06055,0 -0.08594,-0.02344 -0.02539,-0.02344 -0.02539,-0.05859 0,-0.03711 0.02539,-0.05859 0.02539,-0.02344 0.08594,-0.02344 h 0.136718 v -1.957031 h -0.220703 q -0.05859,0 -0.08398,-0.02148 -0.02539,-0.02344 -0.02539,-0.06055 0,-0.03711 0.02539,-0.05859 0.02539,-0.02344 0.08398,-0.02344 h 0.429688 l 1.210937,2.048828 v -1.884766 h -0.302734 q -0.05859,0 -0.08398,-0.02148 -0.02539,-0.02344 -0.02539,-0.06055 0,-0.03711 0.02344,-0.05859 0.02539,-0.02344 0.08594,-0.02344 h 0.605469 q 0.05859,0 0.08398,0.02344 0.02539,0.02148 0.02539,0.05859 0,0.03711 -0.02539,0.06055 -0.02539,0.02148 -0.08398,0.02148 H 81.60664 Z"
     id="text8"
     style="font-size:4px;font-family:'Space Mono', 'Courier New', monospace;letter-spacing:0.4;fill:#6f6960"
     aria-label="CV · ATN" />
  <!-- MOD jack label (y=82.7) -->
  <circle
     cx="90"
     cy="73"
     r="3"
     fill="#E8C547"
     id="circle8" />
  <path
     d="m 84.558594,67 v -3.937012 h 0.974853 l 0.585449,2.685547 0.580079,-2.685547 h 0.977539 V 67 H 87.072266 V 63.900879 L 86.43042,67 H 85.802002 L 85.165527,63.900879 V 67 Z m 4.13623,-1.944336 q 0,-0.703613 0.206787,-1.157471 0.209473,-0.456543 0.545166,-0.679443 0.335694,-0.2229 0.813721,-0.2229 0.692871,0 1.12793,0.529052 0.437744,0.529053 0.437744,1.506592 0,0.988281 -0.461914,1.54419 -0.405518,0.491455 -1.101074,0.491455 -0.700928,0 -1.106446,-0.486084 -0.461914,-0.555909 -0.461914,-1.525391 z m 0.671387,-0.02685 q 0,0.679443 0.257812,1.020507 0.257813,0.338379 0.639161,0.338379 0.384033,0 0.636474,-0.335693 0.252442,-0.338379 0.252442,-1.036621 0,-0.684815 -0.247071,-1.012451 -0.244384,-0.327637 -0.641845,-0.327637 -0.397461,0 -0.647217,0.330322 -0.249756,0.330322 -0.249756,1.023194 z m 3.464844,-1.965821 h 1.189697 q 0.451172,0 0.679443,0.102051 0.230957,0.09936 0.424317,0.338379 0.193359,0.239014 0.303467,0.620361 0.110107,0.381348 0.110107,0.947998 0,0.510254 -0.115479,0.888916 -0.115478,0.375977 -0.292724,0.596192 Q 94.952637,66.7771 94.700195,66.889893 94.450439,67 94.055664,67 h -1.224609 z m 0.649902,0.666016 v 2.607666 h 0.48877 q 0.314209,0 0.453857,-0.05908 0.142334,-0.05908 0.230957,-0.177246 0.09131,-0.12085 0.150391,-0.378662 0.05908,-0.257813 0.05908,-0.679444 0,-0.437744 -0.06177,-0.690185 -0.05908,-0.252442 -0.187988,-0.397461 -0.126221,-0.14502 -0.308838,-0.190674 -0.136963,-0.03491 -0.529053,-0.03491 z"
     id="text9"
     style="font-weight:700;font-size:5.5px;font-family:Oswald, 'Arial Narrow', Arial, sans-serif;letter-spacing:0.5;text-anchor:middle;fill:#e8e2d4"
     aria-label="MOD" />
  <!-- PITCH knob label (y=112.2) -->
  <path
     d="m 20.208838,98 v -5.010742 h 1.333008 q 0.745117,0 0.974121,0.07178 0.365722,0.116211 0.601562,0.495606 0.239258,0.379394 0.239258,0.977539 0,0.543457 -0.205078,0.912597 -0.205078,0.365723 -0.512695,0.516114 -0.307618,0.146972 -1.059571,0.146972 H 21.035986 V 98 Z m 0.827148,-4.163086 v 1.421875 h 0.458008 q 0.461426,0 0.625488,-0.06494 0.167481,-0.06494 0.273438,-0.232422 0.105957,-0.170899 0.105957,-0.416992 0,-0.249512 -0.109375,-0.420411 -0.109375,-0.170898 -0.27002,-0.229003 -0.160644,-0.05811 -0.680175,-0.05811 z M 24.813037,98 v -5.010742 h 0.827149 V 98 Z m 3.346387,0 v -4.163086 h -1.220215 v -0.847656 h 3.26416 v 0.847656 H 28.986572 V 98 Z m 6.012402,-1.842285 0.803222,0.311035 q -0.187988,0.84082 -0.625488,1.230469 -0.4375,0.38623 -1.07666,0.38623 -0.803223,0 -1.302246,-0.618652 -0.574219,-0.714356 -0.574219,-1.927735 0,-1.281738 0.577637,-2.006347 0.502441,-0.628906 1.350098,-0.628906 0.690429,0 1.155273,0.471679 0.331543,0.334961 0.485352,0.994629 l -0.820313,0.239258 q -0.07861,-0.406738 -0.314453,-0.62207 -0.232422,-0.21875 -0.550293,-0.21875 -0.45459,0 -0.741699,0.396484 -0.28711,0.396484 -0.28711,1.309082 0,0.946777 0.280274,1.34668 0.280273,0.399902 0.728027,0.399902 0.328125,0 0.567383,-0.25293 0.239258,-0.256347 0.345215,-0.810058 z M 36.485987,98 v -5.010742 h 0.827149 v 1.972168 h 1.626953 v -1.972168 h 0.830566 V 98 H 38.940089 V 95.809082 H 37.313136 V 98 Z"
     id="text10"
     style="font-weight:700;font-size:7px;font-family:Oswald, 'Arial Narrow', Arial, sans-serif;letter-spacing:0.8;text-anchor:middle;fill:#e8e2d4"
     aria-label="PITCH" />
  <path
     d="m 20.843262,126.88745 q 0.179443,0.0872 0.270019,0.23071 0.09229,0.14185 0.09229,0.30591 0,0.25464 -0.191406,0.44092 -0.191406,0.18628 -0.464844,0.18628 -0.273437,0 -0.464843,-0.18628 -0.191407,-0.18628 -0.191407,-0.44092 0,-0.16235 0.09058,-0.3042 0.09229,-0.14355 0.273437,-0.23242 -0.157226,-0.0906 -0.229004,-0.18799 -0.09912,-0.13842 -0.09912,-0.30591 0,-0.23584 0.181152,-0.41186 0.182862,-0.17773 0.439209,-0.17773 0.258057,0 0.439209,0.17773 0.181153,0.17602 0.181153,0.41186 0,0.16749 -0.09912,0.3042 -0.07007,0.0991 -0.227295,0.1897 z m 0.179443,-0.48877 q 0,-0.18457 -0.138428,-0.31616 -0.136718,-0.1333 -0.33667,-0.1333 -0.198242,0 -0.33667,0.1333 -0.136718,0.1333 -0.136718,0.31445 0,0.16748 0.13501,0.29395 0.136718,0.12475 0.338378,0.12475 0.20337,0 0.338379,-0.12475 0.136719,-0.12647 0.136719,-0.29224 z m 0.03931,1.02881 q 0,-0.1897 -0.146973,-0.32983 -0.146973,-0.14014 -0.365723,-0.14014 -0.21875,0 -0.365722,0.14014 -0.146973,0.14013 -0.146973,0.32812 0,0.19483 0.146973,0.33838 0.148681,0.14355 0.365722,0.14355 0.217041,0 0.364014,-0.14355 0.148682,-0.14355 0.148682,-0.33667 z m 0.968994,0.42896 h 1.102295 v -0.0564 q 0,-0.0513 0.02051,-0.0735 0.02051,-0.0222 0.05298,-0.0222 0.03076,0 0.05127,0.0222 0.02051,0.0222 0.02051,0.0735 V 128 h -1.387695 v -0.21191 q 0.4375,-0.39307 0.851074,-0.79981 0.193116,-0.1897 0.264893,-0.27856 0.07178,-0.0889 0.09741,-0.15552 0.02734,-0.0684 0.02734,-0.13672 0,-0.18457 -0.148682,-0.32642 -0.148681,-0.14184 -0.358887,-0.14184 -0.187988,0 -0.333252,0.10766 -0.145263,0.10767 -0.187988,0.26661 -0.01025,0.041 -0.02563,0.053 -0.02051,0.0171 -0.04785,0.0171 -0.02905,0 -0.04956,-0.0188 -0.0188,-0.0205 -0.0188,-0.0479 0,-0.082 0.08887,-0.22216 0.09058,-0.14014 0.247802,-0.22046 0.158936,-0.0803 0.324707,-0.0803 0.268311,0 0.461426,0.18627 0.193115,0.18628 0.193115,0.42212 0,0.0991 -0.03247,0.18286 -0.03247,0.082 -0.111084,0.18116 -0.07691,0.0974 -0.278565,0.29565 -0.505859,0.49902 -0.82373,0.77417 z m 3.424805,-0.78443 H 24.04248 q -0.05127,0 -0.07349,-0.0188 -0.02222,-0.0205 -0.02222,-0.053 0,-0.0325 0.02222,-0.0513 0.02222,-0.0205 0.07349,-0.0205 h 1.413331 q 0.05127,0 0.07349,0.0205 0.02222,0.0188 0.02222,0.0513 0,0.0325 -0.02222,0.053 -0.02222,0.0188 -0.07349,0.0188 z m 1.464599,-1.24585 v 2.03028 h 0.492188 q 0.05127,0 0.07349,0.0205 0.02222,0.0188 0.02222,0.0513 0,0.0308 -0.02222,0.0513 Q 27.463867,128 27.412598,128 h -1.12793 q -0.05127,0 -0.07349,-0.0205 -0.02222,-0.0205 -0.02222,-0.0513 0,-0.0325 0.02222,-0.0513 0.02222,-0.0205 0.07349,-0.0205 h 0.492187 v -1.83204 l -0.468261,0.14698 q -0.03418,0.0102 -0.04956,0.0102 -0.02563,0 -0.04785,-0.0205 -0.02051,-0.0222 -0.02051,-0.0513 0,-0.0256 0.01709,-0.0478 0.01367,-0.0137 0.0564,-0.029 z m 2.324219,1.00659 q 0.198242,0.0889 0.30249,0.24439 0.104248,0.15381 0.104248,0.32129 0,0.25805 -0.210205,0.4563 -0.208496,0.19653 -0.522949,0.19653 -0.18457,0 -0.382813,-0.0786 -0.198242,-0.0786 -0.276855,-0.16065 -0.02564,-0.0273 -0.02564,-0.0581 0,-0.0273 0.0188,-0.0479 0.02051,-0.0205 0.04785,-0.0205 0.02734,0 0.06152,0.0256 0.264893,0.19653 0.560547,0.19653 0.249512,0 0.416992,-0.15551 0.169189,-0.15723 0.169189,-0.34864 0,-0.12817 -0.08374,-0.25122 -0.08203,-0.12304 -0.237549,-0.19311 -0.155517,-0.0718 -0.314453,-0.0718 -0.05127,0 -0.07349,-0.0188 -0.02222,-0.0205 -0.02222,-0.053 0,-0.0308 0.02051,-0.0513 0.02222,-0.0205 0.06494,-0.0205 l 0.123047,0.002 q 0.193116,0 0.317871,-0.11792 0.126465,-0.11792 0.126465,-0.27344 0,-0.16065 -0.131592,-0.28369 -0.131591,-0.12305 -0.343505,-0.12305 -0.148682,0 -0.273438,0.0513 -0.124756,0.0513 -0.199951,0.14014 -0.02734,0.0342 -0.04273,0.0427 -0.01367,0.007 -0.03247,0.007 -0.02905,0 -0.04956,-0.0188 -0.02051,-0.0205 -0.02051,-0.0478 0,-0.0684 0.148682,-0.17261 0.206787,-0.14526 0.469971,-0.14526 0.271728,0 0.446044,0.16406 0.174317,0.16235 0.174317,0.38794 0,0.14355 -0.08374,0.27173 -0.08374,0.12817 -0.246094,0.20507 z m 1.876465,-1.00659 v 2.03028 h 0.492187 q 0.05127,0 0.07349,0.0205 0.02222,0.0188 0.02222,0.0513 0,0.0308 -0.02222,0.0513 Q 31.664551,128 31.613281,128 h -1.127929 q -0.05127,0 -0.07349,-0.0205 -0.02222,-0.0205 -0.02222,-0.0513 0,-0.0325 0.02222,-0.0513 0.02222,-0.0205 0.07349,-0.0205 h 0.492187 v -1.83204 l -0.468262,0.14698 q -0.03418,0.0102 -0.04956,0.0102 -0.02564,0 -0.04785,-0.0205 -0.02051,-0.0222 -0.02051,-0.0513 0,-0.0256 0.01709,-0.0478 0.01367,-0.0137 0.0564,-0.029 z m 2.618164,0.96045 q -0.111084,0.19653 -0.264893,0.29566 -0.152099,0.0991 -0.312744,0.0991 -0.148682,0 -0.288818,-0.0854 -0.138428,-0.0855 -0.220459,-0.24951 -0.08203,-0.16578 -0.08203,-0.34693 0,-0.26318 0.162354,-0.47851 0.164063,-0.21704 0.4375,-0.21704 0.194824,0 0.355469,0.12133 0.160644,0.12134 0.249511,0.35205 0.114502,0.29566 0.114502,0.68702 0,0.30419 -0.09741,0.50585 -0.06494,0.13672 -0.191406,0.2649 -0.124756,0.12817 -0.281982,0.20849 -0.215332,0.10767 -0.447754,0.10767 -0.153809,0 -0.251221,-0.0581 -0.04443,-0.0273 -0.04443,-0.0684 0,-0.029 0.02051,-0.0479 0.02051,-0.0205 0.04956,-0.0205 0.02051,0 0.05981,0.0188 0.06665,0.0325 0.153809,0.0325 0.364014,0 0.625488,-0.26147 0.261475,-0.26318 0.261475,-0.65796 0,-0.0718 -0.0068,-0.20166 z m -0.02734,-0.23926 q -0.09058,-0.34692 -0.225586,-0.47168 -0.133301,-0.12646 -0.312744,-0.12646 -0.182861,0 -0.321289,0.15381 -0.138428,0.15381 -0.138428,0.39477 0,0.23413 0.138428,0.38794 0.138428,0.1521 0.312744,0.1521 0.10083,0 0.198242,-0.0547 0.09912,-0.0547 0.18628,-0.16406 0.0564,-0.0735 0.162353,-0.27173 z m 4.125488,0.48535 h -0.951904 v 0.82374 h 0.193115 q 0.05127,0 0.07349,0.0205 0.02222,0.0188 0.02222,0.0513 0,0.0308 -0.02222,0.0513 Q 37.129883,128 37.078613,128 H 36.57959 q -0.05127,0 -0.07349,-0.0205 -0.02222,-0.0205 -0.02222,-0.0513 0,-0.0325 0.02222,-0.0513 0.02222,-0.0205 0.07349,-0.0205 h 0.162353 v -1.71241 h -0.08887 q -0.05298,0 -0.0752,-0.0188 -0.02222,-0.0205 -0.02222,-0.053 0,-0.0325 0.02222,-0.0513 0.02222,-0.0205 0.0752,-0.0205 h 0.425537 q 0.05127,0 0.07349,0.0205 0.02222,0.0188 0.02222,0.0513 0,0.0325 -0.02222,0.053 -0.02222,0.0188 -0.07349,0.0188 h -0.193115 v 0.74512 h 0.951904 v -0.74512 h -0.191406 q -0.05127,0 -0.07349,-0.0188 -0.02222,-0.0205 -0.02222,-0.053 0,-0.0325 0.02051,-0.0513 0.02222,-0.0205 0.07519,-0.0205 h 0.425537 q 0.05298,0 0.0752,0.0205 0.02222,0.0188 0.02222,0.0513 0,0.0325 -0.02222,0.053 -0.02222,0.0188 -0.0752,0.0188 h -0.08887 v 1.71241 h 0.162354 q 0.05127,0 0.07349,0.0205 0.02222,0.0188 0.02222,0.0513 0,0.0308 -0.02222,0.0513 Q 38.196289,128 38.14502,128 h -0.499024 q -0.05127,0 -0.07349,-0.0205 -0.02222,-0.0205 -0.02222,-0.0513 0,-0.0325 0.02051,-0.0513 0.02222,-0.0205 0.07519,-0.0205 h 0.191406 z m 2.242188,-0.51269 v 0.12817 l -1.074951,1.20826 h 0.970703 v -0.19825 q 0,-0.0513 0.0188,-0.0735 0.02051,-0.0222 0.05298,-0.0222 0.03247,0 0.05298,0.0222 0.02051,0.0222 0.02051,0.0735 L 40.118896,128 h -1.3125 v -0.12817 l 1.069825,-1.20655 h -0.89209 v 0.19483 q 0,0.0513 -0.02051,0.0735 -0.02051,0.0222 -0.05127,0.0222 -0.03247,0 -0.05298,-0.0222 -0.02051,-0.0222 -0.02051,-0.0735 v -0.34009 z"
     id="text11"
     style="font-size:3.5px;font-family:'Space Mono', 'Courier New', monospace;text-anchor:middle;opacity:0.81;fill:#5a7350"
     aria-label="82–1319 Hz" />
  <!-- ATN label (y=141.8) -->
  <path
     d="m 88.383057,132 h -0.644532 l -0.256347,-0.81299 H 86.310303 L 86.068604,132 h -0.629883 l 1.142578,-3.5791 h 0.627441 z m -1.091309,-1.41602 -0.402832,-1.32812 -0.397949,1.32812 z M 89.556885,132 v -2.97363 h -0.871582 v -0.60547 h 2.331543 v 0.60547 H 90.147705 V 132 Z m 2.350586,0 v -3.5791 h 0.576172 l 1.201171,2.39014 v -2.39014 h 0.551758 V 132 h -0.595703 l -1.18164,-2.33398 V 132 Z"
     id="text12"
     style="font-weight:700;font-size:5px;font-family:Oswald, 'Arial Narrow', Arial, sans-serif;letter-spacing:0.5;text-anchor:middle;fill:#6f6960"
     aria-label="ATN" />
  <rect
     x="5"
     y="155"
     width="110"
     height="1"
     fill="#2E3A2D"
     id="rect12" />
  <!-- ══ DETUNE SECTION ══ -->
  <rect
     x="0"
     y="157"
     width="120"
     height="8"
     fill="#0C100A"
     id="rect13" />
  <rect
     x="0"
     y="157"
     width="3"
     height="8"
     fill="#FF4A0E"
     id="rect14" />
  <path
     d="m 7.3544922,159.70508 h 1.2978516 q 0.4921875,0 0.7412109,0.11133 0.2519531,0.10839 0.4628906,0.36914 0.2109377,0.26074 0.3310547,0.67675 0.120117,0.41602 0.120117,1.03418 0,0.55664 -0.125976,0.96973 -0.125977,0.41016 -0.3193363,0.65039 -0.1933594,0.24024 -0.46875,0.36328 Q 9.1210938,164 8.6904297,164 H 7.3544922 Z m 0.7089844,0.72656 v 2.84473 h 0.5332031 q 0.3427734,0 0.4951172,-0.0645 0.1552734,-0.0644 0.2519531,-0.19336 0.099609,-0.13183 0.1640625,-0.41308 0.064453,-0.28125 0.064453,-0.74121 0,-0.47754 -0.067383,-0.75293 -0.064453,-0.27539 -0.2050781,-0.4336 -0.1376953,-0.1582 -0.3369141,-0.208 -0.149414,-0.0381 -0.5771484,-0.0381 z M 12.711133,164 v -4.29492 h 2.613281 v 0.72656 h -1.904297 v 0.95215 h 1.769532 v 0.72363 h -1.769532 v 1.16895 h 1.96875 V 164 Z m 5.872266,0 v -3.56836 H 17.5375 v -0.72656 h 2.797852 v 0.72656 H 19.292383 V 164 Z m 4.006054,-4.29492 h 0.708984 v 2.32617 q 0,0.54199 0.02637,0.70605 0.04687,0.28418 0.222657,0.43946 0.17871,0.15527 0.46875,0.15527 0.246093,0 0.401367,-0.1084 0.155273,-0.11133 0.210937,-0.30468 0.05859,-0.19629 0.05859,-0.8379 v -2.37597 h 0.711914 v 2.25586 q 0,0.86426 -0.09375,1.25097 -0.09082,0.38379 -0.416016,0.62403 -0.322265,0.2373 -0.852539,0.2373 -0.550781,0 -0.861328,-0.19629 -0.307617,-0.19922 -0.448242,-0.55664 -0.137695,-0.36035 -0.137695,-1.32422 z M 27.954884,164 v -4.29492 h 0.691406 l 1.441406,2.86816 v -2.86816 h 0.662109 V 164 h -0.714843 l -1.417969,-2.80078 V 164 Z m 5.344921,0 v -4.29492 h 2.613281 v 0.72656 h -1.904297 v 0.95215 h 1.769531 v 0.72363 h -1.769531 v 1.16895 h 1.96875 V 164 Z"
     id="text14"
     style="font-weight:700;font-size:6px;font-family:Oswald, 'Arial Narrow', Arial, sans-serif;letter-spacing:1.8;fill:#e8e2d4"
     aria-label="DETUNE" />
  <path
     d="m 73.921875,161.93945 v -0.11523 q 0,-0.0586 0.02148,-0.084 0.02344,-0.0254 0.06055,-0.0254 0.03711,0 0.05859,0.0254 0.02344,0.0254 0.02344,0.084 v 0.45508 q 0,0.0605 -0.02344,0.0859 -0.02148,0.0254 -0.05859,0.0254 -0.0332,0 -0.05664,-0.0234 -0.02148,-0.0234 -0.02539,-0.0762 -0.0098,-0.16407 -0.177734,-0.29102 -0.226563,-0.17383 -0.515625,-0.17383 -0.189454,0 -0.357422,0.084 -0.125,0.0605 -0.199219,0.14843 -0.128906,0.15235 -0.205078,0.33789 -0.05469,0.13672 -0.05469,0.3086 v 0.28711 q 0,0.36718 0.265625,0.63867 0.265625,0.26953 0.617188,0.26953 0.210937,0 0.376953,-0.0918 0.167969,-0.0918 0.324219,-0.27734 0.0332,-0.041 0.07422,-0.041 0.03516,0 0.05664,0.0215 0.02148,0.0215 0.02148,0.0547 0,0.0449 -0.08398,0.13671 -0.160156,0.17969 -0.361328,0.27149 -0.199219,0.0898 -0.404297,0.0898 -0.177734,0 -0.361328,-0.0684 -0.140625,-0.0527 -0.232422,-0.12304 -0.0918,-0.0703 -0.226562,-0.23633 -0.132813,-0.16797 -0.181641,-0.3086 -0.04883,-0.14257 -0.04883,-0.3125 v -0.33398 q 0,-0.24219 0.128906,-0.49414 0.130859,-0.25391 0.355469,-0.38867 0.226562,-0.13672 0.490234,-0.13672 0.40625,0 0.699219,0.27734 z M 76.122656,164 h -0.228515 l -0.826172,-2.12109 h -0.126953 q -0.04492,0 -0.06445,-0.008 -0.01953,-0.01 -0.0332,-0.0293 -0.01172,-0.0215 -0.01172,-0.0449 0,-0.0234 0.01172,-0.043 0.01367,-0.0215 0.0332,-0.0293 0.01953,-0.01 0.06445,-0.01 h 0.611328 q 0.04687,0 0.06445,0.01 0.01953,0.008 0.03125,0.0293 0.01367,0.0195 0.01367,0.043 0,0.0234 -0.01367,0.0449 -0.01367,0.0195 -0.0332,0.0293 -0.01758,0.008 -0.0625,0.008 h -0.314453 l 0.761718,1.95703 h 0.01172 l 0.751953,-1.95703 h -0.3125 q -0.04687,0 -0.06641,-0.008 -0.01953,-0.01 -0.0332,-0.0293 -0.01172,-0.0215 -0.01172,-0.0449 0,-0.0234 0.01367,-0.043 0.01367,-0.0215 0.03125,-0.0293 0.01953,-0.01 0.06641,-0.01 h 0.609375 q 0.04687,0 0.06641,0.01 0.01953,0.008 0.03125,0.0293 0.01367,0.0195 0.01367,0.043 0,0.0234 -0.01367,0.0449 -0.01367,0.0195 -0.0332,0.0293 -0.01758,0.008 -0.06445,0.008 h -0.125 z m 6.061719,-1.33398 q 0,0.082 -0.05859,0.14062 -0.05859,0.0586 -0.140625,0.0586 -0.08398,0 -0.142578,-0.0586 -0.05859,-0.0586 -0.05859,-0.14062 0,-0.084 0.05859,-0.14258 0.05859,-0.0586 0.142578,-0.0586 0.08203,0 0.140625,0.0586 0.05859,0.0586 0.05859,0.14258 z m 5.557812,0.57031 h -1.078125 l -0.220703,0.59961 h 0.314453 q 0.05859,0 0.08398,0.0234 0.02539,0.0215 0.02539,0.0586 0,0.0352 -0.02539,0.0586 Q 86.816406,164 86.757812,164 h -0.613281 q -0.05859,0 -0.08398,-0.0234 -0.02539,-0.0234 -0.02539,-0.0586 0,-0.0371 0.02539,-0.0586 0.02539,-0.0234 0.08398,-0.0234 h 0.126953 l 0.72461,-1.95703 h -0.484375 q -0.05859,0 -0.08398,-0.0215 -0.02539,-0.0234 -0.02539,-0.0605 0,-0.0371 0.02539,-0.0586 0.02539,-0.0234 0.08398,-0.0234 h 0.826172 l 0.800781,2.1211 h 0.126953 q 0.05859,0 0.08398,0.0234 0.02539,0.0215 0.02539,0.0586 0,0.0352 -0.02539,0.0586 Q 88.324219,164 88.265625,164 h -0.611328 q -0.06055,0 -0.08594,-0.0234 -0.02539,-0.0234 -0.02539,-0.0586 0,-0.0371 0.02539,-0.0586 0.02539,-0.0234 0.08594,-0.0234 h 0.3125 z m -0.0625,-0.16406 -0.453125,-1.19336 h -0.06055 l -0.439454,1.19336 z m 2.403906,-1.19336 v 1.95703 h 0.425782 q 0.05859,0 0.08398,0.0234 0.02539,0.0215 0.02539,0.0586 0,0.0352 -0.02539,0.0586 Q 90.567968,164 90.509375,164 h -1.017579 q -0.05859,0 -0.08398,-0.0234 -0.02539,-0.0234 -0.02539,-0.0586 0,-0.0371 0.02539,-0.0586 0.02539,-0.0234 0.08398,-0.0234 h 0.425782 v -1.95703 h -0.671875 v 0.56836 q 0,0.0605 -0.02344,0.0859 -0.02148,0.0254 -0.05859,0.0254 -0.03516,0 -0.05859,-0.0254 -0.02344,-0.0254 -0.02344,-0.0859 v -0.73243 h 1.837891 v 0.73243 q 0,0.0605 -0.02344,0.0859 -0.02148,0.0254 -0.05859,0.0254 -0.03711,0 -0.06055,-0.0254 -0.02149,-0.0254 -0.02149,-0.0859 v -0.56836 z M 93.60664,164 h -0.210938 l -1.208984,-2.04492 v 1.88086 h 0.302734 q 0.06055,0 0.08594,0.0234 0.02539,0.0215 0.02539,0.0586 0,0.0352 -0.02539,0.0586 Q 92.549999,164 92.489452,164 h -0.603515 q -0.06055,0 -0.08594,-0.0234 -0.02539,-0.0234 -0.02539,-0.0586 0,-0.0371 0.02539,-0.0586 0.02539,-0.0234 0.08594,-0.0234 h 0.136718 v -1.95703 h -0.220703 q -0.05859,0 -0.08398,-0.0215 -0.02539,-0.0234 -0.02539,-0.0605 0,-0.0371 0.02539,-0.0586 0.02539,-0.0234 0.08398,-0.0234 h 0.429688 l 1.210937,2.04883 v -1.88476 h -0.302734 q -0.05859,0 -0.08398,-0.0215 -0.02539,-0.0234 -0.02539,-0.0605 0,-0.0371 0.02344,-0.0586 0.02539,-0.0234 0.08594,-0.0234 h 0.605469 q 0.05859,0 0.08398,0.0234 0.02539,0.0215 0.02539,0.0586 0,0.0371 -0.02539,0.0605 -0.02539,0.0215 -0.08398,0.0215 H 93.60664 Z"
     id="text15"
     style="font-size:4px;font-family:'Space Mono', 'Courier New', monospace;letter-spacing:0.4;fill:#6f6960"
     aria-label="CV · ATN" />
  <!-- DETUNE_CV jack label (y=171.3) -->
  <circle
     cx="90"
     cy="161"
     r="3"
     fill="#E8C547"
     id="circle15" />
  <path
     d="m 89.01416,153.55249 0.631104,0.24438 q -0.147705,0.66065 -0.491455,0.9668 -0.34375,0.30347 -0.845948,0.30347 -0.631103,0 -1.023193,-0.48609 -0.451172,-0.56127 -0.451172,-1.51464 0,-1.00708 0.453858,-1.57642 0.394775,-0.49414 1.060791,-0.49414 0.54248,0 0.907714,0.37061 0.260498,0.26318 0.381348,0.78149 l -0.644531,0.18799 q -0.06177,-0.31958 -0.247071,-0.48877 -0.182617,-0.17188 -0.432373,-0.17188 -0.357177,0 -0.582763,0.31153 -0.225586,0.31152 -0.225586,1.02856 0,0.7439 0.220215,1.05811 0.220214,0.31421 0.572021,0.31421 0.257813,0 0.445801,-0.19874 0.187988,-0.20141 0.27124,-0.63647 z M 91.525635,155 l -1.1521,-3.93701 h 0.706299 l 0.816406,2.91382 0.789551,-2.91382 h 0.692871 L 92.223877,155 Z"
     id="text16"
     style="font-weight:700;font-size:5.5px;font-family:Oswald, 'Arial Narrow', Arial, sans-serif;letter-spacing:0.5;text-anchor:middle;fill:#e8e2d4"
     aria-label="CV" />
  <!-- DETUNE knob label (y=192.0) -->
  <path
     d="m 16.618164,172.98926 h 1.51416 q 0.574219,0 0.864746,0.12988 0.293946,0.12647 0.540039,0.43066 0.246094,0.3042 0.386231,0.78956 0.140137,0.48535 0.140137,1.20654 0,0.64941 -0.146973,1.13135 -0.146973,0.47851 -0.372559,0.75879 -0.225586,0.28027 -0.546875,0.42382 Q 18.679199,178 18.176758,178 h -1.558594 z m 0.827148,0.84765 v 3.31885 h 0.622071 q 0.399902,0 0.577637,-0.0752 0.181152,-0.0752 0.293945,-0.22559 0.116211,-0.15381 0.191406,-0.48193 0.0752,-0.32813 0.0752,-0.86475 0,-0.55713 -0.07861,-0.87842 -0.0752,-0.32129 -0.239258,-0.50586 -0.160644,-0.18457 -0.393066,-0.24267 -0.174317,-0.0444 -0.67334,-0.0444 z M 21.567578,178 v -5.01074 h 3.048828 v 0.84765 h -2.221679 v 1.11084 h 2.064453 v 0.84424 h -2.064453 v 1.36377 h 2.296875 V 178 Z m 5.550977,0 v -4.16309 H 25.89834 v -0.84765 h 3.26416 v 0.84765 H 27.945703 V 178 Z m 3.37373,-5.01074 h 0.827148 v 2.71386 q 0,0.63233 0.03076,0.82374 0.05469,0.33154 0.259766,0.51269 0.208496,0.18115 0.546875,0.18115 0.287109,0 0.468261,-0.12646 0.181153,-0.12988 0.246094,-0.35547 0.06836,-0.229 0.06836,-0.97754 v -2.77197 h 0.830567 v 2.63183 q 0,1.0083 -0.109375,1.45948 -0.105957,0.44775 -0.485352,0.72802 -0.375976,0.27686 -0.994629,0.27686 -0.642578,0 -1.004883,-0.229 -0.358886,-0.23243 -0.522949,-0.64942 -0.160644,-0.42041 -0.160644,-1.54492 z M 35.451954,178 v -5.01074 h 0.80664 l 1.681641,3.34619 v -3.34619 h 0.772461 V 178 h -0.833984 l -1.654297,-3.26758 V 178 Z m 4.935741,0 v -5.01074 h 3.048828 v 0.84765 h -2.221679 v 1.11084 h 2.064453 v 0.84424 h -2.064453 v 1.36377 h 2.296875 V 178 Z"
     id="text17"
     style="font-weight:700;font-size:7px;font-family:Oswald, 'Arial Narrow', Arial, sans-serif;letter-spacing:0.8;text-anchor:middle;fill:#e8e2d4"
     aria-label="DETUNE" />
  <path
     d="m 24.357788,205.75073 v 0.35547 q 0,0.46314 -0.220459,0.73316 -0.172607,0.21191 -0.435791,0.21191 -0.126465,0 -0.239258,-0.0513 -0.111084,-0.0496 -0.189697,-0.14014 -0.04956,-0.0564 -0.109375,-0.18115 -0.05811,-0.12475 -0.08374,-0.229 -0.03931,-0.14698 -0.03931,-0.34351 v -0.35547 q 0,-0.46484 0.220459,-0.73486 0.172608,-0.21191 0.435791,-0.21191 0.128174,0 0.239258,0.0513 0.111084,0.0496 0.189697,0.14014 0.05127,0.0581 0.109375,0.18286 0.05811,0.12476 0.08545,0.2273 0.0376,0.14697 0.0376,0.34521 z m -0.143555,0.0188 q 0,-0.20337 -0.05811,-0.37768 -0.0564,-0.17603 -0.128174,-0.28028 -0.04273,-0.0598 -0.111084,-0.10254 -0.09741,-0.0598 -0.21875,-0.0598 -0.240967,0 -0.377685,0.24609 -0.136719,0.2461 -0.136719,0.57422 v 0.31616 q 0,0.20337 0.0564,0.3794 0.05811,0.17602 0.131592,0.28027 0.04102,0.0581 0.109375,0.10083 0.09741,0.0615 0.220459,0.0615 0.239258,0 0.375977,-0.24609 0.136718,-0.2478 0.136718,-0.57593 z m 2.291748,0.30249 h -1.41333 q -0.05127,0 -0.07349,-0.0188 -0.02222,-0.0205 -0.02222,-0.053 0,-0.0325 0.02222,-0.0513 0.02222,-0.0205 0.07349,-0.0205 h 1.41333 q 0.05127,0 0.07349,0.0205 0.02222,0.0188 0.02222,0.0513 0,0.0325 -0.02222,0.053 -0.02222,0.0188 -0.07349,0.0188 z m 1.4646,-1.24585 v 2.03028 h 0.492188 q 0.05127,0 0.07349,0.0205 0.02222,0.0188 0.02222,0.0513 0,0.0308 -0.02222,0.0513 Q 28.514038,207 28.462769,207 h -1.12793 q -0.05127,0 -0.07349,-0.0205 -0.02222,-0.0205 -0.02222,-0.0513 0,-0.0325 0.02222,-0.0513 0.02222,-0.0205 0.07349,-0.0205 h 0.492187 v -1.83204 l -0.468261,0.14698 q -0.03418,0.0102 -0.04956,0.0102 -0.02564,0 -0.04785,-0.0205 -0.02051,-0.0222 -0.02051,-0.0513 0,-0.0256 0.01709,-0.0479 0.01367,-0.0137 0.0564,-0.029 z m 2.688232,0.92456 v 0.35547 q 0,0.46314 -0.220459,0.73316 -0.172607,0.21191 -0.435791,0.21191 -0.126464,0 -0.239257,-0.0513 -0.111084,-0.0496 -0.189698,-0.14014 -0.04956,-0.0564 -0.109375,-0.18115 -0.05811,-0.12475 -0.08374,-0.229 -0.03931,-0.14698 -0.03931,-0.34351 v -0.35547 q 0,-0.46484 0.220459,-0.73486 0.172607,-0.21191 0.435791,-0.21191 0.128173,0 0.239257,0.0513 0.111084,0.0496 0.189698,0.14014 0.05127,0.0581 0.109375,0.18286 0.05811,0.12476 0.08545,0.2273 0.0376,0.14697 0.0376,0.34521 z m -0.143554,0.0188 q 0,-0.20337 -0.05811,-0.37768 -0.0564,-0.17603 -0.128174,-0.28028 -0.04272,-0.0598 -0.111083,-0.10254 -0.09741,-0.0598 -0.21875,-0.0598 -0.240967,0 -0.377686,0.24609 -0.136719,0.2461 -0.136719,0.57422 v 0.31616 q 0,0.20337 0.0564,0.3794 0.05811,0.17602 0.131591,0.28027 0.04102,0.0581 0.109375,0.10083 0.09741,0.0615 0.220459,0.0615 0.239258,0 0.375977,-0.24609 0.136719,-0.2478 0.136719,-0.57593 z m 2.243896,-0.0188 v 0.35547 q 0,0.46314 -0.220459,0.73316 -0.172607,0.21191 -0.435791,0.21191 -0.126465,0 -0.239258,-0.0513 -0.111084,-0.0496 -0.189697,-0.14014 -0.04956,-0.0564 -0.109375,-0.18115 -0.05811,-0.12475 -0.08374,-0.229 -0.03931,-0.14698 -0.03931,-0.34351 v -0.35547 q 0,-0.46484 0.220459,-0.73486 0.172608,-0.21191 0.435791,-0.21191 0.128174,0 0.239258,0.0513 0.111084,0.0496 0.189697,0.14014 0.05127,0.0581 0.109375,0.18286 0.05811,0.12476 0.08545,0.2273 0.0376,0.14697 0.0376,0.34521 z m -0.143554,0.0188 q 0,-0.20337 -0.05811,-0.37768 -0.0564,-0.17603 -0.128174,-0.28028 -0.04272,-0.0598 -0.111084,-0.10254 -0.09741,-0.0598 -0.21875,-0.0598 -0.240966,0 -0.377685,0.24609 -0.136719,0.2461 -0.136719,0.57422 v 0.31616 q 0,0.20337 0.0564,0.3794 0.05811,0.17602 0.131592,0.28027 0.04102,0.0581 0.109375,0.10083 0.09741,0.0615 0.220459,0.0615 0.239258,0 0.375977,-0.24609 0.136719,-0.2478 0.136719,-0.57593 z m 3.611084,-0.52978 v -0.42725 q 0,-0.0513 0.0188,-0.0735 0.02051,-0.0222 0.05298,-0.0222 0.03247,0 0.05127,0.0222 0.02051,0.0222 0.02051,0.0735 v 0.42212 q 0.21875,0.007 0.372559,0.12817 0.0085,-0.029 0.02734,-0.0427 0.0188,-0.0154 0.04272,-0.0154 0.03247,0 0.05298,0.0222 0.02051,0.0222 0.02051,0.065 v 0.21704 q 0,0.053 -0.02051,0.0752 -0.0188,0.0222 -0.05127,0.0222 -0.02905,0 -0.04785,-0.0188 -0.0188,-0.0188 -0.02393,-0.0632 -0.01367,-0.10254 -0.11792,-0.17603 -0.102539,-0.0752 -0.288818,-0.0752 -0.246094,0 -0.399903,0.14868 -0.152099,0.14868 -0.152099,0.37256 0,0.22046 0.152099,0.37085 0.1521,0.14868 0.384522,0.14868 0.114502,0 0.237549,-0.0393 0.123046,-0.0393 0.208496,-0.10937 0.03589,-0.0291 0.06323,-0.0291 0.03076,0 0.04956,0.0205 0.0188,0.0188 0.0188,0.0496 0,0.0496 -0.08716,0.10425 -0.199951,0.12647 -0.440918,0.14014 v 0.35376 q 0,0.0513 -0.02051,0.0735 -0.0188,0.0222 -0.05127,0.0222 -0.03247,0 -0.05298,-0.0222 -0.0188,-0.0222 -0.0188,-0.0735 v -0.35376 q -0.254639,-0.0308 -0.420411,-0.21704 -0.165771,-0.18628 -0.165771,-0.4375 0,-0.27344 0.187988,-0.46143 0.138428,-0.13843 0.398194,-0.19482 z"
     id="text18"
     style="font-size:3.5px;font-family:'Space Mono', 'Courier New', monospace;text-anchor:middle;opacity:0.81;fill:#5a7350"
     aria-label="0–100 ¢" />
  <!-- ATN label (y=218.6) -->
  <path
     d="m 88.383057,209 h -0.644532 l -0.256347,-0.81299 H 86.310303 L 86.068604,209 h -0.629883 l 1.142578,-3.5791 h 0.627441 z m -1.091309,-1.41602 -0.402832,-1.32812 -0.397949,1.32812 z M 89.556885,209 v -2.97363 h -0.871582 v -0.60547 h 2.331543 v 0.60547 H 90.147705 V 209 Z m 2.350586,0 v -3.5791 h 0.576172 l 1.201171,2.39014 v -2.39014 h 0.551758 V 209 h -0.595703 l -1.18164,-2.33398 V 209 Z"
     id="text19"
     style="font-weight:700;font-size:5px;font-family:Oswald, 'Arial Narrow', Arial, sans-serif;letter-spacing:0.5;text-anchor:middle;fill:#6f6960"
     aria-label="ATN" />
  <rect
     x="5"
     y="233"
     width="110"
     height="1"
     fill="#2E3A2D"
     id="rect19" />
  <!-- ══ TIMBRE SECTION ══ -->
  <rect
     x="0"
     y="235"
     width="120"
     height="8"
     fill="#0C100A"
     id="rect20" />
  <rect
     x="0"
     y="235"
     width="3"
     height="8"
     fill="#FF4A0E"
     id="rect21" />
  <path
     d="m 8.1513672,242 v -3.56836 H 7.1054687 v -0.72656 h 2.7978516 v 0.72656 H 8.8603516 V 242 Z m 3.9914068,0 v -4.29492 h 0.708984 V 242 Z m 3.179882,0 v -4.29492 h 1.063477 l 0.638672,2.92969 0.632812,-2.92969 h 1.066406 V 242 h -0.659179 v -3.38086 L 17.364648,242 h -0.685547 l -0.694335,-3.38086 V 242 Z m 5.907422,-4.29492 h 1.409179 q 0.577149,0 0.811524,0.10547 0.234375,0.10547 0.395508,0.37207 0.161132,0.2666 0.161132,0.60351 0,0.31055 -0.137695,0.5625 -0.137695,0.24903 -0.357422,0.36914 0.313477,0.11133 0.489258,0.38086 0.178711,0.26953 0.178711,0.65625 0,0.46875 -0.225586,0.79395 -0.225586,0.32226 -0.533203,0.39844 Q 23.207617,242 22.42832,242 h -1.198242 z m 0.708984,0.71484 v 0.99317 h 0.46875 q 0.421875,0 0.521484,-0.0147 0.181641,-0.0293 0.28418,-0.15235 0.102539,-0.12597 0.102539,-0.33984 0,-0.19043 -0.08496,-0.30762 -0.08203,-0.12011 -0.202148,-0.14941 -0.117188,-0.0293 -0.679688,-0.0293 z m 0,1.70801 v 1.14844 h 0.65918 q 0.433594,0 0.55664,-0.0439 0.123047,-0.0469 0.205079,-0.17871 0.08496,-0.13476 0.08496,-0.33984 0,-0.21094 -0.09082,-0.34571 -0.08789,-0.13769 -0.237305,-0.1875 -0.146484,-0.0527 -0.603515,-0.0527 z M 26.58379,242 v -4.29492 h 1.49707 q 0.574219,0 0.820313,0.11719 0.246093,0.11425 0.404297,0.40136 0.158203,0.28418 0.158203,0.68262 0,0.50391 -0.243164,0.81152 -0.240235,0.30762 -0.685547,0.38672 0.228515,0.16406 0.377929,0.36035 0.149414,0.19336 0.407227,0.69727 L 29.747852,242 h -0.846679 l -0.515625,-0.93457 q -0.278321,-0.50684 -0.37793,-0.63281 -0.09961,-0.12891 -0.210938,-0.17578 -0.111328,-0.0498 -0.357421,-0.0498 H 27.292774 V 242 Z m 0.708984,-2.47852 h 0.527344 q 0.483398,0 0.615234,-0.041 0.131836,-0.0439 0.213868,-0.17285 0.08203,-0.12891 0.08203,-0.34278 0,-0.20507 -0.08203,-0.32812 -0.08203,-0.12598 -0.222657,-0.17285 -0.09961,-0.0322 -0.577148,-0.0322 H 27.292774 Z M 31.93457,242 v -4.29492 h 2.613282 v 0.72656 h -1.904297 v 0.95215 h 1.769531 v 0.72363 h -1.769531 v 1.16895 h 1.96875 V 242 Z"
     id="text21"
     style="font-weight:700;font-size:6px;font-family:Oswald, 'Arial Narrow', Arial, sans-serif;letter-spacing:1.8;fill:#e8e2d4"
     aria-label="TIMBRE" />
  <path
     d="m 73.921875,239.93945 v -0.11523 q 0,-0.0586 0.02148,-0.084 0.02344,-0.0254 0.06055,-0.0254 0.03711,0 0.05859,0.0254 0.02344,0.0254 0.02344,0.084 v 0.45508 q 0,0.0605 -0.02344,0.0859 -0.02148,0.0254 -0.05859,0.0254 -0.0332,0 -0.05664,-0.0234 -0.02148,-0.0234 -0.02539,-0.0762 -0.0098,-0.16407 -0.177734,-0.29102 -0.226563,-0.17383 -0.515625,-0.17383 -0.189454,0 -0.357422,0.084 -0.125,0.0605 -0.199219,0.14843 -0.128906,0.15235 -0.205078,0.33789 -0.05469,0.13672 -0.05469,0.3086 v 0.28711 q 0,0.36718 0.265625,0.63867 0.265625,0.26953 0.617188,0.26953 0.210937,0 0.376953,-0.0918 0.167969,-0.0918 0.324219,-0.27734 0.0332,-0.041 0.07422,-0.041 0.03516,0 0.05664,0.0215 0.02148,0.0215 0.02148,0.0547 0,0.0449 -0.08398,0.13671 -0.160156,0.17969 -0.361328,0.27149 -0.199219,0.0898 -0.404297,0.0898 -0.177734,0 -0.361328,-0.0684 -0.140625,-0.0527 -0.232422,-0.12304 -0.0918,-0.0703 -0.226562,-0.23633 -0.132813,-0.16797 -0.181641,-0.3086 -0.04883,-0.14257 -0.04883,-0.3125 v -0.33398 q 0,-0.24219 0.128906,-0.49414 0.130859,-0.25391 0.355469,-0.38867 0.226562,-0.13672 0.490234,-0.13672 0.40625,0 0.699219,0.27734 z M 76.122656,242 h -0.228515 l -0.826172,-2.12109 h -0.126953 q -0.04492,0 -0.06445,-0.008 -0.01953,-0.01 -0.0332,-0.0293 -0.01172,-0.0215 -0.01172,-0.0449 0,-0.0234 0.01172,-0.043 0.01367,-0.0215 0.0332,-0.0293 0.01953,-0.01 0.06445,-0.01 h 0.611328 q 0.04687,0 0.06445,0.01 0.01953,0.008 0.03125,0.0293 0.01367,0.0195 0.01367,0.043 0,0.0234 -0.01367,0.0449 -0.01367,0.0195 -0.0332,0.0293 -0.01758,0.008 -0.0625,0.008 h -0.314453 l 0.761718,1.95703 h 0.01172 l 0.751953,-1.95703 h -0.3125 q -0.04687,0 -0.06641,-0.008 -0.01953,-0.01 -0.0332,-0.0293 -0.01172,-0.0215 -0.01172,-0.0449 0,-0.0234 0.01367,-0.043 0.01367,-0.0215 0.03125,-0.0293 0.01953,-0.01 0.06641,-0.01 h 0.609375 q 0.04687,0 0.06641,0.01 0.01953,0.008 0.03125,0.0293 0.01367,0.0195 0.01367,0.043 0,0.0234 -0.01367,0.0449 -0.01367,0.0195 -0.0332,0.0293 -0.01758,0.008 -0.06445,0.008 h -0.125 z m 6.061719,-1.33398 q 0,0.082 -0.05859,0.14062 -0.05859,0.0586 -0.140625,0.0586 -0.08398,0 -0.142578,-0.0586 -0.05859,-0.0586 -0.05859,-0.14062 0,-0.084 0.05859,-0.14258 0.05859,-0.0586 0.142578,-0.0586 0.08203,0 0.140625,0.0586 0.05859,0.0586 0.05859,0.14258 z m 5.557812,0.57031 h -1.078125 l -0.220703,0.59961 h 0.314453 q 0.05859,0 0.08398,0.0234 0.02539,0.0215 0.02539,0.0586 0,0.0352 -0.02539,0.0586 Q 86.816406,242 86.757812,242 h -0.613281 q -0.05859,0 -0.08398,-0.0234 -0.02539,-0.0234 -0.02539,-0.0586 0,-0.0371 0.02539,-0.0586 0.02539,-0.0234 0.08398,-0.0234 h 0.126953 l 0.72461,-1.95703 h -0.484375 q -0.05859,0 -0.08398,-0.0215 -0.02539,-0.0234 -0.02539,-0.0605 0,-0.0371 0.02539,-0.0586 0.02539,-0.0234 0.08398,-0.0234 h 0.826172 l 0.800781,2.1211 h 0.126953 q 0.05859,0 0.08398,0.0234 0.02539,0.0215 0.02539,0.0586 0,0.0352 -0.02539,0.0586 Q 88.324219,242 88.265625,242 h -0.611328 q -0.06055,0 -0.08594,-0.0234 -0.02539,-0.0234 -0.02539,-0.0586 0,-0.0371 0.02539,-0.0586 0.02539,-0.0234 0.08594,-0.0234 h 0.3125 z m -0.0625,-0.16406 -0.453125,-1.19336 h -0.06055 l -0.439454,1.19336 z m 2.403906,-1.19336 v 1.95703 h 0.425782 q 0.05859,0 0.08398,0.0234 0.02539,0.0215 0.02539,0.0586 0,0.0352 -0.02539,0.0586 Q 90.567968,242 90.509375,242 h -1.017579 q -0.05859,0 -0.08398,-0.0234 -0.02539,-0.0234 -0.02539,-0.0586 0,-0.0371 0.02539,-0.0586 0.02539,-0.0234 0.08398,-0.0234 h 0.425782 v -1.95703 h -0.671875 v 0.56836 q 0,0.0605 -0.02344,0.0859 -0.02148,0.0254 -0.05859,0.0254 -0.03516,0 -0.05859,-0.0254 -0.02344,-0.0254 -0.02344,-0.0859 v -0.73243 h 1.837891 v 0.73243 q 0,0.0605 -0.02344,0.0859 -0.02148,0.0254 -0.05859,0.0254 -0.03711,0 -0.06055,-0.0254 -0.02149,-0.0254 -0.02149,-0.0859 v -0.56836 z M 93.60664,242 h -0.210938 l -1.208984,-2.04492 v 1.88086 h 0.302734 q 0.06055,0 0.08594,0.0234 0.02539,0.0215 0.02539,0.0586 0,0.0352 -0.02539,0.0586 Q 92.549999,242 92.489452,242 h -0.603515 q -0.06055,0 -0.08594,-0.0234 -0.02539,-0.0234 -0.02539,-0.0586 0,-0.0371 0.02539,-0.0586 0.02539,-0.0234 0.08594,-0.0234 h 0.136718 v -1.95703 h -0.220703 q -0.05859,0 -0.08398,-0.0215 -0.02539,-0.0234 -0.02539,-0.0605 0,-0.0371 0.02539,-0.0586 0.02539,-0.0234 0.08398,-0.0234 h 0.429688 l 1.210937,2.04883 v -1.88476 h -0.302734 q -0.05859,0 -0.08398,-0.0215 -0.02539,-0.0234 -0.02539,-0.0605 0,-0.0371 0.02344,-0.0586 0.02539,-0.0234 0.08594,-0.0234 h 0.605469 q 0.05859,0 0.08398,0.0234 0.02539,0.0215 0.02539,0.0586 0,0.0371 -0.02539,0.0605 -0.02539,0.0215 -0.08398,0.0215 H 93.60664 Z"
     id="text22"
     style="font-size:4px;font-family:'Space Mono', 'Courier New', monospace;letter-spacing:0.4;fill:#6f6960"
     aria-label="CV · ATN" />
  <!-- TIMBRE_CV jack label (y=248.2) -->
  <circle
     cx="90"
     cy="238"
     r="3"
     fill="#E8C547"
     id="circle22" />
  <path
     d="m 89.01416,230.55249 0.631104,0.24438 q -0.147705,0.66065 -0.491455,0.9668 -0.34375,0.30347 -0.845948,0.30347 -0.631103,0 -1.023193,-0.48609 -0.451172,-0.56127 -0.451172,-1.51464 0,-1.00708 0.453858,-1.57642 0.394775,-0.49414 1.060791,-0.49414 0.54248,0 0.907714,0.37061 0.260498,0.26318 0.381348,0.78149 l -0.644531,0.18799 q -0.06177,-0.31958 -0.247071,-0.48877 -0.182617,-0.17188 -0.432373,-0.17188 -0.357177,0 -0.582763,0.31153 -0.225586,0.31152 -0.225586,1.02856 0,0.7439 0.220215,1.05811 0.220214,0.31421 0.572021,0.31421 0.257813,0 0.445801,-0.19874 0.187988,-0.20141 0.27124,-0.63647 z M 91.525635,232 l -1.1521,-3.93701 h 0.706299 l 0.816406,2.91382 0.789551,-2.91382 h 0.692871 L 92.223877,232 Z"
     id="text23"
     style="font-weight:700;font-size:5.5px;font-family:Oswald, 'Arial Narrow', Arial, sans-serif;letter-spacing:0.5;text-anchor:middle;fill:#e8e2d4"
     aria-label="CV" />
  <!-- TIMBRE knob label (y=268.9) -->
  <path
     d="m 18.344238,255 v -4.16309 h -1.220215 v -0.84765 h 3.264161 v 0.84765 H 19.171387 V 255 Z m 3.356641,0 v -5.01074 h 0.827149 V 255 Z m 2.409863,0 v -5.01074 h 1.240723 l 0.745117,3.41797 0.738281,-3.41797 h 1.244141 V 255 h -0.769043 v -3.94434 L 26.493066,255 h -0.799804 l -0.810059,-3.94434 V 255 Z m 5.591992,-5.01074 h 1.644043 q 0.67334,0 0.946777,0.12304 0.273438,0.12305 0.461426,0.43409 0.187988,0.31103 0.187988,0.7041 0,0.3623 -0.160644,0.65625 -0.160645,0.29053 -0.416992,0.43066 0.365722,0.12989 0.5708,0.44434 0.208496,0.31445 0.208496,0.76562 0,0.54688 -0.263183,0.92627 -0.263184,0.37598 -0.62207,0.46485 Q 32.009863,255 31.100683,255 h -1.397949 z m 0.827148,0.83398 v 1.15869 h 0.546875 q 0.492188,0 0.608399,-0.0171 0.211914,-0.0342 0.331543,-0.17773 0.119629,-0.14697 0.119629,-0.39649 0,-0.22216 -0.09912,-0.35888 -0.0957,-0.14014 -0.23584,-0.17432 -0.136719,-0.0342 -0.792969,-0.0342 z m 0,1.99268 v 1.33984 h 0.769043 q 0.50586,0 0.649414,-0.0513 0.143555,-0.0547 0.239258,-0.20849 0.09912,-0.15723 0.09912,-0.39649 0,-0.24609 -0.105957,-0.40332 -0.102539,-0.16064 -0.276855,-0.21875 -0.170899,-0.0615 -0.704102,-0.0615 z M 34.648731,255 v -5.01074 h 1.746582 q 0.669922,0 0.957031,0.13672 0.28711,0.1333 0.47168,0.46826 0.18457,0.33154 0.18457,0.79638 0,0.5879 -0.283691,0.94678 -0.280273,0.35889 -0.799805,0.45117 0.266602,0.19141 0.440918,0.42041 0.174317,0.22559 0.475098,0.81348 L 38.340137,255 h -0.987793 l -0.601562,-1.09033 q -0.324707,-0.59131 -0.440918,-0.73828 -0.116211,-0.15039 -0.246094,-0.20508 -0.129883,-0.0581 -0.416992,-0.0581 H 35.47588 V 255 Z m 0.827149,-2.8916 h 0.615234 q 0.563965,0 0.717773,-0.0478 0.153809,-0.0513 0.249512,-0.20166 0.0957,-0.15039 0.0957,-0.39991 0,-0.23925 -0.0957,-0.38281 -0.0957,-0.14697 -0.259765,-0.20166 -0.116211,-0.0376 -0.67334,-0.0376 H 35.47588 Z M 39.591309,255 v -5.01074 h 3.048828 v 0.84765 h -2.22168 v 1.11084 h 2.064453 v 0.84424 h -2.064453 v 1.36377 h 2.296875 V 255 Z"
     id="text24"
     style="font-weight:700;font-size:7px;font-family:Oswald, 'Arial Narrow', Arial, sans-serif;letter-spacing:0.8;text-anchor:middle;fill:#e8e2d4"
     aria-label="TIMBRE" />
  <path
     d="m 22.112183,282.14404 v -0.0479 q 0,-0.0513 0.0188,-0.0735 0.02051,-0.0222 0.05298,-0.0222 0.03247,0 0.05127,0.0222 0.02051,0.0222 0.02051,0.0735 v 0.36572 q 0,0.0513 -0.02051,0.0735 -0.0188,0.0222 -0.05127,0.0222 -0.03076,0 -0.05127,-0.0205 -0.0188,-0.0205 -0.02051,-0.0666 -0.0085,-0.14356 -0.148682,-0.25806 -0.138428,-0.1145 -0.364014,-0.1145 -0.237549,0 -0.377685,0.12305 -0.140137,0.12134 -0.140137,0.28711 0,0.0854 0.03931,0.15551 0.03931,0.0701 0.104248,0.11451 0.06494,0.0427 0.146972,0.0701 0.08203,0.0256 0.256348,0.0547 0.292236,0.0478 0.40332,0.0974 0.148682,0.0666 0.223877,0.18457 0.07691,0.11792 0.07691,0.27857 0,0.24609 -0.196534,0.42041 -0.196533,0.17261 -0.529785,0.17261 -0.374267,0 -0.598144,-0.23413 v 0.082 q 0,0.0513 -0.02051,0.0735 -0.0188,0.0222 -0.05127,0.0222 -0.03076,0 -0.05127,-0.0222 -0.02051,-0.0222 -0.02051,-0.0735 v -0.39649 q 0,-0.053 0.0188,-0.0752 0.02051,-0.0222 0.05298,-0.0222 0.03076,0 0.04956,0.0205 0.02051,0.0205 0.02222,0.0667 0.0085,0.15723 0.16748,0.28711 0.160645,0.12817 0.430664,0.12817 0.27002,0 0.425537,-0.13501 0.157227,-0.13501 0.157227,-0.31958 0,-0.11279 -0.05982,-0.19995 -0.05981,-0.0889 -0.177734,-0.14014 -0.08203,-0.0359 -0.341797,-0.0803 -0.357178,-0.0598 -0.514404,-0.18286 -0.157227,-0.12305 -0.157227,-0.35034 0,-0.22559 0.179444,-0.38794 0.181152,-0.16235 0.476806,-0.16235 0.300782,0 0.517823,0.18969 z m 1.659423,0 v 1.71241 h 0.492188 q 0.05127,0 0.07349,0.0205 0.02222,0.0188 0.02222,0.0513 0,0.0308 -0.02222,0.0513 Q 24.315063,284 24.263794,284 h -1.12793 q -0.05127,0 -0.07349,-0.0205 -0.02222,-0.0205 -0.02222,-0.0513 0,-0.0325 0.02222,-0.0513 0.02222,-0.0205 0.07349,-0.0205 h 0.492188 v -1.71241 h -0.492188 q -0.05127,0 -0.07349,-0.0188 -0.02222,-0.0205 -0.02222,-0.053 0,-0.0325 0.02222,-0.0513 0.02222,-0.0205 0.07349,-0.0205 h 1.12793 q 0.05127,0 0.07349,0.0205 0.02222,0.0188 0.02222,0.0513 0,0.0325 -0.02222,0.053 -0.02222,0.0188 -0.07349,0.0188 z M 26.502563,284 h -0.18457 l -1.057861,-1.78931 v 1.64576 h 0.264892 q 0.05298,0 0.0752,0.0205 0.02222,0.0188 0.02222,0.0513 0,0.0308 -0.02222,0.0513 Q 25.578003,284 25.525024,284 h -0.528076 q -0.05298,0 -0.0752,-0.0205 -0.02222,-0.0205 -0.02222,-0.0513 0,-0.0325 0.02222,-0.0513 0.02222,-0.0205 0.0752,-0.0205 h 0.119629 v -1.71241 h -0.193115 q -0.05127,0 -0.07349,-0.0188 -0.02222,-0.0205 -0.02222,-0.053 0,-0.0325 0.02222,-0.0513 0.02222,-0.0205 0.07349,-0.0205 h 0.375976 l 1.059571,1.79272 v -1.64917 h -0.264893 q -0.05127,0 -0.07349,-0.0188 -0.02222,-0.0205 -0.02222,-0.053 0,-0.0325 0.02051,-0.0513 0.02222,-0.0205 0.0752,-0.0205 h 0.529785 q 0.05127,0 0.07349,0.0205 0.02222,0.0188 0.02222,0.0513 0,0.0325 -0.02222,0.053 -0.02222,0.0188 -0.07349,0.0188 h -0.121338 z m 0.929688,-0.96558 v 0.82203 h 1.104004 v -0.42383 q 0,-0.0513 0.0188,-0.0735 0.02051,-0.0222 0.05298,-0.0222 0.03247,0 0.05127,0.0222 0.02051,0.0222 0.02051,0.0735 V 284 h -1.584229 q -0.05127,0 -0.07349,-0.0205 -0.02222,-0.0205 -0.02222,-0.0513 0,-0.0325 0.02222,-0.0513 0.02222,-0.0205 0.07349,-0.0205 h 0.193115 v -1.71241 h -0.193115 q -0.05127,0 -0.07349,-0.0188 -0.02222,-0.0205 -0.02222,-0.053 0,-0.0325 0.02222,-0.0513 0.02222,-0.0205 0.07349,-0.0205 h 1.509033 v 0.49389 q 0,0.0513 -0.02051,0.0735 -0.0188,0.0222 -0.05127,0.0222 -0.03247,0 -0.05298,-0.0222 -0.0188,-0.0222 -0.0188,-0.0735 v -0.35034 h -1.028809 v 0.74683 h 0.514404 v -0.16235 q 0,-0.0513 0.02051,-0.0735 0.02051,-0.0222 0.05298,-0.0222 0.03076,0 0.05127,0.0222 0.02051,0.0222 0.02051,0.0735 v 0.46826 q 0,0.0513 -0.02051,0.0735 -0.02051,0.0222 -0.05127,0.0222 -0.03247,0 -0.05298,-0.0222 -0.02051,-0.0222 -0.02051,-0.0735 v -0.16236 z m 3.156494,-0.005 q 0.256348,0.28369 0.458008,0.36914 v 0.0513 q -0.111084,0.0513 -0.215332,0.13501 -0.102539,0.082 -0.244385,0.24096 h -0.08545 q 0.104248,-0.22216 0.21875,-0.34179 h -1.76709 v -0.1128 h 1.76709 q -0.08374,-0.10424 -0.11792,-0.15722 -0.03247,-0.0547 -0.09912,-0.18457 z m 1.997803,0.003 h -0.951904 v 0.82374 h 0.193115 q 0.05127,0 0.07349,0.0205 0.02222,0.0188 0.02222,0.0513 0,0.0308 -0.02222,0.0513 Q 31.879028,284 31.827759,284 h -0.499024 q -0.05127,0 -0.07349,-0.0205 -0.02222,-0.0205 -0.02222,-0.0513 0,-0.0325 0.02222,-0.0513 0.02222,-0.0205 0.07349,-0.0205 h 0.162354 v -1.71241 h -0.08887 q -0.05298,0 -0.0752,-0.0188 -0.02222,-0.0205 -0.02222,-0.053 0,-0.0325 0.02222,-0.0513 0.02222,-0.0205 0.0752,-0.0205 h 0.425537 q 0.05127,0 0.07349,0.0205 0.02222,0.0188 0.02222,0.0513 0,0.0325 -0.02222,0.053 -0.02222,0.0188 -0.07349,0.0188 h -0.193115 v 0.74512 h 0.951904 v -0.74512 h -0.191406 q -0.05127,0 -0.07349,-0.0188 -0.02222,-0.0205 -0.02222,-0.053 0,-0.0325 0.02051,-0.0513 0.02222,-0.0205 0.0752,-0.0205 h 0.425537 q 0.05298,0 0.0752,0.0205 0.02222,0.0188 0.02222,0.0513 0,0.0325 -0.02222,0.053 -0.02222,0.0188 -0.0752,0.0188 h -0.08887 v 1.71241 h 0.162353 q 0.05127,0 0.07349,0.0205 0.02222,0.0188 0.02222,0.0513 0,0.0308 -0.02222,0.0513 Q 32.945435,284 32.894165,284 h -0.499023 q -0.05127,0 -0.07349,-0.0205 -0.02222,-0.0205 -0.02222,-0.0513 0,-0.0325 0.02051,-0.0513 0.02222,-0.0205 0.0752,-0.0205 h 0.191406 z m 2.08667,0.29908 h -0.94336 l -0.193115,0.52466 h 0.275147 q 0.05127,0 0.07349,0.0205 0.02222,0.0188 0.02222,0.0513 0,0.0308 -0.02222,0.0513 Q 33.863159,284 33.81189,284 h -0.536621 q -0.05127,0 -0.07349,-0.0205 -0.02222,-0.0205 -0.02222,-0.0513 0,-0.0325 0.02222,-0.0513 0.02222,-0.0205 0.07349,-0.0205 h 0.111084 l 0.634033,-1.71241 h -0.423828 q -0.05127,0 -0.07349,-0.0188 -0.02222,-0.0205 -0.02222,-0.053 0,-0.0325 0.02222,-0.0513 0.02222,-0.0205 0.07349,-0.0205 h 0.7229 l 0.700684,1.85596 h 0.111084 q 0.05127,0 0.07349,0.0205 0.02222,0.0188 0.02222,0.0513 0,0.0308 -0.02222,0.0513 Q 35.182495,284 35.131226,284 h -0.534913 q -0.05298,0 -0.0752,-0.0205 -0.02222,-0.0205 -0.02222,-0.0513 0,-0.0325 0.02222,-0.0513 0.02222,-0.0205 0.0752,-0.0205 h 0.273438 z m -0.05469,-0.14356 -0.396484,-1.04419 h -0.05298 l -0.384521,1.04419 z m 1.215088,-0.0803 v 0.74854 h 0.264893 q 0.05298,0 0.0752,0.0205 0.02222,0.0188 0.02222,0.0513 0,0.0308 -0.02222,0.0513 Q 36.151489,284 36.098511,284 h -0.601563 q -0.05127,0 -0.07349,-0.0205 -0.02222,-0.0205 -0.02222,-0.0513 0,-0.0325 0.02222,-0.0513 0.02222,-0.0205 0.07349,-0.0205 h 0.193115 v -1.71241 h -0.193115 q -0.05127,0 -0.07349,-0.0188 -0.02222,-0.0205 -0.02222,-0.053 0,-0.0325 0.02222,-0.0513 0.02222,-0.0205 0.07349,-0.0205 h 0.868164 q 0.268311,0 0.451172,0.1709 0.18457,0.16919 0.18457,0.38281 0,0.15381 -0.114501,0.29053 -0.112793,0.13501 -0.379395,0.22558 0.153809,0.10596 0.263184,0.23926 0.109375,0.1333 0.350341,0.54688 h 0.109375 q 0.05127,0 0.07349,0.0205 0.02222,0.0188 0.02222,0.0513 0,0.0308 -0.02222,0.0513 Q 37.281128,284 37.229858,284 h -0.191406 q -0.266601,-0.47681 -0.413574,-0.63916 -0.145264,-0.16235 -0.334961,-0.25293 z m 0,-0.14355 h 0.391358 q 0.187988,0 0.340087,-0.0684 0.153809,-0.0684 0.222168,-0.16065 0.07007,-0.0923 0.07007,-0.18799 0,-0.14355 -0.145264,-0.27343 -0.143555,-0.12989 -0.350342,-0.12989 h -0.528076 z m 2.662598,0.43579 h -0.164063 l -0.552002,-1.25611 h -0.02734 v 1.71241 H 38.0177 q 0.05127,0 0.07349,0.0205 0.02222,0.0188 0.02222,0.0513 0,0.0308 -0.02222,0.0513 Q 38.06897,284 38.0177,284 h -0.529785 q -0.05127,0 -0.07349,-0.0205 -0.02222,-0.0205 -0.02222,-0.0513 0,-0.0325 0.02222,-0.0513 0.02222,-0.0205 0.07349,-0.0205 h 0.121338 v -1.71241 h -0.09058 q -0.05127,0 -0.07349,-0.0188 -0.02222,-0.0205 -0.02222,-0.053 0,-0.0325 0.02222,-0.0513 0.02222,-0.0205 0.07349,-0.0205 h 0.352051 l 0.543457,1.2373 0.534912,-1.2373 h 0.35205 q 0.05298,0 0.0752,0.0205 0.02222,0.0188 0.02222,0.0513 0,0.0325 -0.02222,0.053 -0.02222,0.0188 -0.0752,0.0188 h -0.08887 v 1.71241 h 0.119629 q 0.05298,0 0.07519,0.0205 0.02222,0.0188 0.02222,0.0513 0,0.0308 -0.02222,0.0513 Q 39.384888,284 39.331909,284 h -0.528076 q -0.05127,0 -0.0752,-0.0205 -0.02222,-0.0205 -0.02222,-0.0513 0,-0.0325 0.02222,-0.0513 0.02222,-0.0205 0.0752,-0.0205 h 0.264893 v -1.71241 h -0.03076 z"
     id="text25"
     style="font-size:3.5px;font-family:'Space Mono', 'Courier New', monospace;text-anchor:middle;opacity:0.81;fill:#5a7350"
     aria-label="SINE→HARM" />
  <!-- ATN label (y=295.3) -->
  <path
     d="m 88.383057,286 h -0.644532 l -0.256347,-0.81299 H 86.310303 L 86.068604,286 h -0.629883 l 1.142578,-3.5791 h 0.627441 z m -1.091309,-1.41602 -0.402832,-1.32812 -0.397949,1.32812 z M 89.556885,286 v -2.97363 h -0.871582 v -0.60547 h 2.331543 v 0.60547 H 90.147705 V 286 Z m 2.350586,0 v -3.5791 h 0.576172 l 1.201171,2.39014 v -2.39014 h 0.551758 V 286 h -0.595703 l -1.18164,-2.33398 V 286 Z"
     id="text26"
     style="font-weight:700;font-size:5px;font-family:Oswald, 'Arial Narrow', Arial, sans-serif;letter-spacing:0.5;text-anchor:middle;fill:#6f6960"
     aria-label="ATN" />
  <rect
     x="5"
     y="310"
     width="110"
     height="1"
     fill="#2E3A2D"
     id="rect26" />
  <!-- ══ I/O ROW (y=333.9) ══ -->
  <rect
     x="0"
     y="312"
     width="120"
     height="8"
     fill="#0C100A"
     id="rect27" />
  <rect
     x="0"
     y="312"
     width="3"
     height="8"
     fill="#FF4A0E"
     id="rect28" />
  <path
     d="m 7.3369141,319 v -4.29492 H 8.0458984 V 319 Z m 2.8253909,0.0732 0.873047,-4.4414 h 0.506835 l -0.881835,4.4414 z m 3.39082,-2.19433 q 0,-0.76758 0.225586,-1.2627 0.228515,-0.49805 0.594726,-0.74121 0.366211,-0.24316 0.887696,-0.24316 0.755859,0 1.230468,0.57714 0.47754,0.57715 0.47754,1.64356 0,1.07812 -0.503907,1.68457 -0.442383,0.53613 -1.201172,0.53613 -0.764648,0 -1.207031,-0.53027 -0.503906,-0.60645 -0.503906,-1.66406 z m 0.732422,-0.0293 q 0,0.74121 0.28125,1.11328 0.28125,0.36914 0.697265,0.36914 0.418946,0 0.694336,-0.36621 0.275391,-0.36914 0.275391,-1.13086 0,-0.74707 -0.269531,-1.10449 -0.266602,-0.35742 -0.700196,-0.35742 -0.433593,0 -0.706054,0.36035 -0.272461,0.36035 -0.272461,1.11621 z"
     id="text28"
     style="font-weight:700;font-size:6px;font-family:Oswald, 'Arial Narrow', Arial, sans-serif;letter-spacing:1.8;fill:#e8e2d4"
     aria-label="I/O" />
  <!-- V/OCT IN jack (x=30) -->
  <circle
     cx="30"
     cy="323"
     r="3"
     fill="#E8C547"
     id="circle28" />
  <path
     d="m 23.782715,317 -1.047363,-3.5791 h 0.642089 l 0.742188,2.64892 0.717773,-2.64892 h 0.629883 L 24.41748,317 Z m 2.182129,0.061 0.727539,-3.70118 h 0.422363 l -0.734863,3.70118 z m 1.825683,-1.82862 q 0,-0.63965 0.187989,-1.05224 0.190429,-0.41504 0.495605,-0.61768 0.305176,-0.20264 0.739746,-0.20264 0.629883,0 1.025391,0.48096 0.397949,0.48096 0.397949,1.36963 0,0.89844 -0.419922,1.40381 -0.368652,0.44678 -1.000976,0.44678 -0.637207,0 -1.00586,-0.4419 -0.419922,-0.50537 -0.419922,-1.38672 z m 0.610352,-0.0244 q 0,0.61767 0.234375,0.92773 0.234375,0.30762 0.581055,0.30762 0.349121,0 0.578613,-0.30518 0.229492,-0.30761 0.229492,-0.94238 0,-0.62256 -0.224609,-0.92041 -0.222168,-0.29785 -0.583496,-0.29785 -0.361329,0 -0.588379,0.30029 -0.227051,0.30029 -0.227051,0.93018 z m 5.077637,0.47607 0.57373,0.22217 q -0.134277,0.60059 -0.446777,0.87891 -0.3125,0.27588 -0.769043,0.27588 -0.573731,0 -0.930176,-0.4419 -0.410156,-0.51025 -0.410156,-1.37695 0,-0.91553 0.412597,-1.43311 0.358887,-0.44922 0.964356,-0.44922 0.493164,0 0.825195,0.33692 0.236817,0.23926 0.34668,0.71045 l -0.585938,0.17089 q -0.05615,-0.29052 -0.224609,-0.44433 -0.166016,-0.15625 -0.393066,-0.15625 -0.324707,0 -0.529786,0.2832 -0.205078,0.28321 -0.205078,0.93506 0,0.67627 0.200196,0.96191 0.200195,0.28565 0.520019,0.28565 0.234375,0 0.405274,-0.18066 0.170898,-0.18311 0.246582,-0.57862 z M 35.719238,317 v -2.97363 h -0.871582 v -0.60547 h 2.331543 v 0.60547 h -0.86914 V 317 Z"
     id="text29"
     style="font-weight:700;font-size:5px;font-family:Oswald, 'Arial Narrow', Arial, sans-serif;letter-spacing:0.5;text-anchor:middle;fill:#e8e2d4"
     aria-label="V/OCT" />
  <path
     d="m 29.022461,348.14404 v 1.71241 h 0.492187 q 0.05127,0 0.07349,0.0205 0.02222,0.0188 0.02222,0.0513 0,0.0308 -0.02222,0.0513 Q 29.565918,350 29.514648,350 h -1.127929 q -0.05127,0 -0.07349,-0.0205 -0.02222,-0.0205 -0.02222,-0.0513 0,-0.0325 0.02222,-0.0513 0.02222,-0.0205 0.07349,-0.0205 h 0.492187 v -1.71241 h -0.492187 q -0.05127,0 -0.07349,-0.0188 -0.02222,-0.0205 -0.02222,-0.053 0,-0.0325 0.02222,-0.0513 0.02222,-0.0205 0.07349,-0.0205 h 1.127929 q 0.05127,0 0.07349,0.0205 0.02222,0.0188 0.02222,0.0513 0,0.0325 -0.02222,0.053 -0.02222,0.0188 -0.07349,0.0188 z M 31.753418,350 h -0.18457 l -1.057862,-1.78931 v 1.64576 h 0.264893 q 0.05298,0 0.0752,0.0205 0.02222,0.0188 0.02222,0.0513 0,0.0308 -0.02222,0.0513 Q 30.828857,350 30.775879,350 h -0.528076 q -0.05298,0 -0.0752,-0.0205 -0.02222,-0.0205 -0.02222,-0.0513 0,-0.0325 0.02222,-0.0513 0.02222,-0.0205 0.0752,-0.0205 h 0.119629 v -1.71241 h -0.193116 q -0.05127,0 -0.07349,-0.0188 -0.02222,-0.0205 -0.02222,-0.053 0,-0.0325 0.02222,-0.0513 0.02222,-0.0205 0.07349,-0.0205 h 0.375977 l 1.05957,1.79272 v -1.64917 h -0.264892 q -0.05127,0 -0.07349,-0.0188 -0.02222,-0.0205 -0.02222,-0.053 0,-0.0325 0.02051,-0.0513 0.02222,-0.0205 0.0752,-0.0205 h 0.529785 q 0.05127,0 0.07349,0.0205 0.02222,0.0188 0.02222,0.0513 0,0.0325 -0.02222,0.053 -0.02222,0.0188 -0.07349,0.0188 h -0.121338 z"
     id="text30"
     style="font-size:3.5px;font-family:'Space Mono', 'Courier New', monospace;text-anchor:middle;opacity:0.64;fill:#6f6960"
     aria-label="IN" />
  <!-- VOCT_OUTPUT (x=60) -->
  <circle
     cx="60"
     cy="323"
     r="3"
     fill="#5A7350"
     id="circle30" />
  <path
     d="m 54.518555,317 v -2.97363 h -0.871582 v -0.60547 h 2.331543 v 0.60547 H 55.109375 V 317 Z m 2.345703,0 v -3.5791 h 0.59082 v 1.40869 h 1.162109 v -1.40869 h 0.593262 V 317 h -0.593262 v -1.56494 H 57.455078 V 317 Z m 3.458984,0 v -3.5791 h 1.247559 q 0.478515,0 0.683594,0.0976 0.205078,0.0952 0.336914,0.33448 0.131836,0.23681 0.131836,0.56884 0,0.41993 -0.202637,0.67627 -0.200196,0.25635 -0.571289,0.32227 0.190429,0.13672 0.314941,0.30029 0.124512,0.16114 0.339356,0.58106 L 62.959961,317 h -0.705566 l -0.429688,-0.77881 q -0.231934,-0.42236 -0.314941,-0.52734 -0.08301,-0.10742 -0.175782,-0.14649 -0.09277,-0.0415 -0.297851,-0.0415 H 60.914062 V 317 Z m 0.59082,-2.06543 h 0.439454 q 0.402832,0 0.512695,-0.0342 0.109863,-0.0366 0.178223,-0.14404 0.06836,-0.10742 0.06836,-0.28565 0,-0.1709 -0.06836,-0.27343 -0.06836,-0.10498 -0.185547,-0.14405 -0.08301,-0.0269 -0.480957,-0.0269 h -0.463868 z m 2.86084,-1.51367 h 0.590821 v 1.93847 q 0,0.45167 0.02197,0.58838 0.03906,0.23682 0.185547,0.36621 0.148926,0.1294 0.390625,0.1294 0.205078,0 0.334473,-0.0903 0.129394,-0.0928 0.175781,-0.25391 0.04883,-0.16357 0.04883,-0.69824 v -1.97998 h 0.593262 v 1.87988 q 0,0.72022 -0.07813,1.04248 -0.07568,0.31983 -0.34668,0.52002 -0.268554,0.19776 -0.710449,0.19776 -0.458984,0 -0.717773,-0.16358 -0.256348,-0.16601 -0.373536,-0.46387 -0.114746,-0.30029 -0.114746,-1.10351 z"
     id="text31"
     style="font-weight:700;font-size:5px;font-family:Oswald, 'Arial Narrow', Arial, sans-serif;letter-spacing:0.5;text-anchor:middle;fill:#5a7350"
     aria-label="THRU" />
  <path
     d="m 58.777222,349.00537 q 0,0.28711 -0.116211,0.5332 -0.116211,0.24439 -0.321289,0.38111 -0.203369,0.13672 -0.4375,0.13672 -0.346924,0 -0.611817,-0.29395 -0.263183,-0.29565 -0.263183,-0.75708 0,-0.46313 0.263183,-0.75708 0.264893,-0.29394 0.611817,-0.29394 0.234131,0 0.4375,0.13671 0.203369,0.13672 0.31958,0.38111 0.11792,0.24438 0.11792,0.5332 z m -0.145264,0 q 0,-0.35034 -0.203369,-0.62891 -0.203369,-0.27856 -0.526367,-0.27856 -0.302491,0 -0.517823,0.2666 -0.213623,0.26489 -0.213623,0.64087 0,0.3999 0.223877,0.65454 0.225586,0.25293 0.507569,0.25293 0.322998,0 0.526367,-0.27685 0.203369,-0.27857 0.203369,-0.63062 z m 1.999512,-0.80835 v -0.10083 q 0,-0.0513 0.0188,-0.0735 0.02051,-0.0222 0.05298,-0.0222 0.03247,0 0.05127,0.0222 0.02051,0.0222 0.02051,0.0735 v 0.39819 q 0,0.053 -0.02051,0.0752 -0.0188,0.0222 -0.05127,0.0222 -0.02905,0 -0.04956,-0.0205 -0.0188,-0.0205 -0.02222,-0.0666 -0.0085,-0.14356 -0.155518,-0.25464 -0.198242,-0.1521 -0.451172,-0.1521 -0.165771,0 -0.312744,0.0735 -0.109375,0.053 -0.174316,0.12988 -0.112793,0.1333 -0.179444,0.29565 -0.04785,0.11963 -0.04785,0.27002 v 0.25122 q 0,0.32129 0.232422,0.55884 0.232422,0.23584 0.540039,0.23584 0.18457,0 0.329834,-0.0803 0.146972,-0.0803 0.283691,-0.24268 0.02905,-0.0359 0.06494,-0.0359 0.03076,0 0.04956,0.0188 0.0188,0.0188 0.0188,0.0479 0,0.0393 -0.07349,0.11962 -0.140137,0.15723 -0.316163,0.23755 -0.174316,0.0786 -0.353759,0.0786 -0.155518,0 -0.316162,-0.0598 -0.123047,-0.0461 -0.20337,-0.10766 -0.08032,-0.0615 -0.198242,-0.20679 -0.116211,-0.14697 -0.158935,-0.27002 -0.04272,-0.12476 -0.04272,-0.27344 v -0.29223 q 0,-0.21192 0.112793,-0.43238 0.114502,-0.22217 0.311035,-0.34009 0.198242,-0.11962 0.428955,-0.11962 0.355469,0 0.611817,0.24267 z m 1.539795,-0.053 v 1.71241 h 0.372558 q 0.05127,0 0.07349,0.0205 0.02222,0.0188 0.02222,0.0513 0,0.0308 -0.02222,0.0513 Q 62.595093,350 62.543823,350 h -0.890381 q -0.05127,0 -0.07349,-0.0205 -0.02222,-0.0205 -0.02222,-0.0513 0,-0.0325 0.02222,-0.0513 0.02222,-0.0205 0.07349,-0.0205 h 0.372559 v -1.71241 H 61.43811 v 0.49732 q 0,0.053 -0.02051,0.0752 -0.0188,0.0222 -0.05127,0.0222 -0.03076,0 -0.05127,-0.0222 -0.02051,-0.0222 -0.02051,-0.0752 v -0.64087 h 1.608154 v 0.64087 q 0,0.053 -0.02051,0.0752 -0.0188,0.0222 -0.05127,0.0222 -0.03247,0 -0.05298,-0.0222 -0.0188,-0.0222 -0.0188,-0.0752 v -0.49732 z"
     id="text32"
     style="font-size:3.5px;font-family:'Space Mono', 'Courier New', monospace;text-anchor:middle;opacity:0.64;fill:#6f6960"
     aria-label="OCT" />
  <!-- SINE_OUTPUT (x=90) -->
  <circle
     cx="90"
     cy="323"
     r="3"
     fill="#FF4A0E"
     id="circle32" />
  <path
     d="m 84.938599,315.05566 q 0,-0.70361 0.206787,-1.15747 0.209472,-0.45654 0.545166,-0.67944 0.335693,-0.2229 0.81372,-0.2229 0.692872,0 1.12793,0.52905 0.437744,0.52906 0.437744,1.50659 0,0.98829 -0.461914,1.54419 -0.405517,0.49146 -1.101074,0.49146 -0.700928,0 -1.106445,-0.48609 -0.461914,-0.5559 -0.461914,-1.52539 z m 0.671386,-0.0268 q 0,0.67944 0.257813,1.02051 0.257812,0.33838 0.63916,0.33838 0.384033,0 0.636475,-0.3357 0.252441,-0.33838 0.252441,-1.03662 0,-0.68481 -0.24707,-1.01245 -0.244385,-0.32764 -0.641846,-0.32764 -0.397461,0 -0.647217,0.33033 -0.249756,0.33032 -0.249756,1.02319 z m 3.462159,-1.96582 h 0.649902 v 2.13232 q 0,0.49683 0.02417,0.64722 0.04297,0.2605 0.204101,0.40283 0.163819,0.14234 0.429688,0.14234 0.225586,0 0.36792,-0.0994 0.142334,-0.10205 0.193359,-0.2793 0.05371,-0.17993 0.05371,-0.76806 v -2.17798 h 0.652588 v 2.06787 q 0,0.79224 -0.08594,1.14673 -0.08325,0.3518 -0.381348,0.57202 -0.29541,0.21753 -0.781494,0.21753 -0.504883,0 -0.789551,-0.17993 -0.281982,-0.18262 -0.410889,-0.51026 -0.12622,-0.33032 -0.12622,-1.21386 z M 93.560181,317 v -3.271 H 92.60144 v -0.66601 h 2.564698 V 313.729 H 94.210083 V 317 Z"
     id="text33"
     style="font-weight:700;font-size:5.5px;font-family:Oswald, 'Arial Narrow', Arial, sans-serif;letter-spacing:0.5;text-anchor:middle;fill:#ff4a0e"
     aria-label="OUT" />
  <path
     d="m 86.271851,349.33179 h -0.94336 l -0.193115,0.52466 h 0.275146 q 0.05127,0 0.07349,0.0205 0.02222,0.0188 0.02222,0.0513 0,0.0308 -0.02222,0.0513 Q 85.461792,350 85.410522,350 h -0.536621 q -0.05127,0 -0.07349,-0.0205 -0.02222,-0.0205 -0.02222,-0.0513 0,-0.0325 0.02222,-0.0513 0.02222,-0.0205 0.07349,-0.0205 h 0.111084 l 0.634034,-1.71241 H 85.19519 q -0.05127,0 -0.07349,-0.0188 -0.02222,-0.0205 -0.02222,-0.053 0,-0.0325 0.02222,-0.0513 0.02222,-0.0205 0.07349,-0.0205 h 0.722901 l 0.700683,1.85596 h 0.111084 q 0.05127,0 0.07349,0.0205 0.02222,0.0188 0.02222,0.0513 0,0.0308 -0.02222,0.0513 Q 86.781128,350 86.729858,350 h -0.534912 q -0.05298,0 -0.0752,-0.0205 -0.02222,-0.0205 -0.02222,-0.0513 0,-0.0325 0.02222,-0.0513 0.02222,-0.0205 0.0752,-0.0205 h 0.273438 z m -0.05469,-0.14356 -0.396484,-1.04419 H 85.7677 l -0.384521,1.04419 z m 2.377197,-1.04419 v 1.19971 q 0,0.30249 -0.20166,0.50757 -0.20166,0.20508 -0.48706,0.20508 -0.191407,0 -0.340088,-0.0837 -0.148682,-0.0837 -0.25293,-0.25293 -0.104248,-0.1709 -0.104248,-0.37598 v -1.19971 h -0.121338 q -0.05127,0 -0.07349,-0.0188 -0.02222,-0.0205 -0.02222,-0.053 0,-0.0325 0.02393,-0.0547 0.02051,-0.0171 0.07178,-0.0171 h 0.529785 q 0.05127,0 0.07349,0.0205 0.02222,0.0188 0.02222,0.0513 0,0.0325 -0.02222,0.053 -0.02222,0.0188 -0.07349,0.0188 h -0.264892 v 1.19971 q 0,0.23755 0.162353,0.40332 0.162354,0.16577 0.384522,0.16577 0.141845,0 0.258056,-0.0649 0.11792,-0.0649 0.205078,-0.19995 0.08887,-0.13501 0.08887,-0.3042 v -1.19971 h -0.264893 q -0.05127,0 -0.07349,-0.0188 -0.02222,-0.0205 -0.02222,-0.053 0,-0.0325 0.02222,-0.0513 0.02222,-0.0205 0.07349,-0.0205 h 0.529785 q 0.05127,0 0.07349,0.0205 0.02222,0.0188 0.02222,0.0513 0,0.0325 -0.02222,0.053 -0.02222,0.0188 -0.07349,0.0188 z m 0.84253,1.71241 v -1.71241 h -0.121338 q -0.05127,0 -0.07349,-0.0188 -0.02222,-0.0205 -0.02222,-0.053 0,-0.0325 0.02222,-0.0513 0.02222,-0.0205 0.07349,-0.0205 h 0.772461 q 0.181152,0 0.329834,0.0752 0.15039,0.0752 0.229004,0.1709 0.135009,0.16236 0.205078,0.34351 0.04956,0.13159 0.04956,0.31103 v 0.19825 q 0,0.22045 -0.09741,0.42724 -0.09741,0.20679 -0.324707,0.3606 Q 90.310181,350 90.088013,350 h -0.772461 q -0.05127,0 -0.07349,-0.0205 -0.02222,-0.0205 -0.02222,-0.0513 0,-0.0325 0.02222,-0.0513 0.02222,-0.0205 0.07349,-0.0205 z m 0.143554,0 h 0.521241 q 0.181152,0 0.338378,-0.11792 0.158936,-0.11792 0.237549,-0.28199 0.08032,-0.16577 0.08032,-0.32641 v -0.25977 q 0,-0.1333 -0.04273,-0.23755 -0.06152,-0.1521 -0.174316,-0.28882 -0.06152,-0.0752 -0.181153,-0.13671 -0.119629,-0.0632 -0.258056,-0.0632 h -0.521241 z m 2.59253,-1.71241 v 1.71241 h 0.492187 q 0.05127,0 0.07349,0.0205 0.02222,0.0188 0.02222,0.0513 0,0.0308 -0.02222,0.0513 Q 92.716431,350 92.665161,350 h -1.12793 q -0.05127,0 -0.07349,-0.0205 -0.02222,-0.0205 -0.02222,-0.0513 0,-0.0325 0.02222,-0.0513 0.02222,-0.0205 0.07349,-0.0205 h 0.492188 v -1.71241 h -0.492188 q -0.05127,0 -0.07349,-0.0188 -0.02222,-0.0205 -0.02222,-0.053 0,-0.0325 0.02222,-0.0513 0.02222,-0.0205 0.07349,-0.0205 h 1.12793 q 0.05127,0 0.07349,0.0205 0.02222,0.0188 0.02222,0.0513 0,0.0325 -0.02222,0.053 -0.02222,0.0188 -0.07349,0.0188 z m 2.905273,0.86133 q 0,0.28711 -0.116211,0.5332 -0.116211,0.24439 -0.321289,0.38111 -0.203369,0.13672 -0.4375,0.13672 -0.346924,0 -0.611816,-0.29395 -0.263184,-0.29565 -0.263184,-0.75708 0,-0.46313 0.263184,-0.75708 0.264892,-0.29394 0.611816,-0.29394 0.234131,0 0.4375,0.13671 0.203369,0.13672 0.31958,0.38111 0.11792,0.24438 0.11792,0.5332 z m -0.145264,0 q 0,-0.35034 -0.203369,-0.62891 -0.203369,-0.27856 -0.526367,-0.27856 -0.30249,0 -0.517822,0.2666 -0.213623,0.26489 -0.213623,0.64087 0,0.3999 0.223877,0.65454 0.225586,0.25293 0.507568,0.25293 0.322998,0 0.526367,-0.27685 0.203369,-0.27857 0.203369,-0.63062 z"
     id="text34"
     style="font-size:3.5px;font-family:'Space Mono', 'Courier New', monospace;text-anchor:middle;opacity:0.64;fill:#6f6960"
     aria-label="AUDIO" />
  <!-- FOOTER -->
  <circle
     cx="15"
     cy="372.5"
     r="3"
     fill="#0C100A"
     opacity="0.35"
     id="circle34" />
  <circle
     cx="105"
     cy="372.5"
     r="3"
     fill="#0C100A"
     opacity="0.35"
     id="circle35" />
  <rect
     x="0"
     y="357"
     width="120"
     height="14"
     fill="#141A12"
     opacity="0.75"
     id="rect35" />
  <path
     d="M 7.7719727,362.46631 8.5957031,368 H 7.1225586 l -0.071777,-0.99463 H 6.534668 L 6.4492187,368 H 4.9589844 l 0.7314453,-5.53369 z m -0.7622071,3.5581 q -0.109375,-0.93994 -0.21875,-2.3208 -0.21875,1.58594 -0.2734375,2.3208 z m 7.7719724,-3.5581 V 368 h -1.257812 v -3.73584 L 13.021484,368 h -0.892089 l -0.529786,-3.65039 V 368 h -1.257812 v -5.53369 h 1.862793 q 0.08203,0.49902 0.174316,1.17578 l 0.198242,1.4082 0.328125,-2.58398 z m 2.077637,0 h 1.449219 q 0.58789,0 0.902343,0.0923 0.317872,0.0923 0.475098,0.26661 0.160645,0.17431 0.215332,0.42382 0.05811,0.2461 0.05811,0.76563 v 0.48193 q 0,0.52979 -0.109375,0.77246 -0.109375,0.24268 -0.403321,0.37256 -0.290527,0.12988 -0.762207,0.12988 H 18.29834 V 368 h -1.438965 z m 1.438965,0.94678 v 1.4082 q 0.06152,0.003 0.105957,0.003 0.198242,0 0.273437,-0.0957 0.07861,-0.0991 0.07861,-0.40673 v -0.45459 q 0,-0.2837 -0.08887,-0.36914 -0.08887,-0.0854 -0.36914,-0.0854 z m 5.013672,-0.94678 v 4.42627 h 0.875 V 368 h -2.313965 v -5.53369 z m 3.790039,4.40576 V 368 H 26.05957 v -1.12793 z m 4.647461,-4.40576 h 2.437011 v 1.10742 h -0.998046 v 1.04932 h 0.888671 v 1.05273 H 33.188477 V 368 h -1.438965 z m 7.55664,0 v 3.69824 q 0,0.62891 -0.04101,0.88525 -0.04102,0.25293 -0.242676,0.52295 -0.20166,0.26661 -0.533203,0.40674 -0.328125,0.13672 -0.775879,0.13672 -0.495606,0 -0.875,-0.16406 -0.379395,-0.16406 -0.567383,-0.42725 -0.187988,-0.26318 -0.222168,-0.55371 -0.03418,-0.29394 -0.03418,-1.23047 v -3.27441 h 1.438965 v 4.14941 q 0,0.36231 0.0376,0.46485 0.04102,0.0991 0.160644,0.0991 0.136719,0 0.174317,-0.10938 0.04102,-0.11279 0.04102,-0.52636 v -4.07764 z m 4.955567,0 v 1.10742 H 43.407227 V 368 h -1.438965 v -4.42627 h -0.851075 v -1.10742 z m 5.099121,0 v 3.69824 q 0,0.62891 -0.04102,0.88525 -0.04101,0.25293 -0.242676,0.52295 -0.20166,0.26661 -0.533203,0.40674 -0.328125,0.13672 -0.775879,0.13672 -0.495605,0 -0.875,-0.16406 -0.379394,-0.16406 -0.567382,-0.42725 -0.187989,-0.26318 -0.222168,-0.55371 -0.03418,-0.29394 -0.03418,-1.23047 v -3.27441 h 1.438965 v 4.14941 q 0,0.36231 0.0376,0.46485 0.04102,0.0991 0.160645,0.0991 0.136719,0 0.174316,-0.10938 0.04102,-0.11279 0.04102,-0.52636 v -4.07764 z m 2.057129,0 h 1.018554 q 1.018555,0 1.377442,0.0786 0.362305,0.0786 0.58789,0.40332 0.229004,0.32129 0.229004,1.02881 0,0.646 -0.160644,0.86816 -0.160645,0.22217 -0.632324,0.26661 0.427246,0.10595 0.574218,0.28369 0.146973,0.17773 0.181153,0.32812 0.0376,0.14698 0.0376,0.8169 V 368 h -1.336425 v -1.83887 q 0,-0.44433 -0.07178,-0.55029 -0.06836,-0.10596 -0.365722,-0.10596 V 368 h -1.438965 z m 1.438965,0.94678 v 1.23046 q 0.242675,0 0.338378,-0.0649 0.09912,-0.0684 0.09912,-0.43408 v -0.3042 q 0,-0.26318 -0.0957,-0.34521 -0.09228,-0.082 -0.341796,-0.082 z m 3.831054,-0.94678 h 2.399414 v 1.10742 h -0.960449 v 1.04932 h 0.898926 v 1.05273 h -0.898926 v 1.2168 h 1.056152 V 368 h -2.495117 z m 7.45752,1.6748 h -1.336426 v -0.41015 q 0,-0.28711 -0.05127,-0.36573 -0.05127,-0.0786 -0.170898,-0.0786 -0.129883,0 -0.198242,0.10596 -0.06494,0.10596 -0.06494,0.32129 0,0.27685 0.0752,0.41699 0.07178,0.14014 0.406738,0.33838 0.960449,0.5708 1.209961,0.93652 0.249512,0.36572 0.249512,1.1792 0,0.59131 -0.140137,0.87158 -0.136719,0.28028 -0.533203,0.47168 -0.396485,0.18799 -0.922852,0.18799 -0.577636,0 -0.987793,-0.21875 -0.406738,-0.21875 -0.533203,-0.55713 -0.126465,-0.33838 -0.126465,-0.96045 v -0.3623 h 1.336426 v 0.67334 q 0,0.31103 0.05469,0.3999 0.0581,0.0889 0.20166,0.0889 0.143554,0 0.211914,-0.1128 0.07178,-0.11279 0.07178,-0.33496 0,-0.48877 -0.133301,-0.63916 -0.136718,-0.15039 -0.673339,-0.50244 -0.536622,-0.35547 -0.710938,-0.51611 -0.174316,-0.16065 -0.290527,-0.44434 -0.112793,-0.28369 -0.112793,-0.72461 0,-0.63574 0.160644,-0.92968 0.164063,-0.29395 0.526367,-0.45801 0.362305,-0.16748 0.875,-0.16748 0.560547,0 0.953614,0.18115 0.396484,0.18115 0.522949,0.45801 0.129883,0.27344 0.129883,0.9331 z"
     id="text35"
     style="font-weight:900;font-size:7px;font-family:'Big Shoulders Stencil Display', Impact, sans-serif;letter-spacing:1.5;fill:#e8e2d4"
     aria-label="AMPL. FUTURES" />
  <path
     d="m 96.923584,367.81543 v -2.20166 h -0.156006 q -0.06592,0 -0.09448,-0.0242 -0.02857,-0.0264 -0.02857,-0.0681 0,-0.0417 0.02857,-0.0659 0.02856,-0.0264 0.09448,-0.0264 h 0.993164 q 0.23291,0 0.424072,0.0967 0.19336,0.0967 0.294434,0.21973 0.173584,0.20874 0.263672,0.44165 0.06372,0.16919 0.06372,0.3999 v 0.25488 q 0,0.28345 -0.125245,0.54932 -0.125244,0.26587 -0.41748,0.46362 Q 98.046387,368 97.760742,368 h -0.993164 q -0.06592,0 -0.09448,-0.0264 -0.02857,-0.0264 -0.02857,-0.0659 0,-0.0417 0.02857,-0.0659 0.02856,-0.0264 0.09448,-0.0264 z m 0.18457,0 h 0.670166 q 0.23291,0 0.435059,-0.15161 0.204346,-0.15161 0.30542,-0.36255 0.103271,-0.21314 0.103271,-0.41968 v -0.33398 q 0,-0.17139 -0.05493,-0.30542 -0.0791,-0.19556 -0.224121,-0.37134 -0.0791,-0.0967 -0.232911,-0.17578 -0.153808,-0.0813 -0.331787,-0.0813 h -0.670166 z m 4.551756,-2.13355 v -0.12963 q 0,-0.0659 0.0242,-0.0945 0.0264,-0.0286 0.0681,-0.0286 0.0417,0 0.0659,0.0286 0.0264,0.0286 0.0264,0.0945 v 0.51196 q 0,0.0681 -0.0264,0.0967 -0.0242,0.0286 -0.0659,0.0286 -0.0374,0 -0.0637,-0.0264 -0.0242,-0.0264 -0.0286,-0.0857 -0.011,-0.18457 -0.19995,-0.32739 -0.25488,-0.19556 -0.58008,-0.19556 -0.21313,0 -0.4021,0.0945 -0.14062,0.0681 -0.22412,0.16699 -0.14502,0.17138 -0.23071,0.38012 -0.06152,0.15381 -0.06152,0.34717 v 0.323 q 0,0.41309 0.298824,0.71851 0.29883,0.30322 0.69434,0.30322 0.2373,0 0.42407,-0.10327 0.18897,-0.10327 0.36475,-0.31201 0.0374,-0.0462 0.0835,-0.0462 0.0396,0 0.0637,0.0242 0.0242,0.0242 0.0242,0.0615 0,0.0505 -0.0945,0.15381 -0.18017,0.20214 -0.40649,0.30542 -0.22412,0.10107 -0.45484,0.10107 -0.19995,0 -0.40649,-0.0769 -0.1582,-0.0593 -0.26147,-0.13843 -0.10328,-0.0791 -0.25489,-0.26587 -0.149411,-0.18897 -0.204343,-0.34717 -0.05493,-0.1604 -0.05493,-0.35156 v -0.37573 q 0,-0.27247 0.14502,-0.55591 0.147215,-0.28565 0.399905,-0.43726 0.25488,-0.15381 0.55151,-0.15381 0.45703,0 0.78662,0.31201 z m 3.33008,0.91407 v 0.26367 h -1.88306 v -0.26367 z m 3.10596,-0.20215 v 0.45703 q 0,0.59546 -0.28345,0.94263 -0.22192,0.27246 -0.5603,0.27246 -0.1626,0 -0.30762,-0.0659 -0.14282,-0.0637 -0.2439,-0.18018 -0.0637,-0.0725 -0.14062,-0.23291 -0.0747,-0.1604 -0.10767,-0.29443 -0.0505,-0.18896 -0.0505,-0.44165 v -0.45703 q 0,-0.59766 0.28344,-0.94483 0.22193,-0.27246 0.56031,-0.27246 0.16479,0 0.30761,0.0659 0.14282,0.0637 0.2439,0.18018 0.0659,0.0747 0.14062,0.2351 0.0747,0.16041 0.10987,0.29224 0.0483,0.18897 0.0483,0.44385 z m -0.18457,0.0242 q 0,-0.26148 -0.0747,-0.4856 -0.0725,-0.22632 -0.16479,-0.36035 -0.0549,-0.0769 -0.14283,-0.13183 -0.12524,-0.0769 -0.28125,-0.0769 -0.30981,0 -0.48559,0.31641 -0.17578,0.3164 -0.17578,0.73828 v 0.40649 q 0,0.26148 0.0725,0.4878 0.0747,0.22631 0.16919,0.36035 0.0527,0.0747 0.14062,0.12964 0.12524,0.0791 0.28345,0.0791 0.30761,0 0.4834,-0.31641 0.17578,-0.3186 0.17578,-0.74048 z m 3.38501,-0.0242 v 0.45703 q 0,0.59546 -0.28345,0.94263 -0.22192,0.27246 -0.5603,0.27246 -0.1626,0 -0.30762,-0.0659 -0.14282,-0.0637 -0.2439,-0.18018 -0.0637,-0.0725 -0.14062,-0.23291 -0.0747,-0.1604 -0.10767,-0.29443 -0.0505,-0.18896 -0.0505,-0.44165 v -0.45703 q 0,-0.59766 0.28345,-0.94483 0.22193,-0.27246 0.5603,-0.27246 0.1648,0 0.30762,0.0659 0.14282,0.0637 0.2439,0.18018 0.0659,0.0747 0.14062,0.2351 0.0747,0.16041 0.10987,0.29224 0.0483,0.18897 0.0483,0.44385 z m -0.18457,0.0242 q 0,-0.26148 -0.0747,-0.4856 -0.0725,-0.22632 -0.1648,-0.36035 -0.0549,-0.0769 -0.14282,-0.13183 -0.12524,-0.0769 -0.28125,-0.0769 -0.30981,0 -0.48559,0.31641 -0.17578,0.3164 -0.17578,0.73828 v 0.40649 q 0,0.26148 0.0725,0.4878 0.0747,0.22631 0.16918,0.36035 0.0527,0.0747 0.14063,0.12964 0.12524,0.0791 0.28345,0.0791 0.30761,0 0.4834,-0.31641 0.17578,-0.3186 0.17578,-0.74048 z m 2.62915,-1.21289 v 2.61035 h 0.63281 q 0.0659,0 0.0945,0.0264 0.0286,0.0242 0.0286,0.0659 0,0.0396 -0.0286,0.0659 Q 114.4397,368 114.37378,368 h -1.4502 q -0.0659,0 -0.0945,-0.0264 -0.0286,-0.0264 -0.0286,-0.0659 0,-0.0417 0.0286,-0.0659 0.0286,-0.0264 0.0945,-0.0264 h 0.63282 v -2.35547 l -0.60205,0.18897 q -0.044,0.0132 -0.0637,0.0132 -0.033,0 -0.0615,-0.0264 -0.0264,-0.0286 -0.0264,-0.0659 0,-0.0329 0.022,-0.0615 0.0176,-0.0176 0.0725,-0.0374 z"
     id="text36"
     style="font-size:4.5px;font-family:'Space Mono', 'Courier New', monospace;letter-spacing:0.5;text-anchor:end;fill:#6f6960"
     aria-label="DC-001" />
</svg>
