<?xml version="1.0" encoding="UTF-8" standalone="no"?>
<svg
   width="180"
   height="380"
   viewBox="0 0 180 380"
   version="1.1"
   id="svg22"
   xmlns="http://www.w3.org/2000/svg"
   xmlns:svg="http://www.w3.org/2000/svg">
  <defs
     id="defs22" />
  <rect
     width="180"
     height="380"
     fill="#1F2A1F"
     id="rect1" />
  <rect
     width="180"
     height="22"
     fill="#FF4A0E"
     id="rect2" />
  <path
     d="m 57.556997,11.801 h 2.717 v 3.85 q -0.638,0.209 -1.287,0.308 -0.649,0.099 -1.474,0.099 -1.221,0 -2.057,-0.484 -0.836,-0.495 -1.276,-1.397 -0.429,-0.913 -0.429,-2.156 0,-1.232 0.484,-2.134 0.484,-0.902 1.386,-1.397 0.913,-0.506 2.2,-0.506 0.66,0 1.243,0.121 0.594,0.121 1.1,0.341 l -0.374,0.858 q -0.418,-0.187 -0.946,-0.319 -0.517,-0.132 -1.078,-0.132 -1.408,0 -2.2,0.847 -0.781,0.847 -0.781,2.321 0,0.935 0.297,1.661 0.308,0.715 0.957,1.122 0.649,0.396 1.705,0.396 0.517,0 0.88,-0.055 0.363,-0.055 0.66,-0.132 v -2.332 h -1.727 z m 13.451007,0.209 q 0,1.221 -0.418,2.134 -0.407,0.902 -1.21,1.408 -0.803,0.506 -1.991,0.506 -1.221,0 -2.035,-0.506 -0.803,-0.506 -1.199,-1.419 -0.396,-0.913 -0.396,-2.134 0,-1.21 0.396,-2.112 0.396,-0.902 1.199,-1.408 0.814,-0.506 2.046,-0.506 1.177,0 1.98,0.506 0.803,0.495 1.21,1.408 0.418,0.902 0.418,2.123 z m -6.204,0 q 0,1.485 0.627,2.343 0.627,0.847 1.958,0.847 1.342,0 1.958,-0.847 0.616,-0.858 0.616,-2.343 0,-1.485 -0.616,-2.321 -0.616,-0.847 -1.947,-0.847 -1.331,0 -1.969,0.847 -0.627,0.836 -0.627,2.321 z m 15.364999,-3.916 -2.805,7.854 h -0.99 l -2.805,-7.854 h 1.034 l 1.771,5.038 q 0.176,0.484 0.297,0.913 0.121,0.418 0.198,0.803 0.077,-0.385 0.198,-0.814 0.121,-0.429 0.297,-0.924 l 1.76,-5.016 z m 7.456004,7.854 h -4.389 V 8.094 h 4.389 v 0.869 h -3.399 v 2.453 h 3.201 v 0.858 h -3.201 v 2.805 h 3.399 z m 5.894,-7.854 q 1.463,0 2.156,0.561 0.704,0.55 0.704,1.672 0,0.627 -0.231,1.045 -0.231,0.418 -0.594,0.671 -0.352,0.242 -0.748,0.385 l 2.156,3.52 h -1.155 l -1.903,-3.245 h -1.562 v 3.245 h -0.99 V 8.094 Z m -0.055,0.858 h -1.122 v 2.915 h 1.177 q 0.957,0 1.397,-0.374 0.44,-0.385 0.44,-1.122 0,-0.77 -0.462,-1.089 -0.462,-0.33 -1.43,-0.33 z M 106.42,15.948 h -1.155 l -4.202,-6.523 h -0.044 q 0.022,0.385 0.055,0.957 0.033,0.572 0.033,1.177 v 4.389 h -0.913 V 8.094 h 1.144 l 4.191,6.501 h 0.044 q -0.011,-0.176 -0.033,-0.528 -0.011,-0.352 -0.033,-0.77 -0.011,-0.418 -0.011,-0.77 V 8.094 h 0.924 z m 10.987,-3.938 q 0,1.221 -0.418,2.134 -0.407,0.902 -1.21,1.408 -0.803,0.506 -1.991,0.506 -1.221,0 -2.035,-0.506 -0.803,-0.506 -1.199,-1.419 -0.396,-0.913 -0.396,-2.134 0,-1.21 0.396,-2.112 0.396,-0.902 1.199,-1.408 0.814,-0.506 2.046,-0.506 1.177,0 1.98,0.506 0.803,0.495 1.21,1.408 0.418,0.902 0.418,2.123 z m -6.204,0 q 0,1.485 0.627,2.343 0.627,0.847 1.958,0.847 1.342,0 1.958,-0.847 0.616,-0.858 0.616,-2.343 0,-1.485 -0.616,-2.321 -0.616,-0.847 -1.947,-0.847 -1.331,0 -1.969,0.847 -0.627,0.836 -0.627,2.321 z m 12.10901,-3.916 q 1.463,0 2.156,0.561 0.704,0.55 0.704,1.672 0,0.627 -0.231,1.045 -0.231,0.418 -0.594,0.671 -0.352,0.242 -0.748,0.385 l 2.156,3.52 h -1.155 l -1.903,-3.245 h -1.562 v 3.245 h -0.99 V 8.094 Z m -0.055,0.858 h -1.122 v 2.915 h 1.177 q 0.957,0 1.397,-0.374 0.44,-0.385 0.44,-1.122 0,-0.77 -0.462,-1.089 -0.462,-0.33 -1.43,-0.33 z"
     id="text2"
     style="font-size:11px;font-family:'Nunito Sans', sans-serif;letter-spacing:2;dominant-baseline:middle;text-anchor:middle;fill:#0c100a"
     aria-label="GOVERNOR" />
  <!-- Section dividers -->
  <line
     x1="8"
     y1="165"
     x2="172"
     y2="165"
     stroke="#2E3A2E"
     stroke-width="0.75"
     id="line2" />
  <line
     x1="8"
     y1="260"
     x2="172"
     y2="260"
     stroke="#2E3A2E"
     stroke-width="0.75"
     id="line3" />
  <line
     x1="8"
     y1="296"
     x2="172"
     y2="296"
     stroke="#2E3A2E"
     stroke-width="0.75"
     id="line4" />
  <!-- ══════════════════════════════════════════════════════════ -->
  <!-- ROW 1: AMOUNT (x=15.24→45px) | TONE (x=45.72→135px)     -->
  <!-- Horizontal sat y=50mm→148px                               -->
  <!-- ══════════════════════════════════════════════════════════ -->
  <!-- AMOUNT -->
  <circle
     cx="45.0"
     cy="112.2"
     r="6.5"
     fill="#4A4A4A"
     stroke="#787878"
     stroke-width="0.75"
     id="circle4" />
  <circle
     cx="27.3"
     cy="147.6"
     r="4"
     fill="#363636"
     stroke="#666"
     stroke-width="0.5"
     id="circle5" />
  <circle
     cx="62.7"
     cy="147.6"
     r="5"
     fill="#251E0A"
     stroke="#E8C547"
     stroke-width="1.25"
     id="circle6" />
  <path
     d="m 34.326998,126 -0.559,-1.4365 h -1.8395 L 31.375998,126 h -0.5915 l 1.8135,-4.6605 h 0.5265 l 1.807,4.6605 z m -1.2545,-3.3605 q -0.0195,-0.052 -0.065,-0.1885 -0.0455,-0.1365 -0.091,-0.2795 -0.039,-0.1495 -0.065,-0.2275 -0.0455,0.2015 -0.104,0.3965 -0.0585,0.1885 -0.0975,0.299 l -0.5265,1.404 h 1.469 z m 4.5435,3.3605 -1.5275,-4.069 h -0.026 q 0.0195,0.2015 0.0325,0.546 0.013,0.338 0.013,0.7085 V 126 h -0.5395 v -4.641 h 0.8645 l 1.43,3.8025 h 0.026 l 1.456,-3.8025 h 0.858 V 126 h -0.5785 v -2.8535 q 0,-0.338 0.013,-0.6695 0.0195,-0.3315 0.0325,-0.5395 h -0.026 l -1.547,4.0625 z m 7.897497,-2.327 q 0,0.7215 -0.247,1.261 -0.2405,0.533 -0.715,0.832 -0.4745,0.299 -1.1765,0.299 -0.7215,0 -1.2025,-0.299 -0.4745,-0.299 -0.7085,-0.8385 -0.234,-0.5395 -0.234,-1.261 0,-0.715 0.234,-1.248 0.234,-0.533 0.7085,-0.832 0.481,-0.299 1.209,-0.299 0.6955,0 1.17,0.299 0.4745,0.2925 0.715,0.832 0.247,0.533 0.247,1.2545 z m -3.666,0 q 0,0.8775 0.3705,1.3845 0.3705,0.5005 1.157,0.5005 0.793,0 1.157,-0.5005 0.364,-0.507 0.364,-1.3845 0,-0.8775 -0.364,-1.3715 -0.364,-0.5005 -1.1505,-0.5005 -0.7865,0 -1.1635,0.5005 -0.3705,0.494 -0.3705,1.3715 z m 8.222501,0.689 q 0,0.481 -0.195,0.871 -0.195,0.3835 -0.598,0.611 -0.3965,0.221 -1.014,0.221 -0.8645,0 -1.3195,-0.468 -0.4485,-0.4745 -0.4485,-1.248 v -2.99 h 0.585 v 3.0095 q 0,0.5655 0.299,0.8775 0.3055,0.312 0.9165,0.312 0.6305,0 0.91,-0.3315 0.286,-0.338 0.286,-0.8645 v -3.003 h 0.5785 z M 54.971001,126 h -0.6825 l -2.483,-3.8545 h -0.026 q 0.013,0.2275 0.0325,0.5655 0.0195,0.338 0.0195,0.6955 V 126 h -0.5395 v -4.641 h 0.676 l 2.4765,3.8415 h 0.026 q -0.0065,-0.104 -0.0195,-0.312 -0.0065,-0.208 -0.0195,-0.455 -0.0065,-0.247 -0.0065,-0.455 v -2.6195 h 0.546 z m 2.730002,0 h -0.585 v -4.1275 h -1.4495 v -0.5135 h 3.4775 v 0.5135 h -1.443 z"
     id="text6"
     style="font-size:6.5px;font-family:'Nunito Sans', sans-serif;text-anchor:middle;fill:#c8c0b0"
     aria-label="AMOUNT" />
  <!-- TONE -->
  <circle
     cx="135.0"
     cy="112.2"
     r="6.5"
     fill="#4A4A4A"
     stroke="#787878"
     stroke-width="0.75"
     id="circle7" />
  <circle
     cx="117.3"
     cy="147.6"
     r="4"
     fill="#363636"
     stroke="#666"
     stroke-width="0.5"
     id="circle8" />
  <circle
     cx="152.7"
     cy="147.6"
     r="5"
     fill="#251E0A"
     stroke="#E8C547"
     stroke-width="1.25"
     id="circle9" />
  <path
     d="m 128.54225,126 h -0.585 v -4.1275 h -1.4495 v -0.5135 h 3.4775 v 0.5135 h -1.443 z m 6.0645,-2.327 q 0,0.7215 -0.247,1.261 -0.2405,0.533 -0.715,0.832 -0.4745,0.299 -1.1765,0.299 -0.7215,0 -1.2025,-0.299 -0.4745,-0.299 -0.7085,-0.8385 -0.234,-0.5395 -0.234,-1.261 0,-0.715 0.234,-1.248 0.234,-0.533 0.7085,-0.832 0.481,-0.299 1.209,-0.299 0.6955,0 1.17,0.299 0.4745,0.2925 0.715,0.832 0.247,0.533 0.247,1.2545 z m -3.666,0 q 0,0.8775 0.3705,1.3845 0.3705,0.5005 1.157,0.5005 0.793,0 1.157,-0.5005 0.364,-0.507 0.364,-1.3845 0,-0.8775 -0.364,-1.3715 -0.364,-0.5005 -1.1505,-0.5005 -0.7865,0 -1.1635,0.5005 -0.3705,0.494 -0.3705,1.3715 z m 8.372,2.327 h -0.6825 l -2.483,-3.8545 h -0.026 q 0.013,0.2275 0.0325,0.5655 0.0195,0.338 0.0195,0.6955 V 126 h -0.5395 v -4.641 h 0.676 l 2.4765,3.8415 h 0.026 q -0.007,-0.104 -0.0195,-0.312 -0.007,-0.208 -0.0195,-0.455 -0.006,-0.247 -0.006,-0.455 v -2.6195 h 0.546 z m 3.8545,0 h -2.5935 v -4.641 h 2.5935 v 0.5135 h -2.0085 v 1.4495 h 1.8915 v 0.507 h -1.8915 v 1.6575 h 2.0085 z"
     id="text9"
     style="font-size:6.5px;font-family:'Nunito Sans', sans-serif;text-anchor:middle;fill:#c8c0b0"
     aria-label="TONE" />
  <!-- Tone range labels -->
  <path
     d="m 65.38535,160 h -0.473 v -2.7445 q 0,-0.2365 0.0055,-0.3795 0.0055,-0.143 0.0165,-0.297 -0.088,0.088 -0.1595,0.1485 -0.0715,0.0605 -0.1815,0.154 l -0.418,0.341 -0.253,-0.3245 1.0615,-0.825 h 0.4015 z m 4.070003,-1.969 q 0,0.6325 -0.132,1.089 -0.132,0.451 -0.418,0.693 -0.286,0.242 -0.759,0.242 -0.6655,0 -0.9845,-0.5335 -0.3135,-0.539 -0.3135,-1.4905 0,-0.638 0.1265,-1.089 0.132,-0.451 0.418,-0.6875 0.286,-0.242 0.7535,-0.242 0.66,0 0.9845,0.5335 0.3245,0.528 0.3245,1.485 z m -2.123,0 q 0,0.8085 0.1815,1.21 0.187,0.4015 0.6325,0.4015 0.44,0 0.627,-0.396 0.1925,-0.4015 0.1925,-1.2155 0,-0.803 -0.1925,-1.2045 -0.187,-0.4015 -0.627,-0.4015 -0.4455,0 -0.6325,0.4015 -0.1815,0.4015 -0.1815,1.2045 z m 5.269002,0 q 0,0.6325 -0.132,1.089 -0.132,0.451 -0.418,0.693 -0.286,0.242 -0.759,0.242 -0.6655,0 -0.9845,-0.5335 -0.3135,-0.539 -0.3135,-1.4905 0,-0.638 0.1265,-1.089 0.132,-0.451 0.418,-0.6875 0.286,-0.242 0.7535,-0.242 0.66,0 0.9845,0.5335 0.3245,0.528 0.3245,1.485 z m -2.123,0 q 0,0.8085 0.1815,1.21 0.187,0.4015 0.6325,0.4015 0.44,0 0.627,-0.396 0.1925,-0.4015 0.1925,-1.2155 0,-0.803 -0.1925,-1.2045 -0.187,-0.4015 -0.627,-0.4015 -0.4455,0 -0.6325,0.4015 -0.1815,0.4015 -0.1815,1.2045 z M 76.407358,160 h -0.495 v -1.8315 h -2.013 V 160 h -0.495 v -3.927 h 0.495 v 1.661 h 2.013 v -1.661 h 0.495 z m 2.909496,0 h -2.156 v -0.319 l 1.584,-2.255 h -1.4905 v -0.374 h 2.024 v 0.363 l -1.562,2.211 h 1.6005 z m 1.913052,-1.60327 v -0.2417 l 1.05542,-1.05542 0.322266,0.32226 -0.625733,0.62574 h 3.273682 v 0.45654 h -3.273682 l 0.625733,0.62573 -0.322266,0.32227 z M 87.533252,160 v -3.927 h 0.495 v 3.487 h 1.716 V 160 Z m 3.9215,-3.927 q 0.77,0 1.122,0.3025 0.352,0.3025 0.352,0.8525 0,0.3245 -0.1485,0.6105 -0.143,0.2805 -0.4895,0.4565 -0.341,0.176 -0.9295,0.176 h -0.451 V 160 h -0.495 v -3.927 z m -0.044,0.4235 h -0.5005 v 1.551 h 0.396 q 0.561,0 0.836,-0.1815 0.275,-0.1815 0.275,-0.616 0,-0.3795 -0.242,-0.5665 -0.242,-0.187 -0.7645,-0.187 z m 7.568343,1.65853 v 0.2417 l -1.055419,1.05542 -0.322266,-0.32227 0.625732,-0.62573 h -3.273681 v -0.45654 h 3.273681 l -0.625732,-0.62574 0.322266,-0.32226 z M 103.53765,160 h -2.596 v -0.4015 l 1.0285,-1.0395 q 0.297,-0.297 0.5005,-0.528 0.2035,-0.231 0.308,-0.451 0.1045,-0.2255 0.1045,-0.4895 0,-0.3245 -0.1925,-0.4895 -0.1925,-0.1705 -0.5005,-0.1705 -0.286,0 -0.506,0.099 -0.2145,0.099 -0.44,0.275 l -0.2585,-0.3245 q 0.231,-0.1925 0.528,-0.3245 0.3025,-0.1375 0.6765,-0.1375 0.55,0 0.869,0.2805 0.319,0.275 0.319,0.7645 0,0.308 -0.1265,0.5775 -0.1265,0.2695 -0.352,0.5335 -0.2255,0.2585 -0.528,0.5555 l -0.8195,0.8085 v 0.022 h 1.9855 z m 3.1625,-1.969 q 0,0.6325 -0.132,1.089 -0.132,0.451 -0.418,0.693 -0.286,0.242 -0.759,0.242 -0.6655,0 -0.9845,-0.5335 -0.3135,-0.539 -0.3135,-1.4905 0,-0.638 0.1265,-1.089 0.132,-0.451 0.418,-0.6875 0.286,-0.242 0.7535,-0.242 0.66,0 0.9845,0.5335 0.3245,0.528 0.3245,1.485 z m -2.123,0 q 0,0.8085 0.1815,1.21 0.187,0.4015 0.6325,0.4015 0.44,0 0.627,-0.396 0.1925,-0.4015 0.1925,-1.2155 0,-0.803 -0.1925,-1.2045 -0.187,-0.4015 -0.627,-0.4015 -0.4455,0 -0.6325,0.4015 -0.1815,0.4015 -0.1815,1.2045 z m 3.3385,-0.0275 q 0,0.088 -0.011,0.231 -0.005,0.143 -0.011,0.2475 h 0.022 q 0.033,-0.044 0.099,-0.1265 0.066,-0.0825 0.132,-0.165 0.0715,-0.088 0.121,-0.143 l 0.9405,-0.9955 h 0.5665 l -1.1935,1.2595 1.276,1.6885 h -0.583 l -1.023,-1.375 -0.3355,0.2915 V 160 h -0.4785 v -4.18 h 0.4785 z M 113.44316,160 h -0.495 v -1.8315 h -2.013 V 160 h -0.495 v -3.927 h 0.495 v 1.661 h 2.013 v -1.661 h 0.495 z m 2.90949,0 h -2.156 v -0.319 l 1.584,-2.255 h -1.4905 v -0.374 h 2.024 v 0.363 l -1.562,2.211 h 1.6005 z"
     id="text10"
     style="font-size:5.5px;font-family:'Nunito Sans', sans-serif;text-anchor:middle;fill:#665040"
     aria-label="100Hz ← LP → 20kHz" />
  <!-- ══════════════════════════════════════════════════════════ -->
  <!-- ROW 2: DECAY (L) | KILL button + gate (R)                -->
  <!-- y=70mm→207px  sat y=82mm→242px                           -->
  <!-- ══════════════════════════════════════════════════════════ -->
  <!-- DECAY -->
  <circle
     cx="45.0"
     cy="206.7"
     r="6.5"
     fill="#4A4A4A"
     stroke="#787878"
     stroke-width="0.75"
     id="circle10" />
  <circle
     cx="27.3"
     cy="242.2"
     r="4"
     fill="#363636"
     stroke="#666"
     stroke-width="0.5"
     id="circle11" />
  <circle
     cx="62.7"
     cy="242.2"
     r="5"
     fill="#251E0A"
     stroke="#E8C547"
     stroke-width="1.25"
     id="circle12" />
  <path
     d="m 39.393751,217.634 q 0,1.1765 -0.6435,1.7745 -0.637,0.5915 -1.781,0.5915 h -1.2935 v -4.641 h 1.43 q 0.702,0 1.2155,0.26 0.5135,0.26 0.793,0.767 0.2795,0.5005 0.2795,1.248 z m -0.6175,0.0195 q 0,-0.9295 -0.4615,-1.3585 -0.455,-0.4355 -1.2935,-0.4355 h -0.7605 v 3.64 h 0.6305 q 1.885,0 1.885,-1.846 z M 43.014248,220 h -2.5935 v -4.641 h 2.5935 v 0.5135 h -2.0085 v 1.4495 h 1.8915 v 0.507 h -1.8915 v 1.6575 h 2.0085 z m 3.009498,-4.1925 q -0.7475,0 -1.1765,0.5005 -0.429,0.5005 -0.429,1.3715 0,0.8645 0.3965,1.3715 0.403,0.5005 1.2025,0.5005 0.3055,0 0.5785,-0.052 0.273,-0.052 0.533,-0.13 v 0.507 q -0.26,0.0975 -0.5395,0.143 -0.273,0.0455 -0.6565,0.0455 -0.7085,0 -1.183,-0.2925 -0.4745,-0.2925 -0.715,-0.832 -0.234,-0.5395 -0.234,-1.2675 0,-0.702 0.2535,-1.235 0.26,-0.5395 0.7605,-0.8385 0.5005,-0.3055 1.2155,-0.3055 0.7345,0 1.2805,0.273 l -0.234,0.494 q -0.2145,-0.0975 -0.481,-0.1755 -0.26,-0.078 -0.572,-0.078 z m 5.031,4.1925 -0.559,-1.4365 h -1.8395 L 48.103746,220 h -0.5915 l 1.8135,-4.6605 h 0.5265 l 1.807,4.6605 z m -1.2545,-3.3605 q -0.0195,-0.052 -0.065,-0.1885 -0.0455,-0.1365 -0.091,-0.2795 -0.039,-0.1495 -0.065,-0.2275 -0.0455,0.2015 -0.104,0.3965 -0.0585,0.1885 -0.0975,0.299 l -0.5265,1.404 h 1.469 z m 3.315004,1.001 1.209,-2.2815 h 0.6305 l -1.547,2.8405 V 220 h -0.585 v -1.7745 l -1.547,-2.8665 h 0.637 z"
     id="text12"
     style="font-size:6.5px;font-family:'Nunito Sans', sans-serif;text-anchor:middle;fill:#c8c0b0"
     aria-label="DECAY" />
  <!-- KILL button (TL1105, small ~6px) -->
  <circle
     cx="135.0"
     cy="200.8"
     r="4"
     fill="#3A1A1A"
     stroke="#FF4A0E"
     stroke-width="1.25"
     id="circle13" />
  <path
     d="m 132.504,191 h -0.689 l -1.6445,-2.2165 -0.4745,0.416 V 191 h -0.585 v -4.641 h 0.585 v 2.288 q 0.195,-0.221 0.3965,-0.442 0.2015,-0.221 0.403,-0.442 l 1.2545,-1.404 h 0.6825 l -1.8395,2.0215 z m 1.93699,0 h -1.677 v -0.338 l 0.546,-0.1235 v -3.7115 l -0.546,-0.13 v -0.338 h 1.677 v 0.338 l -0.546,0.13 v 3.7115 l 0.546,0.1235 z m 0.89701,0 v -4.641 h 0.585 v 4.121 h 2.028 V 191 Z m 3.406,0 v -4.641 h 0.585 v 4.121 h 2.028 V 191 Z"
     id="text13"
     style="font-size:6.5px;font-family:'Nunito Sans', sans-serif;text-anchor:middle;fill:#ff6a30"
     aria-label="KILL" />
  <!-- KILL gate input -->
  <circle
     cx="135.0"
     cy="242.2"
     r="5"
     fill="#251E0A"
     stroke="#E8C547"
     stroke-width="1.25"
     id="circle14" />
  <path
     d="m 130.215,250.738 h 1.482 v 2.1 q -0.348,0.114 -0.702,0.168 -0.354,0.054 -0.804,0.054 -0.666,0 -1.122,-0.264 -0.456,-0.27 -0.696,-0.762 -0.234,-0.498 -0.234,-1.176 0,-0.672 0.264,-1.164 0.264,-0.492 0.756,-0.762 0.498,-0.276 1.2,-0.276 0.36,0 0.678,0.066 0.324,0.066 0.6,0.186 l -0.204,0.468 q -0.228,-0.102 -0.516,-0.174 -0.282,-0.072 -0.588,-0.072 -0.768,0 -1.2,0.462 -0.426,0.462 -0.426,1.266 0,0.51 0.162,0.906 0.168,0.39 0.522,0.612 0.354,0.216 0.93,0.216 0.282,0 0.48,-0.03 0.198,-0.03 0.36,-0.072 v -1.272 h -0.942 z m 5.196,2.262 -0.516,-1.326 h -1.698 l -0.51,1.326 h -0.546 l 1.674,-4.302 h 0.486 l 1.668,4.302 z m -1.158,-3.102 q -0.018,-0.048 -0.06,-0.174 -0.042,-0.126 -0.084,-0.258 -0.036,-0.138 -0.06,-0.21 -0.042,0.186 -0.096,0.366 -0.054,0.174 -0.09,0.276 l -0.486,1.296 h 1.356 z m 3.24,3.102 h -0.54 v -3.81 h -1.338 v -0.474 h 3.21 v 0.474 h -1.332 z m 4.374,0 h -2.394 v -4.284 h 2.394 v 0.474 h -1.854 v 1.338 h 1.746 v 0.468 h -1.746 v 1.53 h 1.854 z"
     id="text14"
     style="font-size:6px;font-family:'Nunito Sans', sans-serif;text-anchor:middle;fill:#887860"
     aria-label="GATE" />
  <!-- ══════════════════════════════════════════════════════════ -->
  <!-- SEND + V/OCT IN (y=104mm→307px)                          -->
  <!-- RETURN + V/OCT OUT (y=116mm→343px)                        -->
  <!-- ══════════════════════════════════════════════════════════ -->
  <!-- Inputs row -->
  <circle
     cx="45.0"
     cy="307.2"
     r="5"
     fill="#201808"
     stroke="#FF4A0E"
     stroke-width="1.25"
     id="circle15" />
  <circle
     cx="90.0"
     cy="307.2"
     r="5"
     fill="#0C1A10"
     stroke="#5A7350"
     stroke-width="1.25"
     id="circle16" />
  <path
     d="m 40.227002,316.854 q 0,0.57 -0.414,0.888 -0.414,0.318 -1.116,0.318 -0.36,0 -0.666,-0.054 -0.306,-0.054 -0.51,-0.15 v -0.516 q 0.216,0.096 0.534,0.174 0.324,0.078 0.666,0.078 0.48,0 0.72,-0.186 0.246,-0.186 0.246,-0.504 0,-0.21 -0.09,-0.354 -0.09,-0.144 -0.312,-0.264 -0.216,-0.126 -0.606,-0.264 -0.546,-0.198 -0.828,-0.486 -0.276,-0.288 -0.276,-0.786 0,-0.342 0.174,-0.582 0.174,-0.246 0.48,-0.378 0.312,-0.132 0.714,-0.132 0.354,0 0.648,0.066 0.294,0.066 0.534,0.174 l -0.168,0.462 q -0.222,-0.096 -0.486,-0.162 -0.258,-0.066 -0.54,-0.066 -0.402,0 -0.606,0.174 -0.204,0.168 -0.204,0.45 0,0.216 0.09,0.36 0.09,0.144 0.294,0.258 0.204,0.114 0.552,0.246 0.378,0.138 0.636,0.3 0.264,0.156 0.396,0.378 0.138,0.222 0.138,0.558 z M 43.485001,318 h -2.394 v -4.284 h 2.394 v 0.474 h -1.854 v 1.338 h 1.746 v 0.468 h -1.746 v 1.53 h 1.854 z m 4.337998,0 h -0.63 l -2.292,-3.558 h -0.024 q 0.012,0.21 0.03,0.522 0.018,0.312 0.018,0.642 V 318 h -0.498 v -4.284 h 0.624 l 2.286,3.546 h 0.024 q -0.006,-0.096 -0.018,-0.288 -0.006,-0.192 -0.018,-0.42 -0.006,-0.228 -0.006,-0.42 v -2.418 h 0.504 z m 4.596002,-2.184 q 0,1.086 -0.594,1.638 -0.588,0.546 -1.644,0.546 h -1.194 v -4.284 h 1.32 q 0.648,0 1.122,0.24 0.474,0.24 0.732,0.708 0.258,0.462 0.258,1.152 z m -0.57,0.018 q 0,-0.858 -0.426,-1.254 -0.42,-0.402 -1.194,-0.402 h -0.702 v 3.36 h 0.582 q 1.74,0 1.74,-1.704 z"
     id="text16"
     style="font-size:6px;font-family:'Nunito Sans', sans-serif;text-anchor:middle;fill:#c8c0b0"
     aria-label="SEND" />
  <path
     d="M 84.777,313.716 83.247,318 h -0.54 l -1.53,-4.284 h 0.564 l 0.966,2.748 q 0.096,0.264 0.162,0.498 0.066,0.228 0.108,0.438 0.042,-0.21 0.108,-0.444 0.066,-0.234 0.162,-0.504 l 0.96,-2.736 z m 2.172002,0 -1.596,4.284 h -0.516 l 1.596,-4.284 z m 4.379999,2.136 q 0,0.666 -0.228,1.164 -0.222,0.492 -0.66,0.768 -0.438,0.276 -1.086,0.276 -0.666,0 -1.11,-0.276 -0.438,-0.276 -0.654,-0.774 -0.216,-0.498 -0.216,-1.164 0,-0.66 0.216,-1.152 0.216,-0.492 0.654,-0.768 0.444,-0.276 1.116,-0.276 0.642,0 1.08,0.276 0.438,0.27 0.66,0.768 0.228,0.492 0.228,1.158 z m -3.384,0 q 0,0.81 0.342,1.278 0.342,0.462 1.068,0.462 0.732,0 1.068,-0.462 0.336,-0.468 0.336,-1.278 0,-0.81 -0.336,-1.266 -0.336,-0.462 -1.062,-0.462 -0.726,0 -1.074,0.462 -0.342,0.456 -0.342,1.266 z m 6.168001,-1.722 q -0.69,0 -1.086,0.462 -0.396,0.462 -0.396,1.266 0,0.798 0.366,1.266 0.372,0.462 1.11,0.462 0.282,0 0.534,-0.048 0.252,-0.048 0.492,-0.12 v 0.468 q -0.24,0.09 -0.498,0.132 -0.252,0.042 -0.606,0.042 -0.654,0 -1.092,-0.27 -0.438,-0.27 -0.66,-0.768 -0.216,-0.498 -0.216,-1.17 0,-0.648 0.234,-1.14 0.24,-0.498 0.702,-0.774 0.462,-0.282 1.122,-0.282 0.678,0 1.182,0.252 l -0.216,0.456 q -0.198,-0.09 -0.444,-0.162 -0.24,-0.072 -0.528,-0.072 z m 3.311999,3.87 h -0.54 v -3.81 h -1.338 v -0.474 h 3.21 v 0.474 h -1.332 z"
     id="text17"
     style="font-size:6px;font-family:'Nunito Sans', sans-serif;text-anchor:middle;fill:#5a7350"
     aria-label="V/OCT" />
  <!-- Outputs row -->
  <circle
     cx="45.0"
     cy="342.6"
     r="5"
     fill="#201808"
     stroke="#FF4A0E"
     stroke-width="1.25"
     id="circle17" />
  <circle
     cx="90.0"
     cy="342.6"
     r="5"
     fill="#0C1A10"
     stroke="#5A7350"
     stroke-width="1.25"
     id="circle18" />
  <path
     d="m 35.223,349.716 q 0.798,0 1.176,0.306 0.384,0.3 0.384,0.912 0,0.342 -0.126,0.57 -0.126,0.228 -0.324,0.366 -0.192,0.132 -0.408,0.21 l 1.176,1.92 h -0.63 l -1.038,-1.77 H 34.581 V 354 h -0.54 v -4.284 z m -0.03,0.468 h -0.612 v 1.59 h 0.642 q 0.522,0 0.762,-0.204 0.24,-0.21 0.24,-0.612 0,-0.42 -0.252,-0.594 -0.252,-0.18 -0.78,-0.18 z M 40.166998,354 h -2.394 v -4.284 h 2.394 v 0.474 h -1.854 v 1.338 h 1.746 v 0.468 h -1.746 v 1.53 h 1.854 z m 2.297999,0 h -0.54 v -3.81 h -1.338 v -0.474 h 3.21 v 0.474 h -1.332 z m 5.237998,-1.512 q 0,0.444 -0.18,0.804 -0.18,0.354 -0.552,0.564 -0.366,0.204 -0.936,0.204 -0.798,0 -1.218,-0.432 -0.414,-0.438 -0.414,-1.152 v -2.76 h 0.54 v 2.778 q 0,0.522 0.276,0.81 0.282,0.288 0.846,0.288 0.582,0 0.84,-0.306 0.264,-0.312 0.264,-0.798 v -2.772 h 0.534 z m 2.310006,-2.772 q 0.798,0 1.176,0.306 0.384,0.3 0.384,0.912 0,0.342 -0.126,0.57 -0.126,0.228 -0.324,0.366 -0.192,0.132 -0.408,0.21 l 1.176,1.92 h -0.63 l -1.038,-1.77 h -0.852 V 354 h -0.54 v -4.284 z m -0.03,0.468 h -0.612 v 1.59 h 0.642 q 0.522,0 0.762,-0.204 0.24,-0.21 0.24,-0.612 0,-0.42 -0.252,-0.594 -0.252,-0.18 -0.78,-0.18 z M 55.958999,354 h -0.63 l -2.292,-3.558 h -0.024 q 0.012,0.21 0.03,0.522 0.018,0.312 0.018,0.642 V 354 h -0.498 v -4.284 h 0.624 l 2.286,3.546 h 0.024 q -0.006,-0.096 -0.018,-0.288 -0.006,-0.192 -0.018,-0.42 -0.006,-0.228 -0.006,-0.42 v -2.418 h 0.504 z"
     id="text18"
     style="font-size:6px;font-family:'Nunito Sans', sans-serif;text-anchor:middle;fill:#c8c0b0"
     aria-label="RETURN" />
  <path
     d="m 83.988001,354 h -0.54 v -3.81 h -1.338 v -0.474 h 3.21 v 0.474 h -1.332 z m 5.255999,0 h -0.54 v -1.998 H 86.508 V 354 h -0.54 v -4.284 h 0.54 v 1.812 h 2.196 v -1.812 h 0.54 z m 2.351995,-4.284 q 0.798,0 1.176,0.306 0.384,0.3 0.384,0.912 0,0.342 -0.126,0.57 -0.126,0.228 -0.324,0.366 -0.192,0.132 -0.408,0.21 l 1.176,1.92 h -0.63 l -1.038,-1.77 h -0.852 V 354 h -0.54 v -4.284 z m -0.03,0.468 h -0.612 v 1.59 h 0.642 q 0.522,0 0.762,-0.204 0.24,-0.21 0.24,-0.612 0,-0.42 -0.252,-0.594 -0.252,-0.18 -0.78,-0.18 z m 5.837998,2.304 q 0,0.444 -0.18,0.804 -0.18,0.354 -0.552,0.564 -0.366,0.204 -0.936,0.204 -0.798,0 -1.218,-0.432 -0.414,-0.438 -0.414,-1.152 v -2.76 h 0.54 v 2.778 q 0,0.522 0.276,0.81 0.282,0.288 0.846,0.288 0.582,0 0.84,-0.306 0.264,-0.312 0.264,-0.798 v -2.772 h 0.534 z"
     id="text19"
     style="font-size:6px;font-family:'Nunito Sans', sans-serif;text-anchor:middle;fill:#5a7350"
     aria-label="THRU" />
  <!-- Corner screws -->
  <circle
     cx="22.5"
     cy="7.5"
     r="4"
     fill="#2A3A2A"
     stroke="#3A4A3A"
     stroke-width="0.75"
     id="circle19" />
  <circle
     cx="157.5"
     cy="7.5"
     r="4"
     fill="#2A3A2A"
     stroke="#3A4A3A"
     stroke-width="0.75"
     id="circle20" />
  <circle
     cx="22.5"
     cy="372.5"
     r="4"
     fill="#2A3A2A"
     stroke="#3A4A3A"
     stroke-width="0.75"
     id="circle21" />
  <circle
     cx="157.5"
     cy="372.5"
     r="4"
     fill="#2A3A2A"
     stroke="#3A4A3A"
     stroke-width="0.75"
     id="circle22" />
</svg>
