<?xml version="1.0" encoding="UTF-8" standalone="no"?>
<svg
   width="210"
   height="380"
   viewBox="0 0 210 380"
   version="1.1"
   id="svg24"
   xmlns="http://www.w3.org/2000/svg"
   xmlns:svg="http://www.w3.org/2000/svg">
  <defs
     id="defs24" />
  <!-- Body: dark oxidized steel -->
  <rect
     width="210"
     height="380"
     fill="#1F2A1F"
     id="rect1" />
  <!-- Safety orange header -->
  <rect
     width="210"
     height="22"
     fill="#FF4A0E"
     id="rect2" />
  <!-- Title (invisible in VCV Rack; drawn by C++ NanoVG) -->
  <path
     d="m 75.621013,15.546 h -0.855 v -3.1635 h -3.477 v 3.1635 h -0.855 V 8.763 h 0.855 v 2.869 h 3.477 V 8.763 h 0.855 z m 7.608492,0 -0.817,-2.0995 h -2.6885 l -0.8075,2.0995 h -0.8645 l 2.6505,-6.8115 h 0.7695 l 2.641,6.8115 z m -1.8335,-4.9115 q -0.0285,-0.076 -0.095,-0.2755 -0.0665,-0.1995 -0.133,-0.4085 -0.057,-0.2185 -0.095,-0.3325 -0.0665,0.2945 -0.152,0.5795 -0.0855,0.2755 -0.1425,0.437 l -0.7695,2.052 h 2.147 z M 88.415506,8.763 q 1.2635,0 1.862,0.4845 0.608,0.475 0.608,1.444 0,0.5415 -0.1995,0.9025 -0.1995,0.361 -0.513,0.5795 -0.304,0.209 -0.646,0.3325 l 1.862,3.04 h -0.9975 l -1.6435,-2.8025 h -1.349 v 2.8025 h -0.855 V 8.763 Z m -0.0475,0.741 h -0.969 v 2.5175 h 1.0165 q 0.8265,0 1.2065,-0.323 0.38,-0.3325 0.38,-0.969 0,-0.665 -0.399,-0.9405 -0.399,-0.285 -1.235,-0.285 z m 8.577496,6.042 -2.2325,-5.947 h -0.038 q 0.0285,0.2945 0.0475,0.798 0.019,0.494 0.019,1.0355 v 4.1135 h -0.7885 V 8.763 h 1.2635 l 2.09,5.5575 h 0.038 l 2.128,-5.5575 h 1.253998 v 6.783 h -0.845498 v -4.1705 q 0,-0.494 0.019,-0.9785 0.0285,-0.4845 0.0475,-0.7885 h -0.038 l -2.261,5.9375 z M 109.835,8.763 q 1.33,0 1.938,0.5225 0.608,0.5225 0.608,1.4725 0,0.5605 -0.2565,1.0545 -0.247,0.4845 -0.8455,0.7885 -0.589,0.304 -1.6055,0.304 h -0.779 v 2.641 h -0.855 V 8.763 Z m -0.076,0.7315 h -0.8645 v 2.679 h 0.684 q 0.969,0 1.444,-0.3135 0.475,-0.3135 0.475,-1.064 0,-0.6555 -0.418,-0.9785 -0.418,-0.323 -1.3205,-0.323 z m 7.39949,-0.7315 q 1.2635,0 1.862,0.4845 0.608,0.475 0.608,1.444 0,0.5415 -0.1995,0.9025 -0.1995,0.361 -0.513,0.5795 -0.304,0.209 -0.646,0.3325 l 1.862,3.04 h -0.9975 l -1.6435,-2.8025 h -1.349 v 2.8025 h -0.855 V 8.763 Z m -0.0475,0.741 h -0.969 v 2.5175 h 1.0165 q 0.8265,0 1.2065,-0.323 0.38,-0.3325 0.38,-0.969 0,-0.665 -0.399,-0.9405 -0.399,-0.285 -1.235,-0.285 z m 9.3755,6.042 h -3.7905 V 8.763 h 3.7905 v 0.7505 h -2.9355 v 2.1185 h 2.7645 v 0.741 h -2.7645 v 2.4225 h 2.9355 z m 6.839,-1.8145 q 0,0.9025 -0.6555,1.406 -0.6555,0.5035 -1.767,0.5035 -0.57,0 -1.0545,-0.0855 -0.4845,-0.0855 -0.8075,-0.2375 v -0.817 q 0.342,0.152 0.8455,0.2755 0.513,0.1235 1.0545,0.1235 0.76,0 1.14,-0.2945 0.3895,-0.2945 0.3895,-0.798 0,-0.3325 -0.1425,-0.5605 -0.1425,-0.228 -0.494,-0.418 -0.342,-0.1995 -0.9595,-0.418 -0.8645,-0.3135 -1.311,-0.7695 -0.437,-0.456 -0.437,-1.2445 0,-0.5415 0.2755,-0.9215 0.2755,-0.3895 0.76,-0.5985 0.494,-0.209 1.1305,-0.209 0.5605,0 1.026,0.1045 0.4655,0.1045 0.8455,0.2755 l -0.266,0.7315 q -0.3515,-0.152 -0.7695,-0.2565 -0.4085,-0.1045 -0.855,-0.1045 -0.6365,0 -0.9595,0.2755 -0.323,0.266 -0.323,0.7125 0,0.342 0.1425,0.57 0.1425,0.228 0.4655,0.4085 0.323,0.1805 0.874,0.3895 0.5985,0.2185 1.007,0.475 0.418,0.247 0.627,0.5985 0.2185,0.3515 0.2185,0.8835 z m 6.7155,0 q 0,0.9025 -0.6555,1.406 -0.6555,0.5035 -1.767,0.5035 -0.57,0 -1.0545,-0.0855 -0.4845,-0.0855 -0.8075,-0.2375 v -0.817 q 0.342,0.152 0.8455,0.2755 0.513,0.1235 1.0545,0.1235 0.76,0 1.14,-0.2945 0.3895,-0.2945 0.3895,-0.798 0,-0.3325 -0.1425,-0.5605 -0.1425,-0.228 -0.494,-0.418 -0.342,-0.1995 -0.9595,-0.418 -0.8645,-0.3135 -1.311,-0.7695 -0.437,-0.456 -0.437,-1.2445 0,-0.5415 0.2755,-0.9215 0.2755,-0.3895 0.76,-0.5985 0.494,-0.209 1.1305,-0.209 0.5605,0 1.026,0.1045 0.4655,0.1045 0.8455,0.2755 l -0.266,0.7315 q -0.3515,-0.152 -0.7695,-0.2565 -0.4085,-0.1045 -0.855,-0.1045 -0.6365,0 -0.9595,0.2755 -0.323,0.266 -0.323,0.7125 0,0.342 0.1425,0.57 0.1425,0.228 0.4655,0.4085 0.323,0.1805 0.874,0.3895 0.5985,0.2185 1.007,0.475 0.418,0.247 0.627,0.5985 0.2185,0.3515 0.2185,0.8835 z"
     id="text2"
     style="font-size:9.5px;font-family:'Nunito Sans', sans-serif;letter-spacing:1.5;dominant-baseline:middle;text-anchor:middle;fill:#0c100a"
     aria-label="HARM PRESS" />
  <!-- Section dividers -->
  <line
     x1="8"
     y1="162"
     x2="202"
     y2="162"
     stroke="#2E3A2E"
     stroke-width="0.75"
     id="line2" />
  <line
     x1="8"
     y1="228"
     x2="202"
     y2="228"
     stroke="#2E3A2E"
     stroke-width="0.75"
     id="line3" />
  <line
     x1="8"
     y1="290"
     x2="202"
     y2="290"
     stroke="#2E3A2E"
     stroke-width="0.75"
     id="line4" />
  <line
     x1="8"
     y1="334"
     x2="202"
     y2="334"
     stroke="#2E3A2E"
     stroke-width="0.75"
     id="line5" />
  <!-- ══════════════════════════════════════════════════════════ -->
  <!-- ROW 1: PITCH (x=15mm→44px) | SPREAD (x=55mm→162px)      -->
  <!-- sat: 23mm→68px  |  63mm→186px                            -->
  <!-- y=40mm→118px  trimpot y=33mm→97px  cv y=47mm→139px       -->
  <!-- ══════════════════════════════════════════════════════════ -->
  <!-- PITCH knob + satellite -->
  <circle
     cx="44.3"
     cy="118.1"
     r="6.5"
     fill="#4A4A4A"
     stroke="#787878"
     stroke-width="0.75"
     id="circle5" />
  <circle
     cx="67.9"
     cy="97.5"
     r="4"
     fill="#363636"
     stroke="#666"
     stroke-width="0.5"
     id="circle6" />
  <circle
     cx="67.9"
     cy="138.8"
     r="5"
     fill="#251E0A"
     stroke="#E8C547"
     stroke-width="1.25"
     id="circle7" />
  <path
     d="m 36.886753,126.359 q 0.91,0 1.326,0.3575 0.416,0.3575 0.416,1.0075 0,0.3835 -0.1755,0.7215 -0.169,0.3315 -0.5785,0.5395 -0.403,0.208 -1.0985,0.208 h -0.533 V 131 h -0.585 v -4.641 z m -0.052,0.5005 h -0.5915 v 1.833 h 0.468 q 0.663,0 0.988,-0.2145 0.325,-0.2145 0.325,-0.728 0,-0.4485 -0.286,-0.6695 -0.286,-0.221 -0.9035,-0.221 z M 40.89725,131 h -1.677 v -0.338 l 0.546,-0.1235 v -3.7115 l -0.546,-0.13 v -0.338 h 1.677 v 0.338 l -0.546,0.13 v 3.7115 l 0.546,0.1235 z m 2.366005,0 h -0.585 v -4.1275 h -1.4495 v -0.5135 h 3.4775 v 0.5135 h -1.443 z m 4.003995,-4.1925 q -0.7475,0 -1.1765,0.5005 -0.429,0.5005 -0.429,1.3715 0,0.8645 0.3965,1.3715 0.403,0.5005 1.2025,0.5005 0.3055,0 0.5785,-0.052 0.273,-0.052 0.533,-0.13 v 0.507 q -0.26,0.0975 -0.5395,0.143 -0.273,0.0455 -0.6565,0.0455 -0.7085,0 -1.183,-0.2925 -0.4745,-0.2925 -0.715,-0.832 -0.234,-0.5395 -0.234,-1.2675 0,-0.702 0.2535,-1.235 0.26,-0.5395 0.7605,-0.8385 0.5005,-0.3055 1.2155,-0.3055 0.7345,0 1.2805,0.273 l -0.234,0.494 q -0.2145,-0.0975 -0.481,-0.1755 -0.26,-0.078 -0.572,-0.078 z m 5.668,4.1925 h -0.585 v -2.1645 h -2.379 V 131 h -0.585 v -4.641 h 0.585 v 1.963 h 2.379 v -1.963 h 0.585 z"
     id="text7"
     style="font-size:6.5px;font-family:'Nunito Sans', sans-serif;text-anchor:middle;fill:#c8c0b0"
     aria-label="PITCH" />
  <!-- SPREAD knob + satellite -->
  <circle
     cx="162.4"
     cy="118.1"
     r="6.5"
     fill="#4A4A4A"
     stroke="#787878"
     stroke-width="0.75"
     id="circle8" />
  <circle
     cx="186.1"
     cy="97.5"
     r="4"
     fill="#363636"
     stroke="#666"
     stroke-width="0.5"
     id="circle9" />
  <circle
     cx="186.1"
     cy="138.8"
     r="5"
     fill="#251E0A"
     stroke="#E8C547"
     stroke-width="1.25"
     id="circle10" />
  <path
     d="m 153.63475,129.7585 q 0,0.6175 -0.4485,0.962 -0.4485,0.3445 -1.209,0.3445 -0.39,0 -0.7215,-0.0585 -0.3315,-0.0585 -0.5525,-0.1625 v -0.559 q 0.234,0.104 0.5785,0.1885 0.351,0.0845 0.7215,0.0845 0.52,0 0.78,-0.2015 0.2665,-0.2015 0.2665,-0.546 0,-0.2275 -0.0975,-0.3835 -0.0975,-0.156 -0.338,-0.286 -0.234,-0.1365 -0.6565,-0.286 -0.5915,-0.2145 -0.897,-0.5265 -0.299,-0.312 -0.299,-0.8515 0,-0.3705 0.1885,-0.6305 0.1885,-0.2665 0.52,-0.4095 0.338,-0.143 0.7735,-0.143 0.3835,0 0.702,0.0715 0.3185,0.0715 0.5785,0.1885 l -0.182,0.5005 q -0.2405,-0.104 -0.5265,-0.1755 -0.2795,-0.0715 -0.585,-0.0715 -0.4355,0 -0.6565,0.1885 -0.221,0.182 -0.221,0.4875 0,0.234 0.0975,0.39 0.0975,0.156 0.3185,0.2795 0.221,0.1235 0.598,0.2665 0.4095,0.1495 0.689,0.325 0.286,0.169 0.429,0.4095 0.1495,0.2405 0.1495,0.6045 z m 2.1645,-3.3995 q 0.91,0 1.326,0.3575 0.416,0.3575 0.416,1.0075 0,0.3835 -0.1755,0.7215 -0.169,0.3315 -0.5785,0.5395 -0.403,0.208 -1.0985,0.208 h -0.533 V 131 h -0.585 v -4.641 z m -0.052,0.5005 h -0.5915 v 1.833 h 0.468 q 0.663,0 0.988,-0.2145 0.325,-0.2145 0.325,-0.728 0,-0.4485 -0.286,-0.6695 -0.286,-0.221 -0.9035,-0.221 z m 4.0365,-0.5005 q 0.8645,0 1.274,0.3315 0.416,0.325 0.416,0.988 0,0.3705 -0.1365,0.6175 -0.1365,0.247 -0.351,0.3965 -0.208,0.143 -0.442,0.2275 l 1.274,2.08 h -0.6825 l -1.1245,-1.9175 h -0.923 V 131 h -0.585 v -4.641 z m -0.0325,0.507 h -0.663 v 1.7225 h 0.6955 q 0.5655,0 0.8255,-0.221 0.26,-0.2275 0.26,-0.663 0,-0.455 -0.273,-0.6435 -0.273,-0.195 -0.845,-0.195 z m 5.38849,4.134 h -2.5935 v -4.641 h 2.5935 v 0.5135 h -2.0085 v 1.4495 h 1.8915 v 0.507 h -1.8915 v 1.6575 h 2.0085 z m 3.9325,0 -0.559,-1.4365 h -1.8395 L 166.12124,131 h -0.5915 l 1.8135,-4.6605 h 0.5265 l 1.807,4.6605 z m -1.2545,-3.3605 q -0.0195,-0.052 -0.065,-0.1885 -0.0455,-0.1365 -0.091,-0.2795 -0.039,-0.1495 -0.065,-0.2275 -0.0455,0.2015 -0.104,0.3965 -0.0585,0.1885 -0.0975,0.299 l -0.5265,1.404 h 1.469 z m 6.214,0.9945 q 0,1.1765 -0.6435,1.7745 -0.637,0.5915 -1.781,0.5915 h -1.2935 v -4.641 h 1.43 q 0.702,0 1.2155,0.26 0.5135,0.26 0.793,0.767 0.2795,0.5005 0.2795,1.248 z m -0.6175,0.0195 q 0,-0.9295 -0.4615,-1.3585 -0.455,-0.4355 -1.2935,-0.4355 h -0.7605 v 3.64 h 0.6305 q 1.885,0 1.885,-1.846 z"
     id="text10"
     style="font-size:6.5px;font-family:'Nunito Sans', sans-serif;text-anchor:middle;fill:#c8c0b0"
     aria-label="SPREAD" />
  <!-- ══════════════════════════════════════════════════════════ -->
  <!-- ROW 2: PARTIAL (x=15mm) | COUNT (x=55mm) — discrete      -->
  <!-- y=72mm→212px                                              -->
  <!-- ══════════════════════════════════════════════════════════ -->
  <!-- PARTIAL -->
  <circle
     cx="44.3"
     cy="212.6"
     r="6.5"
     fill="#4A4A4A"
     stroke="#AA8A50"
     stroke-width="0.75"
     id="circle11" />
  <path
     d="m 33.568497,221.359 q 0.91,0 1.326,0.3575 0.416,0.3575 0.416,1.0075 0,0.3835 -0.1755,0.7215 -0.169,0.3315 -0.5785,0.5395 -0.403,0.208 -1.0985,0.208 h -0.533 V 226 h -0.585 v -4.641 z m -0.052,0.5005 h -0.5915 v 1.833 h 0.468 q 0.663,0 0.988,-0.2145 0.325,-0.2145 0.325,-0.728 0,-0.4485 -0.286,-0.6695 -0.286,-0.221 -0.9035,-0.221 z m 5.343002,4.1405 -0.559,-1.4365 h -1.8395 L 35.908499,226 h -0.5915 l 1.8135,-4.6605 h 0.5265 l 1.807,4.6605 z m -1.2545,-3.3605 q -0.0195,-0.052 -0.065,-0.1885 -0.0455,-0.1365 -0.091,-0.2795 -0.039,-0.1495 -0.065,-0.2275 -0.0455,0.2015 -0.104,0.3965 -0.0585,0.1885 -0.0975,0.299 l -0.5265,1.404 h 1.469 z m 3.7765,-1.2805 q 0.8645,0 1.274,0.3315 0.416,0.325 0.416,0.988 0,0.3705 -0.1365,0.6175 -0.1365,0.247 -0.351,0.3965 -0.208,0.143 -0.442,0.2275 l 1.274,2.08 h -0.6825 l -1.1245,-1.9175 h -0.923 V 226 h -0.585 v -4.641 z m -0.0325,0.507 h -0.663 v 1.7225 h 0.6955 q 0.5655,0 0.8255,-0.221 0.26,-0.2275 0.26,-0.663 0,-0.455 -0.273,-0.6435 -0.273,-0.195 -0.845,-0.195 z M 45.612997,226 h -0.585 v -4.1275 h -1.4495 v -0.5135 h 3.4775 v 0.5135 h -1.443 z m 3.451499,0 h -1.677 v -0.338 l 0.546,-0.1235 v -3.7115 l -0.546,-0.13 v -0.338 h 1.677 v 0.338 l -0.546,0.13 v 3.7115 l 0.546,0.1235 z m 3.809003,0 -0.559,-1.4365 h -1.8395 L 49.922499,226 h -0.5915 l 1.8135,-4.6605 h 0.5265 l 1.807,4.6605 z m -1.2545,-3.3605 q -0.0195,-0.052 -0.065,-0.1885 -0.0455,-0.1365 -0.091,-0.2795 -0.039,-0.1495 -0.065,-0.2275 -0.0455,0.2015 -0.104,0.3965 -0.0585,0.1885 -0.0975,0.299 l -0.5265,1.404 h 1.469 z m 2.496,3.3605 v -4.641 h 0.585 v 4.121 h 2.028 V 226 Z"
     id="text11"
     style="font-size:6.5px;font-family:'Nunito Sans', sans-serif;text-anchor:middle;fill:#c8c0b0"
     aria-label="PARTIAL" />
  <path
     d="m 38.728494,234 h -0.473 v -2.7445 q 0,-0.2365 0.0055,-0.3795 0.0055,-0.143 0.0165,-0.297 -0.088,0.088 -0.1595,0.1485 -0.0715,0.0605 -0.1815,0.154 l -0.418,0.341 -0.253,-0.3245 1.0615,-0.825 h 0.4015 z m 2.843504,-1.2595 v -0.429 h 2.31 v 0.429 z M 47.484499,234 h -0.473 v -2.7445 q 0,-0.2365 0.0055,-0.3795 0.0055,-0.143 0.0165,-0.297 -0.088,0.088 -0.1595,0.1485 -0.0715,0.0605 -0.1815,0.154 l -0.418,0.341 -0.253,-0.3245 1.0615,-0.825 h 0.4015 z m 1.496003,-1.6775 q 0,-0.4235 0.0715,-0.8305 0.077,-0.4125 0.2695,-0.7425 0.198,-0.3355 0.55,-0.5335 0.352,-0.198 0.9075,-0.198 0.1155,0 0.253,0.011 0.143,0.011 0.231,0.0385 v 0.4125 q -0.099,-0.033 -0.2255,-0.0495 -0.121,-0.0165 -0.2475,-0.0165 -0.3795,0 -0.6325,0.1265 -0.253,0.1265 -0.4015,0.3465 -0.143,0.22 -0.209,0.506 -0.066,0.286 -0.0825,0.6105 h 0.033 q 0.1265,-0.1925 0.352,-0.3245 0.2255,-0.1375 0.5775,-0.1375 0.5115,0 0.825,0.3135 0.3135,0.308 0.3135,0.88 0,0.616 -0.341,0.968 -0.3355,0.352 -0.9075,0.352 -0.374,0 -0.6765,-0.187 -0.3025,-0.187 -0.484,-0.572 -0.176,-0.385 -0.176,-0.9735 z m 1.331,1.3255 q 0.3465,0 0.561,-0.22 0.2145,-0.2255 0.2145,-0.693 0,-0.374 -0.1925,-0.594 -0.187,-0.22 -0.5665,-0.22 -0.2585,0 -0.451,0.11 -0.1925,0.1045 -0.3025,0.2695 -0.1045,0.165 -0.1045,0.341 0,0.2365 0.0935,0.473 0.0935,0.231 0.2805,0.385 0.187,0.1485 0.4675,0.1485 z"
     id="text12"
     style="font-size:5.5px;font-family:'Nunito Sans', sans-serif;text-anchor:middle;fill:#887860"
     aria-label="1 – 16" />
  <!-- COUNT -->
  <circle
     cx="162.4"
     cy="212.6"
     r="6.5"
     fill="#4A4A4A"
     stroke="#AA8A50"
     stroke-width="0.75"
     id="circle12" />
  <path
     d="m 153.83949,221.8075 q -0.7475,0 -1.1765,0.5005 -0.429,0.5005 -0.429,1.3715 0,0.8645 0.3965,1.3715 0.403,0.5005 1.2025,0.5005 0.3055,0 0.5785,-0.052 0.273,-0.052 0.533,-0.13 v 0.507 q -0.26,0.0975 -0.5395,0.143 -0.273,0.0455 -0.6565,0.0455 -0.7085,0 -1.183,-0.2925 -0.4745,-0.2925 -0.715,-0.832 -0.234,-0.5395 -0.234,-1.2675 0,-0.702 0.2535,-1.235 0.26,-0.5395 0.7605,-0.8385 0.5005,-0.3055 1.2155,-0.3055 0.7345,0 1.2805,0.273 l -0.234,0.494 q -0.2145,-0.0975 -0.481,-0.1755 -0.26,-0.078 -0.572,-0.078 z m 6.0385,1.8655 q 0,0.7215 -0.247,1.261 -0.2405,0.533 -0.715,0.832 -0.4745,0.299 -1.1765,0.299 -0.7215,0 -1.2025,-0.299 -0.4745,-0.299 -0.7085,-0.8385 -0.234,-0.5395 -0.234,-1.261 0,-0.715 0.234,-1.248 0.234,-0.533 0.7085,-0.832 0.481,-0.299 1.209,-0.299 0.6955,0 1.17,0.299 0.4745,0.2925 0.715,0.832 0.247,0.533 0.247,1.2545 z m -3.666,0 q 0,0.8775 0.3705,1.3845 0.3705,0.5005 1.157,0.5005 0.793,0 1.157,-0.5005 0.364,-0.507 0.364,-1.3845 0,-0.8775 -0.364,-1.3715 -0.364,-0.5005 -1.1505,-0.5005 -0.7865,0 -1.1635,0.5005 -0.3705,0.494 -0.3705,1.3715 z m 8.2225,0.689 q 0,0.481 -0.195,0.871 -0.195,0.3835 -0.598,0.611 -0.3965,0.221 -1.014,0.221 -0.8645,0 -1.3195,-0.468 -0.4485,-0.4745 -0.4485,-1.248 v -2.99 h 0.585 v 3.0095 q 0,0.5655 0.299,0.8775 0.3055,0.312 0.9165,0.312 0.6305,0 0.91,-0.3315 0.286,-0.338 0.286,-0.8645 v -3.003 h 0.5785 z M 169.3355,226 h -0.6825 l -2.483,-3.8545 h -0.026 q 0.013,0.2275 0.0325,0.5655 0.0195,0.338 0.0195,0.6955 V 226 h -0.5395 v -4.641 h 0.676 l 2.4765,3.8415 h 0.026 q -0.007,-0.104 -0.0195,-0.312 -0.006,-0.208 -0.0195,-0.455 -0.006,-0.247 -0.006,-0.455 v -2.6195 h 0.546 z m 2.73,0 h -0.585 v -4.1275 h -1.4495 v -0.5135 h 3.4775 v 0.5135 h -1.443 z"
     id="text13"
     style="font-size:6.5px;font-family:'Nunito Sans', sans-serif;text-anchor:middle;fill:#c8c0b0"
     aria-label="COUNT" />
  <path
     d="m 156.82849,234 h -0.473 v -2.7445 q 0,-0.2365 0.005,-0.3795 0.006,-0.143 0.0165,-0.297 -0.088,0.088 -0.1595,0.1485 -0.0715,0.0605 -0.1815,0.154 l -0.418,0.341 -0.253,-0.3245 1.0615,-0.825 h 0.4015 z m 2.8435,-1.2595 v -0.429 h 2.31 v 0.429 z m 5.9125,1.2595 h -0.473 v -2.7445 q 0,-0.2365 0.005,-0.3795 0.006,-0.143 0.0165,-0.297 -0.088,0.088 -0.1595,0.1485 -0.0715,0.0605 -0.1815,0.154 l -0.418,0.341 -0.253,-0.3245 1.0615,-0.825 h 0.4015 z m 1.49601,-1.6775 q 0,-0.4235 0.0715,-0.8305 0.077,-0.4125 0.2695,-0.7425 0.198,-0.3355 0.55,-0.5335 0.352,-0.198 0.9075,-0.198 0.1155,0 0.253,0.011 0.143,0.011 0.231,0.0385 v 0.4125 q -0.099,-0.033 -0.2255,-0.0495 -0.121,-0.0165 -0.2475,-0.0165 -0.3795,0 -0.6325,0.1265 -0.253,0.1265 -0.4015,0.3465 -0.143,0.22 -0.209,0.506 -0.066,0.286 -0.0825,0.6105 h 0.033 q 0.1265,-0.1925 0.352,-0.3245 0.2255,-0.1375 0.5775,-0.1375 0.5115,0 0.825,0.3135 0.3135,0.308 0.3135,0.88 0,0.616 -0.341,0.968 -0.3355,0.352 -0.9075,0.352 -0.374,0 -0.6765,-0.187 -0.3025,-0.187 -0.484,-0.572 -0.176,-0.385 -0.176,-0.9735 z m 1.331,1.3255 q 0.3465,0 0.561,-0.22 0.2145,-0.2255 0.2145,-0.693 0,-0.374 -0.1925,-0.594 -0.187,-0.22 -0.5665,-0.22 -0.2585,0 -0.451,0.11 -0.1925,0.1045 -0.3025,0.2695 -0.1045,0.165 -0.1045,0.341 0,0.2365 0.0935,0.473 0.0935,0.231 0.2805,0.385 0.187,0.1485 0.4675,0.1485 z"
     id="text14"
     style="font-size:5.5px;font-family:'Nunito Sans', sans-serif;text-anchor:middle;fill:#887860"
     aria-label="1 – 16" />
  <!-- ══════════════════════════════════════════════════════════ -->
  <!-- ROW 3: TUNING (centre x=35mm→103px, y=96mm→284px)        -->
  <!-- ══════════════════════════════════════════════════════════ -->
  <circle
     cx="103.4"
     cy="283.5"
     r="6.5"
     fill="#4A4A4A"
     stroke="#AA8A50"
     stroke-width="0.75"
     id="circle14" />
  <path
     d="m 92.908994,297 h -0.585 v -4.1275 h -1.4495 v -0.5135 h 3.4775 v 0.5135 h -1.443 z m 5.674498,-1.638 q 0,0.481 -0.195,0.871 -0.195,0.3835 -0.598,0.611 -0.3965,0.221 -1.014,0.221 -0.8645,0 -1.3195,-0.468 -0.4485,-0.4745 -0.4485,-1.248 v -2.99 h 0.585 v 3.0095 q 0,0.5655 0.299,0.8775 0.3055,0.312 0.9165,0.312 0.6305,0 0.91,-0.3315 0.286,-0.338 0.286,-0.8645 v -3.003 h 0.5785 z M 103.4845,297 h -0.6825 l -2.483,-3.8545 h -0.026 q 0.013,0.2275 0.0325,0.5655 0.0195,0.338 0.0195,0.6955 V 297 h -0.539502 v -4.641 h 0.676002 l 2.4765,3.8415 h 0.026 q -0.006,-0.104 -0.0195,-0.312 -0.007,-0.208 -0.0195,-0.455 -0.006,-0.247 -0.006,-0.455 v -2.6195 h 0.546 z m 2.5675,0 h -1.677 v -0.338 l 0.546,-0.1235 v -3.7115 l -0.546,-0.13 v -0.338 h 1.677 v 0.338 l -0.546,0.13 v 3.7115 l 0.546,0.1235 z m 4.576,0 h -0.6825 l -2.483,-3.8545 h -0.026 q 0.013,0.2275 0.0325,0.5655 0.0195,0.338 0.0195,0.6955 V 297 h -0.5395 v -4.641 h 0.676 l 2.4765,3.8415 h 0.026 q -0.007,-0.104 -0.0195,-0.312 -0.007,-0.208 -0.0195,-0.455 -0.007,-0.247 -0.007,-0.455 v -2.6195 h 0.546 z m 3.27601,-2.4505 h 1.6055 v 2.275 q -0.377,0.1235 -0.7605,0.182 -0.3835,0.0585 -0.871,0.0585 -0.7215,0 -1.2155,-0.286 -0.494,-0.2925 -0.754,-0.8255 -0.2535,-0.5395 -0.2535,-1.274 0,-0.728 0.286,-1.261 0.286,-0.533 0.819,-0.8255 0.5395,-0.299 1.3,-0.299 0.39,0 0.7345,0.0715 0.351,0.0715 0.65,0.2015 l -0.221,0.507 q -0.247,-0.1105 -0.559,-0.1885 -0.3055,-0.078 -0.637,-0.078 -0.832,0 -1.3,0.5005 -0.4615,0.5005 -0.4615,1.3715 0,0.5525 0.1755,0.9815 0.182,0.4225 0.5655,0.663 0.3835,0.234 1.0075,0.234 0.3055,0 0.52,-0.0325 0.2145,-0.0325 0.39,-0.078 v -1.378 h -1.0205 z"
     id="text15"
     style="font-size:6.5px;font-family:'Nunito Sans', sans-serif;text-anchor:middle;fill:#c8c0b0"
     aria-label="TUNING" />
  <!-- Tuning mode labels (arc around knob, clockwise) -->
  <path
     d="m 65.648997,298.14 q -0.144,0 -0.252,-0.024 -0.108,-0.018 -0.192,-0.054 v -0.456 q 0.096,0.024 0.204,0.042 0.108,0.018 0.228,0.018 0.15,0 0.282,-0.06 0.138,-0.06 0.222,-0.21 0.084,-0.15 0.084,-0.42 v -4.26 h 0.54 v 4.218 q 0,0.618 -0.306,0.912 -0.306,0.294 -0.81,0.294 z m 5.502004,-2.652 q 0,0.444 -0.18,0.804 -0.18,0.354 -0.552,0.564 -0.366,0.204 -0.936,0.204 -0.798,0 -1.218,-0.432 -0.414,-0.438 -0.414,-1.152 v -2.76 h 0.54 v 2.778 q 0,0.522 0.276,0.81 0.282,0.288 0.846,0.288 0.582,0 0.84,-0.306 0.264,-0.312 0.264,-0.798 v -2.772 h 0.534 z m 3.558005,0.366 q 0,0.57 -0.414,0.888 -0.414,0.318 -1.116,0.318 -0.36,0 -0.666,-0.054 -0.306,-0.054 -0.51,-0.15 v -0.516 q 0.216,0.096 0.534,0.174 0.324,0.078 0.666,0.078 0.48,0 0.72,-0.186 0.246,-0.186 0.246,-0.504 0,-0.21 -0.09,-0.354 -0.09,-0.144 -0.312,-0.264 -0.216,-0.126 -0.606,-0.264 -0.546,-0.198 -0.828,-0.486 -0.276,-0.288 -0.276,-0.786 0,-0.342 0.174,-0.582 0.174,-0.246 0.48,-0.378 0.312,-0.132 0.714,-0.132 0.354,0 0.648,0.066 0.294,0.066 0.534,0.174 l -0.168,0.462 q -0.222,-0.096 -0.486,-0.162 -0.258,-0.066 -0.54,-0.066 -0.402,0 -0.606,0.174 -0.204,0.168 -0.204,0.45 0,0.216 0.09,0.36 0.09,0.144 0.294,0.258 0.204,0.114 0.552,0.246 0.378,0.138 0.636,0.3 0.264,0.156 0.396,0.378 0.138,0.222 0.138,0.558 z M 76.929005,297 h -0.54 v -3.81 h -1.338 v -0.474 h 3.21 v 0.474 h -1.332 z"
     id="text16"
     style="font-size:6px;font-family:'Nunito Sans', sans-serif;text-anchor:middle;fill:#887860"
     aria-label="JUST" />
  <path
     d="m 96.713,310 h -2.394 v -4.284 h 2.394 v 0.474 h -1.854 v 1.338 h 1.746 v 0.468 h -1.746 v 1.53 h 1.854 z m 4.68,-2.148 q 0,0.786 -0.318,1.338 -0.312,0.552 -0.93,0.762 l 1.026,1.068 h -0.774 l -0.828002,-0.966 q -0.036,0 -0.078,0 -0.036,0.006 -0.072,0.006 -0.666,0 -1.11,-0.276 -0.438,-0.276 -0.654,-0.774 -0.216,-0.498 -0.216,-1.164 0,-0.66 0.216,-1.152 0.216,-0.492 0.654,-0.768 0.444,-0.276 1.116,-0.276 0.642002,0 1.080002,0.276 0.438,0.27 0.66,0.768 0.228,0.492 0.228,1.158 z m -3.384002,0 q 0,0.81 0.342,1.278 0.342,0.462 1.068,0.462 0.732002,0 1.068002,-0.462 0.336,-0.468 0.336,-1.278 0,-0.81 -0.336,-1.266 -0.336,-0.462 -1.062002,-0.462 -0.726,0 -1.074,0.462 -0.342,0.456 -0.342,1.266 z m 7.590002,0.636 q 0,0.444 -0.18,0.804 -0.18,0.354 -0.552,0.564 -0.366,0.204 -0.936,0.204 -0.798,0 -1.218,-0.432 -0.414,-0.438 -0.414,-1.152 v -2.76 h 0.54 v 2.778 q 0,0.522 0.276,0.81 0.282,0.288 0.846,0.288 0.582,0 0.84,-0.306 0.264,-0.312 0.264,-0.798 v -2.772 h 0.534 z m 3.756,1.512 -0.516,-1.326 h -1.698 l -0.51,1.326 h -0.546 l 1.674,-4.302 h 0.486 l 1.668,4.302 z m -1.158,-3.102 q -0.018,-0.048 -0.06,-0.174 -0.042,-0.126 -0.084,-0.258 -0.036,-0.138 -0.06,-0.21 -0.042,0.186 -0.096,0.366 -0.054,0.174 -0.09,0.276 l -0.486,1.296 h 1.356 z m 2.304,3.102 v -4.284 h 0.54 v 3.804 h 1.872 V 310 Z"
     id="text17"
     style="font-size:6px;font-family:'Nunito Sans', sans-serif;text-anchor:middle;fill:#887860"
     aria-label="EQUAL" />
  <path
     d="m 127.629,297 -1.41,-3.756 h -0.024 q 0.018,0.186 0.03,0.504 0.012,0.312 0.012,0.654 V 297 h -0.498 v -4.284 h 0.798 l 1.32,3.51 h 0.024 l 1.344,-3.51 h 0.792 V 297 h -0.534 v -2.634 q 0,-0.312 0.012,-0.618 0.018,-0.306 0.03,-0.498 h -0.024 l -1.428,3.75 z m 4.758,0 h -1.548 v -0.312 l 0.504,-0.114 v -3.426 l -0.504,-0.12 v -0.312 h 1.548 v 0.312 l -0.504,0.12 v 3.426 l 0.504,0.114 z m 2.664,-3.87 q -0.69,0 -1.086,0.462 -0.396,0.462 -0.396,1.266 0,0.798 0.366,1.266 0.372,0.462 1.11,0.462 0.282,0 0.534,-0.048 0.252,-0.048 0.492,-0.12 v 0.468 q -0.24,0.09 -0.498,0.132 -0.252,0.042 -0.606,0.042 -0.654,0 -1.092,-0.27 -0.438,-0.27 -0.66,-0.768 -0.216,-0.498 -0.216,-1.17 0,-0.648 0.234,-1.14 0.24,-0.498 0.702,-0.774 0.462,-0.282 1.122,-0.282 0.678,0 1.182,0.252 l -0.216,0.456 q -0.198,-0.09 -0.444,-0.162 -0.24,-0.072 -0.528,-0.072 z m 3.138,-0.414 q 0.798,0 1.176,0.306 0.384,0.3 0.384,0.912 0,0.342 -0.126,0.57 -0.126,0.228 -0.324,0.366 -0.192,0.132 -0.408,0.21 l 1.176,1.92 h -0.63 l -1.038,-1.77 h -0.852 V 297 h -0.54 v -4.284 z m -0.03,0.468 h -0.612 v 1.59 h 0.642 q 0.522,0 0.762,-0.204 0.24,-0.21 0.24,-0.612 0,-0.42 -0.252,-0.594 -0.252,-0.18 -0.78,-0.18 z m 6.318,1.668 q 0,0.666 -0.228,1.164 -0.222,0.492 -0.66,0.768 -0.438,0.276 -1.086,0.276 -0.666,0 -1.11,-0.276 -0.438,-0.276 -0.654,-0.774 -0.216,-0.498 -0.216,-1.164 0,-0.66 0.216,-1.152 0.216,-0.492 0.654,-0.768 0.444,-0.276 1.116,-0.276 0.642,0 1.08,0.276 0.438,0.27 0.66,0.768 0.228,0.492 0.228,1.158 z m -3.384,0 q 0,0.81 0.342,1.278 0.342,0.462 1.068,0.462 0.732,0 1.068,-0.462 0.336,-0.468 0.336,-1.278 0,-0.81 -0.336,-1.266 -0.336,-0.462 -1.062,-0.462 -0.726,0 -1.074,0.462 -0.342,0.456 -0.342,1.266 z"
     id="text18"
     style="font-size:6px;font-family:'Nunito Sans', sans-serif;text-anchor:middle;fill:#887860"
     aria-label="MICRO" />
  <!-- ══════════════════════════════════════════════════════════ -->
  <!-- ROW 4: V/OCT IN (x=15mm→44px) | HARM OUT (x=55mm→162px) -->
  <!-- y=114mm→337px                                             -->
  <!-- ══════════════════════════════════════════════════════════ -->
  <!-- V/OCT IN (green) -->
  <circle
     cx="44.3"
     cy="336.7"
     r="5"
     fill="#0C1A10"
     stroke="#5A7350"
     stroke-width="1.25"
     id="circle18" />
  <path
     d="m 39.076999,343.716 -1.53,4.284 h -0.54 l -1.53,-4.284 h 0.564 l 0.966,2.748 q 0.096,0.264 0.162,0.498 0.066,0.228 0.108,0.438 0.042,-0.21 0.108,-0.444 0.066,-0.234 0.162,-0.504 l 0.96,-2.736 z m 2.172003,0 -1.596,4.284 h -0.516 l 1.596,-4.284 z m 4.379998,2.136 q 0,0.666 -0.228,1.164 -0.222,0.492 -0.66,0.768 -0.438,0.276 -1.086,0.276 -0.666,0 -1.11,-0.276 -0.438,-0.276 -0.654,-0.774 -0.216,-0.498 -0.216,-1.164 0,-0.66 0.216,-1.152 0.216,-0.492 0.654,-0.768 0.444,-0.276 1.116,-0.276 0.642,0 1.08,0.276 0.438,0.27 0.66,0.768 0.228,0.492 0.228,1.158 z m -3.384,0 q 0,0.81 0.342,1.278 0.342,0.462 1.068,0.462 0.732,0 1.068,-0.462 0.336,-0.468 0.336,-1.278 0,-0.81 -0.336,-1.266 -0.336,-0.462 -1.062,-0.462 -0.726,0 -1.074,0.462 -0.342,0.456 -0.342,1.266 z m 6.168001,-1.722 q -0.69,0 -1.086,0.462 -0.396,0.462 -0.396,1.266 0,0.798 0.366,1.266 0.372,0.462 1.11,0.462 0.282,0 0.534,-0.048 0.252,-0.048 0.492,-0.12 v 0.468 q -0.24,0.09 -0.498,0.132 -0.252,0.042 -0.606,0.042 -0.654,0 -1.092,-0.27 -0.438,-0.27 -0.66,-0.768 -0.216,-0.498 -0.216,-1.17 0,-0.648 0.234,-1.14 0.24,-0.498 0.702,-0.774 0.462,-0.282 1.122,-0.282 0.678,0 1.182,0.252 l -0.216,0.456 q -0.198,-0.09 -0.444,-0.162 -0.24,-0.072 -0.528,-0.072 z m 3.312,3.87 h -0.54 v -3.81 h -1.338 v -0.474 h 3.21 v 0.474 h -1.332 z"
     id="text19"
     style="font-size:6px;font-family:'Nunito Sans', sans-serif;text-anchor:middle;fill:#5a7350"
     aria-label="V/OCT" />
  <!-- HARM OUT (orange — pitch CV output) -->
  <circle
     cx="162.4"
     cy="336.7"
     r="5"
     fill="#201808"
     stroke="#FF4A0E"
     stroke-width="1.25"
     id="circle19" />
  <path
     d="m 157.531,348 h -0.54 v -1.998 h -2.196 V 348 h -0.54 v -4.284 h 0.54 v 1.812 h 2.196 v -1.812 h 0.54 z m 3.85799,0 -0.516,-1.326 h -1.698 l -0.51,1.326 h -0.546 l 1.674,-4.302 h 0.486 l 1.668,4.302 z m -1.158,-3.102 q -0.018,-0.048 -0.06,-0.174 -0.042,-0.126 -0.084,-0.258 -0.036,-0.138 -0.06,-0.21 -0.042,0.186 -0.096,0.366 -0.054,0.174 -0.09,0.276 l -0.486,1.296 h 1.356 z m 3.486,-1.182 q 0.798,0 1.176,0.306 0.384,0.3 0.384,0.912 0,0.342 -0.126,0.57 -0.126,0.228 -0.324,0.366 -0.192,0.132 -0.408,0.21 l 1.176,1.92 h -0.63 l -1.038,-1.77 h -0.852 V 348 h -0.54 v -4.284 z m -0.03,0.468 h -0.612 v 1.59 h 0.642 q 0.522,0 0.762,-0.204 0.24,-0.21 0.24,-0.612 0,-0.42 -0.252,-0.594 -0.252,-0.18 -0.78,-0.18 z m 4.47,3.816 -1.41,-3.756 h -0.024 q 0.018,0.186 0.03,0.504 0.012,0.312 0.012,0.654 V 348 h -0.498 v -4.284 h 0.798 l 1.32,3.51 h 0.024 l 1.344,-3.51 h 0.792 V 348 h -0.534 v -2.634 q 0,-0.312 0.012,-0.618 0.018,-0.306 0.03,-0.498 h -0.024 l -1.428,3.75 z"
     id="text20"
     style="font-size:6px;font-family:'Nunito Sans', sans-serif;text-anchor:middle;fill:#c8c0b0"
     aria-label="HARM" />
  <path
     d="m 158.803,352.997 q 0.5445,0 0.8745,0.3795 0.3355,0.3795 0.3355,1.144 0,0.7535 -0.3355,1.144 -0.33,0.3905 -0.88,0.3905 -0.341,0 -0.5665,-0.1265 -0.22,-0.132 -0.3465,-0.3025 h -0.033 q 0.011,0.0935 0.022,0.2365 0.011,0.143 0.011,0.2475 v 1.21 h -0.484 v -4.268 h 0.396 l 0.066,0.4015 h 0.022 q 0.132,-0.1925 0.3465,-0.3245 0.2145,-0.132 0.572,-0.132 z m -0.088,0.407 q -0.451,0 -0.638,0.253 -0.1815,0.253 -0.1925,0.77 v 0.0935 q 0,0.5445 0.176,0.8415 0.1815,0.2915 0.6655,0.2915 0.2695,0 0.44,-0.1485 0.176,-0.1485 0.2585,-0.4015 0.088,-0.2585 0.088,-0.5885 0,-0.506 -0.198,-0.8085 -0.1925,-0.3025 -0.5995,-0.3025 z m 4.631,1.1165 q 0,0.7315 -0.374,1.133 -0.3685,0.4015 -1.001,0.4015 -0.3905,0 -0.6985,-0.176 -0.3025,-0.1815 -0.4785,-0.5225 -0.176,-0.3465 -0.176,-0.836 0,-0.7315 0.3685,-1.1275 0.3685,-0.396 1.001,-0.396 0.4015,0 0.704,0.1815 0.308,0.176 0.4785,0.517 0.176,0.3355 0.176,0.825 z m -2.2275,0 q 0,0.5225 0.2035,0.8305 0.209,0.3025 0.66,0.3025 0.4455,0 0.6545,-0.3025 0.209,-0.308 0.209,-0.8305 0,-0.5225 -0.209,-0.8195 -0.209,-0.297 -0.66,-0.297 -0.451,0 -0.6545,0.297 -0.2035,0.297 -0.2035,0.8195 z M 164.59449,356 h -0.484 v -4.18 h 0.484 z m 0.473,-2.948 h 0.517 l 0.638,1.6775 q 0.0825,0.22 0.1485,0.4235 0.066,0.198 0.099,0.3795 h 0.022 q 0.033,-0.1375 0.1045,-0.3575 0.0715,-0.2255 0.1485,-0.451 l 0.5995,-1.672 h 0.5225 l -1.2705,3.355 q -0.154,0.418 -0.4015,0.6655 -0.242,0.2475 -0.671,0.2475 -0.132,0 -0.231,-0.0165 -0.099,-0.011 -0.1705,-0.0275 v -0.385 q 0.0605,0.011 0.143,0.022 0.088,0.011 0.1815,0.011 0.253,0 0.407,-0.143 0.1595,-0.143 0.2475,-0.3795 l 0.154,-0.3905 z"
     id="text21"
     style="font-size:5.5px;font-family:'Nunito Sans', sans-serif;text-anchor:middle;fill:#887860"
     aria-label="poly" />
  <!-- Corner screw holes (14HP: right screw at x=187.5) -->
  <circle
     cx="22.5"
     cy="7.5"
     r="4"
     fill="#2A3A2A"
     stroke="#3A4A3A"
     stroke-width="0.75"
     id="circle21" />
  <circle
     cx="187.5"
     cy="7.5"
     r="4"
     fill="#2A3A2A"
     stroke="#3A4A3A"
     stroke-width="0.75"
     id="circle22" />
  <circle
     cx="22.5"
     cy="372.5"
     r="4"
     fill="#2A3A2A"
     stroke="#3A4A3A"
     stroke-width="0.75"
     id="circle23" />
  <circle
     cx="187.5"
     cy="372.5"
     r="4"
     fill="#2A3A2A"
     stroke="#3A4A3A"
     stroke-width="0.75"
     id="circle24" />
</svg>
