<?xml version="1.0" encoding="UTF-8" standalone="no"?>
<!--
  QUAD VCA (AF-05) — 12 HP panel | Amplified Futures
  Copyright (c) 2026 Daniel Boles. SPDX-License-Identifier: MIT

  Panel: 180 x 380 px (12 HP x 15 px/HP), 60.96mm x 128.5mm
  1 mm = 2.9527559 px

  Four identical channel rows read left to right: LEVEL, CV, IN, OUT.
  The master section below the divider is the part that is not per-channel.

  Widget centres (mm -> px):
    LEVEL 1-4 knob (  9.00, 30/47/64/81) -> ( 26.6,  88.6/138.8/189.0/239.2)
    CV    1-4 in   ( 23.33, 30/47/64/81) -> ( 68.9,  88.6/138.8/189.0/239.2)
    IN    1-4      ( 37.67, 30/47/64/81) -> (111.2,  88.6/138.8/189.0/239.2)
    OUT   1-4      ( 52.00, 30/47/64/81) -> (153.5,  88.6/138.8/189.0/239.2)
    PRESSURE knob  ( 15.24, 101.60)      -> ( 45.0, 300.0)
    CURVE switch   ( 45.72, 101.60)      -> (135.0, 300.0)
    MIX out        ( 30.48, 118.53)      -> ( 90.0, 350.0)

  Clearances computed before this file was written (px, viewBox units):
    subheader ends      36.0 < column-header top   65.7
    column-header base  69.0 < row-1 port top      72.8
    row-4 port bottom  255.0 < divider            262.0
    divider            262.0 < PRESSURE label top 269.7
    PRESSURE label     274.0 < switch top         282.7  (knob top 286.0)
    switch bottom      317.3 < PRESSURE hint base 321.0
    hint base          321.0 < MIX label top      325.7
    MIX label base     330.0 < MIX port top       334.2
    MIX port bottom    365.8 < footer top         372.0
  Column spacing is 14.33mm, which leaves 10.7px between adjacent ports and
  4.2mm between the knob and the CV jack - the tightest pair on the panel.
-->

<svg
   width="60.96mm"
   height="128.5mm"
   viewBox="0 0 180 380"
   version="1.1"
   id="svg1"
   xmlns="http://www.w3.org/2000/svg"
   xmlns:svg="http://www.w3.org/2000/svg">
  <defs
     id="defs1" />
  <path
     id="body"
     style="fill:#1f2a1f"
     d="M 0,0 H 180 V 380 H 0 Z" />
  <path
     id="header"
     style="fill:#ff4a0e"
     d="M 0,0 H 180 V 26 H 0 Z" />
  <path
     id="subheader"
     style="fill:#141a12"
     d="M 0,26 H 180 V 36 H 0 Z" />
  <path
     id="line1"
     style="stroke:#3a4a3a;stroke-width:0.6"
     d="M 12,262 H 168" />
  <path d="m 70.463997,14.062 q 0,1.441 -0.583,2.453 -0.572,1.012 -1.705,1.397 l 1.881,1.958 h -1.419 l -1.518,-1.771 q -0.066,0 -0.143,0 -0.066,0.011 -0.132,0.011 -1.221,0 -2.035,-0.506 -0.803,-0.506 -1.199,-1.419 -0.396,-0.913 -0.396,-2.134 0,-1.21 0.396,-2.112 0.396,-0.902 1.199,-1.408 0.814,-0.506 2.046,-0.506 1.177,0 1.98,0.506 0.803,0.495 1.21,1.408 0.418,0.902 0.418,2.123 z m -6.204,0 q 0,1.485 0.627,2.343 0.627,0.847 1.958,0.847 1.342,0 1.958,-0.847 0.616,-0.858 0.616,-2.343 0,-1.485 -0.616,-2.321 -0.616,-0.847 -1.947,-0.847 -1.331,0 -1.969,0.847 -0.627,0.836 -0.627,2.321 z m 13.915001,1.166 q 0,0.814 -0.33,1.474 -0.33,0.649 -1.012,1.034 -0.671,0.374 -1.716,0.374 -1.463,0 -2.233,-0.792 -0.759,-0.803 -0.759,-2.112 v -5.06 h 0.99 v 5.093 q 0,0.957 0.506,1.485 0.517,0.528 1.551,0.528 1.067,0 1.54,-0.561 0.484,-0.572 0.484,-1.463 v -5.082 h 0.979 z m 6.886008,2.772 -0.946,-2.431 h -3.113 l -0.935,2.431 h -1.001 l 3.069,-7.887 h 0.891 l 3.058,7.887 z m -2.123,-5.687 q -0.033,-0.088 -0.11,-0.319 -0.077,-0.231 -0.154,-0.473 -0.066,-0.253 -0.11,-0.385 -0.077,0.341 -0.176,0.671 -0.099,0.319 -0.165,0.506 l -0.891,2.376 h 2.486 z m 10.515999,1.683 q 0,1.991 -1.089,3.003 -1.078,1.001 -3.014,1.001 h -2.189 v -7.854 h 2.42 q 1.188,0 2.057,0.44 0.869,0.44 1.342,1.298 0.473,0.847 0.473,2.112 z m -1.045,0.033 q 0,-1.573 -0.781,-2.299 -0.77,-0.737 -2.189,-0.737 h -1.287 v 6.16 h 1.067 q 3.19,0 3.19,-3.124 z M 103.585,10.146 100.78,18 h -0.989997 l -2.805,-7.854 h 1.034 l 1.771,5.038 q 0.176,0.484 0.296997,0.913 0.121,0.418 0.198,0.803 0.077,-0.385 0.198,-0.814 0.121,-0.429 0.297,-0.924 l 1.76,-5.016 z m 4.323,0.759 q -1.265,0 -1.991,0.847 -0.726,0.847 -0.726,2.321 0,1.463 0.671,2.321 0.682,0.847 2.035,0.847 0.517,0 0.979,-0.088 0.462,-0.088 0.902,-0.22 v 0.858 q -0.44,0.165 -0.913,0.242 -0.462,0.077 -1.111,0.077 -1.199,0 -2.002,-0.495 -0.803,-0.495 -1.21,-1.408 -0.396,-0.913 -0.396,-2.145 0,-1.188 0.429,-2.09 0.44,-0.913 1.287,-1.419 0.847,-0.517 2.057,-0.517 1.243,0 2.167,0.462 l -0.396,0.836 q -0.363,-0.165 -0.814,-0.297 -0.44,-0.132 -0.968,-0.132 z m 8.514,7.095 -0.946,-2.431 h -3.113 L 111.428,18 h -1.001 l 3.069,-7.887 h 0.891 L 117.445,18 Z m -2.123,-5.687 q -0.033,-0.088 -0.11,-0.319 -0.077,-0.231 -0.154,-0.473 -0.066,-0.253 -0.11,-0.385 -0.077,0.341 -0.176,0.671 -0.099,0.319 -0.165,0.506 l -0.891,2.376 h 2.486 z" style="font-family:'Nunito Sans', sans-serif;fill:#0c100a" aria-label="QUAD VCA" id="added_quad_vca_0" />
  <path d="m 72.839699,33.5 -0.3956,-1.0166 h -1.3018 l -0.391,1.0166 h -0.4186 l 1.2834,-3.2982 h 0.3726 l 1.2788,3.2982 z m -0.8878,-2.3782 q -0.0138,-0.0368 -0.046,-0.1334 -0.0322,-0.0966 -0.0644,-0.1978 -0.0276,-0.1058 -0.046,-0.161 -0.0322,0.1426 -0.0736,0.2806 -0.0414,0.1334 -0.069,0.2116 l -0.3726,0.9936 h 1.0396 z m 2.1804,2.3782 h -0.414 v -3.2844 h 1.8354 v 0.3634 h -1.4214 v 1.1638 h 1.334 v 0.3634 h -1.334 z m 1.711196,-1.0534 v -0.3588 h 1.1132 v 0.3588 z m 3.703002,-0.5934 q 0,0.529 -0.1104,0.9108 -0.1104,0.3772 -0.3496,0.5796 -0.2392,0.2024 -0.6348,0.2024 -0.5566,0 -0.8234,-0.4462 -0.2622,-0.4508 -0.2622,-1.2466 0,-0.5336 0.1058,-0.9108 0.1104,-0.3772 0.3496,-0.575 0.2392,-0.2024 0.6302,-0.2024 0.552,0 0.8234,0.4462 0.2714,0.4416 0.2714,1.242 z m -1.7756,0 q 0,0.6762 0.1518,1.012 0.1564,0.3358 0.529,0.3358 0.368,0 0.5244,-0.3312 0.161,-0.3358 0.161,-1.0166 0,-0.6716 -0.161,-1.0074 -0.1564,-0.3358 -0.5244,-0.3358 -0.3726,0 -0.529,0.3358 -0.1518,0.3358 -0.1518,1.0074 z m 3.266002,-0.368 q 0.506,0 0.805,0.253 0.299,0.253 0.299,0.713 0,0.5106 -0.3266,0.805 -0.322,0.2898 -0.9016,0.2898 -0.253,0 -0.4784,-0.046 -0.2208,-0.046 -0.3726,-0.1334 v -0.3818 q 0.1656,0.1012 0.4002,0.161 0.2392,0.0552 0.4554,0.0552 0.3634,0 0.5842,-0.1702 0.2254,-0.1748 0.2254,-0.5382 0,-0.322 -0.1978,-0.4922 -0.1978,-0.1748 -0.6256,-0.1748 -0.1288,0 -0.2944,0.023 -0.1656,0.023 -0.2668,0.046 l -0.2024,-0.1288 0.1242,-1.5502 h 1.6468 v 0.368 h -1.3018 l -0.0782,0.9522 q 0.0782,-0.0138 0.2116,-0.0322 0.1334,-0.0184 0.2944,-0.0184 z m 2.893403,0.391 q 0,-0.1702 0.0828,-0.2392 0.0828,-0.069 0.1978,-0.069 0.1196,0 0.2024,0.069 0.0874,0.069 0.0874,0.2392 0,0.1656 -0.0874,0.2392 -0.0828,0.0736 -0.2024,0.0736 -0.115,0 -0.1978,-0.0736 -0.0828,-0.0736 -0.0828,-0.2392 z m 4.8576,-1.6606 -1.173,3.2844 h -0.414 l -1.173,-3.2844 h 0.4324 l 0.7406,2.1068 q 0.0736,0.2024 0.1242,0.3818 0.0506,0.1748 0.0828,0.3358 0.0322,-0.161 0.0828,-0.3404 0.0506,-0.1794 0.1242,-0.3864 l 0.736,-2.0976 z m 1.8078,0.3174 q -0.529,0 -0.8326,0.3542 -0.3036,0.3542 -0.3036,0.9706 0,0.6118 0.2806,0.9706 0.2852,0.3542 0.851,0.3542 0.2162,0 0.4094,-0.0368 0.1932,-0.0368 0.3772,-0.092 v 0.3588 q -0.184,0.069 -0.3818,0.1012 -0.1932,0.0322 -0.4646,0.0322 -0.5014,0 -0.8372,-0.207 -0.3358,-0.207 -0.506,-0.5888 -0.1656,-0.3818 -0.1656,-0.897 0,-0.4968 0.1794,-0.874 0.184,-0.3818 0.5382,-0.5934 0.3542,-0.2162 0.8602,-0.2162 0.5198,0 0.9062,0.1932 l -0.1656,0.3496 q -0.1518,-0.069 -0.3404,-0.1242 -0.184,-0.0552 -0.4048,-0.0552 z m 3.560399,2.967 -0.3956,-1.0166 h -1.3018 l -0.391,1.0166 h -0.4186 l 1.2834,-3.2982 h 0.3726 l 1.2788,3.2982 z m -0.8878,-2.3782 q -0.0138,-0.0368 -0.046,-0.1334 -0.0322,-0.0966 -0.0644,-0.1978 -0.0276,-0.1058 -0.046,-0.161 -0.0322,0.1426 -0.0736,0.2806 -0.0414,0.1334 -0.069,0.2116 l -0.3726,0.9936 h 1.0396 z m 2.847401,0.7544 q 0,-0.1702 0.0828,-0.2392 0.0828,-0.069 0.1978,-0.069 0.1196,0 0.2024,0.069 0.0874,0.069 0.0874,0.2392 0,0.1656 -0.0874,0.2392 -0.0828,0.0736 -0.2024,0.0736 -0.115,0 -0.1978,-0.0736 -0.0828,-0.0736 -0.0828,-0.2392 z M 99.846303,33.5 h -0.3956 v -2.2954 q 0,-0.1978 0.0046,-0.3174 0.0046,-0.1196 0.0138,-0.2484 -0.0736,0.0736 -0.1334,0.1242 -0.0598,0.0506 -0.1518,0.1288 l -0.3496,0.2852 -0.2116,-0.2714 0.8878,-0.69 h 0.3358 z m 3.390207,0 h -2.1712 v -0.3358 l 0.8602,-0.8694 q 0.2484,-0.2484 0.4186,-0.4416 0.1702,-0.1932 0.2576,-0.3772 0.0874,-0.1886 0.0874,-0.4094 0,-0.2714 -0.161,-0.4094 -0.161,-0.1426 -0.4186,-0.1426 -0.2392,0 -0.4232,0.0828 -0.1794,0.0828 -0.368,0.23 l -0.2162,-0.2714 q 0.1932,-0.161 0.4416,-0.2714 0.253,-0.115 0.5658,-0.115 0.46,0 0.7268,0.2346 0.2668,0.23 0.2668,0.6394 0,0.2576 -0.1058,0.483 -0.1058,0.2254 -0.2944,0.4462 -0.1886,0.2162 -0.4416,0.4646 l -0.6854,0.6762 v 0.0184 h 1.6606 z m 3.197,0 h -0.414 v -1.5318 h -1.6836 V 33.5 h -0.414 v -3.2844 h 0.414 v 1.3892 h 1.6836 v -1.3892 h 0.414 z m 1.76639,-3.2844 q 0.644,0 0.9384,0.253 0.2944,0.253 0.2944,0.713 0,0.2714 -0.1242,0.5106 -0.1196,0.2346 -0.4094,0.3818 -0.2852,0.1472 -0.7774,0.1472 h -0.3772 V 33.5 h -0.414 v -3.2844 z m -0.0368,0.3542 h -0.4186 v 1.2972 h 0.3312 q 0.4692,0 0.6992,-0.1518 0.23,-0.1518 0.23,-0.5152 0,-0.3174 -0.2024,-0.4738 -0.2024,-0.1564 -0.6394,-0.1564 z" style="font-family:'Nunito Sans', sans-serif;fill:#887860" aria-label="AF-05 · VCA · 12HP" id="added_af_05_vca_12hp_0" />
  <path d="m 20.6982,69 v -3.2844 h 0.414 v 2.9164 h 1.4352 V 69 Z m 4.245801,0 h -1.8354 v -3.2844 h 1.8354 v 0.3634 h -1.4214 v 1.0258 h 1.3386 v 0.3588 h -1.3386 v 1.173 h 1.4214 z m 3.035998,-3.2844 -1.173,3.2844 h -0.414 l -1.173,-3.2844 h 0.4324 l 0.7406,2.1068 q 0.0736,0.2024 0.1242,0.3818 0.0506,0.1748 0.0828,0.3358 0.0322,-0.161 0.0828,-0.3404 0.0506,-0.1794 0.1242,-0.3864 l 0.736,-2.0976 z M 30.261601,69 h -1.8354 v -3.2844 h 1.8354 v 0.3634 h -1.4214 v 1.0258 h 1.3386 v 0.3588 h -1.3386 v 1.173 h 1.4214 z m 0.722199,0 v -3.2844 h 0.414 V 68.632 H 32.833 V 69 Z" style="font-family:'Nunito Sans', sans-serif;fill:#c8c0b0" aria-label="LEVEL" id="added_level_0" />
  <path d="m 67.920201,66.033 q -0.529,0 -0.8326,0.3542 -0.3036,0.3542 -0.3036,0.9706 0,0.6118 0.2806,0.9706 0.2852,0.3542 0.851,0.3542 0.2162,0 0.4094,-0.0368 0.1932,-0.0368 0.3772,-0.092 v 0.3588 q -0.184,0.069 -0.3818,0.1012 -0.1932,0.0322 -0.4646,0.0322 -0.5014,0 -0.8372,-0.207 -0.3358,-0.207 -0.506,-0.5888 -0.1656,-0.3818 -0.1656,-0.897 0,-0.4968 0.1794,-0.874 0.184,-0.3818 0.5382,-0.5934 0.3542,-0.2162 0.8602,-0.2162 0.5198,0 0.9062,0.1932 l -0.1656,0.3496 q -0.1518,-0.069 -0.3404,-0.1242 -0.184,-0.0552 -0.4048,-0.0552 z m 3.8134,-0.3174 -1.173,3.2844 h -0.414 l -1.173,-3.2844 h 0.4324 l 0.7406,2.1068 q 0.0736,0.2024 0.1242,0.3818 0.0506,0.1748 0.0828,0.3358 0.0322,-0.161 0.0828,-0.3404 0.0506,-0.1794 0.1242,-0.3864 l 0.736,-2.0976 z" style="font-family:'Nunito Sans', sans-serif;fill:#5a7350" aria-label="CV" id="added_cv_0" />
  <path d="m 110.04309,69 h -1.1868 v -0.2392 l 0.3864,-0.0874 v -2.6266 l -0.3864,-0.092 v -0.2392 h 1.1868 v 0.2392 l -0.3864,0.092 v 2.6266 l 0.3864,0.0874 z m 3.23841,0 h -0.483 l -1.7572,-2.7278 h -0.0184 q 0.009,0.161 0.023,0.4002 0.0138,0.2392 0.0138,0.4922 V 69 h -0.3818 v -3.2844 h 0.4784 l 1.7526,2.7186 h 0.0184 q -0.005,-0.0736 -0.0138,-0.2208 -0.005,-0.1472 -0.0138,-0.322 -0.005,-0.1748 -0.005,-0.322 v -1.8538 h 0.3864 z" style="font-family:'Nunito Sans', sans-serif;fill:#5a7350" aria-label="IN" id="added_in_0" />
  <path d="m 152.0556,67.3532 q 0,0.5106 -0.1748,0.8924 -0.1702,0.3772 -0.506,0.5888 -0.3358,0.2116 -0.8326,0.2116 -0.5106,0 -0.851,-0.2116 -0.3358,-0.2116 -0.5014,-0.5934 -0.1656,-0.3818 -0.1656,-0.8924 0,-0.506 0.1656,-0.8832 0.1656,-0.3772 0.5014,-0.5888 0.3404,-0.2116 0.8556,-0.2116 0.4922,0 0.828,0.2116 0.3358,0.207 0.506,0.5888 0.1748,0.3772 0.1748,0.8878 z m -2.5944,0 q 0,0.621 0.2622,0.9798 0.2622,0.3542 0.8188,0.3542 0.5612,0 0.8188,-0.3542 0.2576,-0.3588 0.2576,-0.9798 0,-0.621 -0.2576,-0.9706 -0.2576,-0.3542 -0.8142,-0.3542 -0.5566,0 -0.8234,0.3542 -0.2622,0.3496 -0.2622,0.9706 z m 5.819,0.4876 q 0,0.3404 -0.138,0.6164 -0.138,0.2714 -0.4232,0.4324 -0.2806,0.1564 -0.7176,0.1564 -0.6118,0 -0.9338,-0.3312 -0.3174,-0.3358 -0.3174,-0.8832 v -2.116 h 0.414 v 2.1298 q 0,0.4002 0.2116,0.621 0.2162,0.2208 0.6486,0.2208 0.4462,0 0.644,-0.2346 0.2024,-0.2392 0.2024,-0.6118 v -2.1252 h 0.4094 z M 157.1846,69 h -0.414 v -2.921 h -1.0258 v -0.3634 h 2.461 v 0.3634 h -1.0212 z" style="font-family:'Nunito Sans', sans-serif;fill:#e8c547" aria-label="OUT" id="added_out_0" />
  <path d="m 8.3449987,90.400002 h -0.43 v -2.495 q 0,-0.215 0.005,-0.345 0.005,-0.13 0.015,-0.27 -0.08,0.08 -0.145,0.135 -0.065,0.055 -0.165,0.14 l -0.38,0.31 -0.23,-0.295 0.965,-0.75 h 0.365 z" style="font-family:'Nunito Sans', sans-serif;fill:#887860" aria-label="1" id="added_1_0" />
  <path d="m 9.1699987,140.60001 h -2.36 v -0.365 l 0.935,-0.945 q 0.27,-0.27 0.455,-0.48 0.185,-0.21 0.28,-0.41 0.095,-0.205 0.095,-0.445 0,-0.295 -0.175,-0.445 -0.175,-0.155 -0.455,-0.155 -0.26,0 -0.46,0.09 -0.195,0.09 -0.4,0.25 l -0.235,-0.295 q 0.21,-0.175 0.48,-0.295 0.275,-0.125 0.615,-0.125 0.5,0 0.79,0.255 0.29,0.25 0.29,0.695 0,0.28 -0.115,0.525 -0.115,0.245 -0.32,0.485 -0.205,0.235 -0.48,0.505 l -0.745,0.735 v 0.02 h 1.805 z" style="font-family:'Nunito Sans', sans-serif;fill:#887860" aria-label="2" id="added_2_0" />
  <path d="m 9.0349987,188.065 q 0,0.36 -0.2,0.575 -0.2,0.21 -0.54,0.28 v 0.02 q 0.43,0.05 0.64,0.27 0.21,0.22 0.21,0.575 0,0.31 -0.145,0.555 -0.145,0.24 -0.45,0.375 -0.3,0.135 -0.775,0.135 -0.28,0 -0.52,-0.045 -0.24,-0.04 -0.46,-0.15 v -0.41 q 0.225,0.11 0.485,0.175 0.26,0.06 0.5,0.06 0.48,0 0.69,-0.185 0.215,-0.19 0.215,-0.52 0,-0.335 -0.265,-0.48 -0.26,-0.15 -0.735,-0.15 h -0.345 v -0.375 h 0.35 q 0.44,0 0.665,-0.185 0.23,-0.185 0.23,-0.49 0,-0.26 -0.175,-0.4 -0.175,-0.145 -0.475,-0.145 -0.29,0 -0.495,0.085 -0.205,0.085 -0.405,0.215 l -0.22,-0.3 q 0.19,-0.15 0.47,-0.26 0.285,-0.11 0.645,-0.11 0.56,0 0.83,0.25 0.275,0.25 0.275,0.635 z" style="font-family:'Nunito Sans', sans-serif;fill:#887860" aria-label="3" id="added_3_0" />
  <path d="m 9.3299987,240.19 h -0.52 V 241 h -0.425 v -0.81 h -1.71 v -0.375 l 1.68,-2.405 h 0.455 v 2.385 h 0.52 z m -0.945,-1.52 q 0,-0.26 0.01,-0.44 0.01,-0.185 0.015,-0.35 h -0.02 q -0.04,0.095 -0.1,0.205 -0.06,0.11 -0.115,0.185 l -1.07,1.525 h 1.28 z" style="font-family:'Nunito Sans', sans-serif;fill:#887860" aria-label="4" id="added_4_0" />
  <path d="m 32.346003,269.716 q 0.84,0 1.224,0.33 0.384,0.33 0.384,0.93 0,0.354 -0.162,0.666 -0.156,0.306 -0.534,0.498 -0.372,0.192 -1.014,0.192 h -0.492 V 274 h -0.54 v -4.284 z m -0.048,0.462 h -0.546 v 1.692 h 0.432 q 0.612,0 0.912,-0.198 0.3,-0.198 0.3,-0.672 0,-0.414 -0.264,-0.618 -0.264,-0.204 -0.834,-0.204 z M 36.024,269.716 q 0.798,0 1.176,0.306 0.384,0.3 0.384,0.912 0,0.342 -0.126,0.57 -0.126,0.228 -0.324,0.366 -0.192,0.132 -0.408,0.21 l 1.176,1.92 h -0.63 l -1.038,-1.77 H 35.382 V 274 h -0.54 v -4.284 z m -0.03,0.468 h -0.612 v 1.59 h 0.642 q 0.522,0 0.762,-0.204 0.24,-0.21 0.24,-0.612 0,-0.42 -0.252,-0.594 -0.252,-0.18 -0.78,-0.18 z M 40.967999,274 h -2.394 v -4.284 h 2.394 v 0.474 h -1.854 v 1.338 h 1.746 v 0.468 h -1.746 v 1.53 h 1.854 z m 3.371998,-1.146 q 0,0.57 -0.414,0.888 -0.414,0.318 -1.116,0.318 -0.36,0 -0.666,-0.054 -0.306,-0.054 -0.51,-0.15 v -0.516 q 0.216,0.096 0.534,0.174 0.324,0.078 0.666,0.078 0.48,0 0.72,-0.186 0.246,-0.186 0.246,-0.504 0,-0.21 -0.09,-0.354 -0.09,-0.144 -0.312,-0.264 -0.216,-0.126 -0.606,-0.264 -0.546,-0.198 -0.828,-0.486 -0.276,-0.288 -0.276,-0.786 0,-0.342 0.174,-0.582 0.174,-0.246 0.48,-0.378 0.312,-0.132 0.714,-0.132 0.354,0 0.648,0.066 0.294,0.066 0.534,0.174 l -0.168,0.462 q -0.222,-0.096 -0.486,-0.162 -0.258,-0.066 -0.54,-0.066 -0.402,0 -0.606,0.174 -0.204,0.168 -0.204,0.45 0,0.216 0.09,0.36 0.09,0.144 0.294,0.258 0.204,0.114 0.552,0.246 0.378,0.138 0.636,0.3 0.264,0.156 0.396,0.378 0.138,0.222 0.138,0.558 z m 3.293999,0 q 0,0.57 -0.414,0.888 -0.414,0.318 -1.116,0.318 -0.36,0 -0.666,-0.054 -0.306,-0.054 -0.51,-0.15 v -0.516 q 0.216,0.096 0.534,0.174 0.324,0.078 0.666,0.078 0.48,0 0.72,-0.186 0.246,-0.186 0.246,-0.504 0,-0.21 -0.09,-0.354 -0.09,-0.144 -0.312,-0.264 -0.216,-0.126 -0.606,-0.264 -0.546,-0.198 -0.828,-0.486 -0.276,-0.288 -0.276,-0.786 0,-0.342 0.174,-0.582 0.174,-0.246 0.48,-0.378 0.312,-0.132 0.714,-0.132 0.354,0 0.648,0.066 0.294,0.066 0.534,0.174 l -0.168,0.462 q -0.222,-0.096 -0.486,-0.162 -0.258,-0.066 -0.54,-0.066 -0.402,0 -0.606,0.174 -0.204,0.168 -0.204,0.45 0,0.216 0.09,0.36 0.09,0.144 0.294,0.258 0.204,0.114 0.552,0.246 0.378,0.138 0.636,0.3 0.264,0.156 0.396,0.378 0.138,0.222 0.138,0.558 z m 4.121999,-0.366 q 0,0.444 -0.18,0.804 -0.18,0.354 -0.552,0.564 -0.366,0.204 -0.936,0.204 -0.798,0 -1.218,-0.432 -0.414,-0.438 -0.414,-1.152 v -2.76 h 0.54 v 2.778 q 0,0.522 0.276,0.81 0.282,0.288 0.846,0.288 0.582,0 0.84,-0.306 0.264,-0.312 0.264,-0.798 v -2.772 h 0.534 z M 54.066,269.716 q 0.798,0 1.176,0.306 0.384,0.3 0.384,0.912 0,0.342 -0.126,0.57 -0.126,0.228 -0.324,0.366 -0.192,0.132 -0.408,0.21 l 1.176,1.92 h -0.63 l -1.038,-1.77 H 53.424 V 274 h -0.54 v -4.284 z m -0.03,0.468 h -0.612 v 1.59 h 0.642 q 0.522,0 0.762,-0.204 0.24,-0.21 0.24,-0.612 0,-0.42 -0.252,-0.594 -0.252,-0.18 -0.78,-0.18 z M 59.009998,274 h -2.394 v -4.284 h 2.394 v 0.474 h -1.854 v 1.338 h 1.746 v 0.468 h -1.746 v 1.53 h 1.854 z" style="font-family:'Nunito Sans', sans-serif;fill:#c8c0b0" aria-label="PRESSURE" id="added_pressure_0" />
  <path d="m 127.995,270.13 q -0.69,0 -1.086,0.462 -0.396,0.462 -0.396,1.266 0,0.798 0.366,1.266 0.372,0.462 1.11,0.462 0.282,0 0.534,-0.048 0.252,-0.048 0.492,-0.12 v 0.468 q -0.24,0.09 -0.498,0.132 -0.252,0.042 -0.606,0.042 -0.654,0 -1.092,-0.27 -0.438,-0.27 -0.66,-0.768 -0.216,-0.498 -0.216,-1.17 0,-0.648 0.234,-1.14 0.24,-0.498 0.702,-0.774 0.462,-0.282 1.122,-0.282 0.678,0 1.182,0.252 l -0.216,0.456 q -0.198,-0.09 -0.444,-0.162 -0.24,-0.072 -0.528,-0.072 z m 5.214,2.358 q 0,0.444 -0.18,0.804 -0.18,0.354 -0.552,0.564 -0.366,0.204 -0.936,0.204 -0.798,0 -1.218,-0.432 -0.414,-0.438 -0.414,-1.152 v -2.76 h 0.54 v 2.778 q 0,0.522 0.276,0.81 0.282,0.288 0.846,0.288 0.582,0 0.84,-0.306 0.264,-0.312 0.264,-0.798 v -2.772 h 0.534 z m 2.31,-2.772 q 0.798,0 1.176,0.306 0.384,0.3 0.384,0.912 0,0.342 -0.126,0.57 -0.126,0.228 -0.324,0.366 -0.192,0.132 -0.408,0.21 l 1.176,1.92 h -0.63 l -1.038,-1.77 h -0.852 V 274 h -0.54 v -4.284 z m -0.03,0.468 h -0.612 v 1.59 h 0.642 q 0.522,0 0.762,-0.204 0.24,-0.21 0.24,-0.612 0,-0.42 -0.252,-0.594 -0.252,-0.18 -0.78,-0.18 z m 5.598,-0.468 -1.53,4.284 h -0.54 l -1.53,-4.284 h 0.564 l 0.966,2.748 q 0.096,0.264 0.162,0.498 0.066,0.228 0.108,0.438 0.042,-0.21 0.108,-0.444 0.066,-0.234 0.162,-0.504 l 0.96,-2.736 z m 2.976,4.284 h -2.394 v -4.284 h 2.394 v 0.474 h -1.854 v 1.338 h 1.746 v 0.468 h -1.746 v 1.53 h 1.854 z" style="font-family:'Nunito Sans', sans-serif;fill:#c8c0b0" aria-label="CURVE" id="added_curve_0" />
  <path transform="translate(-4,0)" d="M 116.996,289 H 115.4 v -2.856 h 1.596 v 0.316 h -1.236 v 0.892 h 1.164 v 0.312 h -1.164 v 1.02 h 1.236 z m 2.568,0 h -0.408 l -0.756,-1.24 -0.768,1.24 h -0.38 l 0.948,-1.488 -0.888,-1.368 h 0.4 l 0.7,1.12 0.704,-1.12 h 0.38 l -0.884,1.36 z m 1.16,-2.856 q 0.56,0 0.816,0.22 0.256,0.22 0.256,0.62 0,0.236 -0.108,0.444 -0.104,0.204 -0.356,0.332 -0.248,0.128 -0.676,0.128 h -0.328 V 289 h -0.36 v -2.856 z m -0.032,0.308 h -0.364 v 1.128 h 0.288 q 0.408,0 0.608,-0.132 0.2,-0.132 0.2,-0.448 0,-0.276 -0.176,-0.412 -0.176,-0.136 -0.556,-0.136 z" style="font-family:'Nunito Sans', sans-serif;fill:#887860" aria-label="EXP" id="added_exp_0" />
  <path d="m 115.896,314 v -2.856 h 0.36 v 2.536 h 1.248 V 314 Z m 2.9,0 h -1.032 v -0.208 l 0.336,-0.076 v -2.284 l -0.336,-0.08 v -0.208 h 1.032 v 0.208 l -0.336,0.08 v 2.284 l 0.336,0.076 z m 2.816,0 h -0.42 l -1.528,-2.372 h -0.016 q 0.008,0.14 0.02,0.348 0.012,0.208 0.012,0.428 V 314 h -0.332 v -2.856 h 0.416 l 1.524,2.364 h 0.016 q -0.004,-0.064 -0.012,-0.192 -0.004,-0.128 -0.012,-0.28 -0.004,-0.152 -0.004,-0.28 v -1.612 h 0.336 z" style="font-family:'Nunito Sans', sans-serif;fill:#887860" aria-label="LIN" id="added_lin_0" />
  <path d="m 37.541997,319.568 q 0,0.46 -0.096,0.792 -0.096,0.328 -0.304,0.504 -0.208,0.176 -0.552,0.176 -0.484,0 -0.716,-0.388 -0.228,-0.392 -0.228,-1.084 0,-0.464 0.092,-0.792 0.096,-0.328 0.304,-0.5 0.208,-0.176 0.548,-0.176 0.48,0 0.716,0.388 0.236,0.384 0.236,1.08 z m -1.544,0 q 0,0.588 0.132,0.88 0.136,0.292 0.46,0.292 0.32,0 0.456,-0.288 0.14,-0.292 0.14,-0.884 0,-0.584 -0.14,-0.876 -0.136,-0.292 -0.456,-0.292 -0.324,0 -0.46,0.292 -0.132,0.292 -0.132,0.876 z M 39.002,319.336 v -0.284 h 1.832 v 0.284 z m 0,0.796 v -0.284 h 1.832 v 0.284 z m 4.716003,-1.712 q -0.46,0 -0.724,0.308 -0.264,0.308 -0.264,0.844 0,0.532 0.244,0.844 0.248,0.308 0.74,0.308 0.188,0 0.356,-0.032 0.168,-0.032 0.328,-0.08 v 0.312 q -0.16,0.06 -0.332,0.088 -0.168,0.028 -0.404,0.028 -0.436,0 -0.728,-0.18 -0.292,-0.18 -0.44,-0.512 -0.144,-0.332 -0.144,-0.78 0,-0.432 0.156,-0.76 0.16,-0.332 0.468,-0.516 0.308,-0.188 0.748,-0.188 0.452,0 0.788,0.168 l -0.144,0.304 q -0.132,-0.06 -0.296,-0.108 -0.16,-0.048 -0.352,-0.048 z m 1.304,2.58 v -2.856 h 0.36 v 2.536 h 1.248 V 321 Z m 3.692,0 h -1.596 v -2.856 h 1.596 v 0.316 h -1.236 v 0.892 h 1.164 v 0.312 h -1.164 v 1.02 h 1.236 z m 2.419999,0 -0.344,-0.884 h -1.132 l -0.34,0.884 h -0.364 l 1.116,-2.868 h 0.324 l 1.112,2.868 z m -0.772,-2.068 q -0.012,-0.032 -0.04,-0.116 -0.028,-0.084 -0.056,-0.172 -0.024,-0.092 -0.04,-0.14 -0.028,0.124 -0.064,0.244 -0.036,0.116 -0.06,0.184 l -0.324,0.864 h 0.904 z m 3.8,2.068 h -0.42 l -1.528,-2.372 h -0.016 q 0.008,0.14 0.02,0.348 0.012,0.208 0.012,0.428 V 321 h -0.332 v -2.856 h 0.416 l 1.524,2.364 h 0.016 q -0.004,-0.064 -0.012,-0.192 -0.004,-0.128 -0.012,-0.28 -0.004,-0.152 -0.004,-0.28 v -1.612 h 0.336 z" style="font-family:'Nunito Sans', sans-serif;fill:#887860" aria-label="0 = CLEAN" id="added_0_clean_0" />
  <path d="m 86.975998,330 -1.41,-3.756 h -0.024 q 0.018,0.186 0.03,0.504 0.012,0.312 0.012,0.654 V 330 h -0.498 v -4.284 h 0.798 l 1.32,3.51 h 0.024 l 1.344,-3.51 h 0.792 V 330 h -0.534 v -2.634 q 0,-0.312 0.012,-0.618 0.018,-0.306 0.03,-0.498 h -0.024 l -1.428,3.75 z m 4.757997,0 h -1.548 v -0.312 l 0.504,-0.114 v -3.426 l -0.504,-0.12 v -0.312 h 1.548 v 0.312 l -0.504,0.12 v 3.426 l 0.504,0.114 z M 95.472,330 H 94.86 l -1.134,-1.86 -1.152,1.86 h -0.57 l 1.422,-2.232 -1.332,-2.052 h 0.6 l 1.05,1.68 1.056,-1.68 h 0.57 l -1.326,2.04 z" style="font-family:'Nunito Sans', sans-serif;fill:#ff4a0e" aria-label="MIX" id="added_mix_0" />
  <path d="m 78.840252,375 -0.301,-0.7735 h -0.9905 L 77.251252,375 h -0.3185 l 0.9765,-2.5095 h 0.2835 l 0.973,2.5095 z m -0.6755,-1.8095 q -0.0105,-0.028 -0.035,-0.1015 -0.0245,-0.0735 -0.049,-0.1505 -0.021,-0.0805 -0.035,-0.1225 -0.0245,0.1085 -0.056,0.2135 -0.0315,0.1015 -0.0525,0.161 l -0.2835,0.756 h 0.791 z m 2.446499,1.8095 -0.8225,-2.191 h -0.014 q 0.0105,0.1085 0.0175,0.294 0.007,0.182 0.007,0.3815 V 375 h -0.2905 v -2.499 h 0.4655 l 0.77,2.0475 h 0.014 l 0.784,-2.0475 h 0.462 V 375 h -0.3115 v -1.5365 q 0,-0.182 0.007,-0.3605 0.0105,-0.1785 0.0175,-0.2905 h -0.014 l -0.833,2.1875 z m 2.733499,-2.499 q 0.49,0 0.714,0.1925 0.224,0.1925 0.224,0.5425 0,0.2065 -0.0945,0.3885 -0.091,0.1785 -0.3115,0.2905 -0.217,0.112 -0.5915,0.112 h -0.287 V 375 h -0.315 v -2.499 z m -0.028,0.2695 h -0.3185 v 0.987 h 0.252 q 0.357,0 0.532,-0.1155 0.175,-0.1155 0.175,-0.392 0,-0.2415 -0.154,-0.3605 -0.154,-0.119 -0.4865,-0.119 z M 84.800748,375 v -2.499 h 0.315 v 2.219 h 1.092 V 375 Z m 1.746501,-0.189 q 0,-0.1295 0.063,-0.182 0.063,-0.0525 0.1505,-0.0525 0.091,0 0.154,0.0525 0.0665,0.0525 0.0665,0.182 0,0.126 -0.0665,0.182 -0.063,0.056 -0.154,0.056 -0.0875,0 -0.1505,-0.056 -0.063,-0.056 -0.063,-0.182 z m 2.2505,0.189 h -0.315 v -2.499 h 1.3965 v 0.2765 h -1.0815 v 0.8855 h 1.015 v 0.2765 h -1.015 z m 3.401996,-0.882 q 0,0.259 -0.105,0.469 -0.105,0.2065 -0.322,0.329 -0.2135,0.119 -0.546,0.119 -0.4655,0 -0.7105,-0.252 -0.2415,-0.2555 -0.2415,-0.672 v -1.61 h 0.315 v 1.6205 q 0,0.3045 0.161,0.4725 0.1645,0.168 0.4935,0.168 0.3395,0 0.49,-0.1785 0.154,-0.182 0.154,-0.4655 v -1.617 h 0.3115 z M 93.648749,375 h -0.315 v -2.2225 h -0.7805 v -0.2765 h 1.8725 v 0.2765 h -0.777 z m 3.055499,-0.882 q 0,0.259 -0.105,0.469 -0.105,0.2065 -0.322,0.329 -0.2135,0.119 -0.546,0.119 -0.4655,0 -0.7105,-0.252 -0.2415,-0.2555 -0.2415,-0.672 v -1.61 h 0.315 v 1.6205 q 0,0.3045 0.161,0.4725 0.1645,0.168 0.4935,0.168 0.3395,0 0.49,-0.1785 0.154,-0.182 0.154,-0.4655 v -1.617 h 0.3115 z m 1.347504,-1.617 q 0.4655,0 0.686,0.1785 0.224,0.175 0.224,0.532 0,0.1995 -0.0735,0.3325 -0.0735,0.133 -0.189,0.2135 -0.112,0.077 -0.238,0.1225 l 0.686,1.12 h -0.3675 l -0.6055,-1.0325 h -0.497 V 375 h -0.315 v -2.499 z m -0.0175,0.273 h -0.357 v 0.9275 h 0.3745 q 0.3045,0 0.4445,-0.119 0.14,-0.1225 0.14,-0.357 0,-0.245 -0.147,-0.3465 -0.147,-0.105 -0.455,-0.105 z M 100.93575,375 h -1.3965 v -2.499 h 1.3965 v 0.2765 h -1.0815 v 0.7805 h 1.0185 v 0.273 h -1.0185 v 0.8925 h 1.0815 z m 1.967,-0.6685 q 0,0.3325 -0.2415,0.518 -0.2415,0.1855 -0.651,0.1855 -0.21,0 -0.3885,-0.0315 -0.1785,-0.0315 -0.2975,-0.0875 v -0.301 q 0.126,0.056 0.3115,0.1015 0.189,0.0455 0.3885,0.0455 0.28,0 0.42,-0.1085 0.1435,-0.1085 0.1435,-0.294 0,-0.1225 -0.0525,-0.2065 -0.0525,-0.084 -0.182,-0.154 -0.126,-0.0735 -0.3535,-0.154 -0.3185,-0.1155 -0.483,-0.2835 -0.161,-0.168 -0.161,-0.4585 0,-0.1995 0.1015,-0.3395 0.1015,-0.1435 0.28,-0.2205 0.182,-0.077 0.4165,-0.077 0.2065,0 0.378,0.0385 0.1715,0.0385 0.3115,0.1015 l -0.098,0.2695 q -0.1295,-0.056 -0.2835,-0.0945 -0.1505,-0.0385 -0.315,-0.0385 -0.2345,0 -0.3535,0.1015 -0.119,0.098 -0.119,0.2625 0,0.126 0.0525,0.21 0.0525,0.084 0.1715,0.1505 0.119,0.0665 0.322,0.1435 0.2205,0.0805 0.371,0.175 0.154,0.091 0.231,0.2205 0.0805,0.1295 0.0805,0.3255 z" style="font-family:'Nunito Sans', sans-serif;fill:#5a6a55" aria-label="AMPL. FUTURES" id="added_ampl_futures_0" />
</svg>
