<?xml version="1.0" encoding="UTF-8" standalone="no"?>
<svg
   width="240"
   height="380"
   viewBox="0 0 240 380"
   version="1.1"
   id="svg28"
   xmlns="http://www.w3.org/2000/svg"
   xmlns:svg="http://www.w3.org/2000/svg">
  <defs
     id="defs28" />
  <!-- Body: dark oxidized steel -->
  <rect
     width="240"
     height="380"
     fill="#1F2A1F"
     id="rect1" />
  <!-- Safety orange header -->
  <rect
     width="240"
     height="22"
     fill="#FF4A0E"
     id="rect2" />
  <!-- Title (invisible in VCV Rack; drawn by C++ NanoVG) -->
  <path
     d="m 82.729999,13.77 q 0,0.95 -0.69,1.48 -0.69,0.53 -1.86,0.53 -0.6,0 -1.11,-0.09 -0.51,-0.09 -0.85,-0.25 v -0.86 q 0.36,0.16 0.89,0.29 0.54,0.13 1.11,0.13 0.8,0 1.2,-0.31 0.41,-0.31 0.41,-0.84 0,-0.35 -0.15,-0.59 -0.15,-0.24 -0.52,-0.44 -0.36,-0.21 -1.01,-0.44 -0.91,-0.33 -1.38,-0.81 -0.46,-0.48 -0.46,-1.31 0,-0.5699999 0.29,-0.9699999 0.29,-0.41 0.8,-0.63 0.52,-0.22 1.19,-0.22 0.59,0 1.08,0.11 0.49,0.11 0.89,0.29 l -0.28,0.77 q -0.37,-0.16 -0.81,-0.27 -0.43,-0.11 -0.9,-0.11 -0.67,0 -1.01,0.29 -0.34,0.28 -0.34,0.7499999 0,0.36 0.15,0.6 0.15,0.24 0.49,0.43 0.34,0.19 0.92,0.41 0.63,0.23 1.06,0.5 0.44,0.26 0.66,0.63 0.23,0.37 0.23,0.93 z m 5.699998,1.91 h -0.9 V 9.3300001 h -2.23 v -0.79 h 5.35 v 0.79 h -2.22 z m 7.269998,-7.1399999 q 1.33,0 1.96,0.51 0.64,0.5 0.64,1.5199999 0,0.57 -0.21,0.95 -0.21,0.38 -0.54,0.61 -0.32,0.22 -0.68,0.35 l 1.96,3.2 h -1.05 l -1.73,-2.95 h -1.42 v 2.95 h -0.9 V 8.5400001 Z m -0.05,0.78 h -1.02 V 11.97 h 1.07 q 0.87,0 1.27,-0.34 0.4,-0.35 0.4,-1.02 0,-0.6999999 -0.42,-0.9899999 -0.42,-0.3 -1.3,-0.3 z M 103.95999,15.68 h -2.58 v -0.52 l 0.84,-0.19 V 9.2600001 l -0.84,-0.2 v -0.52 h 2.58 v 0.52 l -0.84,0.2 V 14.97 l 0.84,0.19 z m 9.04001,0 h -1.05 l -3.82,-5.9299999 h -0.04 Q 108.11,10.1 108.14,10.62 q 0.03,0.52 0.03,1.07 v 3.99 h -0.83 V 8.5400001 h 1.04 L 112.19,14.45 h 0.04 q -0.01,-0.16 -0.03,-0.48 -0.01,-0.32 -0.03,-0.7 -0.01,-0.38 -0.01,-0.7 V 8.5400001 H 113 Z m 7.04,-3.77 h 2.47 v 3.5 q -0.58,0.19 -1.17,0.28 -0.59,0.09 -1.34,0.09 -1.11,0 -1.87,-0.44 -0.76,-0.45 -1.16,-1.27 -0.39,-0.83 -0.39,-1.96 0,-1.12 0.44,-1.94 0.44,-0.8199999 1.26,-1.2699999 0.83,-0.46 2,-0.46 0.6,0 1.13,0.11 0.54,0.11 1,0.31 l -0.34,0.78 q -0.38,-0.17 -0.86,-0.29 -0.47,-0.12 -0.98,-0.12 -1.28,0 -2,0.7699999 -0.71,0.77 -0.71,2.11 0,0.85 0.27,1.51 0.28,0.65 0.87,1.02 0.59,0.36 1.55,0.36 0.47,0 0.8,-0.05 0.33,-0.05 0.6,-0.12 v -2.12 h -1.57 z m 13.93001,3.77 -2.35,-6.2599999 h -0.04 q 0.03,0.31 0.05,0.8399999 0.02,0.52 0.02,1.09 v 4.33 h -0.83 V 8.5400001 h 1.33 l 2.2,5.8499999 h 0.04 l 2.24,-5.8499999 h 1.32 V 15.68 h -0.89 v -4.39 q 0,-0.52 0.02,-1.03 0.03,-0.5099999 0.05,-0.8299999 h -0.04 l -2.38,6.2499999 z m 12.4,0 -0.86,-2.21 h -2.83 l -0.85,2.21 h -0.91 l 2.79,-7.1699999 h 0.81 l 2.78,7.1699999 z m -1.93,-5.17 q -0.03,-0.08 -0.1,-0.29 -0.07,-0.21 -0.14,-0.4299999 -0.06,-0.23 -0.1,-0.35 -0.07,0.31 -0.16,0.6099999 -0.09,0.29 -0.15,0.46 l -0.81,2.16 h 2.26 z m 9.89,3.26 q 0,0.95 -0.69,1.48 -0.69,0.53 -1.86,0.53 -0.6,0 -1.11,-0.09 -0.51,-0.09 -0.85,-0.25 v -0.86 q 0.36,0.16 0.89,0.29 0.54,0.13 1.11,0.13 0.8,0 1.2,-0.31 0.41,-0.31 0.41,-0.84 0,-0.35 -0.15,-0.59 -0.15,-0.24 -0.52,-0.44 -0.36,-0.21 -1.01,-0.44 -0.91,-0.33 -1.38,-0.81 -0.46,-0.48 -0.46,-1.31 0,-0.5699999 0.29,-0.9699999 0.29,-0.41 0.8,-0.63 0.52,-0.22 1.19,-0.22 0.59,0 1.08,0.11 0.49,0.11 0.89,0.29 l -0.28,0.77 q -0.37,-0.16 -0.81,-0.27 -0.43,-0.11 -0.9,-0.11 -0.67,0 -1.01,0.29 -0.34,0.28 -0.34,0.7499999 0,0.36 0.15,0.6 0.15,0.24 0.49,0.43 0.34,0.19 0.92,0.41 0.63,0.23 1.06,0.5 0.44,0.26 0.66,0.63 0.23,0.37 0.23,0.93 z m 7.48999,0 q 0,0.95 -0.69,1.48 -0.69,0.53 -1.86,0.53 -0.6,0 -1.11,-0.09 -0.51,-0.09 -0.85,-0.25 v -0.86 q 0.36,0.16 0.89,0.29 0.54,0.13 1.11,0.13 0.8,0 1.2,-0.31 0.41,-0.31 0.41,-0.84 0,-0.35 -0.15,-0.59 -0.15,-0.24 -0.52,-0.44 -0.36,-0.21 -1.01,-0.44 -0.91,-0.33 -1.38,-0.81 -0.46,-0.48 -0.46,-1.31 0,-0.5699999 0.29,-0.9699999 0.29,-0.41 0.8,-0.63 0.52,-0.22 1.19,-0.22 0.59,0 1.08,0.11 0.49,0.11 0.89,0.29 l -0.28,0.77 q -0.37,-0.16 -0.81,-0.27 -0.43,-0.11 -0.9,-0.11 -0.67,0 -1.01,0.29 -0.34,0.28 -0.34,0.7499999 0,0.36 0.15,0.6 0.15,0.24 0.49,0.43 0.34,0.19 0.92,0.41 0.63,0.23 1.06,0.5 0.44,0.26 0.66,0.63 0.23,0.37 0.23,0.93 z"
     id="text2"
     style="font-size:10px;font-family:'Nunito Sans', sans-serif;letter-spacing:2;dominant-baseline:middle;text-anchor:middle;fill:#0c100a"
     aria-label="STRING MASS" />
  <!-- Section dividers -->
  <line
     x1="8"
     y1="162"
     x2="232"
     y2="162"
     stroke="#2E3A2E"
     stroke-width="0.75"
     id="line2" />
  <line
     x1="8"
     y1="240"
     x2="232"
     y2="240"
     stroke="#2E3A2E"
     stroke-width="0.75"
     id="line3" />
  <line
     x1="8"
     y1="278"
     x2="232"
     y2="278"
     stroke="#2E3A2E"
     stroke-width="0.75"
     id="line4" />
  <line
     x1="8"
     y1="322"
     x2="232"
     y2="322"
     stroke="#2E3A2E"
     stroke-width="0.75"
     id="line5" />
  <!-- ══════════════════════════════════════════════════════════ -->
  <!-- ROW 1: MASS (x=15mm→44px) | SPREAD (x=62mm→183px)       -->
  <!-- Satellite x: 23mm→68px  |  70mm→207px                    -->
  <!-- y=38mm→112px   trimpot y=31mm→92px   CV y=45mm→133px     -->
  <!-- ══════════════════════════════════════════════════════════ -->
  <!-- MASS -->
  <circle
     cx="44.3"
     cy="112.2"
     r="6.5"
     fill="#4A4A4A"
     stroke="#787878"
     stroke-width="0.75"
     id="circle5" />
  <circle
     cx="67.9"
     cy="91.5"
     r="4"
     fill="#363636"
     stroke="#666"
     stroke-width="0.5"
     id="circle6" />
  <circle
     cx="67.9"
     cy="132.9"
     r="5"
     fill="#251E0A"
     stroke="#E8C547"
     stroke-width="1.25"
     id="circle7" />
  <path
     d="m 38.385002,126 -1.5275,-4.069 h -0.026 q 0.0195,0.2015 0.0325,0.546 0.013,0.338 0.013,0.7085 V 126 h -0.5395 v -4.641 h 0.8645 l 1.43,3.8025 h 0.026 l 1.456,-3.8025 h 0.858 V 126 h -0.5785 v -2.8535 q 0,-0.338 0.013,-0.6695 0.0195,-0.3315 0.0325,-0.5395 h -0.026 l -1.547,4.0625 z m 6.759997,0 -0.559,-1.4365 h -1.8395 L 42.193999,126 h -0.5915 l 1.8135,-4.6605 h 0.5265 l 1.807,4.6605 z m -1.2545,-3.3605 q -0.0195,-0.052 -0.065,-0.1885 -0.0455,-0.1365 -0.091,-0.2795 -0.039,-0.1495 -0.065,-0.2275 -0.0455,0.2015 -0.104,0.3965 -0.0585,0.1885 -0.0975,0.299 l -0.5265,1.404 h 1.469 z m 5.1285,2.119 q 0,0.6175 -0.4485,0.962 -0.4485,0.3445 -1.209,0.3445 -0.39,0 -0.7215,-0.0585 -0.3315,-0.0585 -0.5525,-0.1625 v -0.559 q 0.234,0.104 0.5785,0.1885 0.351,0.0845 0.7215,0.0845 0.52,0 0.78,-0.2015 0.2665,-0.2015 0.2665,-0.546 0,-0.2275 -0.0975,-0.3835 -0.0975,-0.156 -0.338,-0.286 -0.234,-0.1365 -0.6565,-0.286 -0.5915,-0.2145 -0.897,-0.5265 -0.299,-0.312 -0.299,-0.8515 0,-0.3705 0.1885,-0.6305 0.1885,-0.2665 0.52,-0.4095 0.338,-0.143 0.7735,-0.143 0.3835,0 0.702,0.0715 0.3185,0.0715 0.5785,0.1885 l -0.182,0.5005 q -0.2405,-0.104 -0.5265,-0.1755 -0.2795,-0.0715 -0.585,-0.0715 -0.4355,0 -0.6565,0.1885 -0.221,0.182 -0.221,0.4875 0,0.234 0.0975,0.39 0.0975,0.156 0.3185,0.2795 0.221,0.1235 0.598,0.2665 0.4095,0.1495 0.689,0.325 0.286,0.169 0.429,0.4095 0.1495,0.2405 0.1495,0.6045 z m 3.568499,0 q 0,0.6175 -0.4485,0.962 -0.4485,0.3445 -1.209,0.3445 -0.39,0 -0.7215,-0.0585 -0.3315,-0.0585 -0.5525,-0.1625 v -0.559 q 0.234,0.104 0.5785,0.1885 0.351,0.0845 0.7215,0.0845 0.52,0 0.78,-0.2015 0.2665,-0.2015 0.2665,-0.546 0,-0.2275 -0.0975,-0.3835 -0.0975,-0.156 -0.338,-0.286 -0.234,-0.1365 -0.6565,-0.286 -0.5915,-0.2145 -0.897,-0.5265 -0.299,-0.312 -0.299,-0.8515 0,-0.3705 0.1885,-0.6305 0.1885,-0.2665 0.52,-0.4095 0.338,-0.143 0.7735,-0.143 0.3835,0 0.702,0.0715 0.3185,0.0715 0.5785,0.1885 l -0.182,0.5005 q -0.2405,-0.104 -0.5265,-0.1755 -0.2795,-0.0715 -0.585,-0.0715 -0.4355,0 -0.6565,0.1885 -0.221,0.182 -0.221,0.4875 0,0.234 0.0975,0.39 0.0975,0.156 0.3185,0.2795 0.221,0.1235 0.598,0.2665 0.4095,0.1495 0.689,0.325 0.286,0.169 0.429,0.4095 0.1495,0.2405 0.1495,0.6045 z"
     id="text7"
     style="font-size:6.5px;font-family:'Nunito Sans', sans-serif;text-anchor:middle;fill:#c8c0b0"
     aria-label="MASS" />
  <!-- SPREAD -->
  <circle
     cx="183.1"
     cy="112.2"
     r="6.5"
     fill="#4A4A4A"
     stroke="#787878"
     stroke-width="0.75"
     id="circle8" />
  <circle
     cx="206.7"
     cy="91.5"
     r="4"
     fill="#363636"
     stroke="#666"
     stroke-width="0.5"
     id="circle9" />
  <circle
     cx="206.7"
     cy="132.9"
     r="5"
     fill="#251E0A"
     stroke="#E8C547"
     stroke-width="1.25"
     id="circle10" />
  <path
     d="m 174.33476,124.7585 q 0,0.6175 -0.4485,0.962 -0.4485,0.3445 -1.209,0.3445 -0.39,0 -0.7215,-0.0585 -0.3315,-0.0585 -0.5525,-0.1625 v -0.559 q 0.234,0.104 0.5785,0.1885 0.351,0.0845 0.7215,0.0845 0.52,0 0.78,-0.2015 0.2665,-0.2015 0.2665,-0.546 0,-0.2275 -0.0975,-0.3835 -0.0975,-0.156 -0.338,-0.286 -0.234,-0.1365 -0.6565,-0.286 -0.5915,-0.2145 -0.897,-0.5265 -0.299,-0.312 -0.299,-0.8515 0,-0.3705 0.1885,-0.6305 0.1885,-0.2665 0.52,-0.4095 0.338,-0.143 0.7735,-0.143 0.3835,0 0.702,0.0715 0.3185,0.0715 0.5785,0.1885 l -0.182,0.5005 q -0.2405,-0.104 -0.5265,-0.1755 -0.2795,-0.0715 -0.585,-0.0715 -0.4355,0 -0.6565,0.1885 -0.221,0.182 -0.221,0.4875 0,0.234 0.0975,0.39 0.0975,0.156 0.3185,0.2795 0.221,0.1235 0.598,0.2665 0.4095,0.1495 0.689,0.325 0.286,0.169 0.429,0.4095 0.1495,0.2405 0.1495,0.6045 z m 2.1645,-3.3995 q 0.91,0 1.326,0.3575 0.416,0.3575 0.416,1.0075 0,0.3835 -0.1755,0.7215 -0.169,0.3315 -0.5785,0.5395 -0.403,0.208 -1.0985,0.208 h -0.533 V 126 h -0.585 v -4.641 z m -0.052,0.5005 h -0.5915 v 1.833 h 0.468 q 0.663,0 0.988,-0.2145 0.325,-0.2145 0.325,-0.728 0,-0.4485 -0.286,-0.6695 -0.286,-0.221 -0.9035,-0.221 z m 4.0365,-0.5005 q 0.8645,0 1.274,0.3315 0.416,0.325 0.416,0.988 0,0.3705 -0.1365,0.6175 -0.1365,0.247 -0.351,0.3965 -0.208,0.143 -0.442,0.2275 l 1.274,2.08 h -0.6825 l -1.1245,-1.9175 h -0.923 V 126 h -0.585 v -4.641 z m -0.0325,0.507 h -0.663 v 1.7225 h 0.6955 q 0.5655,0 0.8255,-0.221 0.26,-0.2275 0.26,-0.663 0,-0.455 -0.273,-0.6435 -0.273,-0.195 -0.845,-0.195 z m 5.3885,4.134 h -2.5935 v -4.641 h 2.5935 v 0.5135 h -2.0085 v 1.4495 h 1.8915 v 0.507 h -1.8915 v 1.6575 h 2.0085 z m 3.93249,0 -0.559,-1.4365 h -1.8395 L 186.82125,126 h -0.5915 l 1.8135,-4.6605 h 0.5265 l 1.807,4.6605 z m -1.2545,-3.3605 q -0.0195,-0.052 -0.065,-0.1885 -0.0455,-0.1365 -0.091,-0.2795 -0.039,-0.1495 -0.065,-0.2275 -0.0455,0.2015 -0.104,0.3965 -0.0585,0.1885 -0.0975,0.299 l -0.5265,1.404 h 1.469 z m 6.214,0.9945 q 0,1.1765 -0.6435,1.7745 -0.637,0.5915 -1.781,0.5915 h -1.2935 v -4.641 h 1.43 q 0.702,0 1.2155,0.26 0.5135,0.26 0.793,0.767 0.2795,0.5005 0.2795,1.248 z m -0.6175,0.0195 q 0,-0.9295 -0.4615,-1.3585 -0.455,-0.4355 -1.2935,-0.4355 h -0.7605 v 3.64 h 0.6305 q 1.885,0 1.885,-1.846 z"
     id="text10"
     style="font-size:6.5px;font-family:'Nunito Sans', sans-serif;text-anchor:middle;fill:#c8c0b0"
     aria-label="SPREAD" />
  <!-- ══════════════════════════════════════════════════════════ -->
  <!-- ROW 2: TIMBRE (x=15mm) | MODE (x=62mm, discrete)         -->
  <!-- y=68mm→201px  trimpot y=61mm→180px  CV y=75mm→222px      -->
  <!-- ══════════════════════════════════════════════════════════ -->
  <!-- TIMBRE -->
  <circle
     cx="44.3"
     cy="200.8"
     r="6.5"
     fill="#4A4A4A"
     stroke="#787878"
     stroke-width="0.75"
     id="circle11" />
  <circle
     cx="67.9"
     cy="180.2"
     r="4"
     fill="#363636"
     stroke="#666"
     stroke-width="0.5"
     id="circle12" />
  <circle
     cx="67.9"
     cy="221.5"
     r="5"
     fill="#251E0A"
     stroke="#E8C547"
     stroke-width="1.25"
     id="circle13" />
  <path
     d="m 34.602002,214 h -0.585 v -4.1275 h -1.4495 v -0.5135 h 3.4775 v 0.5135 h -1.443 z m 3.451498,0 h -1.677 v -0.338 l 0.546,-0.1235 v -3.7115 l -0.546,-0.13 v -0.338 h 1.677 v 0.338 l -0.546,0.13 v 3.7115 l 0.546,0.1235 z m 2.944505,0 -1.5275,-4.069 h -0.026 q 0.0195,0.2015 0.0325,0.546 0.013,0.338 0.013,0.7085 V 214 h -0.5395 v -4.641 h 0.8645 l 1.43,3.8025 h 0.026 l 1.456,-3.8025 h 0.858 V 214 h -0.5785 v -2.8535 q 0,-0.338 0.013,-0.6695 0.0195,-0.3315 0.0325,-0.5395 h -0.026 l -1.547,4.0625 z m 5.173997,-4.641 q 0.871,0 1.313,0.26 0.4485,0.2535 0.4485,0.8905 0,0.4095 -0.2275,0.6825 -0.2275,0.2665 -0.6565,0.3445 v 0.0325 q 0.2925,0.0455 0.5265,0.169 0.2405,0.1235 0.377,0.351 0.1365,0.2275 0.1365,0.5915 0,0.6305 -0.4355,0.975 -0.429,0.3445 -1.1765,0.3445 h -1.6315 v -4.641 z m 0.117,1.976 q 0.598,0 0.819,-0.1885 0.221,-0.195 0.221,-0.572 0,-0.3835 -0.273,-0.546 -0.2665,-0.169 -0.858,-0.169 h -0.767 v 1.4755 z m -0.858,0.4875 v 1.6835 h 0.936 q 0.6175,0 0.858,-0.2405 0.2405,-0.2405 0.2405,-0.6305 0,-0.364 -0.2535,-0.585 -0.247,-0.2275 -0.8905,-0.2275 z M 50.3515,209.359 q 0.8645,0 1.274,0.3315 0.416,0.325 0.416,0.988 0,0.3705 -0.1365,0.6175 -0.1365,0.247 -0.351,0.3965 -0.208,0.143 -0.442,0.2275 L 52.386,214 H 51.7035 L 50.579,212.0825 H 49.656 V 214 h -0.585 v -4.641 z m -0.0325,0.507 h -0.663 v 1.7225 h 0.6955 q 0.5655,0 0.8255,-0.221 0.26,-0.2275 0.26,-0.663 0,-0.455 -0.273,-0.6435 -0.273,-0.195 -0.845,-0.195 z M 55.707497,214 h -2.5935 v -4.641 h 2.5935 v 0.5135 h -2.0085 v 1.4495 h 1.8915 v 0.507 h -1.8915 v 1.6575 h 2.0085 z"
     id="text13"
     style="font-size:6.5px;font-family:'Nunito Sans', sans-serif;text-anchor:middle;fill:#c8c0b0"
     aria-label="TIMBRE" />
  <!-- MODE (discrete snap, no satellite) -->
  <circle
     cx="183.1"
     cy="200.8"
     r="6.5"
     fill="#4A4A4A"
     stroke="#AA8A50"
     stroke-width="0.75"
     id="circle14" />
  <path
     d="m 176.11251,214 -1.5275,-4.069 h -0.026 q 0.0195,0.2015 0.0325,0.546 0.013,0.338 0.013,0.7085 V 214 h -0.5395 v -4.641 h 0.8645 l 1.43,3.8025 h 0.026 l 1.456,-3.8025 h 0.858 V 214 h -0.5785 v -2.8535 q 0,-0.338 0.013,-0.6695 0.0195,-0.3315 0.0325,-0.5395 h -0.026 l -1.547,4.0625 z m 7.8975,-2.327 q 0,0.7215 -0.247,1.261 -0.2405,0.533 -0.715,0.832 -0.4745,0.299 -1.1765,0.299 -0.7215,0 -1.2025,-0.299 -0.4745,-0.299 -0.7085,-0.8385 -0.234,-0.5395 -0.234,-1.261 0,-0.715 0.234,-1.248 0.234,-0.533 0.7085,-0.832 0.481,-0.299 1.209,-0.299 0.6955,0 1.17,0.299 0.4745,0.2925 0.715,0.832 0.247,0.533 0.247,1.2545 z m -3.666,0 q 0,0.8775 0.3705,1.3845 0.3705,0.5005 1.157,0.5005 0.793,0 1.157,-0.5005 0.364,-0.507 0.364,-1.3845 0,-0.8775 -0.364,-1.3715 -0.364,-0.5005 -1.1505,-0.5005 -0.7865,0 -1.1635,0.5005 -0.3705,0.494 -0.3705,1.3715 z m 8.411,-0.039 q 0,1.1765 -0.6435,1.7745 -0.637,0.5915 -1.781,0.5915 h -1.2935 v -4.641 h 1.43 q 0.702,0 1.2155,0.26 0.5135,0.26 0.793,0.767 0.2795,0.5005 0.2795,1.248 z m -0.6175,0.0195 q 0,-0.9295 -0.4615,-1.3585 -0.455,-0.4355 -1.2935,-0.4355 h -0.7605 v 3.64 h 0.6305 q 1.885,0 1.885,-1.846 z M 192.3755,214 h -2.5935 v -4.641 h 2.5935 v 0.5135 h -2.0085 v 1.4495 h 1.8915 v 0.507 h -1.8915 v 1.6575 h 2.0085 z"
     id="text14"
     style="font-size:6.5px;font-family:'Nunito Sans', sans-serif;text-anchor:middle;fill:#c8c0b0"
     aria-label="MODE" />
  <!-- Mode position labels below the knob -->
  <path
     d="m 151.97775,222.614 q 0,0.407 -0.165,0.737 -0.165,0.3245 -0.506,0.517 -0.3355,0.187 -0.858,0.187 -0.7315,0 -1.1165,-0.396 -0.3795,-0.4015 -0.3795,-1.056 v -2.53 h 0.495 v 2.5465 q 0,0.4785 0.253,0.7425 0.2585,0.264 0.7755,0.264 0.5335,0 0.77,-0.2805 0.242,-0.286 0.242,-0.7315 v -2.541 h 0.4895 z m 4.147,1.386 h -0.5775 l -2.101,-3.2615 h -0.022 q 0.011,0.1925 0.0275,0.4785 0.0165,0.286 0.0165,0.5885 V 224 h -0.4565 v -3.927 h 0.572 l 2.0955,3.2505 h 0.022 q -0.005,-0.088 -0.0165,-0.264 -0.006,-0.176 -0.0165,-0.385 -0.006,-0.209 -0.006,-0.385 v -2.2165 h 0.462 z m 2.1725,0 h -1.419 v -0.286 l 0.462,-0.1045 v -3.1405 l -0.462,-0.11 v -0.286 h 1.419 v 0.286 l -0.462,0.11 v 3.1405 l 0.462,0.1045 z m 2.98651,-1.0505 q 0,0.5225 -0.3795,0.814 -0.3795,0.2915 -1.023,0.2915 -0.33,0 -0.6105,-0.0495 -0.2805,-0.0495 -0.4675,-0.1375 v -0.473 q 0.198,0.088 0.4895,0.1595 0.297,0.0715 0.6105,0.0715 0.44,0 0.66,-0.1705 0.2255,-0.1705 0.2255,-0.462 0,-0.1925 -0.0825,-0.3245 -0.0825,-0.132 -0.286,-0.242 -0.198,-0.1155 -0.5555,-0.242 -0.5005,-0.1815 -0.759,-0.4455 -0.253,-0.264 -0.253,-0.7205 0,-0.3135 0.1595,-0.5335 0.1595,-0.2255 0.44,-0.3465 0.286,-0.121 0.6545,-0.121 0.3245,0 0.594,0.0605 0.2695,0.0605 0.4895,0.1595 l -0.154,0.4235 q -0.2035,-0.088 -0.4455,-0.1485 -0.2365,-0.0605 -0.495,-0.0605 -0.3685,0 -0.5555,0.1595 -0.187,0.154 -0.187,0.4125 0,0.198 0.0825,0.33 0.0825,0.132 0.2695,0.2365 0.187,0.1045 0.506,0.2255 0.3465,0.1265 0.583,0.275 0.242,0.143 0.363,0.3465 0.1265,0.2035 0.1265,0.5115 z"
     id="text15"
     style="font-size:5.5px;font-family:'Nunito Sans', sans-serif;text-anchor:middle;fill:#887860"
     aria-label="UNIS" />
  <path
     d="m 166.53675,228 h -0.495 v -1.8315 h -2.013 V 228 h -0.495 v -3.927 h 0.495 v 1.661 h 2.013 v -1.661 h 0.495 z m 3.5365,0 -0.473,-1.2155 h -1.5565 L 167.57625,228 h -0.5005 l 1.5345,-3.9435 h 0.4455 l 1.529,3.9435 z m -1.0615,-2.8435 q -0.0165,-0.044 -0.055,-0.1595 -0.0385,-0.1155 -0.077,-0.2365 -0.033,-0.1265 -0.055,-0.1925 -0.0385,0.1705 -0.088,0.3355 -0.0495,0.1595 -0.0825,0.253 l -0.4455,1.188 h 1.243 z m 3.1955,-1.0835 q 0.7315,0 1.078,0.2805 0.352,0.275 0.352,0.836 0,0.3135 -0.1155,0.5225 -0.1155,0.209 -0.297,0.3355 -0.176,0.121 -0.374,0.1925 l 1.078,1.76 h -0.5775 l -0.9515,-1.6225 h -0.781 V 228 h -0.495 v -3.927 z m -0.0275,0.429 h -0.561 v 1.4575 h 0.5885 q 0.4785,0 0.6985,-0.187 0.22,-0.1925 0.22,-0.561 0,-0.385 -0.231,-0.5445 -0.231,-0.165 -0.715,-0.165 z m 4.0975,3.498 -1.2925,-3.443 h -0.022 q 0.0165,0.1705 0.0275,0.462 0.011,0.286 0.011,0.5995 V 228 h -0.4565 v -3.927 h 0.7315 l 1.21,3.2175 h 0.022 l 1.232,-3.2175 h 0.726 V 228 h -0.4895 v -2.4145 q 0,-0.286 0.011,-0.5665 0.0165,-0.2805 0.0275,-0.4565 h -0.022 l -1.309,3.4375 z"
     id="text16"
     style="font-size:5.5px;font-family:'Nunito Sans', sans-serif;text-anchor:middle;fill:#887860"
     aria-label="HARM" />
  <path
     d="m 184.17825,229.045 q -0.132,0 -0.231,-0.022 -0.099,-0.0165 -0.176,-0.0495 v -0.418 q 0.088,0.022 0.187,0.0385 0.099,0.0165 0.209,0.0165 0.1375,0 0.2585,-0.055 0.1265,-0.055 0.2035,-0.1925 0.077,-0.1375 0.077,-0.385 v -3.905 h 0.495 v 3.8665 q 0,0.5665 -0.2805,0.836 -0.2805,0.2695 -0.7425,0.2695 z m 5.0435,-2.431 q 0,0.407 -0.165,0.737 -0.165,0.3245 -0.506,0.517 -0.3355,0.187 -0.858,0.187 -0.7315,0 -1.1165,-0.396 -0.3795,-0.4015 -0.3795,-1.056 v -2.53 h 0.495 v 2.5465 q 0,0.4785 0.253,0.7425 0.2585,0.264 0.7755,0.264 0.5335,0 0.77,-0.2805 0.242,-0.286 0.242,-0.7315 v -2.541 h 0.4895 z m 3.26151,0.3355 q 0,0.5225 -0.3795,0.814 -0.3795,0.2915 -1.023,0.2915 -0.33,0 -0.6105,-0.0495 -0.2805,-0.0495 -0.4675,-0.1375 v -0.473 q 0.198,0.088 0.4895,0.1595 0.297,0.0715 0.6105,0.0715 0.44,0 0.66,-0.1705 0.2255,-0.1705 0.2255,-0.462 0,-0.1925 -0.0825,-0.3245 -0.0825,-0.132 -0.286,-0.242 -0.198,-0.1155 -0.5555,-0.242 -0.5005,-0.1815 -0.759,-0.4455 -0.253,-0.264 -0.253,-0.7205 0,-0.3135 0.1595,-0.5335 0.1595,-0.2255 0.44,-0.3465 0.286,-0.121 0.6545,-0.121 0.3245,0 0.594,0.0605 0.2695,0.0605 0.4895,0.1595 l -0.154,0.4235 q -0.2035,-0.088 -0.4455,-0.1485 -0.2365,-0.0605 -0.495,-0.0605 -0.3685,0 -0.5555,0.1595 -0.187,0.154 -0.187,0.4125 0,0.198 0.0825,0.33 0.0825,0.132 0.2695,0.2365 0.187,0.1045 0.506,0.2255 0.3465,0.1265 0.583,0.275 0.242,0.143 0.363,0.3465 0.1265,0.2035 0.1265,0.5115 z M 194.51825,228 h -0.495 v -3.4925 h -1.2265 v -0.4345 h 2.9425 v 0.4345 h -1.221 z"
     id="text17"
     style="font-size:5.5px;font-family:'Nunito Sans', sans-serif;text-anchor:middle;fill:#887860"
     aria-label="JUST" />
  <path
     d="m 201.24325,224 -1.2925,-3.443 h -0.022 q 0.0165,0.1705 0.0275,0.462 0.011,0.286 0.011,0.5995 V 224 h -0.4565 v -3.927 h 0.7315 l 1.21,3.2175 h 0.022 l 1.232,-3.2175 h 0.726 V 224 h -0.4895 v -2.4145 q 0,-0.286 0.011,-0.5665 0.0165,-0.2805 0.0275,-0.4565 h -0.022 l -1.309,3.4375 z m 4.3615,0 h -1.419 v -0.286 l 0.462,-0.1045 v -3.1405 l -0.462,-0.11 v -0.286 h 1.419 v 0.286 l -0.462,0.11 v 3.1405 l 0.462,0.1045 z m 2.442,-3.5475 q -0.6325,0 -0.9955,0.4235 -0.363,0.4235 -0.363,1.1605 0,0.7315 0.3355,1.1605 0.341,0.4235 1.0175,0.4235 0.2585,0 0.4895,-0.044 0.231,-0.044 0.451,-0.11 v 0.429 q -0.22,0.0825 -0.4565,0.121 -0.231,0.0385 -0.5555,0.0385 -0.5995,0 -1.001,-0.2475 -0.4015,-0.2475 -0.605,-0.704 -0.198,-0.4565 -0.198,-1.0725 0,-0.594 0.2145,-1.045 0.22,-0.4565 0.6435,-0.7095 0.4235,-0.2585 1.0285,-0.2585 0.6215,0 1.0835,0.231 l -0.198,0.418 q -0.1815,-0.0825 -0.407,-0.1485 -0.22,-0.066 -0.484,-0.066 z m 2.8765,-0.3795 q 0.7315,0 1.078,0.2805 0.352,0.275 0.352,0.836 0,0.3135 -0.1155,0.5225 -0.1155,0.209 -0.297,0.3355 -0.176,0.121 -0.374,0.1925 l 1.078,1.76 h -0.5775 l -0.9515,-1.6225 h -0.781 V 224 h -0.495 v -3.927 z m -0.0275,0.429 h -0.561 v 1.4575 h 0.5885 q 0.4785,0 0.6985,-0.187 0.22,-0.1925 0.22,-0.561 0,-0.385 -0.231,-0.5445 -0.231,-0.165 -0.715,-0.165 z m 5.7915,1.529 q 0,0.6105 -0.209,1.067 -0.2035,0.451 -0.605,0.704 -0.4015,0.253 -0.9955,0.253 -0.6105,0 -1.0175,-0.253 -0.4015,-0.253 -0.5995,-0.7095 -0.198,-0.4565 -0.198,-1.067 0,-0.605 0.198,-1.056 0.198,-0.451 0.5995,-0.704 0.407,-0.253 1.023,-0.253 0.5885,0 0.99,0.253 0.4015,0.2475 0.605,0.704 0.209,0.451 0.209,1.0615 z m -3.102,0 q 0,0.7425 0.3135,1.1715 0.3135,0.4235 0.979,0.4235 0.671,0 0.979,-0.4235 0.308,-0.429 0.308,-1.1715 0,-0.7425 -0.308,-1.1605 -0.308,-0.4235 -0.9735,-0.4235 -0.6655,0 -0.9845,0.4235 -0.3135,0.418 -0.3135,1.1605 z"
     id="text18"
     style="font-size:5.5px;font-family:'Nunito Sans', sans-serif;text-anchor:middle;fill:#887860"
     aria-label="MICRO" />
  <!-- ══════════════════════════════════════════════════════════ -->
  <!-- ROW 3: SECTION (centred x=40mm→118px, y=92mm→272px)      -->
  <!-- ══════════════════════════════════════════════════════════ -->
  <circle
     cx="118.1"
     cy="271.8"
     r="6.5"
     fill="#4A4A4A"
     stroke="#AA8A50"
     stroke-width="0.75"
     id="circle18" />
  <path
     d="m 107.80075,283.7585 q 0,0.6175 -0.4485,0.962 -0.4485,0.3445 -1.209,0.3445 -0.39,0 -0.7215,-0.0585 -0.3315,-0.0585 -0.5525,-0.1625 v -0.559 q 0.234,0.104 0.5785,0.1885 0.351,0.0845 0.7215,0.0845 0.52,0 0.78,-0.2015 0.2665,-0.2015 0.2665,-0.546 0,-0.2275 -0.0975,-0.3835 -0.0975,-0.156 -0.338,-0.286 -0.234,-0.1365 -0.6565,-0.286 -0.5915,-0.2145 -0.897,-0.5265 -0.299,-0.312 -0.299,-0.8515 0,-0.3705 0.1885,-0.6305 0.1885,-0.2665 0.52,-0.4095 0.338,-0.143 0.7735,-0.143 0.3835,0 0.702,0.0715 0.3185,0.0715 0.5785,0.1885 l -0.182,0.5005 q -0.2405,-0.104 -0.5265,-0.1755 -0.2795,-0.0715 -0.585,-0.0715 -0.4355,0 -0.6565,0.1885 -0.221,0.182 -0.221,0.4875 0,0.234 0.0975,0.39 0.0975,0.156 0.3185,0.2795 0.221,0.1235 0.598,0.2665 0.4095,0.1495 0.689,0.325 0.286,0.169 0.429,0.4095 0.1495,0.2405 0.1495,0.6045 z m 3.5295,1.2415 h -2.5935 v -4.641 h 2.5935 v 0.5135 h -2.0085 v 1.4495 h 1.8915 v 0.507 h -1.8915 v 1.6575 h 2.0085 z m 3.00949,-4.1925 q -0.7475,0 -1.1765,0.5005 -0.429,0.5005 -0.429,1.3715 0,0.8645 0.3965,1.3715 0.403,0.5005 1.2025,0.5005 0.3055,0 0.5785,-0.052 0.273,-0.052 0.533,-0.13 v 0.507 q -0.26,0.0975 -0.5395,0.143 -0.273,0.0455 -0.6565,0.0455 -0.7085,0 -1.183,-0.2925 -0.4745,-0.2925 -0.715,-0.832 -0.234,-0.5395 -0.234,-1.2675 0,-0.702 0.2535,-1.235 0.26,-0.5395 0.7605,-0.8385 0.5005,-0.3055 1.2155,-0.3055 0.7345,0 1.2805,0.273 l -0.234,0.494 q -0.2145,-0.0975 -0.481,-0.1755 -0.26,-0.078 -0.572,-0.078 z m 3.588,4.1925 h -0.585 v -4.1275 h -1.4495 v -0.5135 h 3.4775 v 0.5135 h -1.443 z m 3.4515,0 h -1.677 v -0.338 l 0.546,-0.1235 v -3.7115 l -0.546,-0.13 v -0.338 h 1.677 v 0.338 l -0.546,0.13 v 3.7115 l 0.546,0.1235 z m 4.94651,-2.327 q 0,0.7215 -0.247,1.261 -0.2405,0.533 -0.715,0.832 -0.4745,0.299 -1.1765,0.299 -0.7215,0 -1.2025,-0.299 -0.4745,-0.299 -0.7085,-0.8385 -0.234,-0.5395 -0.234,-1.261 0,-0.715 0.234,-1.248 0.234,-0.533 0.7085,-0.832 0.481,-0.299 1.209,-0.299 0.6955,0 1.17,0.299 0.4745,0.2925 0.715,0.832 0.247,0.533 0.247,1.2545 z m -3.666,0 q 0,0.8775 0.3705,1.3845 0.3705,0.5005 1.157,0.5005 0.793,0 1.157,-0.5005 0.364,-0.507 0.364,-1.3845 0,-0.8775 -0.364,-1.3715 -0.364,-0.5005 -1.1505,-0.5005 -0.7865,0 -1.1635,0.5005 -0.3705,0.494 -0.3705,1.3715 z m 8.372,2.327 h -0.6825 l -2.483,-3.8545 h -0.026 q 0.013,0.2275 0.0325,0.5655 0.0195,0.338 0.0195,0.6955 V 285 h -0.5395 v -4.641 h 0.676 l 2.4765,3.8415 h 0.026 q -0.006,-0.104 -0.0195,-0.312 -0.007,-0.208 -0.0195,-0.455 -0.007,-0.247 -0.007,-0.455 v -2.6195 h 0.546 z"
     id="text19"
     style="font-size:6.5px;font-family:'Nunito Sans', sans-serif;text-anchor:middle;fill:#c8c0b0"
     aria-label="SECTION" />
  <!-- Section count labels -->
  <path
     d="m 95.413998,295 h -0.516 v -2.994 q 0,-0.258 0.006,-0.414 0.006,-0.156 0.018,-0.324 -0.096,0.096 -0.174,0.162 -0.078,0.066 -0.198,0.168 l -0.456,0.372 -0.276,-0.354 1.158,-0.9 h 0.438 z"
     id="text20"
     style="font-size:6px;font-family:'Nunito Sans', sans-serif;text-anchor:middle;fill:#887860"
     aria-label="1" />
  <path
     d="m 119.404,299 h -2.832 v -0.438 l 1.122,-1.134 q 0.324,-0.324 0.546,-0.576 0.222,-0.252 0.336,-0.492 0.114,-0.246 0.114,-0.534 0,-0.354 -0.21,-0.534 -0.21,-0.186 -0.546,-0.186 -0.312,0 -0.552,0.108 -0.234,0.108 -0.48,0.3 l -0.282,-0.354 q 0.252,-0.21 0.576,-0.354 0.33,-0.15 0.738,-0.15 0.6,0 0.948,0.306 0.348,0.3 0.348,0.834 0,0.336 -0.138,0.63 -0.138,0.294 -0.384,0.582 -0.246,0.282 -0.576,0.606 l -0.894,0.882 v 0.024 h 2.166 z"
     id="text21"
     style="font-size:6px;font-family:'Nunito Sans', sans-serif;text-anchor:middle;fill:#887860"
     aria-label="2" />
  <path
     d="m 142.596,294.028 h -0.624 V 295 h -0.51 v -0.972 h -2.052 v -0.45 l 2.016,-2.886 h 0.546 v 2.862 h 0.624 z m -1.134,-1.824 q 0,-0.312 0.012,-0.528 0.012,-0.222 0.018,-0.42 h -0.024 q -0.048,0.114 -0.12,0.246 -0.072,0.132 -0.138,0.222 l -1.284,1.83 h 1.536 z"
     id="text22"
     style="font-size:6px;font-family:'Nunito Sans', sans-serif;text-anchor:middle;fill:#887860"
     aria-label="4" />
  <!-- ══════════════════════════════════════════════════════════ -->
  <!-- ROW 4: IO  V/OCT IN · THRU · AUDIO OUT                   -->
  <!-- y=110mm→325px                                             -->
  <!-- ══════════════════════════════════════════════════════════ -->
  <!-- V/OCT IN (green) -->
  <circle
     cx="44.3"
     cy="325.0"
     r="5"
     fill="#0C1A10"
     stroke="#5A7350"
     stroke-width="1.25"
     id="circle22" />
  <path
     d="m 39.076999,331.716 -1.53,4.284 h -0.54 l -1.53,-4.284 h 0.564 l 0.966,2.748 q 0.096,0.264 0.162,0.498 0.066,0.228 0.108,0.438 0.042,-0.21 0.108,-0.444 0.066,-0.234 0.162,-0.504 l 0.96,-2.736 z m 2.172003,0 -1.596,4.284 h -0.516 l 1.596,-4.284 z m 4.379998,2.136 q 0,0.666 -0.228,1.164 -0.222,0.492 -0.66,0.768 -0.438,0.276 -1.086,0.276 -0.666,0 -1.11,-0.276 -0.438,-0.276 -0.654,-0.774 -0.216,-0.498 -0.216,-1.164 0,-0.66 0.216,-1.152 0.216,-0.492 0.654,-0.768 0.444,-0.276 1.116,-0.276 0.642,0 1.08,0.276 0.438,0.27 0.66,0.768 0.228,0.492 0.228,1.158 z m -3.384,0 q 0,0.81 0.342,1.278 0.342,0.462 1.068,0.462 0.732,0 1.068,-0.462 0.336,-0.468 0.336,-1.278 0,-0.81 -0.336,-1.266 -0.336,-0.462 -1.062,-0.462 -0.726,0 -1.074,0.462 -0.342,0.456 -0.342,1.266 z m 6.168001,-1.722 q -0.69,0 -1.086,0.462 -0.396,0.462 -0.396,1.266 0,0.798 0.366,1.266 0.372,0.462 1.11,0.462 0.282,0 0.534,-0.048 0.252,-0.048 0.492,-0.12 v 0.468 q -0.24,0.09 -0.498,0.132 -0.252,0.042 -0.606,0.042 -0.654,0 -1.092,-0.27 -0.438,-0.27 -0.66,-0.768 -0.216,-0.498 -0.216,-1.17 0,-0.648 0.234,-1.14 0.24,-0.498 0.702,-0.774 0.462,-0.282 1.122,-0.282 0.678,0 1.182,0.252 l -0.216,0.456 q -0.198,-0.09 -0.444,-0.162 -0.24,-0.072 -0.528,-0.072 z m 3.312,3.87 h -0.54 v -3.81 h -1.338 v -0.474 h 3.21 v 0.474 h -1.332 z"
     id="text23"
     style="font-size:6px;font-family:'Nunito Sans', sans-serif;text-anchor:middle;fill:#5a7350"
     aria-label="V/OCT" />
  <!-- V/OCT THRU (green) -->
  <circle
     cx="118.1"
     cy="325.0"
     r="5"
     fill="#0C1A10"
     stroke="#5A7350"
     stroke-width="1.25"
     id="circle23" />
  <path
     d="m 112.088,336 h -0.54 v -3.81 h -1.338 v -0.474 h 3.21 v 0.474 h -1.332 z m 5.256,0 h -0.54 v -1.998 h -2.196 V 336 h -0.54 v -4.284 h 0.54 v 1.812 h 2.196 v -1.812 h 0.54 z m 2.35199,-4.284 q 0.798,0 1.176,0.306 0.384,0.3 0.384,0.912 0,0.342 -0.126,0.57 -0.126,0.228 -0.324,0.366 -0.192,0.132 -0.408,0.21 l 1.176,1.92 h -0.63 l -1.038,-1.77 h -0.852 V 336 h -0.54 v -4.284 z m -0.03,0.468 h -0.612 v 1.59 h 0.642 q 0.522,0 0.762,-0.204 0.24,-0.21 0.24,-0.612 0,-0.42 -0.252,-0.594 -0.252,-0.18 -0.78,-0.18 z m 5.838,2.304 q 0,0.444 -0.18,0.804 -0.18,0.354 -0.552,0.564 -0.366,0.204 -0.936,0.204 -0.798,0 -1.218,-0.432 -0.414,-0.438 -0.414,-1.152 v -2.76 h 0.54 v 2.778 q 0,0.522 0.276,0.81 0.282,0.288 0.846,0.288 0.582,0 0.84,-0.306 0.264,-0.312 0.264,-0.798 v -2.772 h 0.534 z"
     id="text24"
     style="font-size:6px;font-family:'Nunito Sans', sans-serif;text-anchor:middle;fill:#5a7350"
     aria-label="THRU" />
  <!-- AUDIO OUT (orange) -->
  <circle
     cx="192.0"
     cy="325.0"
     r="5"
     fill="#201808"
     stroke="#FF4A0E"
     stroke-width="1.25"
     id="circle24" />
  <path
     d="m 185.61,336 -0.516,-1.326 h -1.698 l -0.51,1.326 h -0.546 l 1.674,-4.302 h 0.486 l 1.668,4.302 z m -1.158,-3.102 q -0.018,-0.048 -0.06,-0.174 -0.042,-0.126 -0.084,-0.258 -0.036,-0.138 -0.06,-0.21 -0.042,0.186 -0.096,0.366 -0.054,0.174 -0.09,0.276 l -0.486,1.296 h 1.356 z m 5.562,1.59 q 0,0.444 -0.18,0.804 -0.18,0.354 -0.552,0.564 -0.366,0.204 -0.936,0.204 -0.798,0 -1.218,-0.432 -0.414,-0.438 -0.414,-1.152 v -2.76 h 0.54 v 2.778 q 0,0.522 0.276,0.81 0.282,0.288 0.846,0.288 0.582,0 0.84,-0.306 0.264,-0.312 0.264,-0.798 v -2.772 h 0.534 z m 4.56,-0.672 q 0,1.086 -0.594,1.638 -0.588,0.546 -1.644,0.546 h -1.194 v -4.284 h 1.32 q 0.648,0 1.122,0.24 0.474,0.24 0.732,0.708 0.258,0.462 0.258,1.152 z m -0.57,0.018 q 0,-0.858 -0.426,-1.254 -0.42,-0.402 -1.194,-0.402 h -0.702 v 3.36 h 0.582 q 1.74,0 1.74,-1.704 z m 2.724,2.166 h -1.548 v -0.312 l 0.504,-0.114 v -3.426 l -0.504,-0.12 v -0.312 h 1.548 v 0.312 l -0.504,0.12 v 3.426 l 0.504,0.114 z m 4.566,-2.148 q 0,0.666 -0.228,1.164 -0.222,0.492 -0.66,0.768 -0.438,0.276 -1.086,0.276 -0.666,0 -1.11,-0.276 -0.438,-0.276 -0.654,-0.774 -0.216,-0.498 -0.216,-1.164 0,-0.66 0.216,-1.152 0.216,-0.492 0.654,-0.768 0.444,-0.276 1.116,-0.276 0.642,0 1.08,0.276 0.438,0.27 0.66,0.768 0.228,0.492 0.228,1.158 z m -3.384,0 q 0,0.81 0.342,1.278 0.342,0.462 1.068,0.462 0.732,0 1.068,-0.462 0.336,-0.468 0.336,-1.278 0,-0.81 -0.336,-1.266 -0.336,-0.462 -1.062,-0.462 -0.726,0 -1.074,0.462 -0.342,0.456 -0.342,1.266 z"
     id="text25"
     style="font-size:6px;font-family:'Nunito Sans', sans-serif;text-anchor:middle;fill:#c8c0b0"
     aria-label="AUDIO" />
  <!-- ══════════════════════════════════════════════════════════ -->
  <!-- Corner screw holes                                         -->
  <!-- ══════════════════════════════════════════════════════════ -->
  <circle
     cx="22.5"
     cy="7.5"
     r="4"
     fill="#2A3A2A"
     stroke="#3A4A3A"
     stroke-width="0.75"
     id="circle25" />
  <circle
     cx="217.5"
     cy="7.5"
     r="4"
     fill="#2A3A2A"
     stroke="#3A4A3A"
     stroke-width="0.75"
     id="circle26" />
  <circle
     cx="22.5"
     cy="372.5"
     r="4"
     fill="#2A3A2A"
     stroke="#3A4A3A"
     stroke-width="0.75"
     id="circle27" />
  <circle
     cx="217.5"
     cy="372.5"
     r="4"
     fill="#2A3A2A"
     stroke="#3A4A3A"
     stroke-width="0.75"
     id="circle28" />
</svg>
