<?xml version="1.0" encoding="UTF-8" standalone="no"?>
<!--
  SWARM CORE — 14 HP panel  |  Amplified Futures design system
  Panel: 210 × 380 px  (14 HP × 15 px/HP)
  Finish: dark oxidised steel (#1F2A1F)
  Safety Orange header: #FF4A0E
  mm→px factor: 2.953  (used for control placement coords in C++ only)

  Controls (approx px positions, origin top-left):
    x1=65   x2=148   (two columns)
    SPECIMEN  row y=24mm → 71px
    DENSITY   row y=58mm → 171px
    DETUNE    row y=92mm → 272px
    I/O       y bottom rows
-->

<svg
   width="91.44mm"
   height="128.5mm"
   viewBox="0 0 270 380"
   version="1.1"
   id="svg18"
   xmlns="http://www.w3.org/2000/svg"
   xmlns:svg="http://www.w3.org/2000/svg">
  <defs
     id="defs18" />
  <!-- Panel body -->
  <path
     id="rect1"
     style="fill:#1f2a1f"
     d="M 0,0 H 270 V 380 H 0 Z" />
  <!-- Safety Orange header bar -->
  <path
     id="rect2"
     style="fill:#ff4a0e"
     d="M 0,0 H 270 V 26 H 0 Z" />
  <!-- Module name (placeholder — NanoVG renders the final text) -->
  <path
     d="m 71.861328,16.263672 1.40625,-0.136719 q 0.126953,0.708008 0.512695,1.040039 0.390625,0.332031 1.049805,0.332031 0.698242,0 1.049805,-0.292968 0.356445,-0.297852 0.356445,-0.69336 0,-0.253906 -0.151367,-0.429687 -0.146484,-0.180664 -0.517578,-0.3125 -0.253906,-0.08789 -1.157227,-0.3125 -1.162109,-0.288086 -1.630859,-0.708008 -0.65918,-0.59082 -0.65918,-1.44043 0,-0.546875 0.307617,-1.020507 0.3125,-0.478516 0.893555,-0.72754 0.585938,-0.249023 1.411133,-0.249023 1.347656,0 2.026367,0.59082 0.683594,0.590821 0.717773,1.577149 l -1.445312,0.06348 q -0.09277,-0.551757 -0.400391,-0.791015 -0.302734,-0.244141 -0.913086,-0.244141 -0.629882,0 -0.986328,0.258789 -0.229492,0.166016 -0.229492,0.444336 0,0.253906 0.214844,0.43457 0.273437,0.229493 1.328125,0.478516 1.054687,0.249023 1.557617,0.517578 0.507813,0.263672 0.791016,0.727539 0.288086,0.458985 0.288086,1.137695 0,0.615235 -0.341797,1.152344 -0.341797,0.53711 -0.966797,0.800781 -0.625,0.25879 -1.557617,0.25879 -1.357422,0 -2.084961,-0.625 -0.727539,-0.629883 -0.869141,-1.831055 z m 8.051758,2.329101 -1.708984,-7.158203 h 1.479492 l 1.079101,4.916992 1.308594,-4.916992 h 1.71875 l 1.254883,5 1.098633,-5 h 1.455078 l -1.738281,7.158203 h -1.533204 l -1.425781,-5.351562 -1.420898,5.351562 z m 14.326172,0 h -1.572266 l -0.625,-1.625976 h -2.861328 l -0.59082,1.625976 h -1.533203 l 2.788086,-7.158203 h 1.52832 z m -2.661133,-2.832031 -0.986328,-2.65625 -0.966797,2.65625 z m 3.432617,2.832031 V 11.43457 h 3.041992 q 1.147461,0 1.665039,0.195313 0.522457,0.19043 0.834957,0.683594 0.3125,0.493164 0.3125,1.127929 0,0.805664 -0.47363,1.333008 -0.473631,0.522461 -1.416014,0.65918 0.46875,0.273437 0.771484,0.600586 0.30762,0.327148 0.8252,1.162109 l 0.87402,1.396484 H 99.717773 L 98.672852,17.035156 Q 98.116211,16.200195 97.911133,15.985352 97.706055,15.765625 97.476562,15.6875 97.24707,15.604492 96.749023,15.604492 h -0.292968 v 2.988281 z m 1.445313,-4.130859 h 1.069336 q 1.040039,0 1.298828,-0.08789 0.258789,-0.08789 0.405273,-0.302734 0.146485,-0.214844 0.146485,-0.537109 0,-0.361328 -0.195313,-0.581055 -0.19043,-0.224609 -0.541992,-0.283203 -0.175781,-0.02441 -1.054688,-0.02441 h -1.127929 z m 5.751955,4.130859 V 11.43457 h 2.16308 l 1.29883,4.882813 1.28418,-4.882813 h 2.16797 v 7.158203 h -1.34277 v -5.634765 l -1.4209,5.634765 h -1.3916 l -1.41602,-5.634765 v 5.634765 z m 15.70801,-2.631835 1.40136,0.444335 q -0.32226,1.171875 -1.07422,1.743164 -0.74707,0.566407 -1.89941,0.566407 -1.42578,0 -2.34375,-0.97168 -0.91797,-0.976562 -0.91797,-2.666016 0,-1.787109 0.92285,-2.773437 0.92285,-0.991211 2.42676,-0.991211 1.31348,0 2.13379,0.776367 0.48828,0.458985 0.73242,1.31836 l -1.43066,0.341796 q -0.12696,-0.55664 -0.53223,-0.878906 -0.40039,-0.322265 -0.97656,-0.322265 -0.7959,0 -1.29395,0.571289 -0.49316,0.571289 -0.49316,1.850586 0,1.357421 0.48828,1.933593 0.48828,0.576172 1.26953,0.576172 0.57617,0 0.99121,-0.366211 0.41504,-0.366211 0.59571,-1.152343 z m 2.34863,-0.903321 q 0,-1.09375 0.32715,-1.835937 0.24414,-0.546875 0.66406,-0.981446 0.4248,-0.43457 0.92773,-0.644531 0.66895,-0.283203 1.54297,-0.283203 1.58203,0 2.5293,0.981445 0.95215,0.981446 0.95215,2.729493 0,1.733398 -0.94238,2.714843 -0.94239,0.976563 -2.51954,0.976563 -1.59668,0 -2.53906,-0.97168 -0.94238,-0.976562 -0.94238,-2.685547 z m 1.48926,-0.04883 q 0,1.21582 0.56152,1.845703 0.56152,0.625 1.42578,0.625 0.86426,0 1.41602,-0.620117 0.55664,-0.625 0.55664,-1.870117 0,-1.230469 -0.54199,-1.835938 -0.53711,-0.605468 -1.43067,-0.605468 -0.89355,0 -1.44043,0.615234 -0.54687,0.610352 -0.54687,1.845703 z m 6.58691,3.583984 V 11.43457 h 3.04199 q 1.14746,0 1.66504,0.195313 0.52246,0.19043 0.83496,0.683594 0.3125,0.493164 0.3125,1.127929 0,0.805664 -0.47363,1.333008 -0.47363,0.522461 -1.41602,0.65918 0.46875,0.273437 0.77149,0.600586 0.30762,0.327148 0.82519,1.162109 l 0.87403,1.396484 h -1.72852 l -1.04492,-1.557617 q -0.55664,-0.834961 -0.76172,-1.049804 -0.20508,-0.219727 -0.43457,-0.297852 -0.22949,-0.08301 -0.72754,-0.08301 h -0.29297 v 2.988281 z m 1.44531,-4.130859 h 1.06934 q 1.04004,0 1.29883,-0.08789 0.25879,-0.08789 0.40527,-0.302734 0.14648,-0.214844 0.14648,-0.537109 0,-0.361328 -0.19531,-0.581055 -0.19043,-0.224609 -0.54199,-0.283203 -0.17578,-0.02441 -1.05469,-0.02441 h -1.12793 z m 5.77149,4.130859 V 11.43457 h 5.30761 v 1.210938 h -3.8623 v 1.586914 h 3.59375 v 1.206055 h -3.59375 v 1.948242 h 3.99902 v 1.206054 z"
     id="text2"
     style="fill:none;stroke:none"
     aria-label="SWARM CORE" />
  <!-- Sub-label -->
  <path
     d="m 77.575439,35.814941 h -0.5708 v -5.010742 h 0.615234 v 1.787598 q 0.389648,-0.48877 0.994629,-0.48877 0.334961,0 0.632324,0.136719 0.300781,0.133301 0.492188,0.379395 0.194824,0.242675 0.304199,0.58789 0.109375,0.345215 0.109375,0.738281 0,0.933106 -0.461426,1.442383 -0.461426,0.509278 -1.107422,0.509278 -0.642578,0 -1.008301,-0.536621 z m -0.0068,-1.842285 q 0,0.652832 0.177734,0.94336 0.290527,0.475097 0.786133,0.475097 0.40332,0 0.697265,-0.348633 0.293946,-0.35205 0.293946,-1.045898 0,-0.710937 -0.283692,-1.049316 -0.280273,-0.338379 -0.680176,-0.338379 -0.40332,0 -0.697265,0.35205 -0.293945,0.348633 -0.293945,1.011719 z m 3.335937,-2.460937 v -0.70752 h 0.615234 v 0.70752 z m 0,4.303222 v -3.629882 h 0.615234 v 3.629882 z M 82.227295,34 q 0,-1.008301 0.560547,-1.493652 0.468262,-0.403321 1.141601,-0.403321 0.748536,0 1.223633,0.492188 0.475098,0.488769 0.475098,1.353515 0,0.700684 -0.211914,1.104004 -0.208496,0.399903 -0.611817,0.622071 -0.399902,0.222168 -0.875,0.222168 -0.762207,0 -1.233886,-0.48877 Q 82.227295,34.919434 82.227295,34 Z m 0.632324,0 q 0,0.697266 0.304199,1.045898 0.3042,0.345215 0.765625,0.345215 0.458008,0 0.762207,-0.348633 0.3042,-0.348632 0.3042,-1.062988 0,-0.67334 -0.307618,-1.018555 -0.304199,-0.348632 -0.758789,-0.348632 -0.461425,0 -0.765625,0.345215 Q 82.859619,33.302734 82.859619,34 Z m 3.250488,0.311035 v -0.618652 h 1.890137 v 0.618652 z m 4.938965,1.056152 q -0.341797,0.290528 -0.659668,0.410157 -0.314453,0.119629 -0.676758,0.119629 -0.598144,0 -0.919433,-0.290528 -0.321289,-0.293945 -0.321289,-0.748535 0,-0.266601 0.119629,-0.485351 0.123047,-0.222168 0.317871,-0.355469 0.198242,-0.133301 0.444336,-0.20166 0.181152,-0.04785 0.546875,-0.09228 0.745117,-0.08887 1.097168,-0.211915 0.0034,-0.126464 0.0034,-0.160644 0,-0.375977 -0.174317,-0.529785 -0.23584,-0.208496 -0.700683,-0.208496 -0.434082,0 -0.642578,0.153808 -0.205079,0.150391 -0.3042,0.536621 l -0.601562,-0.08203 q 0.08203,-0.38623 0.270019,-0.62207 0.187989,-0.239258 0.543457,-0.365723 0.355469,-0.129883 0.823731,-0.129883 0.464844,0 0.755371,0.109375 0.290527,0.109375 0.427246,0.276856 0.136719,0.164062 0.191406,0.416992 0.03076,0.157227 0.03076,0.567383 v 0.820312 q 0,0.85791 0.0376,1.086914 0.04102,0.225586 0.157226,0.434082 h -0.642578 q -0.0957,-0.191406 -0.123047,-0.447754 z m -0.05127,-1.374023 q -0.334961,0.136719 -1.004883,0.232422 -0.379395,0.05469 -0.536621,0.123047 -0.157227,0.06836 -0.242676,0.20166 -0.08545,0.129883 -0.08545,0.290527 0,0.246094 0.18457,0.410157 0.187988,0.164062 0.546875,0.164062 0.355469,0 0.632324,-0.153809 0.276856,-0.157226 0.406739,-0.427246 0.09912,-0.208496 0.09912,-0.615234 z m 3.944336,0.492188 0.60498,0.07861 q -0.09912,0.625488 -0.509277,0.980957 -0.406738,0.352051 -1.001465,0.352051 -0.745117,0 -1.199707,-0.485352 -0.451172,-0.488769 -0.451172,-1.397949 0,-0.587891 0.194824,-1.028809 0.194824,-0.440918 0.591309,-0.659668 0.399902,-0.222168 0.868164,-0.222168 0.591309,0 0.967285,0.300782 0.375977,0.297363 0.481934,0.847656 l -0.598145,0.09228 q -0.08545,-0.365723 -0.304199,-0.550293 -0.215332,-0.18457 -0.522949,-0.18457 -0.464844,0 -0.755371,0.334961 -0.290528,0.331543 -0.290528,1.052734 0,0.731445 0.280274,1.062988 0.280273,0.331543 0.731445,0.331543 0.362305,0 0.60498,-0.222168 0.242676,-0.222168 0.307618,-0.683593 z M 95.844482,34 q 0,-1.008301 0.560547,-1.493652 0.468262,-0.403321 1.141602,-0.403321 0.748535,0 1.223633,0.492188 0.475097,0.488769 0.475097,1.353515 0,0.700684 -0.211914,1.104004 -0.208496,0.399903 -0.611816,0.622071 -0.399902,0.222168 -0.875,0.222168 -0.762207,0 -1.233887,-0.48877 Q 95.844482,34.919434 95.844482,34 Z m 0.632325,0 q 0,0.697266 0.304199,1.045898 0.304199,0.345215 0.765625,0.345215 0.458008,0 0.762207,-0.348633 0.304199,-0.348632 0.304199,-1.062988 0,-0.67334 -0.307617,-1.018555 -0.304199,-0.348632 -0.758789,-0.348632 -0.461426,0 -0.765625,0.345215 Q 96.476807,33.302734 96.476807,34 Z m 5.868653,1.814941 v -0.533203 q -0.42383,0.615235 -1.15186,0.615235 -0.32129,0 -0.60156,-0.123047 -0.27685,-0.123047 -0.41357,-0.307617 -0.1333,-0.187989 -0.187991,-0.458008 -0.0376,-0.181153 -0.0376,-0.574219 v -2.249023 h 0.615239 v 2.013183 q 0,0.481934 0.0376,0.649414 0.0581,0.242676 0.2461,0.382813 0.18798,0.136718 0.46484,0.136718 0.27686,0 0.51953,-0.140136 0.24268,-0.143555 0.3418,-0.386231 0.10254,-0.246093 0.10254,-0.710937 v -1.944824 h 0.61523 v 3.629882 z m 1.26807,-1.083496 0.60839,-0.0957 q 0.0513,0.365723 0.2837,0.560547 0.23584,0.194824 0.65625,0.194824 0.42382,0 0.6289,-0.170898 0.20508,-0.174317 0.20508,-0.406738 0,-0.208497 -0.18115,-0.328125 -0.12647,-0.08203 -0.62891,-0.208497 -0.67676,-0.170898 -0.93994,-0.293945 -0.25977,-0.126465 -0.39648,-0.345215 -0.13331,-0.222168 -0.13331,-0.488769 0,-0.242676 0.10938,-0.447754 0.11279,-0.208496 0.3042,-0.345215 0.14355,-0.105957 0.38965,-0.177734 0.24951,-0.0752 0.5332,-0.0752 0.42725,0 0.74854,0.123047 0.3247,0.123047 0.47851,0.334961 0.15381,0.208496 0.21192,0.560547 l -0.60157,0.08203 q -0.041,-0.280273 -0.23926,-0.4375 -0.19482,-0.157226 -0.55371,-0.157226 -0.42382,0 -0.60498,0.140136 -0.18115,0.140137 -0.18115,0.328125 0,0.119629 0.0752,0.215332 0.0752,0.09912 0.23584,0.164063 0.0923,0.03418 0.54345,0.157227 0.65284,0.174316 0.90918,0.287109 0.25977,0.109375 0.40674,0.321289 0.14697,0.211914 0.14697,0.526367 0,0.307617 -0.18115,0.581055 -0.17773,0.270019 -0.51611,0.42041 -0.33838,0.146973 -0.76563,0.146973 -0.70752,0 -1.08007,-0.293946 -0.36915,-0.293945 -0.47168,-0.871582 z m 5.08935,0.533203 0.0889,0.543457 q -0.25977,0.05469 -0.46485,0.05469 -0.33496,0 -0.51953,-0.105957 -0.18457,-0.105957 -0.25976,-0.276856 -0.0752,-0.174316 -0.0752,-0.728027 v -2.088379 h -0.45117 v -0.478515 h 0.45117 v -0.898926 l 0.61182,-0.369141 v 1.268067 h 0.61865 v 0.478515 h -0.61865 v 2.122559 q 0,0.263183 0.0308,0.338379 0.0342,0.07519 0.10596,0.119629 0.0752,0.04443 0.21191,0.04443 0.10254,0 0.27002,-0.02393 z m 0.60498,-3.752929 v -0.70752 h 0.61524 v 0.70752 z m 0,4.303222 v -3.629882 h 0.61524 v 3.629882 z m 3.92041,-1.329589 0.60498,0.07861 q -0.0991,0.625488 -0.50928,0.980957 -0.40673,0.352051 -1.00146,0.352051 -0.74512,0 -1.19971,-0.485352 -0.45117,-0.488769 -0.45117,-1.397949 0,-0.587891 0.19483,-1.028809 0.19482,-0.440918 0.5913,-0.659668 0.39991,-0.222168 0.86817,-0.222168 0.59131,0 0.96728,0.300782 0.37598,0.297363 0.48194,0.847656 l -0.59815,0.09228 q -0.0855,-0.365723 -0.3042,-0.550293 -0.21533,-0.18457 -0.52295,-0.18457 -0.46484,0 -0.75537,0.334961 -0.29052,0.331543 -0.29052,1.052734 0,0.731445 0.28027,1.062988 0.28027,0.331543 0.73144,0.331543 0.36231,0 0.60498,-0.222168 0.24268,-0.222168 0.30762,-0.683593 z m 2.83008,0.246093 0.6084,-0.0957 q 0.0513,0.365723 0.28369,0.560547 0.23584,0.194824 0.65625,0.194824 0.42383,0 0.62891,-0.170898 0.20507,-0.174317 0.20507,-0.406738 0,-0.208497 -0.18115,-0.328125 -0.12646,-0.08203 -0.6289,-0.208497 -0.67676,-0.170898 -0.93995,-0.293945 -0.25976,-0.126465 -0.39648,-0.345215 -0.1333,-0.222168 -0.1333,-0.488769 0,-0.242676 0.10937,-0.447754 0.1128,-0.208496 0.3042,-0.345215 0.14356,-0.105957 0.38965,-0.177734 0.24951,-0.0752 0.5332,-0.0752 0.42725,0 0.74854,0.123047 0.32471,0.123047 0.47852,0.334961 0.1538,0.208496 0.21191,0.560547 l -0.60156,0.08203 q -0.041,-0.280273 -0.23926,-0.4375 -0.19483,-0.157226 -0.55371,-0.157226 -0.42383,0 -0.60498,0.140136 -0.18115,0.140137 -0.18115,0.328125 0,0.119629 0.0752,0.215332 0.0752,0.09912 0.23584,0.164063 0.0923,0.03418 0.54346,0.157227 0.65283,0.174316 0.90918,0.287109 0.25976,0.109375 0.40674,0.321289 0.14697,0.211914 0.14697,0.526367 0,0.307617 -0.18115,0.581055 -0.17774,0.270019 -0.51612,0.42041 -0.33838,0.146973 -0.76562,0.146973 -0.70752,0 -1.08008,-0.293946 -0.36914,-0.293945 -0.47168,-0.871582 z m 4.41602,1.083496 -1.11084,-3.629882 h 0.63574 l 0.57763,2.095214 0.21534,0.779297 q 0.0137,-0.0581 0.18798,-0.748535 l 0.57764,-2.125976 h 0.63233 l 0.54345,2.105468 0.18115,0.693848 0.2085,-0.700684 0.62207,-2.098632 h 0.59815 l -1.13477,3.629882 h -0.63916 l -0.57764,-2.173828 -0.14013,-0.618652 -0.73487,2.79248 z m 6.7539,-0.447754 q -0.3418,0.290528 -0.65967,0.410157 -0.31445,0.119629 -0.67675,0.119629 -0.59815,0 -0.91944,-0.290528 -0.32129,-0.293945 -0.32129,-0.748535 0,-0.266601 0.11963,-0.485351 0.12305,-0.222168 0.31787,-0.355469 0.19825,-0.133301 0.44434,-0.20166 0.18115,-0.04785 0.54687,-0.09228 0.74512,-0.08887 1.09717,-0.211915 0.003,-0.126464 0.003,-0.160644 0,-0.375977 -0.17432,-0.529785 -0.23584,-0.208496 -0.70068,-0.208496 -0.43408,0 -0.64258,0.153808 -0.20508,0.150391 -0.3042,0.536621 l -0.60156,-0.08203 q 0.082,-0.38623 0.27002,-0.62207 0.18799,-0.239258 0.54346,-0.365723 0.35547,-0.129883 0.82373,-0.129883 0.46484,0 0.75537,0.109375 0.29053,0.109375 0.42724,0.276856 0.13672,0.164062 0.19141,0.416992 0.0308,0.157227 0.0308,0.567383 v 0.820312 q 0,0.85791 0.0376,1.086914 0.041,0.225586 0.15723,0.434082 h -0.64258 q -0.0957,-0.191406 -0.12305,-0.447754 z m -0.0513,-1.374023 q -0.33496,0.136719 -1.00488,0.232422 -0.3794,0.05469 -0.53662,0.123047 -0.15723,0.06836 -0.24268,0.20166 -0.0854,0.129883 -0.0854,0.290527 0,0.246094 0.18457,0.410157 0.18799,0.164062 0.54688,0.164062 0.35547,0 0.63232,-0.153809 0.27686,-0.157226 0.40674,-0.427246 0.0991,-0.208496 0.0991,-0.615234 z m 1.56885,1.821777 v -3.629882 h 0.55371 v 0.550293 q 0.21191,-0.386231 0.38965,-0.509278 0.18115,-0.123047 0.39648,-0.123047 0.31104,0 0.63233,0.198243 l -0.21192,0.5708 q -0.22558,-0.1333 -0.45117,-0.1333 -0.20166,0 -0.3623,0.123046 -0.16065,0.119629 -0.22901,0.334961 -0.10254,0.328125 -0.10254,0.717774 v 1.90039 z m 2.33789,0 v -3.629882 h 0.55029 v 0.509277 q 0.1709,-0.266602 0.45459,-0.427246 0.28369,-0.164063 0.646,-0.164063 0.40332,0 0.65967,0.167481 0.25976,0.16748 0.36572,0.468262 0.43066,-0.635743 1.12109,-0.635743 0.54004,0 0.83057,0.300782 0.29053,0.297363 0.29053,0.919433 v 2.491699 h -0.61182 V 33.52832 q 0,-0.36914 -0.0615,-0.529785 -0.0581,-0.164062 -0.21533,-0.263183 -0.15723,-0.09912 -0.36915,-0.09912 -0.38281,0 -0.63574,0.256348 -0.25293,0.25293 -0.25293,0.813477 v 2.108886 h -0.61523 v -2.358398 q 0,-0.410156 -0.15039,-0.615234 -0.15039,-0.205079 -0.49219,-0.205079 -0.25977,0 -0.48193,0.136719 -0.21875,0.136719 -0.31787,0.399903 -0.0991,0.263183 -0.0991,0.758789 v 1.8833 z"
     id="text3"
     style="fill:none;stroke:none"
     aria-label="bio-acoustic swarm" />
  <!-- ─── Row 1: SPECIMEN + PITCH ─── -->
  <!-- ─── Row 2: DENSITY + SCATTER ─── -->
  <!-- ─── Row 3: DETUNE + DECAY ─── -->
  <!-- MODE label for swarm button -->
  <path
     d="m 138.88951,189.663 q 0,0.665 -0.483,1.036 -0.483,0.371 -1.302,0.371 -0.42,0 -0.777,-0.063 -0.357,-0.063 -0.595,-0.175 v -0.602 q 0.252,0.112 0.623,0.203 0.378,0.091 0.777,0.091 0.56,0 0.84,-0.217 0.287,-0.217 0.287,-0.588 0,-0.245 -0.105,-0.413 -0.105,-0.168 -0.364,-0.308 -0.252,-0.147 -0.707,-0.308 -0.637,-0.231 -0.966,-0.567 -0.322,-0.336 -0.322,-0.917 0,-0.399 0.203,-0.679 0.203,-0.287 0.56,-0.441 0.364,-0.154 0.833,-0.154 0.413,0 0.756,0.077 0.343,0.077 0.623,0.203 l -0.196,0.539 q -0.259,-0.112 -0.567,-0.189 -0.301,-0.077 -0.63,-0.077 -0.469,0 -0.707,0.203 -0.238,0.196 -0.238,0.525 0,0.252 0.105,0.42 0.105,0.168 0.343,0.301 0.238,0.133 0.644,0.287 0.441,0.161 0.742,0.35 0.308,0.182 0.462,0.441 0.161,0.259 0.161,0.651 z m 6.74799,-3.661 -1.33,4.998 h -0.637 l -0.973,-3.276 q -0.056,-0.203 -0.112,-0.406 -0.056,-0.203 -0.091,-0.357 -0.035,-0.161 -0.049,-0.224 -0.007,0.091 -0.077,0.392 -0.063,0.294 -0.161,0.616 l -0.945,3.255 h -0.637 l -1.323,-4.998 h 0.658 l 0.777,3.052 q 0.084,0.322 0.14,0.623 0.063,0.301 0.098,0.567 0.035,-0.273 0.105,-0.595 0.07,-0.322 0.161,-0.63 l 0.882,-3.017 h 0.651 l 0.917,3.038 q 0.098,0.322 0.168,0.644 0.07,0.315 0.105,0.56 0.035,-0.259 0.098,-0.56 0.063,-0.308 0.147,-0.637 l 0.77,-3.045 z m 3.626,4.998 -0.602,-1.547 h -1.981 l -0.595,1.547 h -0.637 l 1.953,-5.019 h 0.567 l 1.946,5.019 z m -1.351,-3.619 q -0.021,-0.056 -0.07,-0.203 -0.049,-0.147 -0.098,-0.301 -0.042,-0.161 -0.07,-0.245 -0.049,0.217 -0.112,0.427 -0.063,0.203 -0.105,0.322 l -0.567,1.512 h 1.582 z m 4.067,-1.379 q 0.931,0 1.372,0.357 0.448,0.35 0.448,1.064 0,0.399 -0.147,0.665 -0.147,0.266 -0.378,0.427 -0.224,0.154 -0.476,0.245 l 1.372,2.24 h -0.735 l -1.211,-2.065 h -0.994 V 191 h -0.63 v -4.998 z m -0.035,0.546 h -0.714 v 1.855 h 0.749 q 0.609,0 0.889,-0.238 0.28,-0.245 0.28,-0.714 0,-0.49 -0.294,-0.693 -0.294,-0.21 -0.91,-0.21 z m 5.215,4.452 -1.645,-4.382 h -0.028 q 0.021,0.217 0.035,0.588 0.014,0.364 0.014,0.763 V 191 h -0.581 v -4.998 h 0.931 l 1.54,4.095 h 0.028 l 1.568,-4.095 h 0.924 V 191 h -0.623 v -3.073 q 0,-0.364 0.014,-0.721 0.021,-0.357 0.035,-0.581 h -0.028 l -1.666,4.375 z"
     id="text10"
     style="fill:none;stroke:none"
     transform="translate(0,112)"
     aria-label="SWARM" />
  <!-- Separator line -->
  <path
     id="line10"
     style="opacity:0.6;stroke:#ff4a0e;stroke-width:0.5"
     d="M 16,315 H 254" />
  <!-- ─── I/O labels ─── -->
  <!-- Input section -->
  <!-- Output section -->
  <!-- V/OCT CV jack labels (small, under main knob) -->
  <!-- Screws (corner markers — actual screw widgets placed in C++) -->
  <path
     id="circle15"
     style="fill:#2a3a2a"
     d="M 11,7.5 A 3.5,3.5 0 0 1 7.5,11 3.5,3.5 0 0 1 4,7.5 3.5,3.5 0 0 1 7.5,4 3.5,3.5 0 0 1 11,7.5 Z" />
  <path
     id="circle16"
     style="fill:#2a3a2a"
     d="M 266,7.5 A 3.5,3.5 0 0 1 262.5,11 3.5,3.5 0 0 1 259,7.5 3.5,3.5 0 0 1 262.5,4 3.5,3.5 0 0 1 266,7.5 Z" />
  <path
     id="circle17"
     style="fill:#2a3a2a"
     d="M 11,372.5 A 3.5,3.5 0 0 1 7.5,376 3.5,3.5 0 0 1 4,372.5 3.5,3.5 0 0 1 7.5,369 3.5,3.5 0 0 1 11,372.5 Z" />
  <path
     id="circle18"
     style="fill:#2a3a2a"
     d="m 266,372.5 a 3.5,3.5 0 0 1 -3.5,3.5 3.5,3.5 0 0 1 -3.5,-3.5 3.5,3.5 0 0 1 3.5,-3.5 3.5,3.5 0 0 1 3.5,3.5 z" />
  <!-- Brand footer -->
  <path d="m 61.150003,48.844999 q 0,0.475 -0.345,0.74 -0.345,0.265 -0.93,0.265 -0.3,0 -0.555,-0.045 -0.255,-0.045 -0.425,-0.125 v -0.43 q 0.18,0.08 0.445,0.145 0.27,0.065 0.555,0.065 0.4,0 0.6,-0.155 0.205,-0.155 0.205,-0.42 0,-0.175 -0.075,-0.295 -0.075,-0.12 -0.26,-0.22 -0.18,-0.105 -0.505,-0.22 -0.455,-0.165 -0.69,-0.405 -0.23,-0.24 -0.23,-0.655 0,-0.285 0.145,-0.485 0.145,-0.205 0.4,-0.315 0.26,-0.11 0.595,-0.11 0.295,0 0.54,0.055 0.245,0.055 0.445,0.145 l -0.14,0.385 q -0.185,-0.08 -0.405,-0.135 -0.215,-0.055 -0.45,-0.055 -0.335,0 -0.505,0.145 -0.17,0.14 -0.17,0.375 0,0.18 0.075,0.3 0.075,0.12 0.245,0.215 0.17,0.095 0.46,0.205 0.315,0.115 0.53,0.25 0.22,0.13 0.33,0.315 0.115,0.185 0.115,0.465 z m 1.664999,-2.615 q 0.7,0 1.02,0.275 0.32,0.275 0.32,0.775 0,0.295 -0.135,0.555 -0.13,0.255 -0.445,0.415 -0.31,0.16 -0.845,0.16 h -0.41 v 1.39 h -0.45 v -3.57 z m -0.04,0.385 h -0.455 v 1.41 h 0.36 q 0.51,0 0.76,-0.165 0.25,-0.165 0.25,-0.56 0,-0.345 -0.22,-0.515 -0.22,-0.17 -0.695,-0.17 z m 4.114998,3.185 h -1.995 v -3.57 h 1.995 v 0.395 h -1.545 v 1.115 H 66.8 v 0.39 h -1.455 v 1.275 h 1.545 z m 2.314999,-3.225 q -0.575,0 -0.905,0.385 -0.33,0.385 -0.33,1.055 0,0.665 0.305,1.055 0.31,0.385 0.925,0.385 0.235,0 0.445,-0.04 0.21,-0.04 0.41,-0.1 v 0.39 q -0.2,0.075 -0.415,0.11 -0.21,0.035 -0.505,0.035 -0.545,0 -0.91,-0.225 -0.365,-0.225 -0.55,-0.64 -0.18,-0.415 -0.18,-0.975 0,-0.54 0.195,-0.95 0.2,-0.415 0.585,-0.645 0.385,-0.235 0.935,-0.235 0.565,0 0.985,0.21 l -0.18,0.38 q -0.165,-0.075 -0.37,-0.135 -0.2,-0.06 -0.44,-0.06 z m 2.634999,3.225 h -1.29 v -0.26 l 0.42,-0.095 v -2.855 l -0.42,-0.1 v -0.26 h 1.29 v 0.26 l -0.42,0.1 v 2.855 l 0.42,0.095 z m 2.265004,0 -1.175,-3.13 h -0.02 q 0.015,0.155 0.025,0.42 0.01,0.26 0.01,0.545 v 2.165 h -0.415 v -3.57 h 0.665 l 1.1,2.925 h 0.02 l 1.12,-2.925 h 0.66 v 3.57 h -0.445 v -2.195 q 0,-0.26 0.01,-0.515 0.015,-0.255 0.025,-0.415 h -0.02 l -1.19,3.125 z m 4.954998,0 h -1.995 v -3.57 h 1.995 v 0.395 h -1.545 v 1.115 h 1.455 v 0.39 h -1.455 v 1.275 h 1.545 z m 3.614999,0 h -0.525 l -1.91,-2.965 h -0.02 q 0.01,0.175 0.025,0.435 0.015,0.26 0.015,0.535 v 1.995 h -0.415 v -3.57 h 0.52 l 1.905,2.955 h 0.02 q -0.005,-0.08 -0.015,-0.24 -0.005,-0.16 -0.015,-0.35 -0.005,-0.19 -0.005,-0.35 v -2.015 h 0.42 z" style="font-family:'Nunito Sans', sans-serif;fill:#c8c0b0" aria-label="SPECIMEN" id="added_specimen_0" />
  <path d="m 192.09751,46.229999 q 0.7,0 1.02,0.275 0.32,0.275 0.32,0.775 0,0.295 -0.135,0.555 -0.13,0.255 -0.445,0.415 -0.31,0.16 -0.845,0.16 h -0.41 v 1.39 h -0.45 v -3.57 z m -0.04,0.385 h -0.455 v 1.41 h 0.36 q 0.51,0 0.76,-0.165 0.25,-0.165 0.25,-0.56 0,-0.345 -0.22,-0.515 -0.22,-0.17 -0.695,-0.17 z m 3.12499,3.185 h -1.29 v -0.26 l 0.42,-0.095 v -2.855 l -0.42,-0.1 v -0.26 h 1.29 v 0.26 l -0.42,0.1 v 2.855 l 0.42,0.095 z m 1.82001,0 h -0.45 v -3.175 h -1.115 v -0.395 h 2.675 v 0.395 h -1.11 z m 3.07999,-3.225 q -0.575,0 -0.905,0.385 -0.33,0.385 -0.33,1.055 0,0.665 0.305,1.055 0.31,0.385 0.925,0.385 0.235,0 0.445,-0.04 0.21,-0.04 0.41,-0.1 v 0.39 q -0.2,0.075 -0.415,0.11 -0.21,0.035 -0.505,0.035 -0.545,0 -0.91,-0.225 -0.365,-0.225 -0.55,-0.64 -0.18,-0.415 -0.18,-0.975 0,-0.54 0.195,-0.95 0.2,-0.415 0.585,-0.645 0.385,-0.235 0.935,-0.235 0.565,0 0.985,0.21 l -0.18,0.38 q -0.165,-0.075 -0.37,-0.135 -0.2,-0.06 -0.44,-0.06 z m 4.36,3.225 h -0.45 v -1.665 h -1.83 v 1.665 h -0.45 v -3.57 h 0.45 v 1.51 h 1.83 v -1.51 h 0.45 z" style="font-family:'Nunito Sans', sans-serif;fill:#c8c0b0" aria-label="PITCH" id="added_pitch_0" />
  <path d="m 64.105002,148.38 q 0,0.905 -0.495,1.365 -0.49,0.455 -1.37,0.455 h -0.995 v -3.57 h 1.1 q 0.54,0 0.935,0.2 0.395,0.2 0.61,0.59 0.215,0.385 0.215,0.96 z m -0.475,0.015 q 0,-0.715 -0.355,-1.045 -0.35,-0.335 -0.995,-0.335 h -0.585 v 2.8 h 0.485 q 1.45,0 1.45,-1.42 z M 66.89,150.2 h -1.995 v -3.57 h 1.995 v 0.395 h -1.545 v 1.115 H 66.8 v 0.39 h -1.455 v 1.275 h 1.545 z m 3.614999,0 h -0.525 l -1.91,-2.965 h -0.02 q 0.01,0.175 0.025,0.435 0.015,0.26 0.015,0.535 v 1.995 h -0.415 v -3.57 h 0.52 l 1.905,2.955 h 0.02 q -0.005,-0.08 -0.015,-0.24 -0.005,-0.16 -0.015,-0.35 -0.005,-0.19 -0.005,-0.35 v -2.015 h 0.42 z M 73.5,149.245 q 0,0.475 -0.345,0.74 -0.345,0.265 -0.93,0.265 -0.3,0 -0.555,-0.045 -0.255,-0.045 -0.425,-0.125 v -0.43 q 0.18,0.08 0.445,0.145 0.27,0.065 0.555,0.065 0.4,0 0.6,-0.155 0.205,-0.155 0.205,-0.42 0,-0.175 -0.075,-0.295 -0.075,-0.12 -0.26,-0.22 -0.18,-0.105 -0.505,-0.22 -0.455,-0.165 -0.69,-0.405 -0.23,-0.24 -0.23,-0.655 0,-0.285 0.145,-0.485 0.145,-0.205 0.4,-0.315 0.26,-0.11 0.595,-0.11 0.295,0 0.54,0.055 0.245,0.055 0.445,0.145 l -0.14,0.385 q -0.185,-0.08 -0.405,-0.135 -0.215,-0.055 -0.45,-0.055 -0.335,0 -0.505,0.145 -0.17,0.14 -0.17,0.375 0,0.18 0.075,0.3 0.075,0.12 0.245,0.215 0.17,0.095 0.46,0.205 0.315,0.115 0.53,0.25 0.22,0.13 0.33,0.315 0.115,0.185 0.115,0.465 z m 1.724999,0.955 h -1.29 v -0.26 l 0.42,-0.095 v -2.855 l -0.42,-0.1 v -0.26 h 1.29 v 0.26 l -0.42,0.1 v 2.855 l 0.42,0.095 z m 1.820003,0 h -0.45 v -3.175 h -1.115 v -0.395 h 2.675 v 0.395 h -1.11 z m 2.579999,-1.815 0.93,-1.755 h 0.485 l -1.19,2.185 v 1.385 h -0.45 v -1.365 l -1.19,-2.205 h 0.49 z" style="font-family:'Nunito Sans', sans-serif;fill:#c8c0b0" aria-label="DENSITY" id="added_density_0" />
  <path d="m 190.16,149.245 q 0,0.475 -0.345,0.74 -0.345,0.265 -0.93,0.265 -0.3,0 -0.555,-0.045 -0.255,-0.045 -0.425,-0.125 v -0.43 q 0.18,0.08 0.445,0.145 0.27,0.065 0.555,0.065 0.4,0 0.6,-0.155 0.205,-0.155 0.205,-0.42 0,-0.175 -0.075,-0.295 -0.075,-0.12 -0.26,-0.22 -0.18,-0.105 -0.505,-0.22 -0.455,-0.165 -0.69,-0.405 -0.23,-0.24 -0.23,-0.655 0,-0.285 0.145,-0.485 0.145,-0.205 0.4,-0.315 0.26,-0.11 0.595,-0.11 0.295,0 0.54,0.055 0.245,0.055 0.445,0.145 l -0.14,0.385 q -0.185,-0.08 -0.405,-0.135 -0.215,-0.055 -0.45,-0.055 -0.335,0 -0.505,0.145 -0.17,0.14 -0.17,0.375 0,0.18 0.075,0.3 0.075,0.12 0.245,0.215 0.17,0.095 0.46,0.205 0.315,0.115 0.53,0.25 0.22,0.13 0.33,0.315 0.115,0.185 0.115,0.465 z m 2.25,-2.27 q -0.575,0 -0.905,0.385 -0.33,0.385 -0.33,1.055 0,0.665 0.305,1.055 0.31,0.385 0.925,0.385 0.235,0 0.445,-0.04 0.21,-0.04 0.41,-0.1 v 0.39 q -0.2,0.075 -0.415,0.11 -0.21,0.035 -0.505,0.035 -0.545,0 -0.91,-0.225 -0.365,-0.225 -0.55,-0.64 -0.18,-0.415 -0.18,-0.975 0,-0.54 0.195,-0.95 0.2,-0.415 0.585,-0.645 0.385,-0.235 0.935,-0.235 0.565,0 0.985,0.21 l -0.18,0.38 q -0.165,-0.075 -0.37,-0.135 -0.2,-0.06 -0.44,-0.06 z m 3.87,3.225 -0.43,-1.105 h -1.415 l -0.425,1.105 h -0.455 l 1.395,-3.585 h 0.405 l 1.39,3.585 z m -0.965,-2.585 q -0.015,-0.04 -0.05,-0.145 -0.035,-0.105 -0.07,-0.215 -0.03,-0.115 -0.05,-0.175 -0.035,0.155 -0.08,0.305 -0.045,0.145 -0.075,0.23 l -0.405,1.08 h 1.13 z m 2.7,2.585 h -0.45 v -3.175 h -1.115 v -0.395 h 2.675 v 0.395 h -1.11 z m 2.88001,0 h -0.45 v -3.175 h -1.115 v -0.395 h 2.675 v 0.395 h -1.11 z m 3.64499,0 h -1.995 v -3.57 h 1.995 v 0.395 h -1.545 v 1.115 h 1.455 v 0.39 h -1.455 v 1.275 h 1.545 z m 1.77,-3.57 q 0.665,0 0.98,0.255 0.32,0.25 0.32,0.76 0,0.285 -0.105,0.475 -0.105,0.19 -0.27,0.305 -0.16,0.11 -0.34,0.175 l 0.98,1.6 h -0.525 l -0.865,-1.475 h -0.71 v 1.475 h -0.45 v -3.57 z m -0.025,0.39 h -0.51 v 1.325 h 0.535 q 0.435,0 0.635,-0.17 0.2,-0.175 0.2,-0.51 0,-0.35 -0.21,-0.495 -0.21,-0.15 -0.65,-0.15 z" style="font-family:'Nunito Sans', sans-serif;fill:#c8c0b0" aria-label="SCATTER" id="added_scatter_0" />
  <path d="m 64.522502,248.78001 q 0,0.905 -0.495,1.365 -0.49,0.455 -1.37,0.455 h -0.995 v -3.57 h 1.1 q 0.54,0 0.935,0.2 0.395,0.2 0.61,0.59 0.215,0.385 0.215,0.96 z m -0.475,0.015 q 0,-0.715 -0.355,-1.045 -0.35,-0.335 -0.995,-0.335 h -0.585 v 2.8 h 0.485 q 1.45,0 1.45,-1.42 z m 3.259997,1.805 h -1.995 v -3.57 h 1.995 v 0.395 h -1.545 v 1.115 h 1.455 v 0.39 h -1.455 v 1.275 h 1.545 z m 1.914999,0 h -0.45 v -3.175 h -1.115 v -0.395 h 2.675 v 0.395 h -1.11 z m 4.364999,-1.26 q 0,0.37 -0.15,0.67 -0.15,0.295 -0.46,0.47 -0.305,0.17 -0.78,0.17 -0.665,0 -1.015,-0.36 -0.345,-0.365 -0.345,-0.96 v -2.3 h 0.45 v 2.315 q 0,0.435 0.23,0.675 0.235,0.24 0.705,0.24 0.485,0 0.7,-0.255 0.22,-0.26 0.22,-0.665 v -2.31 h 0.445 z m 3.770004,1.26 h -0.525 l -1.91,-2.965 h -0.02 q 0.01,0.175 0.025,0.435 0.015,0.26 0.015,0.535 v 1.995 h -0.415 v -3.57 h 0.52 l 1.905,2.955 h 0.02 q -0.005,-0.08 -0.015,-0.24 -0.005,-0.16 -0.015,-0.35 -0.005,-0.19 -0.005,-0.35 v -2.015 h 0.42 z m 2.965002,0 h -1.995 v -3.57 h 1.995 v 0.395 h -1.545 v 1.115 h 1.455 v 0.39 h -1.455 v 1.275 h 1.545 z" style="font-family:'Nunito Sans', sans-serif;fill:#c8c0b0" aria-label="DETUNE" id="added_detune_0" transform="translate(0,11.8)"/>
  <path d="m 193.4875,248.78001 q 0,0.905 -0.495,1.365 -0.49,0.455 -1.37,0.455 h -0.995 v -3.57 h 1.1 q 0.54,0 0.935,0.2 0.395,0.2 0.61,0.59 0.215,0.385 0.215,0.96 z m -0.475,0.015 q 0,-0.715 -0.355,-1.045 -0.35,-0.335 -0.995,-0.335 h -0.585 v 2.8 h 0.485 q 1.45,0 1.45,-1.42 z m 3.26,1.805 h -1.995 v -3.57 h 1.995 v 0.395 h -1.545 v 1.115 h 1.455 v 0.39 h -1.455 v 1.275 h 1.545 z m 2.315,-3.225 q -0.575,0 -0.905,0.385 -0.33,0.385 -0.33,1.055 0,0.665 0.305,1.055 0.31,0.385 0.925,0.385 0.235,0 0.445,-0.04 0.21,-0.04 0.41,-0.1 v 0.39 q -0.2,0.075 -0.415,0.11 -0.21,0.035 -0.505,0.035 -0.545,0 -0.91,-0.225 -0.365,-0.225 -0.55,-0.64 -0.18,-0.415 -0.18,-0.975 0,-0.54 0.195,-0.95 0.2,-0.415 0.585,-0.645 0.385,-0.235 0.935,-0.235 0.565,0 0.985,0.21 l -0.18,0.38 q -0.165,-0.075 -0.37,-0.135 -0.2,-0.06 -0.44,-0.06 z m 3.87,3.225 -0.43,-1.105 h -1.415 l -0.425,1.105 h -0.455 l 1.395,-3.585 h 0.405 l 1.39,3.585 z m -0.965,-2.585 q -0.015,-0.04 -0.05,-0.145 -0.035,-0.105 -0.07,-0.215 -0.03,-0.115 -0.05,-0.175 -0.035,0.155 -0.08,0.305 -0.045,0.145 -0.075,0.23 l -0.405,1.08 h 1.13 z m 2.55,0.77 0.93,-1.755 h 0.485 l -1.19,2.185 v 1.385 h -0.45 v -1.365 l -1.19,-2.205 h 0.49 z" style="font-family:'Nunito Sans', sans-serif;fill:#c8c0b0" aria-label="DECAY" id="added_decay_0" transform="translate(0,11.8)"/>
  <path d="m 26.142098,349 h -0.378 v -2.667 h -0.9366 v -0.3318 h 2.247 v 0.3318 h -0.9324 z m 2.213399,-2.9988 q 0.5586,0 0.8232,0.2142 0.2688,0.21 0.2688,0.6384 0,0.2394 -0.0882,0.399 -0.0882,0.1596 -0.2268,0.2562 -0.1344,0.0924 -0.2856,0.147 l 0.8232,1.344 h -0.441 l -0.7266,-1.239 h -0.5964 V 349 h -0.378 v -2.9988 z m -0.021,0.3276 h -0.4284 v 1.113 h 0.4494 q 0.3654,0 0.5334,-0.1428 0.168,-0.147 0.168,-0.4284 0,-0.294 -0.1764,-0.4158 -0.1764,-0.126 -0.546,-0.126 z M 30.984696,349 h -1.0836 v -0.2184 l 0.3528,-0.0798 v -2.3982 l -0.3528,-0.084 v -0.2184 h 1.0836 v 0.2184 l -0.3528,0.084 v 2.3982 l 0.3528,0.0798 z m 1.881603,-1.5834 h 1.0374 v 1.47 q -0.2436,0.0798 -0.4914,0.1176 -0.2478,0.0378 -0.5628,0.0378 -0.4662,0 -0.7854,-0.1848 -0.3192,-0.189 -0.4872,-0.5334 -0.1638,-0.3486 -0.1638,-0.8232 0,-0.4704 0.1848,-0.8148 0.1848,-0.3444 0.5292,-0.5334 0.3486,-0.1932 0.84,-0.1932 0.252,0 0.4746,0.0462 0.2268,0.0462 0.42,0.1302 l -0.1428,0.3276 q -0.1596,-0.0714 -0.3612,-0.1218 -0.1974,-0.0504 -0.4116,-0.0504 -0.5376,0 -0.84,0.3234 -0.2982,0.3234 -0.2982,0.8862 0,0.357 0.1134,0.6342 0.1176,0.273 0.3654,0.4284 0.2478,0.1512 0.651,0.1512 0.1974,0 0.336,-0.021 0.1386,-0.021 0.252,-0.0504 v -0.8904 h -0.6594 z" style="font-family:'Nunito Sans', sans-serif;fill:#887860" aria-label="TRIG" id="added_trig_0" transform="translate(0,8.5)"/>
  <path d="m 63.209696,347.4712 q 0,0.7602 -0.4158,1.1466 -0.4116,0.3822 -1.1508,0.3822 h -0.8358 v -2.9988 h 0.924 q 0.4536,0 0.7854,0.168 0.3318,0.168 0.5124,0.4956 0.1806,0.3234 0.1806,0.8064 z m -0.399,0.0126 q 0,-0.6006 -0.2982,-0.8778 -0.294,-0.2814 -0.8358,-0.2814 h -0.4914 v 2.352 h 0.4074 q 1.218,0 1.218,-1.1928 z M 65.549094,349 h -1.6758 v -2.9988 h 1.6758 v 0.3318 h -1.2978 v 0.9366 h 1.2222 v 0.3276 h -1.2222 v 1.071 h 1.2978 z m 1.608599,0 h -0.378 v -2.667 h -0.9366 v -0.3318 h 2.247 v 0.3318 h -0.9324 z m 3.666599,-1.0584 q 0,0.3108 -0.126,0.5628 -0.126,0.2478 -0.3864,0.3948 -0.2562,0.1428 -0.6552,0.1428 -0.5586,0 -0.8526,-0.3024 -0.2898,-0.3066 -0.2898,-0.8064 v -1.932 h 0.378 v 1.9446 q 0,0.3654 0.1932,0.567 0.1974,0.2016 0.5922,0.2016 0.4074,0 0.588,-0.2142 0.1848,-0.2184 0.1848,-0.5586 v -1.9404 h 0.3738 z M 73.991095,349 h -0.441 l -1.6044,-2.4906 h -0.0168 q 0.0084,0.147 0.021,0.3654 0.0126,0.2184 0.0126,0.4494 V 349 h -0.3486 v -2.9988 h 0.4368 l 1.6002,2.4822 h 0.0168 q -0.0042,-0.0672 -0.0126,-0.2016 -0.0042,-0.1344 -0.0126,-0.294 -0.0042,-0.1596 -0.0042,-0.294 v -1.6926 h 0.3528 z m 2.490601,0 h -1.6758 v -2.9988 h 1.6758 v 0.3318 h -1.2978 v 0.9366 h 1.2222 v 0.3276 h -1.2222 v 1.071 h 1.2978 z m 3.036601,-2.709 q -0.483,0 -0.7602,0.3234 -0.2772,0.3234 -0.2772,0.8862 0,0.5586 0.2562,0.8862 0.2604,0.3234 0.777,0.3234 0.1974,0 0.3738,-0.0336 0.1764,-0.0336 0.3444,-0.084 v 0.3276 q -0.168,0.063 -0.3486,0.0924 -0.1764,0.0294 -0.4242,0.0294 -0.4578,0 -0.7644,-0.189 -0.3066,-0.189 -0.462,-0.5376 -0.1512,-0.3486 -0.1512,-0.819 0,-0.4536 0.1638,-0.798 0.168,-0.3486 0.4914,-0.5418 0.3234,-0.1974 0.7854,-0.1974 0.4746,0 0.8274,0.1764 l -0.1512,0.3192 q -0.1386,-0.063 -0.3108,-0.1134 -0.168,-0.0504 -0.3696,-0.0504 z M 83.000096,346.0012 81.929097,349 h -0.378 l -1.071,-2.9988 h 0.3948 l 0.6762,1.9236 q 0.0672,0.1848 0.1134,0.3486 0.0462,0.1596 0.0756,0.3066 0.0294,-0.147 0.0756,-0.3108 0.0462,-0.1638 0.1134,-0.3528 l 0.671999,-1.9152 z" style="font-family:'Nunito Sans', sans-serif;fill:#887860" aria-label="DETUNE CV" id="added_detune_cv_0" transform="translate(0,8.5)"/>
  <path d="m 110.2515,346.291 q -0.483,0 -0.7602,0.3234 -0.2772,0.3234 -0.2772,0.8862 0,0.5586 0.2562,0.8862 0.2604,0.3234 0.777,0.3234 0.1974,0 0.3738,-0.0336 0.1764,-0.0336 0.3444,-0.084 v 0.3276 q -0.168,0.063 -0.3486,0.0924 -0.1764,0.0294 -0.4242,0.0294 -0.4578,0 -0.7644,-0.189 -0.3066,-0.189 -0.462,-0.5376 -0.1512,-0.3486 -0.1512,-0.819 0,-0.4536 0.1638,-0.798 0.168,-0.3486 0.4914,-0.5418 0.3234,-0.1974 0.7854,-0.1974 0.4746,0 0.8274,0.1764 l -0.1512,0.3192 q -0.1386,-0.063 -0.3108,-0.1134 -0.168,-0.0504 -0.3696,-0.0504 z m 3.4818,-0.2898 -1.071,2.9988 h -0.378 l -1.071,-2.9988 h 0.3948 l 0.6762,1.9236 q 0.0672,0.1848 0.1134,0.3486 0.0462,0.1596 0.0756,0.3066 0.0294,-0.147 0.0756,-0.3108 0.0462,-0.1638 0.1134,-0.3528 l 0.672,-1.9152 z M 116.0769,349 h -1.0836 v -0.2184 l 0.3528,-0.0798 v -2.3982 l -0.3528,-0.084 v -0.2184 h 1.0836 v 0.2184 l -0.3528,0.084 v 2.3982 l 0.3528,0.0798 z m 2.9568,0 h -0.441 l -1.6044,-2.4906 h -0.0168 q 0.008,0.147 0.021,0.3654 0.0126,0.2184 0.0126,0.4494 V 349 h -0.3486 v -2.9988 h 0.4368 l 1.6002,2.4822 h 0.0168 q -0.004,-0.0672 -0.0126,-0.2016 -0.004,-0.1344 -0.0126,-0.294 -0.004,-0.1596 -0.004,-0.294 v -1.6926 h 0.3528 z" style="font-family:'Nunito Sans', sans-serif;fill:#887860" aria-label="CV IN" id="added_cv_in_0" transform="translate(0,8.5)"/>
  <path d="m 153.23479,347.4964 q 0,0.4662 -0.1596,0.8148 -0.1554,0.3444 -0.462,0.5376 -0.3066,0.1932 -0.7602,0.1932 -0.4662,0 -0.777,-0.1932 -0.3066,-0.1932 -0.4578,-0.5418 -0.1512,-0.3486 -0.1512,-0.8148 0,-0.462 0.1512,-0.8064 0.1512,-0.3444 0.4578,-0.5376 0.3108,-0.1932 0.7812,-0.1932 0.4494,0 0.756,0.1932 0.3066,0.189 0.462,0.5376 0.1596,0.3444 0.1596,0.8106 z m -2.3688,0 q 0,0.567 0.2394,0.8946 0.2394,0.3234 0.7476,0.3234 0.5124,0 0.7476,-0.3234 0.2352,-0.3276 0.2352,-0.8946 0,-0.567 -0.2352,-0.8862 -0.2352,-0.3234 -0.7434,-0.3234 -0.5082,0 -0.7518,0.3234 -0.2394,0.3192 -0.2394,0.8862 z m 5.31301,0.4452 q 0,0.3108 -0.126,0.5628 -0.126,0.2478 -0.3864,0.3948 -0.2562,0.1428 -0.6552,0.1428 -0.5586,0 -0.8526,-0.3024 -0.2898,-0.3066 -0.2898,-0.8064 v -1.932 h 0.378 v 1.9446 q 0,0.3654 0.1932,0.567 0.1974,0.2016 0.5922,0.2016 0.4074,0 0.588,-0.2142 0.1848,-0.2184 0.1848,-0.5586 v -1.9404 h 0.3738 z M 157.9178,349 h -0.378 v -2.667 h -0.9366 v -0.3318 h 2.247 v 0.3318 h -0.9324 z m 2.478,0 v -2.9988 h 0.378 v 2.6628 h 1.3104 V 349 Z" style="font-family:'Nunito Sans', sans-serif;fill:#887860" aria-label="OUT L" id="added_out_l_0" transform="translate(0,8.5)"/>
  <path d="m 194.929,347.4964 q 0,0.4662 -0.1596,0.8148 -0.1554,0.3444 -0.462,0.5376 -0.3066,0.1932 -0.7602,0.1932 -0.4662,0 -0.777,-0.1932 -0.3066,-0.1932 -0.4578,-0.5418 -0.1512,-0.3486 -0.1512,-0.8148 0,-0.462 0.1512,-0.8064 0.1512,-0.3444 0.4578,-0.5376 0.3108,-0.1932 0.7812,-0.1932 0.4494,0 0.756,0.1932 0.3066,0.189 0.462,0.5376 0.1596,0.3444 0.1596,0.8106 z m -2.3688,0 q 0,0.567 0.2394,0.8946 0.2394,0.3234 0.7476,0.3234 0.5124,0 0.7476,-0.3234 0.2352,-0.3276 0.2352,-0.8946 0,-0.567 -0.2352,-0.8862 -0.2352,-0.3234 -0.7434,-0.3234 -0.5082,0 -0.7518,0.3234 -0.2394,0.3192 -0.2394,0.8862 z m 5.31301,0.4452 q 0,0.3108 -0.126,0.5628 -0.126,0.2478 -0.3864,0.3948 -0.2562,0.1428 -0.6552,0.1428 -0.5586,0 -0.8526,-0.3024 -0.2898,-0.3066 -0.2898,-0.8064 v -1.932 h 0.378 v 1.9446 q 0,0.3654 0.1932,0.567 0.1974,0.2016 0.5922,0.2016 0.4074,0 0.588,-0.2142 0.1848,-0.2184 0.1848,-0.5586 v -1.9404 h 0.3738 z m 1.7388,1.0584 h -0.378 v -2.667 h -0.9366 v -0.3318 h 2.247 v 0.3318 h -0.9324 z m 3.3054,-2.9988 q 0.5586,0 0.8232,0.2142 0.2688,0.21 0.2688,0.6384 0,0.2394 -0.0882,0.399 -0.0882,0.1596 -0.2268,0.2562 -0.1344,0.0924 -0.2856,0.147 l 0.8232,1.344 h -0.441 l -0.7266,-1.239 h -0.5964 V 349 h -0.378 v -2.9988 z m -0.021,0.3276 h -0.4284 v 1.113 h 0.4494 q 0.3654,0 0.5334,-0.1428 0.168,-0.147 0.168,-0.4284 0,-0.294 -0.1764,-0.4158 -0.1764,-0.126 -0.546,-0.126 z" style="font-family:'Nunito Sans', sans-serif;fill:#887860" aria-label="OUT R" id="added_out_r_0" transform="translate(0,8.5)"/>
  <path d="m 234.5166,346.291 q -0.483,0 -0.7602,0.3234 -0.2772,0.3234 -0.2772,0.8862 0,0.5586 0.2562,0.8862 0.2604,0.3234 0.777,0.3234 0.1974,0 0.3738,-0.0336 0.1764,-0.0336 0.3444,-0.084 v 0.3276 q -0.168,0.063 -0.3486,0.0924 -0.1764,0.0294 -0.4242,0.0294 -0.4578,0 -0.7644,-0.189 -0.3066,-0.189 -0.462,-0.5376 -0.1512,-0.3486 -0.1512,-0.819 0,-0.4536 0.1638,-0.798 0.168,-0.3486 0.4914,-0.5418 0.3234,-0.1974 0.7854,-0.1974 0.4746,0 0.8274,0.1764 l -0.1512,0.3192 q -0.1386,-0.063 -0.3108,-0.1134 -0.168,-0.0504 -0.3696,-0.0504 z m 3.4818,-0.2898 -1.071,2.9988 h -0.378 l -1.071,-2.9988 h 0.3948 l 0.6762,1.9236 q 0.0672,0.1848 0.1134,0.3486 0.0462,0.1596 0.0756,0.3066 0.0294,-0.147 0.0756,-0.3108 0.0462,-0.1638 0.1134,-0.3528 l 0.672,-1.9152 z m 4.116,1.4952 q 0,0.4662 -0.1596,0.8148 -0.1554,0.3444 -0.462,0.5376 -0.3066,0.1932 -0.7602,0.1932 -0.4662,0 -0.777,-0.1932 -0.3066,-0.1932 -0.4578,-0.5418 -0.1512,-0.3486 -0.1512,-0.8148 0,-0.462 0.1512,-0.8064 0.1512,-0.3444 0.4578,-0.5376 0.3108,-0.1932 0.7812,-0.1932 0.4494,0 0.756,0.1932 0.3066,0.189 0.462,0.5376 0.1596,0.3444 0.1596,0.8106 z m -2.3688,0 q 0,0.567 0.2394,0.8946 0.2394,0.3234 0.7476,0.3234 0.5124,0 0.7476,-0.3234 0.2352,-0.3276 0.2352,-0.8946 0,-0.567 -0.2352,-0.8862 -0.2352,-0.3234 -0.7434,-0.3234 -0.5082,0 -0.7518,0.3234 -0.2394,0.3192 -0.2394,0.8862 z m 5.313,0.4452 q 0,0.3108 -0.126,0.5628 -0.126,0.2478 -0.3864,0.3948 -0.2562,0.1428 -0.6552,0.1428 -0.5586,0 -0.8526,-0.3024 -0.2898,-0.3066 -0.2898,-0.8064 v -1.932 h 0.378 v 1.9446 q 0,0.3654 0.1932,0.567 0.1974,0.2016 0.5922,0.2016 0.4074,0 0.588,-0.2142 0.1848,-0.2184 0.1848,-0.5586 v -1.9404 h 0.3738 z M 246.79741,349 h -0.378 v -2.667 h -0.9366 v -0.3318 h 2.247 v 0.3318 h -0.9324 z" style="font-family:'Nunito Sans', sans-serif;fill:#887860" aria-label="CV OUT" id="added_cv_out_0" transform="translate(0,8.5)"/>
  <path d="M 94.4,136.144 93.38,139 H 93.02 L 92,136.144 h 0.376 l 0.644,1.832 q 0.064,0.176 0.108,0.332 0.044,0.152 0.072,0.292 0.028,-0.14 0.072,-0.296 0.044,-0.156 0.108,-0.336 l 0.64,-1.824 z m 1.448002,0 -1.064,2.856 h -0.344 l 1.064,-2.856 z m 2.919998,1.424 q 0,0.444 -0.152,0.776 -0.148,0.328 -0.44,0.512 -0.292,0.184 -0.724,0.184 -0.444,0 -0.74,-0.184 -0.292,-0.184 -0.436,-0.516 -0.144,-0.332 -0.144,-0.776 0,-0.44 0.144,-0.768 0.144,-0.328 0.436,-0.512 0.296,-0.184 0.744,-0.184 0.428,0 0.72,0.184 0.292,0.18 0.44,0.512 0.152,0.328 0.152,0.772 z m -2.256,0 q 0,0.54 0.228,0.852 0.228,0.308 0.712,0.308 0.488,0 0.712,-0.308 0.224,-0.312 0.224,-0.852 0,-0.54 -0.224,-0.844 -0.224,-0.308 -0.708,-0.308 -0.484,0 -0.716,0.308 -0.228,0.304 -0.228,0.844 z m 4.112,-1.148 q -0.46,0 -0.723999,0.308 -0.264,0.308 -0.264,0.844 0,0.532 0.244,0.844 0.247999,0.308 0.739999,0.308 0.188,0 0.356,-0.032 0.168,-0.032 0.328,-0.08 v 0.312 q -0.16,0.06 -0.332,0.088 -0.168,0.028 -0.404,0.028 -0.436,0 -0.727999,-0.18 -0.292,-0.18 -0.44,-0.512 -0.144,-0.332 -0.144,-0.78 0,-0.432 0.156,-0.76 0.16,-0.332 0.468,-0.516 0.307999,-0.188 0.747999,-0.188 0.452,0 0.788,0.168 l -0.144,0.304 q -0.132,-0.06 -0.296,-0.108 -0.16,-0.048 -0.352,-0.048 z m 2.208,2.58 h -0.36 v -2.54 h -0.892 v -0.316 h 2.14 v 0.316 h -0.888 z" style="font-family:'Nunito Sans', sans-serif;fill:#5a7350" aria-label="V/OCT" id="added_v_oct_0" />
  <path d="m 147.18,239 -0.344,-0.884 h -1.132 L 145.364,239 H 145 l 1.116,-2.868 h 0.324 l 1.112,2.868 z m -0.772,-2.068 q -0.012,-0.032 -0.04,-0.116 -0.028,-0.084 -0.056,-0.172 -0.024,-0.092 -0.04,-0.14 -0.028,0.124 -0.064,0.244 -0.036,0.116 -0.06,0.184 l -0.324,0.864 h 0.904 z m 2.68,-0.512 q -0.46,0 -0.724,0.308 -0.264,0.308 -0.264,0.844 0,0.532 0.244,0.844 0.248,0.308 0.74,0.308 0.188,0 0.356,-0.032 0.168,-0.032 0.328,-0.08 v 0.312 q -0.16,0.06 -0.332,0.088 -0.168,0.028 -0.404,0.028 -0.436,0 -0.728,-0.18 -0.292,-0.18 -0.44,-0.512 -0.144,-0.332 -0.144,-0.78 0,-0.432 0.156,-0.76 0.16,-0.332 0.468,-0.516 0.308,-0.188 0.748,-0.188 0.452,0 0.788,0.168 l -0.144,0.304 q -0.132,-0.06 -0.296,-0.108 -0.16,-0.048 -0.352,-0.048 z m 2.208,2.58 h -0.36 v -2.54 h -0.892 v -0.316 h 2.14 v 0.316 h -0.888 z m 2.124,0 h -1.032 v -0.208 l 0.336,-0.076 v -2.284 l -0.336,-0.08 v -0.208 h 1.032 v 0.208 l -0.336,0.08 v 2.284 l 0.336,0.076 z m 2.564,-2.856 -1.02,2.856 h -0.36 l -1.02,-2.856 h 0.376 l 0.644,1.832 q 0.064,0.176 0.108,0.332 0.044,0.152 0.072,0.292 0.028,-0.14 0.072,-0.296 0.044,-0.156 0.108,-0.336 l 0.64,-1.824 z m 1.984,2.856 h -1.596 v -2.856 h 1.596 v 0.316 h -1.236 v 0.892 h 1.164 v 0.312 h -1.164 v 1.02 h 1.236 z" style="font-family:'Nunito Sans', sans-serif;fill:#887860" aria-label="ACTIVE" id="added_active_0" />
  <path d="m 113.52,368 -0.43,-1.105 h -1.415 L 111.25,368 h -0.455 l 1.395,-3.585 h 0.405 l 1.39,3.585 z m -0.965,-2.585 q -0.015,-0.04 -0.05,-0.145 -0.035,-0.105 -0.07,-0.215 -0.03,-0.115 -0.05,-0.175 -0.035,0.155 -0.08,0.305 -0.045,0.145 -0.075,0.23 l -0.405,1.08 h 1.13 z m 3.495,2.585 -1.175,-3.13 h -0.02 q 0.015,0.155 0.025,0.42 0.01,0.26 0.01,0.545 V 368 h -0.415 v -3.57 h 0.665 l 1.1,2.925 h 0.02 l 1.12,-2.925 h 0.66 V 368 h -0.445 v -2.195 q 0,-0.26 0.01,-0.515 0.015,-0.255 0.025,-0.415 h -0.02 L 116.42,368 Z m 3.905,-3.57 q 0.7,0 1.02,0.275 0.32,0.275 0.32,0.775 0,0.295 -0.135,0.555 -0.13,0.255 -0.445,0.415 -0.31,0.16 -0.845,0.16 h -0.41 V 368 h -0.45 v -3.57 z m -0.04,0.385 h -0.455 v 1.41 h 0.36 q 0.51,0 0.76,-0.165 0.25,-0.165 0.25,-0.56 0,-0.345 -0.22,-0.515 -0.22,-0.17 -0.695,-0.17 z m 2.12,3.185 v -3.57 h 0.45 v 3.17 h 1.56 v 0.4 z m 3.625,0 h -1.29 v -0.26 l 0.42,-0.095 v -2.855 l -0.42,-0.1 v -0.26 h 1.29 v 0.26 l -0.42,0.1 v 2.855 l 0.42,0.095 z m 1.14,0 h -0.45 v -3.57 h 1.995 v 0.395 H 126.8 v 1.265 h 1.45 v 0.395 h -1.45 z m 3.15,0 h -1.29 v -0.26 l 0.42,-0.095 v -2.855 l -0.42,-0.1 v -0.26 h 1.29 v 0.26 l -0.42,0.1 v 2.855 l 0.42,0.095 z m 2.685,0 h -1.995 v -3.57 h 1.995 v 0.395 h -1.545 v 1.115 h 1.455 v 0.39 h -1.455 v 1.275 h 1.545 z m 3.645,-1.82 q 0,0.905 -0.495,1.365 -0.49,0.455 -1.37,0.455 h -0.995 v -3.57 h 1.1 q 0.54,0 0.935,0.2 0.395,0.2 0.61,0.59 0.215,0.385 0.215,0.96 z m -0.475,0.015 q 0,-0.715 -0.355,-1.045 -0.35,-0.335 -0.995,-0.335 h -0.585 v 2.8 h 0.485 q 1.45,0 1.45,-1.42 z M 138.82,368 h -0.45 v -3.57 h 1.995 v 0.395 h -1.545 v 1.265 h 1.45 v 0.395 h -1.45 z m 4.85999,-1.26 q 0,0.37 -0.15,0.67 -0.15,0.295 -0.46,0.47 -0.305,0.17 -0.78,0.17 -0.665,0 -1.015,-0.36 -0.345,-0.365 -0.345,-0.96 v -2.3 h 0.45 v 2.315 q 0,0.435 0.23,0.675 0.235,0.24 0.705,0.24 0.485,0 0.7,-0.255 0.22,-0.26 0.22,-0.665 v -2.31 h 0.445 z M 145.75,368 h -0.45 v -3.175 h -1.115 v -0.395 h 2.675 v 0.395 h -1.11 z m 4.365,-1.26 q 0,0.37 -0.15,0.67 -0.15,0.295 -0.46,0.47 -0.305,0.17 -0.78,0.17 -0.665,0 -1.015,-0.36 -0.345,-0.365 -0.345,-0.96 v -2.3 h 0.45 v 2.315 q 0,0.435 0.23,0.675 0.235,0.24 0.705,0.24 0.485,0 0.7,-0.255 0.22,-0.26 0.22,-0.665 v -2.31 h 0.445 z m 1.925,-2.31 q 0.665,0 0.98,0.255 0.32,0.25 0.32,0.76 0,0.285 -0.105,0.475 -0.105,0.19 -0.27,0.305 -0.16,0.11 -0.34,0.175 l 0.98,1.6 h -0.525 l -0.865,-1.475 h -0.71 V 368 h -0.45 v -3.57 z m -0.025,0.39 h -0.51 v 1.325 h 0.535 q 0.435,0 0.635,-0.17 0.2,-0.175 0.2,-0.51 0,-0.35 -0.21,-0.495 -0.21,-0.15 -0.65,-0.15 z m 4.145,3.18 h -1.995 v -3.57 h 1.995 v 0.395 h -1.545 v 1.115 h 1.455 v 0.39 h -1.455 v 1.275 h 1.545 z m 2.81,-0.955 q 0,0.475 -0.345,0.74 -0.345,0.265 -0.93,0.265 -0.3,0 -0.555,-0.045 -0.255,-0.045 -0.425,-0.125 v -0.43 q 0.18,0.08 0.445,0.145 0.27,0.065 0.555,0.065 0.4,0 0.6,-0.155 0.205,-0.155 0.205,-0.42 0,-0.175 -0.075,-0.295 -0.075,-0.12 -0.26,-0.22 -0.18,-0.105 -0.505,-0.22 -0.455,-0.165 -0.69,-0.405 -0.23,-0.24 -0.23,-0.655 0,-0.285 0.145,-0.485 0.145,-0.205 0.4,-0.315 0.26,-0.11 0.595,-0.11 0.295,0 0.54,0.055 0.245,0.055 0.445,0.145 l -0.14,0.385 q -0.185,-0.08 -0.405,-0.135 -0.215,-0.055 -0.45,-0.055 -0.335,0 -0.505,0.145 -0.17,0.14 -0.17,0.375 0,0.18 0.075,0.3 0.075,0.12 0.245,0.215 0.17,0.095 0.46,0.205 0.315,0.115 0.53,0.25 0.22,0.13 0.33,0.315 0.115,0.185 0.115,0.465 z" style="font-family:'Nunito Sans', sans-serif;fill:#5a6a55" aria-label="AMPLIFIED FUTURES" id="added_amplified_futures_0" />
</svg>
