<?xml version="1.0" encoding="UTF-8" standalone="no"?>
<svg
   width="330"
   height="380"
   viewBox="0 0 330 380"
   version="1.1"
   id="svg39"
   xmlns="http://www.w3.org/2000/svg"
   xmlns:svg="http://www.w3.org/2000/svg">
  <defs
     id="defs39" />
  <!-- Body: dark oxidized steel -->
  <rect
     width="330"
     height="380"
     fill="#1F2A1F"
     id="rect1" />
  <!-- Safety orange header -->
  <rect
     width="330"
     height="22"
     fill="#FF4A0E"
     id="rect2" />
  <!-- Title (invisible in VCV Rack; drawn by C++ NanoVG) -->
  <path
     d="m 109.216,8.094 -2.09,7.854 h -1.001 L 104.596,10.8 q -0.088,-0.319 -0.176,-0.638 -0.088,-0.319 -0.143,-0.561 -0.055,-0.253 -0.077,-0.352 -0.011,0.143 -0.121,0.616 -0.099,0.462 -0.253,0.968 l -1.485,5.115 H 101.34 L 99.261004,8.094 H 100.295 l 1.221,4.796 q 0.132,0.506 0.22,0.979 0.099,0.473 0.154,0.891 0.055,-0.429 0.165,-0.935 0.11,-0.506 0.253,-0.99 l 1.386,-4.741 h 1.023 l 1.441,4.774 q 0.154,0.506 0.264,1.012 0.11,0.495 0.165,0.88 0.055,-0.407 0.154,-0.88 0.099,-0.484 0.231,-1.001 l 1.21,-4.785 z m 8.198,7.854 -0.946,-2.431 h -3.113 l -0.935,2.431 h -1.001 l 3.069,-7.887 h 0.891 l 3.058,7.887 z m -2.123,-5.687 q -0.033,-0.088 -0.11,-0.319 -0.077,-0.231 -0.154,-0.473 -0.066,-0.253 -0.11,-0.385 -0.077,0.341 -0.176,0.671 -0.099,0.319 -0.165,0.506 l -0.891,2.376 h 2.486 z m 6.724,5.687 V 8.094 h 0.99 v 6.974 h 3.432 v 0.88 z m 8.264,0 V 8.094 h 0.99 v 6.974 h 3.432 v 0.88 z m 16.99,-7.095 q -1.265,0 -1.991,0.847 -0.726,0.847 -0.726,2.321 0,1.463 0.671,2.321 0.682,0.847 2.035,0.847 0.517,0 0.979,-0.088 0.462,-0.088 0.902,-0.22 v 0.858 q -0.44,0.165 -0.913,0.242 -0.462,0.077 -1.111,0.077 -1.199,0 -2.002,-0.495 -0.803,-0.495 -1.21,-1.408 -0.396,-0.913 -0.396,-2.145 0,-1.188 0.429,-2.09 0.44,-0.913 1.287,-1.419 0.847,-0.517 2.057,-0.517 1.243,0 2.167,0.462 l -0.396,0.836 q -0.363,-0.165 -0.814,-0.297 -0.44,-0.132 -0.968,-0.132 z m 12.719,3.157 q 0,1.221 -0.418,2.134 -0.407,0.902 -1.21,1.408 -0.803,0.506 -1.991,0.506 -1.221,0 -2.035,-0.506 -0.803,-0.506 -1.199,-1.419 -0.396,-0.913 -0.396,-2.134 0,-1.21 0.396,-2.112 0.396,-0.902 1.199,-1.408 0.814,-0.506 2.046,-0.506 1.177,0 1.98,0.506 0.803,0.495 1.21,1.408 0.418,0.902 0.418,2.123 z m -6.204,0 q 0,1.485 0.627,2.343 0.627,0.847 1.958,0.847 1.342,0 1.958,-0.847 0.616,-0.858 0.616,-2.343 0,-1.485 -0.616,-2.321 -0.616,-0.847 -1.947,-0.847 -1.331,0 -1.969,0.847 -0.627,0.836 -0.627,2.321 z m 16.668,3.938 h -1.155 l -4.202,-6.523 h -0.044 q 0.022,0.385 0.055,0.957 0.033,0.572 0.033,1.177 v 4.389 h -0.913 V 8.094 h 1.144 l 4.191,6.501 h 0.044 q -0.011,-0.176 -0.033,-0.528 -0.011,-0.352 -0.033,-0.77 -0.011,-0.418 -0.011,-0.77 V 8.094 h 0.924 z m 10.926,-4.004 q 0,1.991 -1.089,3.003 -1.078,1.001 -3.014,1.001 h -2.189 V 8.094 h 2.42 q 1.188,0 2.057,0.44 0.869,0.44 1.342,1.298 0.473,0.847 0.473,2.112 z m -1.045,0.033 q 0,-1.573 -0.781,-2.299 -0.77,-0.737 -2.189,-0.737 h -1.287 v 6.16 h 1.067 q 3.19,0 3.19,-3.124 z m 11.25599,1.199 q 0,0.814 -0.33,1.474 -0.33,0.649 -1.012,1.034 -0.671,0.374 -1.716,0.374 -1.463,0 -2.233,-0.792 -0.759,-0.803 -0.759,-2.112 v -5.06 h 0.99 v 5.093 q 0,0.957 0.506,1.485 0.517,0.528 1.551,0.528 1.067,0 1.54,-0.561 0.484,-0.572 0.484,-1.463 V 8.094 h 0.979 z M 199.523,8.853 q -1.265,0 -1.991,0.847 -0.726,0.847 -0.726,2.321 0,1.463 0.671,2.321 0.682,0.847 2.035,0.847 0.517,0 0.979,-0.088 0.462,-0.088 0.902,-0.22 v 0.858 q -0.44,0.165 -0.913,0.242 -0.462,0.077 -1.111,0.077 -1.199,0 -2.002,-0.495 -0.803,-0.495 -1.21,-1.408 -0.396,-0.913 -0.396,-2.145 0,-1.188 0.429,-2.09 0.44,-0.913 1.287,-1.419 0.847,-0.517 2.057,-0.517 1.243,0 2.167,0.462 l -0.396,0.836 q -0.363,-0.165 -0.814,-0.297 -0.44,-0.132 -0.968,-0.132 z m 8.57201,7.095 h -0.99 V 8.963 h -2.453 V 8.094 h 5.885 v 0.869 h -2.442 z m 12.76298,-3.938 q 0,1.221 -0.418,2.134 -0.407,0.902 -1.21,1.408 -0.803,0.506 -1.991,0.506 -1.221,0 -2.035,-0.506 -0.803,-0.506 -1.199,-1.419 -0.396,-0.913 -0.396,-2.134 0,-1.21 0.396,-2.112 0.396,-0.902 1.199,-1.408 0.814,-0.506 2.046,-0.506 1.177,0 1.98,0.506 0.803,0.495 1.21,1.408 0.418,0.902 0.418,2.123 z m -6.204,0 q 0,1.485 0.627,2.343 0.627,0.847 1.958,0.847 1.342,0 1.958,-0.847 0.616,-0.858 0.616,-2.343 0,-1.485 -0.616,-2.321 -0.616,-0.847 -1.947,-0.847 -1.331,0 -1.969,0.847 -0.627,0.836 -0.627,2.321 z M 227.263,8.094 q 1.463,0 2.156,0.561 0.704,0.55 0.704,1.672 0,0.627 -0.231,1.045 -0.231,0.418 -0.594,0.671 -0.352,0.242 -0.748,0.385 l 2.156,3.52 h -1.155 l -1.903,-3.245 h -1.562 v 3.245 h -0.99 V 8.094 Z m -0.055,0.858 h -1.122 v 2.915 h 1.177 q 0.957,0 1.397,-0.374 0.44,-0.385 0.44,-1.122 0,-0.77 -0.462,-1.089 -0.462,-0.33 -1.43,-0.33 z"
     id="text2"
     style="font-size:11px;font-family:'Nunito Sans', sans-serif;letter-spacing:2.5;dominant-baseline:middle;text-anchor:middle;fill:#0c100a"
     aria-label="WALL CONDUCTOR" />
  <!-- Section divider lines -->
  <line
     x1="10"
     y1="168"
     x2="320"
     y2="168"
     stroke="#2E3A2E"
     stroke-width="0.75"
     id="line2" />
  <line
     x1="10"
     y1="262"
     x2="320"
     y2="262"
     stroke="#2E3A2E"
     stroke-width="0.75"
     id="line3" />
  <line
     x1="10"
     y1="320"
     x2="320"
     y2="320"
     stroke="#2E3A2E"
     stroke-width="0.75"
     id="line4" />
  <!-- ══════════════════════════════════════════════════════════ -->
  <!-- ROW 1: DENSITY (x=20mm) | PRESSURE (x=56mm) | WIDTH (x=92mm) -->
  <!-- ══════════════════════════════════════════════════════════ -->
  <!-- DENSITY knob + satellite -->
  <circle
     cx="59.1"
     cy="132.9"
     r="6.5"
     fill="#4A4A4A"
     stroke="#787878"
     stroke-width="0.75"
     id="circle4" />
  <circle
     cx="82.7"
     cy="112.2"
     r="4"
     fill="#363636"
     stroke="#666"
     stroke-width="0.5"
     id="circle5" />
  <circle
     cx="82.7"
     cy="153.6"
     r="5"
     fill="#251E0A"
     stroke="#E8C547"
     stroke-width="1.25"
     id="circle6" />
  <!-- PRESSURE knob + satellite -->
  <circle
     cx="165.5"
     cy="132.9"
     r="6.5"
     fill="#4A4A4A"
     stroke="#787878"
     stroke-width="0.75"
     id="circle7" />
  <circle
     cx="189.0"
     cy="112.2"
     r="4"
     fill="#363636"
     stroke="#666"
     stroke-width="0.5"
     id="circle8" />
  <circle
     cx="189.0"
     cy="153.6"
     r="5"
     fill="#251E0A"
     stroke="#E8C547"
     stroke-width="1.25"
     id="circle9" />
  <!-- WIDTH knob + satellite -->
  <circle
     cx="271.8"
     cy="132.9"
     r="6.5"
     fill="#4A4A4A"
     stroke="#787878"
     stroke-width="0.75"
     id="circle10" />
  <circle
     cx="295.3"
     cy="112.2"
     r="4"
     fill="#363636"
     stroke="#666"
     stroke-width="0.5"
     id="circle11" />
  <circle
     cx="295.3"
     cy="153.6"
     r="5"
     fill="#251E0A"
     stroke="#E8C547"
     stroke-width="1.25"
     id="circle12" />
  <!-- Row 1 labels -->
  <path
     d="m 50.266499,144.634 q 0,1.1765 -0.6435,1.7745 -0.637,0.5915 -1.781,0.5915 h -1.2935 v -4.641 h 1.43 q 0.702,0 1.2155,0.26 0.5135,0.26 0.793,0.767 0.2795,0.5005 0.2795,1.248 z m -0.6175,0.0195 q 0,-0.9295 -0.4615,-1.3585 -0.455,-0.4355 -1.2935,-0.4355 h -0.7605 v 3.64 h 0.6305 q 1.885,0 1.885,-1.846 z M 53.886996,147 h -2.5935 v -4.641 h 2.5935 v 0.5135 h -2.0085 v 1.4495 h 1.8915 v 0.507 h -1.8915 v 1.6575 h 2.0085 z m 4.699499,0 h -0.6825 l -2.483,-3.8545 h -0.026 q 0.013,0.2275 0.0325,0.5655 0.0195,0.338 0.0195,0.6955 V 147 h -0.5395 v -4.641 h 0.676 l 2.4765,3.8415 h 0.026 q -0.0065,-0.104 -0.0195,-0.312 -0.0065,-0.208 -0.0195,-0.455 -0.0065,-0.247 -0.0065,-0.455 v -2.6195 h 0.546 z m 3.893501,-1.2415 q 0,0.6175 -0.4485,0.962 -0.4485,0.3445 -1.209,0.3445 -0.39,0 -0.7215,-0.0585 -0.3315,-0.0585 -0.5525,-0.1625 v -0.559 q 0.234,0.104 0.5785,0.1885 0.351,0.0845 0.7215,0.0845 0.52,0 0.78,-0.2015 0.2665,-0.2015 0.2665,-0.546 0,-0.2275 -0.0975,-0.3835 -0.0975,-0.156 -0.338,-0.286 -0.234,-0.1365 -0.6565,-0.286 -0.5915,-0.2145 -0.897,-0.5265 -0.299,-0.312 -0.299,-0.8515 0,-0.3705 0.1885,-0.6305 0.1885,-0.2665 0.52,-0.4095 0.338,-0.143 0.7735,-0.143 0.3835,0 0.702,0.0715 0.3185,0.0715 0.5785,0.1885 l -0.182,0.5005 q -0.2405,-0.104 -0.5265,-0.1755 -0.2795,-0.0715 -0.585,-0.0715 -0.4355,0 -0.6565,0.1885 -0.221,0.182 -0.221,0.4875 0,0.234 0.0975,0.39 0.0975,0.156 0.3185,0.2795 0.221,0.1235 0.598,0.2665 0.4095,0.1495 0.689,0.325 0.286,0.169 0.429,0.4095 0.1495,0.2405 0.1495,0.6045 z m 2.2425,1.2415 h -1.677 v -0.338 l 0.546,-0.1235 v -3.7115 l -0.546,-0.13 v -0.338 h 1.677 v 0.338 l -0.546,0.13 v 3.7115 l 0.546,0.1235 z m 2.366002,0 h -0.585 v -4.1275 h -1.4495 v -0.5135 h 3.4775 v 0.5135 h -1.443 z m 3.353999,-2.3595 1.209,-2.2815 h 0.6305 l -1.547,2.8405 V 147 h -0.585 v -1.7745 l -1.547,-2.8665 h 0.637 z"
     id="text12"
     style="font-size:6.5px;font-family:'Nunito Sans', sans-serif;text-anchor:middle;fill:#c8c0b0"
     aria-label="DENSITY" />
  <path
     d="m 151.7915,142.359 q 0.91,0 1.326,0.3575 0.416,0.3575 0.416,1.0075 0,0.3835 -0.1755,0.7215 -0.169,0.3315 -0.5785,0.5395 -0.403,0.208 -1.0985,0.208 h -0.533 V 147 h -0.585 v -4.641 z m -0.052,0.5005 h -0.5915 v 1.833 h 0.468 q 0.663,0 0.988,-0.2145 0.325,-0.2145 0.325,-0.728 0,-0.4485 -0.286,-0.6695 -0.286,-0.221 -0.9035,-0.221 z m 4.0365,-0.5005 q 0.8645,0 1.274,0.3315 0.416,0.325 0.416,0.988 0,0.3705 -0.1365,0.6175 -0.1365,0.247 -0.351,0.3965 -0.208,0.143 -0.442,0.2275 l 1.274,2.08 h -0.6825 l -1.1245,-1.9175 h -0.923 V 147 h -0.585 v -4.641 z m -0.0325,0.507 h -0.663 v 1.7225 h 0.6955 q 0.5655,0 0.8255,-0.221 0.26,-0.2275 0.26,-0.663 0,-0.455 -0.273,-0.6435 -0.273,-0.195 -0.845,-0.195 z M 161.132,147 h -2.5935 v -4.641 h 2.5935 v 0.5135 h -2.0085 v 1.4495 h 1.8915 v 0.507 h -1.8915 v 1.6575 h 2.0085 z m 3.653,-1.2415 q 0,0.6175 -0.4485,0.962 -0.4485,0.3445 -1.209,0.3445 -0.39,0 -0.7215,-0.0585 -0.3315,-0.0585 -0.5525,-0.1625 v -0.559 q 0.234,0.104 0.5785,0.1885 0.351,0.0845 0.7215,0.0845 0.52,0 0.78,-0.2015 0.2665,-0.2015 0.2665,-0.546 0,-0.2275 -0.0975,-0.3835 -0.0975,-0.156 -0.338,-0.286 -0.234,-0.1365 -0.6565,-0.286 -0.5915,-0.2145 -0.897,-0.5265 -0.299,-0.312 -0.299,-0.8515 0,-0.3705 0.1885,-0.6305 0.1885,-0.2665 0.52,-0.4095 0.338,-0.143 0.7735,-0.143 0.3835,0 0.702,0.0715 0.3185,0.0715 0.5785,0.1885 l -0.182,0.5005 q -0.2405,-0.104 -0.5265,-0.1755 -0.2795,-0.0715 -0.585,-0.0715 -0.4355,0 -0.6565,0.1885 -0.221,0.182 -0.221,0.4875 0,0.234 0.0975,0.39 0.0975,0.156 0.3185,0.2795 0.221,0.1235 0.598,0.2665 0.4095,0.1495 0.689,0.325 0.286,0.169 0.429,0.4095 0.1495,0.2405 0.1495,0.6045 z m 3.5685,0 q 0,0.6175 -0.4485,0.962 -0.4485,0.3445 -1.209,0.3445 -0.39,0 -0.7215,-0.0585 -0.3315,-0.0585 -0.5525,-0.1625 v -0.559 q 0.234,0.104 0.5785,0.1885 0.351,0.0845 0.7215,0.0845 0.52,0 0.78,-0.2015 0.2665,-0.2015 0.2665,-0.546 0,-0.2275 -0.0975,-0.3835 -0.0975,-0.156 -0.338,-0.286 -0.234,-0.1365 -0.6565,-0.286 -0.5915,-0.2145 -0.897,-0.5265 -0.299,-0.312 -0.299,-0.8515 0,-0.3705 0.1885,-0.6305 0.1885,-0.2665 0.52,-0.4095 0.338,-0.143 0.7735,-0.143 0.3835,0 0.702,0.0715 0.3185,0.0715 0.5785,0.1885 l -0.182,0.5005 q -0.2405,-0.104 -0.5265,-0.1755 -0.2795,-0.0715 -0.585,-0.0715 -0.4355,0 -0.6565,0.1885 -0.221,0.182 -0.221,0.4875 0,0.234 0.0975,0.39 0.0975,0.156 0.3185,0.2795 0.221,0.1235 0.598,0.2665 0.4095,0.1495 0.689,0.325 0.286,0.169 0.429,0.4095 0.1495,0.2405 0.1495,0.6045 z m 4.46549,-0.3965 q 0,0.481 -0.195,0.871 -0.195,0.3835 -0.598,0.611 -0.3965,0.221 -1.014,0.221 -0.8645,0 -1.3195,-0.468 -0.4485,-0.4745 -0.4485,-1.248 v -2.99 h 0.585 v 3.0095 q 0,0.5655 0.299,0.8775 0.3055,0.312 0.9165,0.312 0.6305,0 0.91,-0.3315 0.286,-0.338 0.286,-0.8645 v -3.003 h 0.5785 z m 2.50251,-3.003 q 0.8645,0 1.274,0.3315 0.416,0.325 0.416,0.988 0,0.3705 -0.1365,0.6175 -0.1365,0.247 -0.351,0.3965 -0.208,0.143 -0.442,0.2275 l 1.274,2.08 h -0.6825 l -1.1245,-1.9175 h -0.923 V 147 h -0.585 v -4.641 z m -0.0325,0.507 h -0.663 v 1.7225 h 0.6955 q 0.5655,0 0.8255,-0.221 0.26,-0.2275 0.26,-0.663 0,-0.455 -0.273,-0.6435 -0.273,-0.195 -0.845,-0.195 z m 5.3885,4.134 h -2.5935 v -4.641 h 2.5935 v 0.5135 h -2.0085 v 1.4495 h 1.8915 v 0.507 h -1.8915 v 1.6575 h 2.0085 z"
     id="text13"
     style="font-size:6.5px;font-family:'Nunito Sans', sans-serif;text-anchor:middle;fill:#c8c0b0"
     aria-label="PRESSURE" />
  <path
     d="m 267.14599,142.359 -1.235,4.641 h -0.5915 l -0.9035,-3.042 q -0.052,-0.1885 -0.104,-0.377 -0.052,-0.1885 -0.0845,-0.3315 -0.0325,-0.1495 -0.0455,-0.208 -0.006,0.0845 -0.0715,0.364 -0.0585,0.273 -0.1495,0.572 L 263.08349,147 h -0.5915 l -1.2285,-4.641 h 0.611 l 0.7215,2.834 q 0.078,0.299 0.13,0.5785 0.0585,0.2795 0.091,0.5265 0.0325,-0.2535 0.0975,-0.5525 0.065,-0.299 0.1495,-0.585 l 0.819,-2.8015 h 0.6045 l 0.8515,2.821 q 0.091,0.299 0.156,0.598 0.065,0.2925 0.0975,0.52 0.0325,-0.2405 0.091,-0.52 0.0585,-0.286 0.1365,-0.5915 l 0.715,-2.8275 z m 2.0215,4.641 h -1.677 v -0.338 l 0.546,-0.1235 v -3.7115 l -0.546,-0.13 v -0.338 h 1.677 v 0.338 l -0.546,0.13 v 3.7115 l 0.546,0.1235 z m 4.61501,-2.366 q 0,1.1765 -0.6435,1.7745 Q 272.502,147 271.358,147 h -1.2935 v -4.641 h 1.43 q 0.702,0 1.2155,0.26 0.5135,0.26 0.793,0.767 0.2795,0.5005 0.2795,1.248 z m -0.6175,0.0195 q 0,-0.9295 -0.4615,-1.3585 -0.455,-0.4355 -1.2935,-0.4355 h -0.7605 v 3.64 h 0.6305 q 1.885,0 1.885,-1.846 z M 276.08349,147 h -0.585 v -4.1275 h -1.4495 v -0.5135 h 3.4775 v 0.5135 h -1.443 z m 5.694,0 h -0.585 v -2.1645 h -2.379 V 147 h -0.585 v -4.641 h 0.585 v 1.963 h 2.379 v -1.963 h 0.585 z"
     id="text14"
     style="font-size:6.5px;font-family:'Nunito Sans', sans-serif;text-anchor:middle;fill:#c8c0b0"
     aria-label="WIDTH" />
  <!-- ══════════════════════════════════════════════════════════ -->
  <!-- ROW 2: FEEDBACK (x=20mm) | RECOVERY (x=56mm) | COLLAPSE (x=92mm) -->
  <!-- ══════════════════════════════════════════════════════════ -->
  <!-- FEEDBACK knob + satellite -->
  <circle
     cx="59.1"
     cy="212.6"
     r="6.5"
     fill="#4A4A4A"
     stroke="#787878"
     stroke-width="0.75"
     id="circle14" />
  <circle
     cx="82.7"
     cy="192.0"
     r="4"
     fill="#363636"
     stroke="#666"
     stroke-width="0.5"
     id="circle15" />
  <circle
     cx="82.7"
     cy="233.3"
     r="5"
     fill="#251E0A"
     stroke="#E8C547"
     stroke-width="1.25"
     id="circle16" />
  <!-- RECOVERY knob + satellite -->
  <circle
     cx="165.5"
     cy="212.6"
     r="6.5"
     fill="#4A4A4A"
     stroke="#787878"
     stroke-width="0.75"
     id="circle17" />
  <circle
     cx="189.0"
     cy="192.0"
     r="4"
     fill="#363636"
     stroke="#666"
     stroke-width="0.5"
     id="circle18" />
  <circle
     cx="189.0"
     cy="233.3"
     r="5"
     fill="#251E0A"
     stroke="#E8C547"
     stroke-width="1.25"
     id="circle19" />
  <!-- COLLAPSE button placeholder (TL1105 rect) -->
  <rect
     x="263.8"
     y="190.8"
     width="16"
     height="8"
     rx="2"
     fill="#2A1818"
     stroke="#FF4A0E"
     stroke-width="1.25"
     id="rect19" />
  <!-- COLLAPSE gate input -->
  <circle
     cx="271.8"
     cy="233.3"
     r="5"
     fill="#251E0A"
     stroke="#E8C547"
     stroke-width="1.25"
     id="circle20" />
  <!-- Row 2 labels -->
  <path
     d="m 44.452259,226 h -0.585 v -4.641 h 2.5935 v 0.5135 h -2.0085 v 1.6445 h 1.885 v 0.5135 h -1.885 z m 5.381994,0 h -2.5935 v -4.641 h 2.5935 v 0.5135 h -2.0085 v 1.4495 h 1.8915 v 0.507 h -1.8915 v 1.6575 h 2.0085 z m 3.613999,0 h -2.5935 v -4.641 h 2.5935 v 0.5135 h -2.0085 v 1.4495 h 1.8915 v 0.507 h -1.8915 v 1.6575 h 2.0085 z m 4.738498,-2.366 q 0,1.1765 -0.6435,1.7745 -0.637,0.5915 -1.781,0.5915 h -1.2935 v -4.641 h 1.43 q 0.702,0 1.2155,0.26 0.5135,0.26 0.793,0.767 0.2795,0.5005 0.2795,1.248 z m -0.6175,0.0195 q 0,-0.9295 -0.4615,-1.3585 -0.455,-0.4355 -1.2935,-0.4355 h -0.7605 v 3.64 h 0.6305 q 1.885,0 1.885,-1.846 z m 2.970497,-2.2945 q 0.871,0 1.313,0.26 0.4485,0.2535 0.4485,0.8905 0,0.4095 -0.2275,0.6825 -0.2275,0.2665 -0.6565,0.3445 v 0.0325 q 0.2925,0.0455 0.5265,0.169 0.2405,0.1235 0.377,0.351 0.1365,0.2275 0.1365,0.5915 0,0.6305 -0.4355,0.975 -0.429,0.3445 -1.1765,0.3445 h -1.6315 v -4.641 z m 0.117,1.976 q 0.598,0 0.819,-0.1885 0.221,-0.195 0.221,-0.572 0,-0.3835 -0.273,-0.546 -0.2665,-0.169 -0.858,-0.169 h -0.767 v 1.4755 z m -0.858,0.4875 v 1.6835 h 0.936 q 0.6175,0 0.858,-0.2405 0.2405,-0.2405 0.2405,-0.6305 0,-0.364 -0.2535,-0.585 -0.247,-0.2275 -0.8905,-0.2275 z m 6.551998,2.1775 -0.559,-1.4365 h -1.8395 L 63.399745,226 h -0.5915 l 1.8135,-4.6605 h 0.5265 l 1.807,4.6605 z m -1.2545,-3.3605 q -0.0195,-0.052 -0.065,-0.1885 -0.0455,-0.1365 -0.091,-0.2795 -0.039,-0.1495 -0.065,-0.2275 -0.0455,0.2015 -0.104,0.3965 -0.0585,0.1885 -0.0975,0.299 l -0.5265,1.404 h 1.469 z m 4.354996,-0.832 q -0.7475,0 -1.1765,0.5005 -0.429,0.5005 -0.429,1.3715 0,0.8645 0.3965,1.3715 0.403,0.5005 1.2025,0.5005 0.3055,0 0.5785,-0.052 0.273,-0.052 0.533,-0.13 v 0.507 q -0.26,0.0975 -0.5395,0.143 -0.273,0.0455 -0.6565,0.0455 -0.7085,0 -1.183,-0.2925 -0.4745,-0.2925 -0.715,-0.832 -0.234,-0.5395 -0.234,-1.2675 0,-0.702 0.2535,-1.235 0.26,-0.5395 0.7605,-0.8385 0.5005,-0.3055 1.2155,-0.3055 0.7345,0 1.2805,0.273 l -0.234,0.494 q -0.2145,-0.0975 -0.481,-0.1755 -0.26,-0.078 -0.572,-0.078 z m 5.512,4.1925 h -0.689 l -1.6445,-2.2165 -0.4745,0.416 V 226 h -0.585 v -4.641 h 0.585 v 2.288 q 0.195,-0.221 0.3965,-0.442 0.2015,-0.221 0.403,-0.442 l 1.2545,-1.404 h 0.6825 l -1.8395,2.0215 z"
     id="text20"
     style="font-size:6.5px;font-family:'Nunito Sans', sans-serif;text-anchor:middle;fill:#c8c0b0"
     aria-label="FEEDBACK" />
  <path
     d="m 151.46975,221.359 q 0.8645,0 1.274,0.3315 0.416,0.325 0.416,0.988 0,0.3705 -0.1365,0.6175 -0.1365,0.247 -0.351,0.3965 -0.208,0.143 -0.442,0.2275 l 1.274,2.08 h -0.6825 l -1.1245,-1.9175 h -0.923 V 226 h -0.585 v -4.641 z m -0.0325,0.507 h -0.663 v 1.7225 h 0.6955 q 0.5655,0 0.8255,-0.221 0.26,-0.2275 0.26,-0.663 0,-0.455 -0.273,-0.6435 -0.273,-0.195 -0.845,-0.195 z m 5.3885,4.134 h -2.5935 v -4.641 h 2.5935 v 0.5135 h -2.0085 v 1.4495 h 1.8915 v 0.507 h -1.8915 v 1.6575 h 2.0085 z m 3.0095,-4.1925 q -0.7475,0 -1.1765,0.5005 -0.429,0.5005 -0.429,1.3715 0,0.8645 0.3965,1.3715 0.403,0.5005 1.2025,0.5005 0.3055,0 0.5785,-0.052 0.273,-0.052 0.533,-0.13 v 0.507 q -0.26,0.0975 -0.5395,0.143 -0.273,0.0455 -0.6565,0.0455 -0.7085,0 -1.183,-0.2925 -0.4745,-0.2925 -0.715,-0.832 -0.234,-0.5395 -0.234,-1.2675 0,-0.702 0.2535,-1.235 0.26,-0.5395 0.7605,-0.8385 0.5005,-0.3055 1.2155,-0.3055 0.7345,0 1.2805,0.273 l -0.234,0.494 q -0.2145,-0.0975 -0.481,-0.1755 -0.26,-0.078 -0.572,-0.078 z m 6.0385,1.8655 q 0,0.7215 -0.247,1.261 -0.2405,0.533 -0.715,0.832 -0.4745,0.299 -1.1765,0.299 -0.7215,0 -1.2025,-0.299 -0.4745,-0.299 -0.7085,-0.8385 -0.234,-0.5395 -0.234,-1.261 0,-0.715 0.234,-1.248 0.234,-0.533 0.7085,-0.832 0.481,-0.299 1.209,-0.299 0.6955,0 1.17,0.299 0.4745,0.2925 0.715,0.832 0.247,0.533 0.247,1.2545 z m -3.666,0 q 0,0.8775 0.3705,1.3845 0.3705,0.5005 1.157,0.5005 0.793,0 1.157,-0.5005 0.364,-0.507 0.364,-1.3845 0,-0.8775 -0.364,-1.3715 -0.364,-0.5005 -1.1505,-0.5005 -0.7865,0 -1.1635,0.5005 -0.3705,0.494 -0.3705,1.3715 z m 7.8975,-2.314 -1.6575,4.641 h -0.585 l -1.6575,-4.641 h 0.611 l 1.0465,2.977 q 0.104,0.286 0.1755,0.5395 0.0715,0.247 0.117,0.4745 0.0455,-0.2275 0.117,-0.481 0.0715,-0.2535 0.1755,-0.546 l 1.04,-2.964 z m 3.224,4.641 h -2.5935 v -4.641 h 2.5935 v 0.5135 h -2.0085 v 1.4495 h 1.8915 v 0.507 h -1.8915 v 1.6575 h 2.0085 z m 2.301,-4.641 q 0.8645,0 1.274,0.3315 0.416,0.325 0.416,0.988 0,0.3705 -0.1365,0.6175 -0.1365,0.247 -0.351,0.3965 -0.208,0.143 -0.442,0.2275 l 1.274,2.08 h -0.6825 l -1.1245,-1.9175 h -0.923 V 226 h -0.585 v -4.641 z m -0.0325,0.507 h -0.663 v 1.7225 h 0.6955 q 0.5655,0 0.8255,-0.221 0.26,-0.2275 0.26,-0.663 0,-0.455 -0.273,-0.6435 -0.273,-0.195 -0.845,-0.195 z m 4.004,1.7745 1.209,-2.2815 h 0.6305 l -1.547,2.8405 V 226 h -0.585 v -1.7745 l -1.547,-2.8665 h 0.637 z"
     id="text21"
     style="font-size:6.5px;font-family:'Nunito Sans', sans-serif;text-anchor:middle;fill:#c8c0b0"
     aria-label="RECOVERY" />
  <path
     d="m 258.85199,177.8075 q -0.7475,0 -1.1765,0.5005 -0.429,0.5005 -0.429,1.3715 0,0.8645 0.3965,1.3715 0.403,0.5005 1.2025,0.5005 0.3055,0 0.5785,-0.052 0.273,-0.052 0.533,-0.13 v 0.507 q -0.26,0.0975 -0.5395,0.143 -0.273,0.0455 -0.6565,0.0455 -0.7085,0 -1.183,-0.2925 -0.4745,-0.2925 -0.715,-0.832 -0.234,-0.5395 -0.234,-1.2675 0,-0.702 0.2535,-1.235 0.26,-0.5395 0.7605,-0.8385 0.5005,-0.3055 1.2155,-0.3055 0.7345,0 1.2805,0.273 l -0.234,0.494 q -0.2145,-0.0975 -0.481,-0.1755 -0.26,-0.078 -0.572,-0.078 z m 6.0385,1.8655 q 0,0.7215 -0.247,1.261 -0.2405,0.533 -0.715,0.832 -0.4745,0.299 -1.1765,0.299 -0.7215,0 -1.2025,-0.299 -0.4745,-0.299 -0.7085,-0.8385 -0.234,-0.5395 -0.234,-1.261 0,-0.715 0.234,-1.248 0.234,-0.533 0.7085,-0.832 0.481,-0.299 1.209,-0.299 0.6955,0 1.17,0.299 0.4745,0.2925 0.715,0.832 0.247,0.533 0.247,1.2545 z m -3.666,0 q 0,0.8775 0.3705,1.3845 0.3705,0.5005 1.157,0.5005 0.793,0 1.157,-0.5005 0.364,-0.507 0.364,-1.3845 0,-0.8775 -0.364,-1.3715 -0.364,-0.5005 -1.1505,-0.5005 -0.7865,0 -1.1635,0.5005 -0.3705,0.494 -0.3705,1.3715 z m 4.693,2.327 v -4.641 h 0.585 v 4.121 h 2.028 V 182 Z m 3.406,0 v -4.641 h 0.585 v 4.121 h 2.028 V 182 Z m 6.318,0 -0.559,-1.4365 h -1.8395 L 272.69049,182 h -0.5915 l 1.8135,-4.6605 h 0.5265 l 1.807,4.6605 z m -1.2545,-3.3605 q -0.0195,-0.052 -0.065,-0.1885 -0.0455,-0.1365 -0.091,-0.2795 -0.039,-0.1495 -0.065,-0.2275 -0.0455,0.2015 -0.104,0.3965 -0.0585,0.1885 -0.0975,0.299 l -0.5265,1.404 h 1.469 z m 3.7245,-1.2805 q 0.91,0 1.326,0.3575 0.416,0.3575 0.416,1.0075 0,0.3835 -0.1755,0.7215 -0.169,0.3315 -0.5785,0.5395 -0.403,0.208 -1.0985,0.208 h -0.533 V 182 h -0.585 v -4.641 z m -0.052,0.5005 h -0.5915 v 1.833 h 0.468 q 0.663,0 0.988,-0.2145 0.325,-0.2145 0.325,-0.728 0,-0.4485 -0.286,-0.6695 -0.286,-0.221 -0.9035,-0.221 z m 5.3885,2.899 q 0,0.6175 -0.4485,0.962 -0.4485,0.3445 -1.209,0.3445 -0.39,0 -0.7215,-0.0585 -0.3315,-0.0585 -0.5525,-0.1625 v -0.559 q 0.234,0.104 0.5785,0.1885 0.351,0.0845 0.7215,0.0845 0.52,0 0.78,-0.2015 0.2665,-0.2015 0.2665,-0.546 0,-0.2275 -0.0975,-0.3835 -0.0975,-0.156 -0.338,-0.286 -0.234,-0.1365 -0.6565,-0.286 -0.5915,-0.2145 -0.897,-0.5265 -0.299,-0.312 -0.299,-0.8515 0,-0.3705 0.1885,-0.6305 0.1885,-0.2665 0.52,-0.4095 0.338,-0.143 0.7735,-0.143 0.3835,0 0.702,0.0715 0.3185,0.0715 0.5785,0.1885 l -0.182,0.5005 q -0.2405,-0.104 -0.5265,-0.1755 -0.2795,-0.0715 -0.585,-0.0715 -0.4355,0 -0.6565,0.1885 -0.221,0.182 -0.221,0.4875 0,0.234 0.0975,0.39 0.0975,0.156 0.3185,0.2795 0.221,0.1235 0.598,0.2665 0.4095,0.1495 0.689,0.325 0.286,0.169 0.429,0.4095 0.1495,0.2405 0.1495,0.6045 z m 3.5295,1.2415 h -2.5935 v -4.641 h 2.5935 v 0.5135 h -2.0085 v 1.4495 h 1.8915 v 0.507 h -1.8915 v 1.6575 h 2.0085 z"
     id="text22"
     style="font-size:6.5px;font-family:'Nunito Sans', sans-serif;text-anchor:middle;fill:#ff6a30"
     aria-label="COLLAPSE" />
  <path
     d="m 267.01499,241.738 h 1.482 v 2.1 q -0.348,0.114 -0.702,0.168 -0.354,0.054 -0.804,0.054 -0.666,0 -1.122,-0.264 -0.456,-0.27 -0.696,-0.762 -0.234,-0.498 -0.234,-1.176 0,-0.672 0.264,-1.164 0.264,-0.492 0.756,-0.762 0.498,-0.276 1.2,-0.276 0.36,0 0.678,0.066 0.324,0.066 0.6,0.186 l -0.204,0.468 q -0.228,-0.102 -0.516,-0.174 -0.282,-0.072 -0.588,-0.072 -0.768,0 -1.2,0.462 -0.426,0.462 -0.426,1.266 0,0.51 0.162,0.906 0.168,0.39 0.522,0.612 0.354,0.216 0.93,0.216 0.282,0 0.48,-0.03 0.198,-0.03 0.36,-0.072 v -1.272 h -0.942 z m 5.196,2.262 -0.516,-1.326 h -1.698 l -0.51,1.326 h -0.546 l 1.674,-4.302 h 0.486 l 1.668,4.302 z m -1.158,-3.102 q -0.018,-0.048 -0.06,-0.174 -0.042,-0.126 -0.084,-0.258 -0.036,-0.138 -0.06,-0.21 -0.042,0.186 -0.096,0.366 -0.054,0.174 -0.09,0.276 l -0.486,1.296 h 1.356 z m 3.24,3.102 h -0.54 v -3.81 h -1.338 v -0.474 h 3.21 v 0.474 h -1.332 z m 4.374,0 h -2.394 v -4.284 h 2.394 v 0.474 h -1.854 v 1.338 h 1.746 v 0.468 h -1.746 v 1.53 h 1.854 z"
     id="text23"
     style="font-size:6px;font-family:'Nunito Sans', sans-serif;text-anchor:middle;fill:#c8a030"
     aria-label="GATE" />
  <!-- ══════════════════════════════════════════════════════════ -->
  <!-- ROW 3: CHANNEL INPUTS  CH1–CH4 -->
  <!-- ══════════════════════════════════════════════════════════ -->
  <path
     d="m 134.435,278.13 q -0.69,0 -1.086,0.462 -0.396,0.462 -0.396,1.266 0,0.798 0.366,1.266 0.372,0.462 1.11,0.462 0.282,0 0.534,-0.048 0.252,-0.048 0.492,-0.12 v 0.468 q -0.24,0.09 -0.498,0.132 -0.252,0.042 -0.606,0.042 -0.654,0 -1.092,-0.27 -0.438,-0.27 -0.66,-0.768 -0.216,-0.498 -0.216,-1.17 0,-0.648 0.234,-1.14 0.24,-0.498 0.702,-0.774 0.462,-0.282 1.122,-0.282 0.678,0 1.182,0.252 l -0.216,0.456 q -0.198,-0.09 -0.444,-0.162 -0.24,-0.072 -0.528,-0.072 z m 10.232,3.87 h -0.54 v -1.998 h -2.196 V 282 h -0.54 v -4.284 h 0.54 v 1.812 h 2.196 v -1.812 h 0.54 z m 8.858,0 -0.516,-1.326 h -1.698 l -0.51,1.326 h -0.546 l 1.674,-4.302 h 0.486 l 1.668,4.302 z m -1.158,-3.102 q -0.018,-0.048 -0.06,-0.174 -0.042,-0.126 -0.084,-0.258 -0.036,-0.138 -0.06,-0.21 -0.042,0.186 -0.096,0.366 -0.054,0.174 -0.09,0.276 l -0.486,1.296 h 1.356 z m 10.7,3.102 h -0.63 l -2.292,-3.558 h -0.024 q 0.012,0.21 0.03,0.522 0.018,0.312 0.018,0.642 V 282 h -0.498 v -4.284 h 0.624 l 2.286,3.546 h 0.024 q -0.006,-0.096 -0.018,-0.288 -0.006,-0.192 -0.018,-0.42 -0.006,-0.228 -0.006,-0.42 v -2.418 h 0.504 z m 9.56,0 h -0.63 l -2.292,-3.558 h -0.024 q 0.012,0.21 0.03,0.522 0.018,0.312 0.018,0.642 V 282 h -0.498 v -4.284 h 0.624 l 2.286,3.546 h 0.024 q -0.006,-0.096 -0.018,-0.288 -0.006,-0.192 -0.018,-0.42 -0.006,-0.228 -0.006,-0.42 v -2.418 h 0.504 z m 8.558,0 h -2.394 v -4.284 h 2.394 v 0.474 h -1.854 v 1.338 h 1.746 v 0.468 h -1.746 v 1.53 h 1.854 z m 5.942,0 v -4.284 h 0.54 v 3.804 h 1.872 V 282 Z m 10.574,-1.146 q 0,0.57 -0.414,0.888 -0.414,0.318 -1.116,0.318 -0.36,0 -0.666,-0.054 -0.306,-0.054 -0.51,-0.15 v -0.516 q 0.216,0.096 0.534,0.174 0.324,0.078 0.666,0.078 0.48,0 0.72,-0.186 0.246,-0.186 0.246,-0.504 0,-0.21 -0.09,-0.354 -0.09,-0.144 -0.312,-0.264 -0.216,-0.126 -0.606,-0.264 -0.546,-0.198 -0.828,-0.486 -0.276,-0.288 -0.276,-0.786 0,-0.342 0.174,-0.582 0.174,-0.246 0.48,-0.378 0.312,-0.132 0.714,-0.132 0.354,0 0.648,0.066 0.294,0.066 0.534,0.174 l -0.168,0.462 q -0.222,-0.096 -0.486,-0.162 -0.258,-0.066 -0.54,-0.066 -0.402,0 -0.606,0.174 -0.204,0.168 -0.204,0.45 0,0.216 0.09,0.36 0.09,0.144 0.294,0.258 0.204,0.114 0.552,0.246 0.378,0.138 0.636,0.3 0.264,0.156 0.396,0.378 0.138,0.222 0.138,0.558 z"
     id="text24"
     style="font-size:6px;font-family:'Nunito Sans', sans-serif;letter-spacing:5;text-anchor:middle;fill:#888880"
     aria-label="CHANNELS" />
  <circle
     cx="44.3"
     cy="319.0"
     r="5"
     fill="#201808"
     stroke="#FF4A0E"
     stroke-width="1.25"
     id="circle24" />
  <circle
     cx="112.2"
     cy="319.0"
     r="5"
     fill="#201808"
     stroke="#FF4A0E"
     stroke-width="1.25"
     id="circle25" />
  <circle
     cx="180.2"
     cy="319.0"
     r="5"
     fill="#201808"
     stroke="#FF4A0E"
     stroke-width="1.25"
     id="circle26" />
  <circle
     cx="248.1"
     cy="319.0"
     r="5"
     fill="#201808"
     stroke="#FF4A0E"
     stroke-width="1.25"
     id="circle27" />
  <path
     d="m 40.102999,326.13 q -0.69,0 -1.086,0.462 -0.396,0.462 -0.396,1.266 0,0.798 0.366,1.266 0.372,0.462 1.11,0.462 0.282,0 0.534,-0.048 0.252,-0.048 0.492,-0.12 v 0.468 q -0.24,0.09 -0.498,0.132 -0.252,0.042 -0.606,0.042 -0.654,0 -1.092,-0.27 -0.438,-0.27 -0.66,-0.768 -0.216,-0.498 -0.216,-1.17 0,-0.648 0.234,-1.14 0.24,-0.498 0.702,-0.774 0.462,-0.282 1.122,-0.282 0.678,0 1.182,0.252 l -0.216,0.456 q -0.198,-0.09 -0.444,-0.162 -0.24,-0.072 -0.528,-0.072 z m 5.232,3.87 h -0.54 v -1.998 h -2.196 V 330 h -0.54 v -4.284 h 0.54 v 1.812 h 2.196 v -1.812 h 0.54 z m 4.277997,0 h -0.516 v -2.994 q 0,-0.258 0.006,-0.414 0.006,-0.156 0.018,-0.324 -0.096,0.096 -0.174,0.162 -0.078,0.066 -0.198,0.168 l -0.456,0.372 -0.276,-0.354 1.158,-0.9 h 0.438 z"
     id="text27"
     style="font-size:6px;font-family:'Nunito Sans', sans-serif;text-anchor:middle;fill:#c8c0b0"
     aria-label="CH 1" />
  <path
     d="m 108.003,326.13 q -0.69,0 -1.086,0.462 -0.396,0.462 -0.396,1.266 0,0.798 0.366,1.266 0.372,0.462 1.11,0.462 0.282,0 0.534,-0.048 0.252,-0.048 0.492,-0.12 v 0.468 q -0.24,0.09 -0.498,0.132 -0.252,0.042 -0.606,0.042 -0.654,0 -1.092,-0.27 -0.438,-0.27 -0.66,-0.768 -0.216,-0.498 -0.216,-1.17 0,-0.648 0.234,-1.14 0.24,-0.498 0.702,-0.774 0.462,-0.282 1.122,-0.282 0.678,0 1.182,0.252 l -0.216,0.456 q -0.198,-0.09 -0.444,-0.162 -0.24,-0.072 -0.528,-0.072 z m 5.232,3.87 h -0.54 v -1.998 h -2.196 V 330 h -0.54 v -4.284 h 0.54 v 1.812 h 2.196 v -1.812 h 0.54 z m 5.26799,0 h -2.832 v -0.438 l 1.122,-1.134 q 0.324,-0.324 0.546,-0.576 0.222,-0.252 0.336,-0.492 0.114,-0.246 0.114,-0.534 0,-0.354 -0.21,-0.534 -0.21,-0.186 -0.546,-0.186 -0.312,0 -0.552,0.108 -0.234,0.108 -0.48,0.3 l -0.282,-0.354 q 0.252,-0.21 0.576,-0.354 0.33,-0.15 0.738,-0.15 0.6,0 0.948,0.306 0.348,0.3 0.348,0.834 0,0.336 -0.138,0.63 -0.138,0.294 -0.384,0.582 -0.246,0.282 -0.576,0.606 l -0.894,0.882 v 0.024 h 2.166 z"
     id="text28"
     style="font-size:6px;font-family:'Nunito Sans', sans-serif;text-anchor:middle;fill:#c8c0b0"
     aria-label="CH 2" />
  <path
     d="m 176.003,326.13 q -0.69,0 -1.086,0.462 -0.396,0.462 -0.396,1.266 0,0.798 0.366,1.266 0.372,0.462 1.11,0.462 0.282,0 0.534,-0.048 0.252,-0.048 0.492,-0.12 v 0.468 q -0.24,0.09 -0.498,0.132 -0.252,0.042 -0.606,0.042 -0.654,0 -1.092,-0.27 -0.438,-0.27 -0.66,-0.768 -0.216,-0.498 -0.216,-1.17 0,-0.648 0.234,-1.14 0.24,-0.498 0.702,-0.774 0.462,-0.282 1.122,-0.282 0.678,0 1.182,0.252 l -0.216,0.456 q -0.198,-0.09 -0.444,-0.162 -0.24,-0.072 -0.528,-0.072 z m 5.232,3.87 h -0.54 v -1.998 h -2.196 V 330 h -0.54 v -4.284 h 0.54 v 1.812 h 2.196 v -1.812 h 0.54 z m 5.10599,-3.282 q 0,0.432 -0.24,0.69 -0.24,0.252 -0.648,0.336 v 0.024 q 0.516,0.06 0.768,0.324 0.252,0.264 0.252,0.69 0,0.372 -0.174,0.666 -0.174,0.288 -0.54,0.45 -0.36,0.162 -0.93,0.162 -0.336,0 -0.624,-0.054 -0.288,-0.048 -0.552,-0.18 v -0.492 q 0.27,0.132 0.582,0.21 0.312,0.072 0.6,0.072 0.576,0 0.828,-0.222 0.258,-0.228 0.258,-0.624 0,-0.402 -0.318,-0.576 -0.312,-0.18 -0.882,-0.18 h -0.414 v -0.45 h 0.42 q 0.528,0 0.798,-0.222 0.276,-0.222 0.276,-0.588 0,-0.312 -0.21,-0.48 -0.21,-0.174 -0.57,-0.174 -0.348,0 -0.594,0.102 -0.246,0.102 -0.486,0.258 l -0.264,-0.36 q 0.228,-0.18 0.564,-0.312 0.342,-0.132 0.774,-0.132 0.672,0 0.996,0.3 0.33,0.3 0.33,0.762 z"
     id="text29"
     style="font-size:6px;font-family:'Nunito Sans', sans-serif;text-anchor:middle;fill:#c8c0b0"
     aria-label="CH 3" />
  <path
     d="m 243.90301,326.13 q -0.69,0 -1.086,0.462 -0.396,0.462 -0.396,1.266 0,0.798 0.366,1.266 0.372,0.462 1.11,0.462 0.282,0 0.534,-0.048 0.252,-0.048 0.492,-0.12 v 0.468 q -0.24,0.09 -0.498,0.132 -0.252,0.042 -0.606,0.042 -0.654,0 -1.092,-0.27 -0.438,-0.27 -0.66,-0.768 -0.216,-0.498 -0.216,-1.17 0,-0.648 0.234,-1.14 0.24,-0.498 0.702,-0.774 0.462,-0.282 1.122,-0.282 0.678,0 1.182,0.252 l -0.216,0.456 q -0.198,-0.09 -0.444,-0.162 -0.24,-0.072 -0.528,-0.072 z m 5.232,3.87 h -0.54 v -1.998 h -2.196 V 330 h -0.54 v -4.284 h 0.54 v 1.812 h 2.196 v -1.812 h 0.54 z m 5.45999,-0.972 h -0.624 V 330 h -0.51 v -0.972 h -2.052 v -0.45 l 2.016,-2.886 h 0.546 v 2.862 h 0.624 z m -1.134,-1.824 q 0,-0.312 0.012,-0.528 0.012,-0.222 0.018,-0.42 h -0.024 q -0.048,0.114 -0.12,0.246 -0.072,0.132 -0.138,0.222 l -1.284,1.83 h 1.536 z"
     id="text30"
     style="font-size:6px;font-family:'Nunito Sans', sans-serif;text-anchor:middle;fill:#c8c0b0"
     aria-label="CH 4" />
  <!-- ══════════════════════════════════════════════════════════ -->
  <!-- ROW 4: V/OCT THRU + STEREO OUT -->
  <!-- ══════════════════════════════════════════════════════════ -->
  <!-- V/OCT IN + THRU (green) -->
  <circle
     cx="44.3"
     cy="354.4"
     r="5"
     fill="#0C1A10"
     stroke="#5A7350"
     stroke-width="1.25"
     id="circle30" />
  <circle
     cx="112.2"
     cy="354.4"
     r="5"
     fill="#0C1A10"
     stroke="#5A7350"
     stroke-width="1.25"
     id="circle31" />
  <!-- OUT L + OUT R (orange) -->
  <circle
     cx="221.5"
     cy="354.4"
     r="5"
     fill="#201808"
     stroke="#FF4A0E"
     stroke-width="1.25"
     id="circle32" />
  <circle
     cx="286.4"
     cy="354.4"
     r="5"
     fill="#201808"
     stroke="#FF4A0E"
     stroke-width="1.25"
     id="circle33" />
  <path
     d="m 39.076999,360.716 -1.53,4.284 h -0.54 l -1.53,-4.284 h 0.564 l 0.966,2.748 q 0.096,0.264 0.162,0.498 0.066,0.228 0.108,0.438 0.042,-0.21 0.108,-0.444 0.066,-0.234 0.162,-0.504 l 0.96,-2.736 z m 2.172003,0 -1.596,4.284 h -0.516 l 1.596,-4.284 z m 4.379998,2.136 q 0,0.666 -0.228,1.164 -0.222,0.492 -0.66,0.768 -0.438,0.276 -1.086,0.276 -0.666,0 -1.11,-0.276 -0.438,-0.276 -0.654,-0.774 -0.216,-0.498 -0.216,-1.164 0,-0.66 0.216,-1.152 0.216,-0.492 0.654,-0.768 0.444,-0.276 1.116,-0.276 0.642,0 1.08,0.276 0.438,0.27 0.66,0.768 0.228,0.492 0.228,1.158 z m -3.384,0 q 0,0.81 0.342,1.278 0.342,0.462 1.068,0.462 0.732,0 1.068,-0.462 0.336,-0.468 0.336,-1.278 0,-0.81 -0.336,-1.266 -0.336,-0.462 -1.062,-0.462 -0.726,0 -1.074,0.462 -0.342,0.456 -0.342,1.266 z m 6.168001,-1.722 q -0.69,0 -1.086,0.462 -0.396,0.462 -0.396,1.266 0,0.798 0.366,1.266 0.372,0.462 1.11,0.462 0.282,0 0.534,-0.048 0.252,-0.048 0.492,-0.12 v 0.468 q -0.24,0.09 -0.498,0.132 -0.252,0.042 -0.606,0.042 -0.654,0 -1.092,-0.27 -0.438,-0.27 -0.66,-0.768 -0.216,-0.498 -0.216,-1.17 0,-0.648 0.234,-1.14 0.24,-0.498 0.702,-0.774 0.462,-0.282 1.122,-0.282 0.678,0 1.182,0.252 l -0.216,0.456 q -0.198,-0.09 -0.444,-0.162 -0.24,-0.072 -0.528,-0.072 z m 3.312,3.87 h -0.54 v -3.81 h -1.338 v -0.474 h 3.21 v 0.474 h -1.332 z"
     id="text33"
     style="font-size:6px;font-family:'Nunito Sans', sans-serif;text-anchor:middle;fill:#5a7350"
     aria-label="V/OCT" />
  <path
     d="m 106.188,365 h -0.54 v -3.81 h -1.338 v -0.474 h 3.21 v 0.474 h -1.332 z m 5.256,0 h -0.54 v -1.998 h -2.196 V 365 h -0.54 v -4.284 h 0.54 v 1.812 h 2.196 v -1.812 h 0.54 z m 2.35199,-4.284 q 0.798,0 1.176,0.306 0.384,0.3 0.384,0.912 0,0.342 -0.126,0.57 -0.126,0.228 -0.324,0.366 -0.192,0.132 -0.408,0.21 l 1.176,1.92 h -0.63 l -1.038,-1.77 h -0.852 V 365 h -0.54 v -4.284 z m -0.03,0.468 h -0.612 v 1.59 h 0.642 q 0.522,0 0.762,-0.204 0.24,-0.21 0.24,-0.612 0,-0.42 -0.252,-0.594 -0.252,-0.18 -0.78,-0.18 z m 5.838,2.304 q 0,0.444 -0.18,0.804 -0.18,0.354 -0.552,0.564 -0.366,0.204 -0.936,0.204 -0.798,0 -1.218,-0.432 -0.414,-0.438 -0.414,-1.152 v -2.76 h 0.54 v 2.778 q 0,0.522 0.276,0.81 0.282,0.288 0.846,0.288 0.582,0 0.84,-0.306 0.264,-0.312 0.264,-0.798 v -2.772 h 0.534 z"
     id="text34"
     style="font-size:6px;font-family:'Nunito Sans', sans-serif;text-anchor:middle;fill:#5a7350"
     aria-label="THRU" />
  <path
     d="m 217.264,362.852 q 0,0.666 -0.228,1.164 -0.222,0.492 -0.66,0.768 -0.438,0.276 -1.086,0.276 -0.666,0 -1.11,-0.276 -0.438,-0.276 -0.654,-0.774 -0.216,-0.498 -0.216,-1.164 0,-0.66 0.216,-1.152 0.216,-0.492 0.654,-0.768 0.444,-0.276 1.116,-0.276 0.642,0 1.08,0.276 0.438,0.27 0.66,0.768 0.228,0.492 0.228,1.158 z m -3.384,0 q 0,0.81 0.342,1.278 0.342,0.462 1.068,0.462 0.732,0 1.068,-0.462 0.336,-0.468 0.336,-1.278 0,-0.81 -0.336,-1.266 -0.336,-0.462 -1.062,-0.462 -0.726,0 -1.074,0.462 -0.342,0.456 -0.342,1.266 z m 7.59,0.636 q 0,0.444 -0.18,0.804 -0.18,0.354 -0.552,0.564 -0.366,0.204 -0.936,0.204 -0.798,0 -1.218,-0.432 -0.414,-0.438 -0.414,-1.152 v -2.76 h 0.54 v 2.778 q 0,0.522 0.276,0.81 0.282,0.288 0.846,0.288 0.582,0 0.84,-0.306 0.264,-0.312 0.264,-0.798 v -2.772 h 0.534 z m 2.484,1.512 h -0.54 v -3.81 h -1.338 v -0.474 h 3.21 v 0.474 h -1.332 z m 3.54,0 v -4.284 h 0.54 v 3.804 h 1.872 V 365 Z"
     id="text35"
     style="font-size:6px;font-family:'Nunito Sans', sans-serif;text-anchor:middle;fill:#c8c0b0"
     aria-label="OUT L" />
  <path
     d="m 281.86999,362.852 q 0,0.666 -0.228,1.164 -0.222,0.492 -0.66,0.768 -0.438,0.276 -1.086,0.276 -0.666,0 -1.11,-0.276 -0.438,-0.276 -0.654,-0.774 -0.216,-0.498 -0.216,-1.164 0,-0.66 0.216,-1.152 0.216,-0.492 0.654,-0.768 0.444,-0.276 1.116,-0.276 0.642,0 1.08,0.276 0.438,0.27 0.66,0.768 0.228,0.492 0.228,1.158 z m -3.384,0 q 0,0.81 0.342,1.278 0.342,0.462 1.068,0.462 0.732,0 1.068,-0.462 0.336,-0.468 0.336,-1.278 0,-0.81 -0.336,-1.266 -0.336,-0.462 -1.062,-0.462 -0.726,0 -1.074,0.462 -0.342,0.456 -0.342,1.266 z m 7.59,0.636 q 0,0.444 -0.18,0.804 -0.18,0.354 -0.552,0.564 -0.366,0.204 -0.936,0.204 -0.798,0 -1.218,-0.432 -0.414,-0.438 -0.414,-1.152 v -2.76 h 0.54 v 2.778 q 0,0.522 0.276,0.81 0.282,0.288 0.846,0.288 0.582,0 0.84,-0.306 0.264,-0.312 0.264,-0.798 v -2.772 h 0.534 z M 288.56,365 h -0.54 v -3.81 h -1.338 v -0.474 h 3.21 v 0.474 h -1.332 z m 4.722,-4.284 q 0.798,0 1.176,0.306 0.384,0.3 0.384,0.912 0,0.342 -0.126,0.57 -0.126,0.228 -0.324,0.366 -0.192,0.132 -0.408,0.21 l 1.176,1.92 h -0.63 l -1.038,-1.77 H 292.64 V 365 h -0.54 v -4.284 z m -0.03,0.468 h -0.612 v 1.59 h 0.642 q 0.522,0 0.762,-0.204 0.24,-0.21 0.24,-0.612 0,-0.42 -0.252,-0.594 -0.252,-0.18 -0.78,-0.18 z"
     id="text36"
     style="font-size:6px;font-family:'Nunito Sans', sans-serif;text-anchor:middle;fill:#c8c0b0"
     aria-label="OUT R" />
  <!-- Corner screw holes -->
  <circle
     cx="22.5"
     cy="7.5"
     r="4"
     fill="#2A3A2A"
     stroke="#3A4A3A"
     stroke-width="0.75"
     id="circle36" />
  <circle
     cx="307.5"
     cy="7.5"
     r="4"
     fill="#2A3A2A"
     stroke="#3A4A3A"
     stroke-width="0.75"
     id="circle37" />
  <circle
     cx="22.5"
     cy="372.5"
     r="4"
     fill="#2A3A2A"
     stroke="#3A4A3A"
     stroke-width="0.75"
     id="circle38" />
  <circle
     cx="307.5"
     cy="372.5"
     r="4"
     fill="#2A3A2A"
     stroke="#3A4A3A"
     stroke-width="0.75"
     id="circle39" />
</svg>
